<?xml version="1.0" encoding="utf-8" standalone="no"?>
<!DOCTYPE svg PUBLIC "-//W3C//DTD SVG 1.1//EN"
  "http://www.w3.org/Graphics/SVG/1.1/DTD/svg11.dtd">
<!-- Created with matplotlib (http://matplotlib.org/) -->
<svg height="576pt" version="1.1" viewBox="0 0 864 576" width="864pt" xmlns="http://www.w3.org/2000/svg" xmlns:xlink="http://www.w3.org/1999/xlink">
 <defs>
  <style type="text/css">
*{stroke-linecap:butt;stroke-linejoin:round;}
  </style>
 </defs>
 <g id="figure_1">
  <g id="patch_1">
   <path d="M 0 576 
L 864 576 
L 864 0 
L 0 0 
z
" style="fill:#ffffff;"/>
  </g>
  <g id="axes_1">
   <g id="patch_2">
    <path d="M 56.03611 263.810709 
L 848.340709 263.810709 
L 848.340709 5.669291 
L 56.03611 5.669291 
z
" style="fill:#ffffff;"/>
   </g>
   <g id="matplotlib.axis_1">
    <g id="xtick_1">
     <g id="line2d_1">
      <path clip-path="url(#p86e709dc14)" d="M 78.459825 263.810709 
L 78.459825 5.669291 
" style="fill:none;opacity:0.1;stroke:#000000;stroke-linecap:square;stroke-width:0.5;"/>
     </g>
     <g id="line2d_2">
      <defs>
       <path d="M 0 0 
L 0 -3.5 
" id="m1759c4e872" style="stroke:#000000;stroke-width:0.8;"/>
      </defs>
      <g>
       <use style="stroke:#000000;stroke-width:0.8;" x="78.459825" xlink:href="#m1759c4e872" y="263.810709"/>
      </g>
     </g>
     <g id="text_1">
      <!-- 0.00 -->
      <defs>
       <path d="M 31.78125 66.40625 
Q 24.171875 66.40625 20.328125 58.90625 
Q 16.5 51.421875 16.5 36.375 
Q 16.5 21.390625 20.328125 13.890625 
Q 24.171875 6.390625 31.78125 6.390625 
Q 39.453125 6.390625 43.28125 13.890625 
Q 47.125 21.390625 47.125 36.375 
Q 47.125 51.421875 43.28125 58.90625 
Q 39.453125 66.40625 31.78125 66.40625 
z
M 31.78125 74.21875 
Q 44.046875 74.21875 50.515625 64.515625 
Q 56.984375 54.828125 56.984375 36.375 
Q 56.984375 17.96875 50.515625 8.265625 
Q 44.046875 -1.421875 31.78125 -1.421875 
Q 19.53125 -1.421875 13.0625 8.265625 
Q 6.59375 17.96875 6.59375 36.375 
Q 6.59375 54.828125 13.0625 64.515625 
Q 19.53125 74.21875 31.78125 74.21875 
z
" id="DejaVuSans-30"/>
       <path d="M 10.6875 12.40625 
L 21 12.40625 
L 21 0 
L 10.6875 0 
z
" id="DejaVuSans-2e"/>
      </defs>
      <g transform="translate(69.553575 273.389459)scale(0.08 -0.08)">
       <use xlink:href="#DejaVuSans-30"/>
       <use x="63.623047" xlink:href="#DejaVuSans-2e"/>
       <use x="95.410156" xlink:href="#DejaVuSans-30"/>
       <use x="159.033203" xlink:href="#DejaVuSans-30"/>
      </g>
     </g>
    </g>
    <g id="xtick_2">
     <g id="line2d_3">
      <path clip-path="url(#p86e709dc14)" d="M 265.324117 263.810709 
L 265.324117 5.669291 
" style="fill:none;opacity:0.1;stroke:#000000;stroke-linecap:square;stroke-width:0.5;"/>
     </g>
     <g id="line2d_4">
      <g>
       <use style="stroke:#000000;stroke-width:0.8;" x="265.324117" xlink:href="#m1759c4e872" y="263.810709"/>
      </g>
     </g>
     <g id="text_2">
      <!-- 0.25 -->
      <defs>
       <path d="M 19.1875 8.296875 
L 53.609375 8.296875 
L 53.609375 0 
L 7.328125 0 
L 7.328125 8.296875 
Q 12.9375 14.109375 22.625 23.890625 
Q 32.328125 33.6875 34.8125 36.53125 
Q 39.546875 41.84375 41.421875 45.53125 
Q 43.3125 49.21875 43.3125 52.78125 
Q 43.3125 58.59375 39.234375 62.25 
Q 35.15625 65.921875 28.609375 65.921875 
Q 23.96875 65.921875 18.8125 64.3125 
Q 13.671875 62.703125 7.8125 59.421875 
L 7.8125 69.390625 
Q 13.765625 71.78125 18.9375 73 
Q 24.125 74.21875 28.421875 74.21875 
Q 39.75 74.21875 46.484375 68.546875 
Q 53.21875 62.890625 53.21875 53.421875 
Q 53.21875 48.921875 51.53125 44.890625 
Q 49.859375 40.875 45.40625 35.40625 
Q 44.1875 33.984375 37.640625 27.21875 
Q 31.109375 20.453125 19.1875 8.296875 
z
" id="DejaVuSans-32"/>
       <path d="M 10.796875 72.90625 
L 49.515625 72.90625 
L 49.515625 64.59375 
L 19.828125 64.59375 
L 19.828125 46.734375 
Q 21.96875 47.46875 24.109375 47.828125 
Q 26.265625 48.1875 28.421875 48.1875 
Q 40.625 48.1875 47.75 41.5 
Q 54.890625 34.8125 54.890625 23.390625 
Q 54.890625 11.625 47.5625 5.09375 
Q 40.234375 -1.421875 26.90625 -1.421875 
Q 22.3125 -1.421875 17.546875 -0.640625 
Q 12.796875 0.140625 7.71875 1.703125 
L 7.71875 11.625 
Q 12.109375 9.234375 16.796875 8.0625 
Q 21.484375 6.890625 26.703125 6.890625 
Q 35.15625 6.890625 40.078125 11.328125 
Q 45.015625 15.765625 45.015625 23.390625 
Q 45.015625 31 40.078125 35.4375 
Q 35.15625 39.890625 26.703125 39.890625 
Q 22.75 39.890625 18.8125 39.015625 
Q 14.890625 38.140625 10.796875 36.28125 
z
" id="DejaVuSans-35"/>
      </defs>
      <g transform="translate(256.417867 273.389459)scale(0.08 -0.08)">
       <use xlink:href="#DejaVuSans-30"/>
       <use x="63.623047" xlink:href="#DejaVuSans-2e"/>
       <use x="95.410156" xlink:href="#DejaVuSans-32"/>
       <use x="159.033203" xlink:href="#DejaVuSans-35"/>
      </g>
     </g>
    </g>
    <g id="xtick_3">
     <g id="line2d_5">
      <path clip-path="url(#p86e709dc14)" d="M 452.188409 263.810709 
L 452.188409 5.669291 
" style="fill:none;opacity:0.1;stroke:#000000;stroke-linecap:square;stroke-width:0.5;"/>
     </g>
     <g id="line2d_6">
      <g>
       <use style="stroke:#000000;stroke-width:0.8;" x="452.188409" xlink:href="#m1759c4e872" y="263.810709"/>
      </g>
     </g>
     <g id="text_3">
      <!-- 0.50 -->
      <g transform="translate(443.282159 273.389459)scale(0.08 -0.08)">
       <use xlink:href="#DejaVuSans-30"/>
       <use x="63.623047" xlink:href="#DejaVuSans-2e"/>
       <use x="95.410156" xlink:href="#DejaVuSans-35"/>
       <use x="159.033203" xlink:href="#DejaVuSans-30"/>
      </g>
     </g>
    </g>
    <g id="xtick_4">
     <g id="line2d_7">
      <path clip-path="url(#p86e709dc14)" d="M 639.052701 263.810709 
L 639.052701 5.669291 
" style="fill:none;opacity:0.1;stroke:#000000;stroke-linecap:square;stroke-width:0.5;"/>
     </g>
     <g id="line2d_8">
      <g>
       <use style="stroke:#000000;stroke-width:0.8;" x="639.052701" xlink:href="#m1759c4e872" y="263.810709"/>
      </g>
     </g>
     <g id="text_4">
      <!-- 0.75 -->
      <defs>
       <path d="M 8.203125 72.90625 
L 55.078125 72.90625 
L 55.078125 68.703125 
L 28.609375 0 
L 18.3125 0 
L 43.21875 64.59375 
L 8.203125 64.59375 
z
" id="DejaVuSans-37"/>
      </defs>
      <g transform="translate(630.146451 273.389459)scale(0.08 -0.08)">
       <use xlink:href="#DejaVuSans-30"/>
       <use x="63.623047" xlink:href="#DejaVuSans-2e"/>
       <use x="95.410156" xlink:href="#DejaVuSans-37"/>
       <use x="159.033203" xlink:href="#DejaVuSans-35"/>
      </g>
     </g>
    </g>
    <g id="xtick_5">
     <g id="line2d_9">
      <path clip-path="url(#p86e709dc14)" d="M 825.916994 263.810709 
L 825.916994 5.669291 
" style="fill:none;opacity:0.1;stroke:#000000;stroke-linecap:square;stroke-width:0.5;"/>
     </g>
     <g id="line2d_10">
      <g>
       <use style="stroke:#000000;stroke-width:0.8;" x="825.916994" xlink:href="#m1759c4e872" y="263.810709"/>
      </g>
     </g>
     <g id="text_5">
      <!-- 1.00 -->
      <defs>
       <path d="M 12.40625 8.296875 
L 28.515625 8.296875 
L 28.515625 63.921875 
L 10.984375 60.40625 
L 10.984375 69.390625 
L 28.421875 72.90625 
L 38.28125 72.90625 
L 38.28125 8.296875 
L 54.390625 8.296875 
L 54.390625 0 
L 12.40625 0 
z
" id="DejaVuSans-31"/>
      </defs>
      <g transform="translate(817.010744 273.389459)scale(0.08 -0.08)">
       <use xlink:href="#DejaVuSans-31"/>
       <use x="63.623047" xlink:href="#DejaVuSans-2e"/>
       <use x="95.410156" xlink:href="#DejaVuSans-30"/>
       <use x="159.033203" xlink:href="#DejaVuSans-30"/>
      </g>
     </g>
    </g>
   </g>
   <g id="matplotlib.axis_2">
    <g id="ytick_1">
     <g id="line2d_11">
      <path clip-path="url(#p86e709dc14)" d="M 56.03611 256.504819 
L 848.340709 256.504819 
" style="fill:none;opacity:0.1;stroke:#000000;stroke-linecap:square;stroke-width:0.5;"/>
     </g>
     <g id="line2d_12">
      <defs>
       <path d="M 0 0 
L 3.5 0 
" id="m0d54784038" style="stroke:#000000;stroke-width:0.8;"/>
      </defs>
      <g>
       <use style="stroke:#000000;stroke-width:0.8;" x="56.03611" xlink:href="#m0d54784038" y="256.504819"/>
      </g>
     </g>
     <g id="text_6">
      <!-- 0.00 -->
      <g transform="translate(34.72361 259.544194)scale(0.08 -0.08)">
       <use xlink:href="#DejaVuSans-30"/>
       <use x="63.623047" xlink:href="#DejaVuSans-2e"/>
       <use x="95.410156" xlink:href="#DejaVuSans-30"/>
       <use x="159.033203" xlink:href="#DejaVuSans-30"/>
      </g>
     </g>
    </g>
    <g id="ytick_2">
     <g id="line2d_13">
      <path clip-path="url(#p86e709dc14)" d="M 56.03611 174.313505 
L 848.340709 174.313505 
" style="fill:none;opacity:0.1;stroke:#000000;stroke-linecap:square;stroke-width:0.5;"/>
     </g>
     <g id="line2d_14">
      <g>
       <use style="stroke:#000000;stroke-width:0.8;" x="56.03611" xlink:href="#m0d54784038" y="174.313505"/>
      </g>
     </g>
     <g id="text_7">
      <!-- 0.05 -->
      <g transform="translate(34.72361 177.35288)scale(0.08 -0.08)">
       <use xlink:href="#DejaVuSans-30"/>
       <use x="63.623047" xlink:href="#DejaVuSans-2e"/>
       <use x="95.410156" xlink:href="#DejaVuSans-30"/>
       <use x="159.033203" xlink:href="#DejaVuSans-35"/>
      </g>
     </g>
    </g>
    <g id="ytick_3">
     <g id="line2d_15">
      <path clip-path="url(#p86e709dc14)" d="M 56.03611 92.12219 
L 848.340709 92.12219 
" style="fill:none;opacity:0.1;stroke:#000000;stroke-linecap:square;stroke-width:0.5;"/>
     </g>
     <g id="line2d_16">
      <g>
       <use style="stroke:#000000;stroke-width:0.8;" x="56.03611" xlink:href="#m0d54784038" y="92.12219"/>
      </g>
     </g>
     <g id="text_8">
      <!-- 0.10 -->
      <g transform="translate(34.72361 95.161565)scale(0.08 -0.08)">
       <use xlink:href="#DejaVuSans-30"/>
       <use x="63.623047" xlink:href="#DejaVuSans-2e"/>
       <use x="95.410156" xlink:href="#DejaVuSans-31"/>
       <use x="159.033203" xlink:href="#DejaVuSans-30"/>
      </g>
     </g>
    </g>
    <g id="ytick_4">
     <g id="line2d_17">
      <path clip-path="url(#p86e709dc14)" d="M 56.03611 9.930875 
L 848.340709 9.930875 
" style="fill:none;opacity:0.1;stroke:#000000;stroke-linecap:square;stroke-width:0.5;"/>
     </g>
     <g id="line2d_18">
      <g>
       <use style="stroke:#000000;stroke-width:0.8;" x="56.03611" xlink:href="#m0d54784038" y="9.930875"/>
      </g>
     </g>
     <g id="text_9">
      <!-- 0.15 -->
      <g transform="translate(34.72361 12.97025)scale(0.08 -0.08)">
       <use xlink:href="#DejaVuSans-30"/>
       <use x="63.623047" xlink:href="#DejaVuSans-2e"/>
       <use x="95.410156" xlink:href="#DejaVuSans-31"/>
       <use x="159.033203" xlink:href="#DejaVuSans-35"/>
      </g>
     </g>
    </g>
   </g>
   <g id="line2d_19">
    <path clip-path="url(#p86e709dc14)" d="M 78.459825 256.504819 
L 85.186939 241.975484 
L 91.914054 227.971559 
L 98.641168 214.485853 
L 105.368283 201.511176 
L 112.095397 189.040339 
L 118.822512 177.066151 
L 125.549626 165.581422 
L 132.276741 154.578962 
L 138.256398 145.198053 
L 144.236055 136.187465 
L 150.215713 127.542149 
L 156.19537 119.257054 
L 162.175028 111.327131 
L 168.154685 103.747329 
L 174.134342 96.5126 
L 180.114 89.617893 
L 186.093657 83.058158 
L 192.073314 76.828346 
L 198.052972 70.923406 
L 204.032629 65.338289 
L 210.012286 60.067945 
L 215.991944 55.107325 
L 221.971601 50.451377 
L 227.951258 46.095054 
L 233.930916 42.033303 
L 239.910573 38.261077 
L 245.89023 34.773325 
L 251.869888 31.564997 
L 257.849545 28.631043 
L 263.829202 25.966414 
L 269.80886 23.566059 
L 275.788517 21.424929 
L 281.768175 19.537975 
L 287.747832 17.900145 
L 293.727489 16.506391 
L 299.707147 15.351662 
L 305.686804 14.430909 
L 311.666461 13.739081 
L 317.646119 13.27113 
L 323.625776 13.022005 
L 329.605433 12.986656 
L 335.585091 13.160034 
L 341.564748 13.537088 
L 348.291863 14.198444 
L 355.018977 15.103996 
L 361.746092 16.246556 
L 368.473206 17.618932 
L 375.200321 19.213935 
L 381.927435 21.024375 
L 389.402007 23.279902 
L 396.876579 25.78266 
L 404.35115 28.522787 
L 411.825722 31.49042 
L 420.047751 35.005813 
L 428.26978 38.771426 
L 436.491809 42.774132 
L 445.461295 47.395697 
L 454.430781 52.266755 
L 464.147724 57.805514 
L 473.864667 63.595411 
L 484.329067 70.086687 
L 495.540925 77.306199 
L 507.50024 85.271997 
L 520.954469 94.511182 
L 535.903612 105.05429 
L 554.590041 118.527213 
L 587.478157 142.588905 
L 612.144243 160.501511 
L 628.588301 172.182685 
L 642.789987 182.008461 
L 655.496759 190.535361 
L 667.456074 198.287278 
L 678.667931 205.27723 
L 689.132332 211.528889 
L 698.849275 217.074358 
L 707.818761 221.952104 
L 716.788247 226.580829 
L 725.010276 230.590514 
L 733.232305 234.363505 
L 741.454333 237.886674 
L 748.928905 240.86172 
L 756.403477 243.609589 
L 763.878049 246.120419 
L 771.35262 248.384346 
L 778.079735 250.202626 
L 784.806849 251.805737 
L 791.533964 253.186487 
L 798.261078 254.337686 
L 804.988193 255.252145 
L 811.715307 255.922673 
L 817.694965 256.308104 
L 823.674622 256.490069 
L 825.916994 256.504819 
L 825.916994 256.504819 
" style="fill:none;stroke:#009afa;stroke-linecap:round;"/>
   </g>
   <g id="line2d_20">
    <path clip-path="url(#p86e709dc14)" d="M 78.459825 256.504819 
L 85.186939 241.975484 
L 91.914054 227.971559 
L 98.641168 214.485853 
L 105.368283 201.511176 
L 112.095397 189.040339 
L 118.822512 177.066151 
L 125.549626 165.581422 
L 132.276741 154.578962 
L 138.256398 145.198053 
L 144.236055 136.187465 
L 150.215713 127.542149 
L 156.19537 119.257054 
L 162.175028 111.327131 
L 168.154685 103.747329 
L 174.134342 96.5126 
L 180.114 89.617893 
L 186.093657 83.058158 
L 192.073314 76.828346 
L 198.052972 70.923406 
L 204.032629 65.338289 
L 210.012286 60.067945 
L 215.991944 55.107325 
L 221.971601 50.451377 
L 227.951258 46.095054 
L 233.930916 42.033303 
L 239.910573 38.261077 
L 245.89023 34.773325 
L 251.869888 31.564997 
L 257.849545 28.631043 
L 263.829202 25.966414 
L 269.80886 23.566059 
L 275.788517 21.424929 
L 281.768175 19.537975 
L 287.747832 17.900145 
L 293.727489 16.506391 
L 299.707147 15.351662 
L 305.686804 14.430909 
L 311.666461 13.739081 
L 317.646119 13.27113 
L 323.625776 13.022005 
L 329.605433 12.986656 
L 335.585091 13.160034 
L 341.564748 13.537088 
L 348.291863 14.198444 
L 355.018977 15.103996 
L 361.746092 16.246556 
L 368.473206 17.618932 
L 375.200321 19.213935 
L 381.927435 21.024375 
L 389.402007 23.279902 
L 396.876579 25.78266 
L 404.35115 28.522787 
L 411.825722 31.49042 
L 420.047751 35.005813 
L 428.26978 38.771426 
L 436.491809 42.774132 
L 445.461295 47.395697 
L 454.430781 52.266755 
L 464.147724 57.805514 
L 473.864667 63.595411 
L 484.329067 70.086687 
L 495.540925 77.306199 
L 507.50024 85.271997 
L 520.954469 94.511182 
L 535.903612 105.05429 
L 554.590041 118.527213 
L 587.478157 142.588905 
L 612.144243 160.501511 
L 628.588301 172.182685 
L 642.789987 182.008461 
L 655.496759 190.535361 
L 667.456074 198.287278 
L 678.667931 205.27723 
L 689.132332 211.528889 
L 698.849275 217.074358 
L 707.818761 221.952104 
L 716.788247 226.580829 
L 725.010276 230.590514 
L 733.232305 234.363505 
L 741.454333 237.886674 
L 748.928905 240.86172 
L 756.403477 243.609589 
L 763.878049 246.120419 
L 771.35262 248.384346 
L 778.079735 250.202626 
L 784.806849 251.805737 
L 791.533964 253.186487 
L 798.261078 254.337686 
L 804.988193 255.252145 
L 811.715307 255.922673 
L 817.694965 256.308104 
L 823.674622 256.490069 
L 825.916994 256.504819 
L 825.916994 256.504819 
" style="fill:none;stroke:#e36f47;stroke-dasharray:3.7,1.6;stroke-dashoffset:0;"/>
   </g>
   <g id="patch_3">
    <path d="M 56.03611 263.810709 
L 56.03611 5.669291 
" style="fill:none;stroke:#000000;stroke-linecap:square;stroke-linejoin:miter;stroke-width:0.8;"/>
   </g>
   <g id="patch_4">
    <path d="M 56.03611 263.810709 
L 848.340709 263.810709 
" style="fill:none;stroke:#000000;stroke-linecap:square;stroke-linejoin:miter;stroke-width:0.8;"/>
   </g>
   <g id="line2d_21">
    <path clip-path="url(#p86e709dc14)" d="M 78.459825 256.504819 
L 81.467072 255.969212 
L 88.222592 254.287173 
L 97.971262 251.586775 
L 109.655736 248.4426 
L 122.00963 245.634777 
L 133.694105 243.915398 
L 143.442774 243.870893 
L 150.198294 245.978154 
L 153.205541 250.228072 
L 156.212789 245.297808 
L 162.968309 241.001433 
L 172.716978 237.374957 
L 184.401453 234.54165 
L 196.755347 232.915968 
L 208.439821 232.931351 
L 218.188491 234.963557 
L 224.944011 239.502528 
L 227.951258 246.586008 
L 230.958506 239.156946 
L 237.714026 233.505671 
L 247.462695 229.605745 
L 259.14717 227.266313 
L 271.501064 226.61416 
L 283.185538 227.820303 
L 292.934208 231.073539 
L 299.689727 236.817012 
L 302.696975 245.113684 
L 305.704223 236.741403 
L 312.459743 230.75402 
L 322.208412 227.087306 
L 333.892887 225.354402 
L 346.246781 225.467163 
L 357.931255 227.390422 
L 367.679925 231.154973 
L 374.435444 237.116384 
L 377.442692 245.346157 
L 380.44994 237.245953 
L 387.20546 231.700612 
L 396.954129 228.627808 
L 408.638604 227.543726 
L 420.992498 228.21279 
L 432.676972 230.449875 
L 442.425642 234.16199 
L 449.181161 239.595417 
L 452.188409 246.81848 
L 455.195657 239.865371 
L 461.951176 235.299579 
L 471.699846 233.035417 
L 483.38432 232.572099 
L 495.738215 233.588851 
L 507.422689 235.806828 
L 517.171359 239.048723 
L 523.926878 243.448888 
L 526.934126 249.065711 
L 529.941374 243.794434 
L 536.696893 240.505055 
L 546.445563 239.118302 
L 558.130037 239.177332 
L 570.483932 240.333159 
L 582.168406 242.269451 
L 591.917076 244.769305 
L 598.672595 247.871572 
L 601.679843 251.622904 
L 604.687091 248.227917 
L 611.44261 246.271172 
L 621.19128 245.684628 
L 632.875754 246.097236 
L 645.229648 247.183526 
L 656.914123 248.645908 
L 666.662792 250.277869 
L 673.418312 252.058244 
L 676.42556 254.025117 
L 679.432808 252.360595 
L 686.188327 251.552062 
L 695.936997 251.542564 
L 707.621471 252.069623 
L 719.975365 252.877762 
L 731.65984 253.744369 
L 741.408509 254.528546 
L 748.164029 255.20368 
L 751.171277 255.807403 
L 754.178525 255.387244 
L 760.934044 255.301859 
L 770.682714 255.500277 
L 782.367188 255.832305 
L 794.721082 256.153679 
L 806.405557 256.372999 
L 816.154226 256.475471 
L 822.909746 256.502656 
L 825.916994 256.504819 
" style="fill:none;stroke:#3ea44e;stroke-linecap:round;"/>
   </g>
   <g id="PathCollection_1">
    <defs>
     <path d="M 0 2 
C 0.530406 2 1.03916 1.789267 1.414214 1.414214 
C 1.789267 1.03916 2 0.530406 2 0 
C 2 -0.530406 1.789267 -1.03916 1.414214 -1.414214 
C 1.03916 -1.789267 0.530406 -2 0 -2 
C -0.530406 -2 -1.03916 -1.789267 -1.414214 -1.414214 
C -1.789267 -1.03916 -2 -0.530406 -2 0 
C -2 0.530406 -1.789267 1.03916 -1.414214 1.414214 
C -1.03916 1.789267 -0.530406 2 0 2 
z
" id="m4f74e92f89" style="stroke:#000000;"/>
    </defs>
    <g clip-path="url(#p86e709dc14)">
     <use style="fill:#3ea44e;stroke:#000000;" x="78.459825" xlink:href="#m4f74e92f89" y="256.504819"/>
     <use style="fill:#3ea44e;stroke:#000000;" x="81.467072" xlink:href="#m4f74e92f89" y="255.969212"/>
     <use style="fill:#3ea44e;stroke:#000000;" x="88.222592" xlink:href="#m4f74e92f89" y="254.287173"/>
     <use style="fill:#3ea44e;stroke:#000000;" x="97.971262" xlink:href="#m4f74e92f89" y="251.586775"/>
     <use style="fill:#3ea44e;stroke:#000000;" x="109.655736" xlink:href="#m4f74e92f89" y="248.4426"/>
     <use style="fill:#3ea44e;stroke:#000000;" x="122.00963" xlink:href="#m4f74e92f89" y="245.634777"/>
     <use style="fill:#3ea44e;stroke:#000000;" x="133.694105" xlink:href="#m4f74e92f89" y="243.915398"/>
     <use style="fill:#3ea44e;stroke:#000000;" x="143.442774" xlink:href="#m4f74e92f89" y="243.870893"/>
     <use style="fill:#3ea44e;stroke:#000000;" x="150.198294" xlink:href="#m4f74e92f89" y="245.978154"/>
     <use style="fill:#3ea44e;stroke:#000000;" x="153.205541" xlink:href="#m4f74e92f89" y="250.228072"/>
     <use style="fill:#3ea44e;stroke:#000000;" x="156.212789" xlink:href="#m4f74e92f89" y="245.297808"/>
     <use style="fill:#3ea44e;stroke:#000000;" x="162.968309" xlink:href="#m4f74e92f89" y="241.001433"/>
     <use style="fill:#3ea44e;stroke:#000000;" x="172.716978" xlink:href="#m4f74e92f89" y="237.374957"/>
     <use style="fill:#3ea44e;stroke:#000000;" x="184.401453" xlink:href="#m4f74e92f89" y="234.54165"/>
     <use style="fill:#3ea44e;stroke:#000000;" x="196.755347" xlink:href="#m4f74e92f89" y="232.915968"/>
     <use style="fill:#3ea44e;stroke:#000000;" x="208.439821" xlink:href="#m4f74e92f89" y="232.931351"/>
     <use style="fill:#3ea44e;stroke:#000000;" x="218.188491" xlink:href="#m4f74e92f89" y="234.963557"/>
     <use style="fill:#3ea44e;stroke:#000000;" x="224.944011" xlink:href="#m4f74e92f89" y="239.502528"/>
     <use style="fill:#3ea44e;stroke:#000000;" x="227.951258" xlink:href="#m4f74e92f89" y="246.586008"/>
     <use style="fill:#3ea44e;stroke:#000000;" x="230.958506" xlink:href="#m4f74e92f89" y="239.156946"/>
     <use style="fill:#3ea44e;stroke:#000000;" x="237.714026" xlink:href="#m4f74e92f89" y="233.505671"/>
     <use style="fill:#3ea44e;stroke:#000000;" x="247.462695" xlink:href="#m4f74e92f89" y="229.605745"/>
     <use style="fill:#3ea44e;stroke:#000000;" x="259.14717" xlink:href="#m4f74e92f89" y="227.266313"/>
     <use style="fill:#3ea44e;stroke:#000000;" x="271.501064" xlink:href="#m4f74e92f89" y="226.61416"/>
     <use style="fill:#3ea44e;stroke:#000000;" x="283.185538" xlink:href="#m4f74e92f89" y="227.820303"/>
     <use style="fill:#3ea44e;stroke:#000000;" x="292.934208" xlink:href="#m4f74e92f89" y="231.073539"/>
     <use style="fill:#3ea44e;stroke:#000000;" x="299.689727" xlink:href="#m4f74e92f89" y="236.817012"/>
     <use style="fill:#3ea44e;stroke:#000000;" x="302.696975" xlink:href="#m4f74e92f89" y="245.113684"/>
     <use style="fill:#3ea44e;stroke:#000000;" x="305.704223" xlink:href="#m4f74e92f89" y="236.741403"/>
     <use style="fill:#3ea44e;stroke:#000000;" x="312.459743" xlink:href="#m4f74e92f89" y="230.75402"/>
     <use style="fill:#3ea44e;stroke:#000000;" x="322.208412" xlink:href="#m4f74e92f89" y="227.087306"/>
     <use style="fill:#3ea44e;stroke:#000000;" x="333.892887" xlink:href="#m4f74e92f89" y="225.354402"/>
     <use style="fill:#3ea44e;stroke:#000000;" x="346.246781" xlink:href="#m4f74e92f89" y="225.467163"/>
     <use style="fill:#3ea44e;stroke:#000000;" x="357.931255" xlink:href="#m4f74e92f89" y="227.390422"/>
     <use style="fill:#3ea44e;stroke:#000000;" x="367.679925" xlink:href="#m4f74e92f89" y="231.154973"/>
     <use style="fill:#3ea44e;stroke:#000000;" x="374.435444" xlink:href="#m4f74e92f89" y="237.116384"/>
     <use style="fill:#3ea44e;stroke:#000000;" x="377.442692" xlink:href="#m4f74e92f89" y="245.346157"/>
     <use style="fill:#3ea44e;stroke:#000000;" x="380.44994" xlink:href="#m4f74e92f89" y="237.245953"/>
     <use style="fill:#3ea44e;stroke:#000000;" x="387.20546" xlink:href="#m4f74e92f89" y="231.700612"/>
     <use style="fill:#3ea44e;stroke:#000000;" x="396.954129" xlink:href="#m4f74e92f89" y="228.627808"/>
     <use style="fill:#3ea44e;stroke:#000000;" x="408.638604" xlink:href="#m4f74e92f89" y="227.543726"/>
     <use style="fill:#3ea44e;stroke:#000000;" x="420.992498" xlink:href="#m4f74e92f89" y="228.21279"/>
     <use style="fill:#3ea44e;stroke:#000000;" x="432.676972" xlink:href="#m4f74e92f89" y="230.449875"/>
     <use style="fill:#3ea44e;stroke:#000000;" x="442.425642" xlink:href="#m4f74e92f89" y="234.16199"/>
     <use style="fill:#3ea44e;stroke:#000000;" x="449.181161" xlink:href="#m4f74e92f89" y="239.595417"/>
     <use style="fill:#3ea44e;stroke:#000000;" x="452.188409" xlink:href="#m4f74e92f89" y="246.81848"/>
     <use style="fill:#3ea44e;stroke:#000000;" x="455.195657" xlink:href="#m4f74e92f89" y="239.865371"/>
     <use style="fill:#3ea44e;stroke:#000000;" x="461.951176" xlink:href="#m4f74e92f89" y="235.299579"/>
     <use style="fill:#3ea44e;stroke:#000000;" x="471.699846" xlink:href="#m4f74e92f89" y="233.035417"/>
     <use style="fill:#3ea44e;stroke:#000000;" x="483.38432" xlink:href="#m4f74e92f89" y="232.572099"/>
     <use style="fill:#3ea44e;stroke:#000000;" x="495.738215" xlink:href="#m4f74e92f89" y="233.588851"/>
     <use style="fill:#3ea44e;stroke:#000000;" x="507.422689" xlink:href="#m4f74e92f89" y="235.806828"/>
     <use style="fill:#3ea44e;stroke:#000000;" x="517.171359" xlink:href="#m4f74e92f89" y="239.048723"/>
     <use style="fill:#3ea44e;stroke:#000000;" x="523.926878" xlink:href="#m4f74e92f89" y="243.448888"/>
     <use style="fill:#3ea44e;stroke:#000000;" x="526.934126" xlink:href="#m4f74e92f89" y="249.065711"/>
     <use style="fill:#3ea44e;stroke:#000000;" x="529.941374" xlink:href="#m4f74e92f89" y="243.794434"/>
     <use style="fill:#3ea44e;stroke:#000000;" x="536.696893" xlink:href="#m4f74e92f89" y="240.505055"/>
     <use style="fill:#3ea44e;stroke:#000000;" x="546.445563" xlink:href="#m4f74e92f89" y="239.118302"/>
     <use style="fill:#3ea44e;stroke:#000000;" x="558.130037" xlink:href="#m4f74e92f89" y="239.177332"/>
     <use style="fill:#3ea44e;stroke:#000000;" x="570.483932" xlink:href="#m4f74e92f89" y="240.333159"/>
     <use style="fill:#3ea44e;stroke:#000000;" x="582.168406" xlink:href="#m4f74e92f89" y="242.269451"/>
     <use style="fill:#3ea44e;stroke:#000000;" x="591.917076" xlink:href="#m4f74e92f89" y="244.769305"/>
     <use style="fill:#3ea44e;stroke:#000000;" x="598.672595" xlink:href="#m4f74e92f89" y="247.871572"/>
     <use style="fill:#3ea44e;stroke:#000000;" x="601.679843" xlink:href="#m4f74e92f89" y="251.622904"/>
     <use style="fill:#3ea44e;stroke:#000000;" x="604.687091" xlink:href="#m4f74e92f89" y="248.227917"/>
     <use style="fill:#3ea44e;stroke:#000000;" x="611.44261" xlink:href="#m4f74e92f89" y="246.271172"/>
     <use style="fill:#3ea44e;stroke:#000000;" x="621.19128" xlink:href="#m4f74e92f89" y="245.684628"/>
     <use style="fill:#3ea44e;stroke:#000000;" x="632.875754" xlink:href="#m4f74e92f89" y="246.097236"/>
     <use style="fill:#3ea44e;stroke:#000000;" x="645.229648" xlink:href="#m4f74e92f89" y="247.183526"/>
     <use style="fill:#3ea44e;stroke:#000000;" x="656.914123" xlink:href="#m4f74e92f89" y="248.645908"/>
     <use style="fill:#3ea44e;stroke:#000000;" x="666.662792" xlink:href="#m4f74e92f89" y="250.277869"/>
     <use style="fill:#3ea44e;stroke:#000000;" x="673.418312" xlink:href="#m4f74e92f89" y="252.058244"/>
     <use style="fill:#3ea44e;stroke:#000000;" x="676.42556" xlink:href="#m4f74e92f89" y="254.025117"/>
     <use style="fill:#3ea44e;stroke:#000000;" x="679.432808" xlink:href="#m4f74e92f89" y="252.360595"/>
     <use style="fill:#3ea44e;stroke:#000000;" x="686.188327" xlink:href="#m4f74e92f89" y="251.552062"/>
     <use style="fill:#3ea44e;stroke:#000000;" x="695.936997" xlink:href="#m4f74e92f89" y="251.542564"/>
     <use style="fill:#3ea44e;stroke:#000000;" x="707.621471" xlink:href="#m4f74e92f89" y="252.069623"/>
     <use style="fill:#3ea44e;stroke:#000000;" x="719.975365" xlink:href="#m4f74e92f89" y="252.877762"/>
     <use style="fill:#3ea44e;stroke:#000000;" x="731.65984" xlink:href="#m4f74e92f89" y="253.744369"/>
     <use style="fill:#3ea44e;stroke:#000000;" x="741.408509" xlink:href="#m4f74e92f89" y="254.528546"/>
     <use style="fill:#3ea44e;stroke:#000000;" x="748.164029" xlink:href="#m4f74e92f89" y="255.20368"/>
     <use style="fill:#3ea44e;stroke:#000000;" x="751.171277" xlink:href="#m4f74e92f89" y="255.807403"/>
     <use style="fill:#3ea44e;stroke:#000000;" x="754.178525" xlink:href="#m4f74e92f89" y="255.387244"/>
     <use style="fill:#3ea44e;stroke:#000000;" x="760.934044" xlink:href="#m4f74e92f89" y="255.301859"/>
     <use style="fill:#3ea44e;stroke:#000000;" x="770.682714" xlink:href="#m4f74e92f89" y="255.500277"/>
     <use style="fill:#3ea44e;stroke:#000000;" x="782.367188" xlink:href="#m4f74e92f89" y="255.832305"/>
     <use style="fill:#3ea44e;stroke:#000000;" x="794.721082" xlink:href="#m4f74e92f89" y="256.153679"/>
     <use style="fill:#3ea44e;stroke:#000000;" x="806.405557" xlink:href="#m4f74e92f89" y="256.372999"/>
     <use style="fill:#3ea44e;stroke:#000000;" x="816.154226" xlink:href="#m4f74e92f89" y="256.475471"/>
     <use style="fill:#3ea44e;stroke:#000000;" x="822.909746" xlink:href="#m4f74e92f89" y="256.502656"/>
     <use style="fill:#3ea44e;stroke:#000000;" x="825.916994" xlink:href="#m4f74e92f89" y="256.504819"/>
    </g>
   </g>
   <g id="legend_1">
    <g id="patch_5">
     <path d="M 727.413209 47.296791 
L 842.740709 47.296791 
Q 844.340709 47.296791 844.340709 45.696791 
L 844.340709 11.269291 
Q 844.340709 9.669291 842.740709 9.669291 
L 727.413209 9.669291 
Q 725.813209 9.669291 725.813209 11.269291 
L 725.813209 45.696791 
Q 725.813209 47.296791 727.413209 47.296791 
z
" style="fill:#ffffff;opacity:0.8;stroke:#000000;stroke-linejoin:miter;"/>
    </g>
    <g id="line2d_22">
     <path d="M 729.013209 16.148041 
L 745.013209 16.148041 
" style="fill:none;stroke:#009afa;stroke-linecap:square;"/>
    </g>
    <g id="line2d_23"/>
    <g id="text_10">
     <!-- $f(x)$ -->
     <defs>
      <path d="M 47.796875 75.984375 
L 46.390625 68.5 
L 37.796875 68.5 
Q 32.90625 68.5 30.6875 66.578125 
Q 28.46875 64.65625 27.390625 59.515625 
L 26.421875 54.6875 
L 41.21875 54.6875 
L 39.890625 47.703125 
L 25.09375 47.703125 
L 15.828125 0 
L 6.78125 0 
L 16.109375 47.703125 
L 7.515625 47.703125 
L 8.796875 54.6875 
L 17.390625 54.6875 
L 18.109375 58.5 
Q 19.96875 68.171875 24.625 72.078125 
Q 29.296875 75.984375 39.3125 75.984375 
z
" id="DejaVuSans-Oblique-66"/>
      <path d="M 31 75.875 
Q 24.46875 64.65625 21.28125 53.65625 
Q 18.109375 42.671875 18.109375 31.390625 
Q 18.109375 20.125 21.3125 9.0625 
Q 24.515625 -2 31 -13.1875 
L 23.1875 -13.1875 
Q 15.875 -1.703125 12.234375 9.375 
Q 8.59375 20.453125 8.59375 31.390625 
Q 8.59375 42.28125 12.203125 53.3125 
Q 15.828125 64.359375 23.1875 75.875 
z
" id="DejaVuSans-28"/>
      <path d="M 60.015625 54.6875 
L 34.90625 27.875 
L 50.296875 0 
L 39.984375 0 
L 28.421875 21.6875 
L 8.296875 0 
L -2.59375 0 
L 24.3125 28.8125 
L 10.015625 54.6875 
L 20.3125 54.6875 
L 30.8125 34.90625 
L 49.125 54.6875 
z
" id="DejaVuSans-Oblique-78"/>
      <path d="M 8.015625 75.875 
L 15.828125 75.875 
Q 23.140625 64.359375 26.78125 53.3125 
Q 30.421875 42.28125 30.421875 31.390625 
Q 30.421875 20.453125 26.78125 9.375 
Q 23.140625 -1.703125 15.828125 -13.1875 
L 8.015625 -13.1875 
Q 14.5 -2 17.703125 9.0625 
Q 20.90625 20.125 20.90625 31.390625 
Q 20.90625 42.671875 17.703125 53.65625 
Q 14.5 64.65625 8.015625 75.875 
z
" id="DejaVuSans-29"/>
     </defs>
     <g transform="translate(751.413209 18.948041)scale(0.08 -0.08)">
      <use transform="translate(0 0.015625)" xlink:href="#DejaVuSans-Oblique-66"/>
      <use transform="translate(35.205078 0.015625)" xlink:href="#DejaVuSans-28"/>
      <use transform="translate(74.21875 0.015625)" xlink:href="#DejaVuSans-Oblique-78"/>
      <use transform="translate(133.398438 0.015625)" xlink:href="#DejaVuSans-29"/>
     </g>
    </g>
    <g id="line2d_24">
     <path d="M 729.013209 27.890541 
L 745.013209 27.890541 
" style="fill:none;stroke:#e36f47;stroke-dasharray:3.7,1.6;stroke-dashoffset:0;"/>
    </g>
    <g id="line2d_25"/>
    <g id="text_11">
     <!-- Reconstruction -->
     <defs>
      <path d="M 44.390625 34.1875 
Q 47.5625 33.109375 50.5625 29.59375 
Q 53.5625 26.078125 56.59375 19.921875 
L 66.609375 0 
L 56 0 
L 46.6875 18.703125 
Q 43.0625 26.03125 39.671875 28.421875 
Q 36.28125 30.8125 30.421875 30.8125 
L 19.671875 30.8125 
L 19.671875 0 
L 9.8125 0 
L 9.8125 72.90625 
L 32.078125 72.90625 
Q 44.578125 72.90625 50.734375 67.671875 
Q 56.890625 62.453125 56.890625 51.90625 
Q 56.890625 45.015625 53.6875 40.46875 
Q 50.484375 35.9375 44.390625 34.1875 
z
M 19.671875 64.796875 
L 19.671875 38.921875 
L 32.078125 38.921875 
Q 39.203125 38.921875 42.84375 42.21875 
Q 46.484375 45.515625 46.484375 51.90625 
Q 46.484375 58.296875 42.84375 61.546875 
Q 39.203125 64.796875 32.078125 64.796875 
z
" id="DejaVuSans-52"/>
      <path d="M 56.203125 29.59375 
L 56.203125 25.203125 
L 14.890625 25.203125 
Q 15.484375 15.921875 20.484375 11.0625 
Q 25.484375 6.203125 34.421875 6.203125 
Q 39.59375 6.203125 44.453125 7.46875 
Q 49.3125 8.734375 54.109375 11.28125 
L 54.109375 2.78125 
Q 49.265625 0.734375 44.1875 -0.34375 
Q 39.109375 -1.421875 33.890625 -1.421875 
Q 20.796875 -1.421875 13.15625 6.1875 
Q 5.515625 13.8125 5.515625 26.8125 
Q 5.515625 40.234375 12.765625 48.109375 
Q 20.015625 56 32.328125 56 
Q 43.359375 56 49.78125 48.890625 
Q 56.203125 41.796875 56.203125 29.59375 
z
M 47.21875 32.234375 
Q 47.125 39.59375 43.09375 43.984375 
Q 39.0625 48.390625 32.421875 48.390625 
Q 24.90625 48.390625 20.390625 44.140625 
Q 15.875 39.890625 15.1875 32.171875 
z
" id="DejaVuSans-65"/>
      <path d="M 48.78125 52.59375 
L 48.78125 44.1875 
Q 44.96875 46.296875 41.140625 47.34375 
Q 37.3125 48.390625 33.40625 48.390625 
Q 24.65625 48.390625 19.8125 42.84375 
Q 14.984375 37.3125 14.984375 27.296875 
Q 14.984375 17.28125 19.8125 11.734375 
Q 24.65625 6.203125 33.40625 6.203125 
Q 37.3125 6.203125 41.140625 7.25 
Q 44.96875 8.296875 48.78125 10.40625 
L 48.78125 2.09375 
Q 45.015625 0.34375 40.984375 -0.53125 
Q 36.96875 -1.421875 32.421875 -1.421875 
Q 20.0625 -1.421875 12.78125 6.34375 
Q 5.515625 14.109375 5.515625 27.296875 
Q 5.515625 40.671875 12.859375 48.328125 
Q 20.21875 56 33.015625 56 
Q 37.15625 56 41.109375 55.140625 
Q 45.0625 54.296875 48.78125 52.59375 
z
" id="DejaVuSans-63"/>
      <path d="M 30.609375 48.390625 
Q 23.390625 48.390625 19.1875 42.75 
Q 14.984375 37.109375 14.984375 27.296875 
Q 14.984375 17.484375 19.15625 11.84375 
Q 23.34375 6.203125 30.609375 6.203125 
Q 37.796875 6.203125 41.984375 11.859375 
Q 46.1875 17.53125 46.1875 27.296875 
Q 46.1875 37.015625 41.984375 42.703125 
Q 37.796875 48.390625 30.609375 48.390625 
z
M 30.609375 56 
Q 42.328125 56 49.015625 48.375 
Q 55.71875 40.765625 55.71875 27.296875 
Q 55.71875 13.875 49.015625 6.21875 
Q 42.328125 -1.421875 30.609375 -1.421875 
Q 18.84375 -1.421875 12.171875 6.21875 
Q 5.515625 13.875 5.515625 27.296875 
Q 5.515625 40.765625 12.171875 48.375 
Q 18.84375 56 30.609375 56 
z
" id="DejaVuSans-6f"/>
      <path d="M 54.890625 33.015625 
L 54.890625 0 
L 45.90625 0 
L 45.90625 32.71875 
Q 45.90625 40.484375 42.875 44.328125 
Q 39.84375 48.1875 33.796875 48.1875 
Q 26.515625 48.1875 22.3125 43.546875 
Q 18.109375 38.921875 18.109375 30.90625 
L 18.109375 0 
L 9.078125 0 
L 9.078125 54.6875 
L 18.109375 54.6875 
L 18.109375 46.1875 
Q 21.34375 51.125 25.703125 53.5625 
Q 30.078125 56 35.796875 56 
Q 45.21875 56 50.046875 50.171875 
Q 54.890625 44.34375 54.890625 33.015625 
z
" id="DejaVuSans-6e"/>
      <path d="M 44.28125 53.078125 
L 44.28125 44.578125 
Q 40.484375 46.53125 36.375 47.5 
Q 32.28125 48.484375 27.875 48.484375 
Q 21.1875 48.484375 17.84375 46.4375 
Q 14.5 44.390625 14.5 40.28125 
Q 14.5 37.15625 16.890625 35.375 
Q 19.28125 33.59375 26.515625 31.984375 
L 29.59375 31.296875 
Q 39.15625 29.25 43.1875 25.515625 
Q 47.21875 21.78125 47.21875 15.09375 
Q 47.21875 7.46875 41.1875 3.015625 
Q 35.15625 -1.421875 24.609375 -1.421875 
Q 20.21875 -1.421875 15.453125 -0.5625 
Q 10.6875 0.296875 5.421875 2 
L 5.421875 11.28125 
Q 10.40625 8.6875 15.234375 7.390625 
Q 20.0625 6.109375 24.8125 6.109375 
Q 31.15625 6.109375 34.5625 8.28125 
Q 37.984375 10.453125 37.984375 14.40625 
Q 37.984375 18.0625 35.515625 20.015625 
Q 33.0625 21.96875 24.703125 23.78125 
L 21.578125 24.515625 
Q 13.234375 26.265625 9.515625 29.90625 
Q 5.8125 33.546875 5.8125 39.890625 
Q 5.8125 47.609375 11.28125 51.796875 
Q 16.75 56 26.8125 56 
Q 31.78125 56 36.171875 55.265625 
Q 40.578125 54.546875 44.28125 53.078125 
z
" id="DejaVuSans-73"/>
      <path d="M 18.3125 70.21875 
L 18.3125 54.6875 
L 36.8125 54.6875 
L 36.8125 47.703125 
L 18.3125 47.703125 
L 18.3125 18.015625 
Q 18.3125 11.328125 20.140625 9.421875 
Q 21.96875 7.515625 27.59375 7.515625 
L 36.8125 7.515625 
L 36.8125 0 
L 27.59375 0 
Q 17.1875 0 13.234375 3.875 
Q 9.28125 7.765625 9.28125 18.015625 
L 9.28125 47.703125 
L 2.6875 47.703125 
L 2.6875 54.6875 
L 9.28125 54.6875 
L 9.28125 70.21875 
z
" id="DejaVuSans-74"/>
      <path d="M 41.109375 46.296875 
Q 39.59375 47.171875 37.8125 47.578125 
Q 36.03125 48 33.890625 48 
Q 26.265625 48 22.1875 43.046875 
Q 18.109375 38.09375 18.109375 28.8125 
L 18.109375 0 
L 9.078125 0 
L 9.078125 54.6875 
L 18.109375 54.6875 
L 18.109375 46.1875 
Q 20.953125 51.171875 25.484375 53.578125 
Q 30.03125 56 36.53125 56 
Q 37.453125 56 38.578125 55.875 
Q 39.703125 55.765625 41.0625 55.515625 
z
" id="DejaVuSans-72"/>
      <path d="M 8.5 21.578125 
L 8.5 54.6875 
L 17.484375 54.6875 
L 17.484375 21.921875 
Q 17.484375 14.15625 20.5 10.265625 
Q 23.53125 6.390625 29.59375 6.390625 
Q 36.859375 6.390625 41.078125 11.03125 
Q 45.3125 15.671875 45.3125 23.6875 
L 45.3125 54.6875 
L 54.296875 54.6875 
L 54.296875 0 
L 45.3125 0 
L 45.3125 8.40625 
Q 42.046875 3.421875 37.71875 1 
Q 33.40625 -1.421875 27.6875 -1.421875 
Q 18.265625 -1.421875 13.375 4.4375 
Q 8.5 10.296875 8.5 21.578125 
z
M 31.109375 56 
z
" id="DejaVuSans-75"/>
      <path d="M 9.421875 54.6875 
L 18.40625 54.6875 
L 18.40625 0 
L 9.421875 0 
z
M 9.421875 75.984375 
L 18.40625 75.984375 
L 18.40625 64.59375 
L 9.421875 64.59375 
z
" id="DejaVuSans-69"/>
     </defs>
     <g transform="translate(751.413209 30.690541)scale(0.08 -0.08)">
      <use xlink:href="#DejaVuSans-52"/>
      <use x="69.419922" xlink:href="#DejaVuSans-65"/>
      <use x="130.943359" xlink:href="#DejaVuSans-63"/>
      <use x="185.923828" xlink:href="#DejaVuSans-6f"/>
      <use x="247.105469" xlink:href="#DejaVuSans-6e"/>
      <use x="310.484375" xlink:href="#DejaVuSans-73"/>
      <use x="362.583984" xlink:href="#DejaVuSans-74"/>
      <use x="401.792969" xlink:href="#DejaVuSans-72"/>
      <use x="442.90625" xlink:href="#DejaVuSans-75"/>
      <use x="506.285156" xlink:href="#DejaVuSans-63"/>
      <use x="561.265625" xlink:href="#DejaVuSans-74"/>
      <use x="600.474609" xlink:href="#DejaVuSans-69"/>
      <use x="628.257812" xlink:href="#DejaVuSans-6f"/>
      <use x="689.439453" xlink:href="#DejaVuSans-6e"/>
     </g>
    </g>
    <g id="line2d_26">
     <path d="M 729.013209 39.633041 
L 745.013209 39.633041 
" style="fill:none;stroke:#3ea44e;stroke-linecap:square;"/>
    </g>
    <g id="line2d_27">
     <defs>
      <path d="M 0 3 
C 0.795609 3 1.55874 2.683901 2.12132 2.12132 
C 2.683901 1.55874 3 0.795609 3 0 
C 3 -0.795609 2.683901 -1.55874 2.12132 -2.12132 
C 1.55874 -2.683901 0.795609 -3 0 -3 
C -0.795609 -3 -1.55874 -2.683901 -2.12132 -2.12132 
C -2.683901 -1.55874 -3 -0.795609 -3 0 
C -3 0.795609 -2.683901 1.55874 -2.12132 2.12132 
C -1.55874 2.683901 -0.795609 3 0 3 
z
" id="m67ceaef098" style="stroke:#000000;"/>
     </defs>
     <g>
      <use style="fill:#3ea44e;stroke:#000000;" x="737.013209" xlink:href="#m67ceaef098" y="39.633041"/>
     </g>
    </g>
    <g id="text_12">
     <!-- Expansion coefficients -->
     <defs>
      <path d="M 9.8125 72.90625 
L 55.90625 72.90625 
L 55.90625 64.59375 
L 19.671875 64.59375 
L 19.671875 43.015625 
L 54.390625 43.015625 
L 54.390625 34.71875 
L 19.671875 34.71875 
L 19.671875 8.296875 
L 56.78125 8.296875 
L 56.78125 0 
L 9.8125 0 
z
" id="DejaVuSans-45"/>
      <path d="M 54.890625 54.6875 
L 35.109375 28.078125 
L 55.90625 0 
L 45.3125 0 
L 29.390625 21.484375 
L 13.484375 0 
L 2.875 0 
L 24.125 28.609375 
L 4.6875 54.6875 
L 15.28125 54.6875 
L 29.78125 35.203125 
L 44.28125 54.6875 
z
" id="DejaVuSans-78"/>
      <path d="M 18.109375 8.203125 
L 18.109375 -20.796875 
L 9.078125 -20.796875 
L 9.078125 54.6875 
L 18.109375 54.6875 
L 18.109375 46.390625 
Q 20.953125 51.265625 25.265625 53.625 
Q 29.59375 56 35.59375 56 
Q 45.5625 56 51.78125 48.09375 
Q 58.015625 40.1875 58.015625 27.296875 
Q 58.015625 14.40625 51.78125 6.484375 
Q 45.5625 -1.421875 35.59375 -1.421875 
Q 29.59375 -1.421875 25.265625 0.953125 
Q 20.953125 3.328125 18.109375 8.203125 
z
M 48.6875 27.296875 
Q 48.6875 37.203125 44.609375 42.84375 
Q 40.53125 48.484375 33.40625 48.484375 
Q 26.265625 48.484375 22.1875 42.84375 
Q 18.109375 37.203125 18.109375 27.296875 
Q 18.109375 17.390625 22.1875 11.75 
Q 26.265625 6.109375 33.40625 6.109375 
Q 40.53125 6.109375 44.609375 11.75 
Q 48.6875 17.390625 48.6875 27.296875 
z
" id="DejaVuSans-70"/>
      <path d="M 34.28125 27.484375 
Q 23.390625 27.484375 19.1875 25 
Q 14.984375 22.515625 14.984375 16.5 
Q 14.984375 11.71875 18.140625 8.90625 
Q 21.296875 6.109375 26.703125 6.109375 
Q 34.1875 6.109375 38.703125 11.40625 
Q 43.21875 16.703125 43.21875 25.484375 
L 43.21875 27.484375 
z
M 52.203125 31.203125 
L 52.203125 0 
L 43.21875 0 
L 43.21875 8.296875 
Q 40.140625 3.328125 35.546875 0.953125 
Q 30.953125 -1.421875 24.3125 -1.421875 
Q 15.921875 -1.421875 10.953125 3.296875 
Q 6 8.015625 6 15.921875 
Q 6 25.140625 12.171875 29.828125 
Q 18.359375 34.515625 30.609375 34.515625 
L 43.21875 34.515625 
L 43.21875 35.40625 
Q 43.21875 41.609375 39.140625 45 
Q 35.0625 48.390625 27.6875 48.390625 
Q 23 48.390625 18.546875 47.265625 
Q 14.109375 46.140625 10.015625 43.890625 
L 10.015625 52.203125 
Q 14.9375 54.109375 19.578125 55.046875 
Q 24.21875 56 28.609375 56 
Q 40.484375 56 46.34375 49.84375 
Q 52.203125 43.703125 52.203125 31.203125 
z
" id="DejaVuSans-61"/>
      <path id="DejaVuSans-20"/>
      <path d="M 37.109375 75.984375 
L 37.109375 68.5 
L 28.515625 68.5 
Q 23.6875 68.5 21.796875 66.546875 
Q 19.921875 64.59375 19.921875 59.515625 
L 19.921875 54.6875 
L 34.71875 54.6875 
L 34.71875 47.703125 
L 19.921875 47.703125 
L 19.921875 0 
L 10.890625 0 
L 10.890625 47.703125 
L 2.296875 47.703125 
L 2.296875 54.6875 
L 10.890625 54.6875 
L 10.890625 58.5 
Q 10.890625 67.625 15.140625 71.796875 
Q 19.390625 75.984375 28.609375 75.984375 
z
" id="DejaVuSans-66"/>
     </defs>
     <g transform="translate(751.413209 42.433041)scale(0.08 -0.08)">
      <use xlink:href="#DejaVuSans-45"/>
      <use x="63.183594" xlink:href="#DejaVuSans-78"/>
      <use x="122.363281" xlink:href="#DejaVuSans-70"/>
      <use x="185.839844" xlink:href="#DejaVuSans-61"/>
      <use x="247.119141" xlink:href="#DejaVuSans-6e"/>
      <use x="310.498047" xlink:href="#DejaVuSans-73"/>
      <use x="362.597656" xlink:href="#DejaVuSans-69"/>
      <use x="390.380859" xlink:href="#DejaVuSans-6f"/>
      <use x="451.5625" xlink:href="#DejaVuSans-6e"/>
      <use x="514.941406" xlink:href="#DejaVuSans-20"/>
      <use x="546.728516" xlink:href="#DejaVuSans-63"/>
      <use x="601.708984" xlink:href="#DejaVuSans-6f"/>
      <use x="662.890625" xlink:href="#DejaVuSans-65"/>
      <use x="724.414062" xlink:href="#DejaVuSans-66"/>
      <use x="759.619141" xlink:href="#DejaVuSans-66"/>
      <use x="794.824219" xlink:href="#DejaVuSans-69"/>
      <use x="822.607422" xlink:href="#DejaVuSans-63"/>
      <use x="877.587891" xlink:href="#DejaVuSans-69"/>
      <use x="905.371094" xlink:href="#DejaVuSans-65"/>
      <use x="966.894531" xlink:href="#DejaVuSans-6e"/>
      <use x="1030.273438" xlink:href="#DejaVuSans-74"/>
      <use x="1069.482422" xlink:href="#DejaVuSans-73"/>
     </g>
    </g>
   </g>
  </g>
  <g id="axes_2">
   <g id="patch_6">
    <path d="M 56.03611 551.810709 
L 848.340709 551.810709 
L 848.340709 293.669291 
L 56.03611 293.669291 
z
" style="fill:#ffffff;"/>
   </g>
   <g id="matplotlib.axis_3">
    <g id="xtick_6">
     <g id="line2d_28">
      <path clip-path="url(#p594a9b7780)" d="M 56.03611 551.810709 
L 56.03611 293.669291 
" style="fill:none;opacity:0.1;stroke:#000000;stroke-linecap:square;stroke-width:0.5;"/>
     </g>
     <g id="line2d_29">
      <g>
       <use style="stroke:#000000;stroke-width:0.8;" x="56.03611" xlink:href="#m1759c4e872" y="551.810709"/>
      </g>
     </g>
     <g id="text_13">
      <!-- 0.0 -->
      <g transform="translate(49.67486 561.389459)scale(0.08 -0.08)">
       <use xlink:href="#DejaVuSans-30"/>
       <use x="63.623047" xlink:href="#DejaVuSans-2e"/>
       <use x="95.410156" xlink:href="#DejaVuSans-30"/>
      </g>
     </g>
    </g>
    <g id="xtick_7">
     <g id="line2d_30">
      <path clip-path="url(#p594a9b7780)" d="M 214.497029 551.810709 
L 214.497029 293.669291 
" style="fill:none;opacity:0.1;stroke:#000000;stroke-linecap:square;stroke-width:0.5;"/>
     </g>
     <g id="line2d_31">
      <g>
       <use style="stroke:#000000;stroke-width:0.8;" x="214.497029" xlink:href="#m1759c4e872" y="551.810709"/>
      </g>
     </g>
     <g id="text_14">
      <!-- 0.2 -->
      <g transform="translate(208.135779 561.389459)scale(0.08 -0.08)">
       <use xlink:href="#DejaVuSans-30"/>
       <use x="63.623047" xlink:href="#DejaVuSans-2e"/>
       <use x="95.410156" xlink:href="#DejaVuSans-32"/>
      </g>
     </g>
    </g>
    <g id="xtick_8">
     <g id="line2d_32">
      <path clip-path="url(#p594a9b7780)" d="M 372.957949 551.810709 
L 372.957949 293.669291 
" style="fill:none;opacity:0.1;stroke:#000000;stroke-linecap:square;stroke-width:0.5;"/>
     </g>
     <g id="line2d_33">
      <g>
       <use style="stroke:#000000;stroke-width:0.8;" x="372.957949" xlink:href="#m1759c4e872" y="551.810709"/>
      </g>
     </g>
     <g id="text_15">
      <!-- 0.4 -->
      <defs>
       <path d="M 37.796875 64.3125 
L 12.890625 25.390625 
L 37.796875 25.390625 
z
M 35.203125 72.90625 
L 47.609375 72.90625 
L 47.609375 25.390625 
L 58.015625 25.390625 
L 58.015625 17.1875 
L 47.609375 17.1875 
L 47.609375 0 
L 37.796875 0 
L 37.796875 17.1875 
L 4.890625 17.1875 
L 4.890625 26.703125 
z
" id="DejaVuSans-34"/>
      </defs>
      <g transform="translate(366.596699 561.389459)scale(0.08 -0.08)">
       <use xlink:href="#DejaVuSans-30"/>
       <use x="63.623047" xlink:href="#DejaVuSans-2e"/>
       <use x="95.410156" xlink:href="#DejaVuSans-34"/>
      </g>
     </g>
    </g>
    <g id="xtick_9">
     <g id="line2d_34">
      <path clip-path="url(#p594a9b7780)" d="M 531.418869 551.810709 
L 531.418869 293.669291 
" style="fill:none;opacity:0.1;stroke:#000000;stroke-linecap:square;stroke-width:0.5;"/>
     </g>
     <g id="line2d_35">
      <g>
       <use style="stroke:#000000;stroke-width:0.8;" x="531.418869" xlink:href="#m1759c4e872" y="551.810709"/>
      </g>
     </g>
     <g id="text_16">
      <!-- 0.6 -->
      <defs>
       <path d="M 33.015625 40.375 
Q 26.375 40.375 22.484375 35.828125 
Q 18.609375 31.296875 18.609375 23.390625 
Q 18.609375 15.53125 22.484375 10.953125 
Q 26.375 6.390625 33.015625 6.390625 
Q 39.65625 6.390625 43.53125 10.953125 
Q 47.40625 15.53125 47.40625 23.390625 
Q 47.40625 31.296875 43.53125 35.828125 
Q 39.65625 40.375 33.015625 40.375 
z
M 52.59375 71.296875 
L 52.59375 62.3125 
Q 48.875 64.0625 45.09375 64.984375 
Q 41.3125 65.921875 37.59375 65.921875 
Q 27.828125 65.921875 22.671875 59.328125 
Q 17.53125 52.734375 16.796875 39.40625 
Q 19.671875 43.65625 24.015625 45.921875 
Q 28.375 48.1875 33.59375 48.1875 
Q 44.578125 48.1875 50.953125 41.515625 
Q 57.328125 34.859375 57.328125 23.390625 
Q 57.328125 12.15625 50.6875 5.359375 
Q 44.046875 -1.421875 33.015625 -1.421875 
Q 20.359375 -1.421875 13.671875 8.265625 
Q 6.984375 17.96875 6.984375 36.375 
Q 6.984375 53.65625 15.1875 63.9375 
Q 23.390625 74.21875 37.203125 74.21875 
Q 40.921875 74.21875 44.703125 73.484375 
Q 48.484375 72.75 52.59375 71.296875 
z
" id="DejaVuSans-36"/>
      </defs>
      <g transform="translate(525.057619 561.389459)scale(0.08 -0.08)">
       <use xlink:href="#DejaVuSans-30"/>
       <use x="63.623047" xlink:href="#DejaVuSans-2e"/>
       <use x="95.410156" xlink:href="#DejaVuSans-36"/>
      </g>
     </g>
    </g>
    <g id="xtick_10">
     <g id="line2d_36">
      <path clip-path="url(#p594a9b7780)" d="M 689.879789 551.810709 
L 689.879789 293.669291 
" style="fill:none;opacity:0.1;stroke:#000000;stroke-linecap:square;stroke-width:0.5;"/>
     </g>
     <g id="line2d_37">
      <g>
       <use style="stroke:#000000;stroke-width:0.8;" x="689.879789" xlink:href="#m1759c4e872" y="551.810709"/>
      </g>
     </g>
     <g id="text_17">
      <!-- 0.8 -->
      <defs>
       <path d="M 31.78125 34.625 
Q 24.75 34.625 20.71875 30.859375 
Q 16.703125 27.09375 16.703125 20.515625 
Q 16.703125 13.921875 20.71875 10.15625 
Q 24.75 6.390625 31.78125 6.390625 
Q 38.8125 6.390625 42.859375 10.171875 
Q 46.921875 13.96875 46.921875 20.515625 
Q 46.921875 27.09375 42.890625 30.859375 
Q 38.875 34.625 31.78125 34.625 
z
M 21.921875 38.8125 
Q 15.578125 40.375 12.03125 44.71875 
Q 8.5 49.078125 8.5 55.328125 
Q 8.5 64.0625 14.71875 69.140625 
Q 20.953125 74.21875 31.78125 74.21875 
Q 42.671875 74.21875 48.875 69.140625 
Q 55.078125 64.0625 55.078125 55.328125 
Q 55.078125 49.078125 51.53125 44.71875 
Q 48 40.375 41.703125 38.8125 
Q 48.828125 37.15625 52.796875 32.3125 
Q 56.78125 27.484375 56.78125 20.515625 
Q 56.78125 9.90625 50.3125 4.234375 
Q 43.84375 -1.421875 31.78125 -1.421875 
Q 19.734375 -1.421875 13.25 4.234375 
Q 6.78125 9.90625 6.78125 20.515625 
Q 6.78125 27.484375 10.78125 32.3125 
Q 14.796875 37.15625 21.921875 38.8125 
z
M 18.3125 54.390625 
Q 18.3125 48.734375 21.84375 45.5625 
Q 25.390625 42.390625 31.78125 42.390625 
Q 38.140625 42.390625 41.71875 45.5625 
Q 45.3125 48.734375 45.3125 54.390625 
Q 45.3125 60.0625 41.71875 63.234375 
Q 38.140625 66.40625 31.78125 66.40625 
Q 25.390625 66.40625 21.84375 63.234375 
Q 18.3125 60.0625 18.3125 54.390625 
z
" id="DejaVuSans-38"/>
      </defs>
      <g transform="translate(683.518539 561.389459)scale(0.08 -0.08)">
       <use xlink:href="#DejaVuSans-30"/>
       <use x="63.623047" xlink:href="#DejaVuSans-2e"/>
       <use x="95.410156" xlink:href="#DejaVuSans-38"/>
      </g>
     </g>
    </g>
    <g id="xtick_11">
     <g id="line2d_38">
      <path clip-path="url(#p594a9b7780)" d="M 848.340709 551.810709 
L 848.340709 293.669291 
" style="fill:none;opacity:0.1;stroke:#000000;stroke-linecap:square;stroke-width:0.5;"/>
     </g>
     <g id="line2d_39">
      <g>
       <use style="stroke:#000000;stroke-width:0.8;" x="848.340709" xlink:href="#m1759c4e872" y="551.810709"/>
      </g>
     </g>
     <g id="text_18">
      <!-- 1.0 -->
      <g transform="translate(841.979459 561.389459)scale(0.08 -0.08)">
       <use xlink:href="#DejaVuSans-31"/>
       <use x="63.623047" xlink:href="#DejaVuSans-2e"/>
       <use x="95.410156" xlink:href="#DejaVuSans-30"/>
      </g>
     </g>
    </g>
   </g>
   <g id="matplotlib.axis_4">
    <g id="ytick_5">
     <g id="line2d_40">
      <path clip-path="url(#p594a9b7780)" d="M 56.03611 551.810709 
L 848.340709 551.810709 
" style="fill:none;opacity:0.1;stroke:#000000;stroke-linecap:square;stroke-width:0.5;"/>
     </g>
     <g id="line2d_41">
      <g>
       <use style="stroke:#000000;stroke-width:0.8;" x="56.03611" xlink:href="#m0d54784038" y="551.810709"/>
      </g>
     </g>
     <g id="text_19">
      <!-- $10^{-20}$ -->
      <defs>
       <path d="M 10.59375 35.5 
L 73.1875 35.5 
L 73.1875 27.203125 
L 10.59375 27.203125 
z
" id="DejaVuSans-2212"/>
      </defs>
      <g transform="translate(30.21611 554.850084)scale(0.08 -0.08)">
       <use transform="translate(0 0.765625)" xlink:href="#DejaVuSans-31"/>
       <use transform="translate(63.623047 0.765625)" xlink:href="#DejaVuSans-30"/>
       <use transform="translate(128.203125 39.046875)scale(0.7)" xlink:href="#DejaVuSans-2212"/>
       <use transform="translate(186.855469 39.046875)scale(0.7)" xlink:href="#DejaVuSans-32"/>
       <use transform="translate(231.391602 39.046875)scale(0.7)" xlink:href="#DejaVuSans-30"/>
      </g>
     </g>
    </g>
    <g id="ytick_6">
     <g id="line2d_42">
      <path clip-path="url(#p594a9b7780)" d="M 56.03611 501.695118 
L 848.340709 501.695118 
" style="fill:none;opacity:0.1;stroke:#000000;stroke-linecap:square;stroke-width:0.5;"/>
     </g>
     <g id="line2d_43">
      <g>
       <use style="stroke:#000000;stroke-width:0.8;" x="56.03611" xlink:href="#m0d54784038" y="501.695118"/>
      </g>
     </g>
     <g id="text_20">
      <!-- $10^{-19}$ -->
      <defs>
       <path d="M 10.984375 1.515625 
L 10.984375 10.5 
Q 14.703125 8.734375 18.5 7.8125 
Q 22.3125 6.890625 25.984375 6.890625 
Q 35.75 6.890625 40.890625 13.453125 
Q 46.046875 20.015625 46.78125 33.40625 
Q 43.953125 29.203125 39.59375 26.953125 
Q 35.25 24.703125 29.984375 24.703125 
Q 19.046875 24.703125 12.671875 31.3125 
Q 6.296875 37.9375 6.296875 49.421875 
Q 6.296875 60.640625 12.9375 67.421875 
Q 19.578125 74.21875 30.609375 74.21875 
Q 43.265625 74.21875 49.921875 64.515625 
Q 56.59375 54.828125 56.59375 36.375 
Q 56.59375 19.140625 48.40625 8.859375 
Q 40.234375 -1.421875 26.421875 -1.421875 
Q 22.703125 -1.421875 18.890625 -0.6875 
Q 15.09375 0.046875 10.984375 1.515625 
z
M 30.609375 32.421875 
Q 37.25 32.421875 41.125 36.953125 
Q 45.015625 41.5 45.015625 49.421875 
Q 45.015625 57.28125 41.125 61.84375 
Q 37.25 66.40625 30.609375 66.40625 
Q 23.96875 66.40625 20.09375 61.84375 
Q 16.21875 57.28125 16.21875 49.421875 
Q 16.21875 41.5 20.09375 36.953125 
Q 23.96875 32.421875 30.609375 32.421875 
z
" id="DejaVuSans-39"/>
      </defs>
      <g transform="translate(30.21611 504.734493)scale(0.08 -0.08)">
       <use transform="translate(0 0.765625)" xlink:href="#DejaVuSans-31"/>
       <use transform="translate(63.623047 0.765625)" xlink:href="#DejaVuSans-30"/>
       <use transform="translate(128.203125 39.046875)scale(0.7)" xlink:href="#DejaVuSans-2212"/>
       <use transform="translate(186.855469 39.046875)scale(0.7)" xlink:href="#DejaVuSans-31"/>
       <use transform="translate(231.391602 39.046875)scale(0.7)" xlink:href="#DejaVuSans-39"/>
      </g>
     </g>
    </g>
    <g id="ytick_7">
     <g id="line2d_44">
      <path clip-path="url(#p594a9b7780)" d="M 56.03611 451.579528 
L 848.340709 451.579528 
" style="fill:none;opacity:0.1;stroke:#000000;stroke-linecap:square;stroke-width:0.5;"/>
     </g>
     <g id="line2d_45">
      <g>
       <use style="stroke:#000000;stroke-width:0.8;" x="56.03611" xlink:href="#m0d54784038" y="451.579528"/>
      </g>
     </g>
     <g id="text_21">
      <!-- $10^{-18}$ -->
      <g transform="translate(30.21611 454.618903)scale(0.08 -0.08)">
       <use transform="translate(0 0.765625)" xlink:href="#DejaVuSans-31"/>
       <use transform="translate(63.623047 0.765625)" xlink:href="#DejaVuSans-30"/>
       <use transform="translate(128.203125 39.046875)scale(0.7)" xlink:href="#DejaVuSans-2212"/>
       <use transform="translate(186.855469 39.046875)scale(0.7)" xlink:href="#DejaVuSans-31"/>
       <use transform="translate(231.391602 39.046875)scale(0.7)" xlink:href="#DejaVuSans-38"/>
      </g>
     </g>
    </g>
    <g id="ytick_8">
     <g id="line2d_46">
      <path clip-path="url(#p594a9b7780)" d="M 56.03611 401.463938 
L 848.340709 401.463938 
" style="fill:none;opacity:0.1;stroke:#000000;stroke-linecap:square;stroke-width:0.5;"/>
     </g>
     <g id="line2d_47">
      <g>
       <use style="stroke:#000000;stroke-width:0.8;" x="56.03611" xlink:href="#m0d54784038" y="401.463938"/>
      </g>
     </g>
     <g id="text_22">
      <!-- $10^{-17}$ -->
      <g transform="translate(30.21611 404.503313)scale(0.08 -0.08)">
       <use transform="translate(0 0.684375)" xlink:href="#DejaVuSans-31"/>
       <use transform="translate(63.623047 0.684375)" xlink:href="#DejaVuSans-30"/>
       <use transform="translate(128.203125 38.965625)scale(0.7)" xlink:href="#DejaVuSans-2212"/>
       <use transform="translate(186.855469 38.965625)scale(0.7)" xlink:href="#DejaVuSans-31"/>
       <use transform="translate(231.391602 38.965625)scale(0.7)" xlink:href="#DejaVuSans-37"/>
      </g>
     </g>
    </g>
    <g id="ytick_9">
     <g id="line2d_48">
      <path clip-path="url(#p594a9b7780)" d="M 56.03611 351.348347 
L 848.340709 351.348347 
" style="fill:none;opacity:0.1;stroke:#000000;stroke-linecap:square;stroke-width:0.5;"/>
     </g>
     <g id="line2d_49">
      <g>
       <use style="stroke:#000000;stroke-width:0.8;" x="56.03611" xlink:href="#m0d54784038" y="351.348347"/>
      </g>
     </g>
     <g id="text_23">
      <!-- $10^{-16}$ -->
      <g transform="translate(30.21611 354.387722)scale(0.08 -0.08)">
       <use transform="translate(0 0.765625)" xlink:href="#DejaVuSans-31"/>
       <use transform="translate(63.623047 0.765625)" xlink:href="#DejaVuSans-30"/>
       <use transform="translate(128.203125 39.046875)scale(0.7)" xlink:href="#DejaVuSans-2212"/>
       <use transform="translate(186.855469 39.046875)scale(0.7)" xlink:href="#DejaVuSans-31"/>
       <use transform="translate(231.391602 39.046875)scale(0.7)" xlink:href="#DejaVuSans-36"/>
      </g>
     </g>
    </g>
    <g id="ytick_10">
     <g id="line2d_50">
      <path clip-path="url(#p594a9b7780)" d="M 56.03611 301.232757 
L 848.340709 301.232757 
" style="fill:none;opacity:0.1;stroke:#000000;stroke-linecap:square;stroke-width:0.5;"/>
     </g>
     <g id="line2d_51">
      <g>
       <use style="stroke:#000000;stroke-width:0.8;" x="56.03611" xlink:href="#m0d54784038" y="301.232757"/>
      </g>
     </g>
     <g id="text_24">
      <!-- $10^{-15}$ -->
      <g transform="translate(30.21611 304.272132)scale(0.08 -0.08)">
       <use transform="translate(0 0.684375)" xlink:href="#DejaVuSans-31"/>
       <use transform="translate(63.623047 0.684375)" xlink:href="#DejaVuSans-30"/>
       <use transform="translate(128.203125 38.965625)scale(0.7)" xlink:href="#DejaVuSans-2212"/>
       <use transform="translate(186.855469 38.965625)scale(0.7)" xlink:href="#DejaVuSans-31"/>
       <use transform="translate(231.391602 38.965625)scale(0.7)" xlink:href="#DejaVuSans-35"/>
      </g>
     </g>
    </g>
    <g id="ytick_11">
     <g id="line2d_52">
      <defs>
       <path d="M 0 0 
L -2 0 
" id="m8cd98e692c" style="stroke:#000000;stroke-width:0.6;"/>
      </defs>
      <g>
       <use style="stroke:#000000;stroke-width:0.6;" x="56.03611" xlink:href="#m8cd98e692c" y="551.810709"/>
      </g>
     </g>
    </g>
    <g id="ytick_12">
     <g id="line2d_53">
      <g>
       <use style="stroke:#000000;stroke-width:0.6;" x="56.03611" xlink:href="#m8cd98e692c" y="501.695118"/>
      </g>
     </g>
    </g>
    <g id="ytick_13">
     <g id="line2d_54">
      <g>
       <use style="stroke:#000000;stroke-width:0.6;" x="56.03611" xlink:href="#m8cd98e692c" y="451.579528"/>
      </g>
     </g>
    </g>
    <g id="ytick_14">
     <g id="line2d_55">
      <g>
       <use style="stroke:#000000;stroke-width:0.6;" x="56.03611" xlink:href="#m8cd98e692c" y="401.463938"/>
      </g>
     </g>
    </g>
    <g id="ytick_15">
     <g id="line2d_56">
      <g>
       <use style="stroke:#000000;stroke-width:0.6;" x="56.03611" xlink:href="#m8cd98e692c" y="351.348347"/>
      </g>
     </g>
    </g>
    <g id="ytick_16">
     <g id="line2d_57">
      <g>
       <use style="stroke:#000000;stroke-width:0.6;" x="56.03611" xlink:href="#m8cd98e692c" y="301.232757"/>
      </g>
     </g>
    </g>
   </g>
   <g id="line2d_58">
    <path clip-path="url(#p594a9b7780)" d="M 56.03611 551.810709 
L 56.828414 484.84925 
L 57.620719 445.851741 
L 58.413023 430.765445 
L 59.205328 430.765445 
L 59.997632 439.590363 
L 60.789937 424.504067 
L 61.582242 419.647364 
L 62.374546 415.679149 
L 63.166851 404.561068 
L 63.959155 424.504067 
L 64.75146 394.331475 
L 65.543765 404.561068 
L 67.128374 404.561068 
L 67.920678 439.590363 
L 68.712983 439.590363 
L 69.505288 409.417771 
L 70.297592 400.592853 
L 71.089897 424.504067 
L 71.882201 409.417771 
L 72.674506 551.810709 
L 73.466811 424.504067 
L 75.05142 424.504067 
L 75.843724 400.592853 
L 76.636029 424.504067 
L 77.428334 551.810709 
L 78.220638 409.417771 
L 79.012943 424.504067 
L 79.805247 424.504067 
L 80.597552 551.810709 
L 81.389857 424.504067 
L 82.182161 424.504067 
L 82.974466 385.506557 
L 83.76677 551.810709 
L 84.559075 551.810709 
L 85.35138 385.506557 
L 86.143684 409.417771 
L 86.935989 394.331475 
L 87.728293 409.417771 
L 88.520598 551.810709 
L 89.312903 409.417771 
L 90.105207 551.810709 
L 90.897512 551.810709 
L 91.689816 409.417771 
L 92.482121 409.417771 
L 94.06673 379.245179 
L 95.651339 409.417771 
L 96.443644 370.420261 
L 97.235949 394.331475 
L 98.028253 385.506557 
L 98.820558 374.388476 
L 99.612862 394.331475 
L 100.405167 394.331475 
L 101.197472 551.810709 
L 101.989776 409.417771 
L 103.574385 409.417771 
L 104.36669 379.245179 
L 105.158995 409.417771 
L 105.951299 394.331475 
L 106.743604 385.506557 
L 107.535908 409.417771 
L 108.328213 394.331475 
L 109.120518 409.417771 
L 110.705127 379.245179 
L 111.497431 394.331475 
L 112.289736 551.810709 
L 113.082041 379.245179 
L 113.874345 370.420261 
L 114.66665 394.331475 
L 115.458954 394.331475 
L 116.251259 364.158883 
L 117.043564 379.245179 
L 117.835868 364.158883 
L 118.628173 359.30218 
L 119.420477 364.158883 
L 120.212782 370.420261 
L 121.005087 379.245179 
L 121.797391 379.245179 
L 122.589696 394.331475 
L 123.382 370.420261 
L 124.174305 394.331475 
L 124.96661 394.331475 
L 125.758914 364.158883 
L 126.551219 379.245179 
L 127.343523 379.245179 
L 128.135828 364.158883 
L 128.928133 379.245179 
L 129.720437 370.420261 
L 130.512742 364.158883 
L 131.305046 370.420261 
L 132.097351 394.331475 
L 132.889656 370.420261 
L 135.266569 338.505546 
L 136.058874 394.331475 
L 136.851179 370.420261 
L 137.643483 394.331475 
L 138.435788 394.331475 
L 139.228092 379.245179 
L 140.020397 394.331475 
L 140.812702 551.810709 
L 141.605006 551.810709 
L 142.397311 379.245179 
L 143.189615 364.158883 
L 143.98192 364.158883 
L 144.774225 394.331475 
L 145.566529 394.331475 
L 146.358834 379.245179 
L 147.151138 394.331475 
L 149.528052 394.331475 
L 150.320357 379.245179 
L 151.112661 379.245179 
L 151.904966 551.810709 
L 152.697271 394.331475 
L 153.489575 551.810709 
L 154.28188 551.810709 
L 155.074184 370.420261 
L 155.866489 394.331475 
L 156.658794 394.331475 
L 157.451098 551.810709 
L 158.243403 394.331475 
L 159.035707 394.331475 
L 159.828012 551.810709 
L 160.620317 379.245179 
L 161.412621 394.331475 
L 162.204926 379.245179 
L 162.99723 370.420261 
L 163.789535 551.810709 
L 164.58184 370.420261 
L 165.374144 364.158883 
L 166.166449 394.331475 
L 166.958753 379.245179 
L 167.751058 370.420261 
L 168.543363 379.245179 
L 169.335667 379.245179 
L 170.127972 364.158883 
L 171.712581 394.331475 
L 172.504886 551.810709 
L 173.29719 394.331475 
L 174.089495 379.245179 
L 174.881799 394.331475 
L 175.674104 364.158883 
L 176.466409 551.810709 
L 177.258713 394.331475 
L 178.051018 370.420261 
L 178.843322 370.420261 
L 179.635627 379.245179 
L 180.427932 551.810709 
L 181.220236 394.331475 
L 182.012541 370.420261 
L 182.804845 370.420261 
L 183.59715 551.810709 
L 184.389455 379.245179 
L 185.181759 394.331475 
L 185.974064 394.331475 
L 186.766368 370.420261 
L 187.558673 394.331475 
L 188.350978 364.158883 
L 189.143282 379.245179 
L 189.935587 351.978888 
L 190.727891 364.158883 
L 191.520196 364.158883 
L 192.312501 359.30218 
L 193.104805 370.420261 
L 193.89711 355.333965 
L 195.481719 349.072587 
L 196.274024 364.158883 
L 197.066328 351.978888 
L 197.858633 379.245179 
L 198.650937 364.158883 
L 199.443242 359.30218 
L 200.235547 364.158883 
L 201.027851 551.810709 
L 201.820156 379.245179 
L 202.61246 394.331475 
L 203.404765 379.245179 
L 204.19707 551.810709 
L 204.989374 394.331475 
L 205.781679 359.30218 
L 206.573983 370.420261 
L 207.366288 355.333965 
L 208.158593 349.072587 
L 208.950897 344.215884 
L 209.743202 364.158883 
L 210.535506 349.072587 
L 211.327811 551.810709 
L 212.120116 379.245179 
L 212.91242 355.333965 
L 213.704725 340.247669 
L 214.497029 310.075078 
L 215.289334 355.333965 
L 216.081639 551.810709 
L 216.873943 355.333965 
L 217.666248 379.245179 
L 218.458552 355.333965 
L 219.250857 379.245179 
L 220.043162 551.810709 
L 220.835466 379.245179 
L 223.21238 379.245179 
L 224.004685 355.333965 
L 224.796989 379.245179 
L 225.589294 364.158883 
L 226.381598 364.158883 
L 227.173903 379.245179 
L 227.966208 364.158883 
L 228.758512 364.158883 
L 229.550817 355.333965 
L 230.343121 379.245179 
L 231.135426 551.810709 
L 231.927731 379.245179 
L 232.720035 551.810709 
L 233.51234 551.810709 
L 234.304644 355.333965 
L 235.096949 355.333965 
L 235.889254 364.158883 
L 236.681558 364.158883 
L 237.473863 551.810709 
L 238.266167 364.158883 
L 240.643081 364.158883 
L 241.435386 355.333965 
L 242.22769 364.158883 
L 243.019995 364.158883 
L 243.8123 355.333965 
L 244.604604 349.072587 
L 246.189213 379.245179 
L 246.981518 349.072587 
L 247.773822 364.158883 
L 250.943041 364.158883 
L 251.735345 379.245179 
L 252.52765 551.810709 
L 253.319955 379.245179 
L 254.112259 551.810709 
L 254.904564 551.810709 
L 255.696868 379.245179 
L 256.489173 551.810709 
L 257.281478 551.810709 
L 258.073782 379.245179 
L 258.866087 364.158883 
L 260.450696 364.158883 
L 261.243001 379.245179 
L 262.035305 355.333965 
L 262.82761 364.158883 
L 263.619914 379.245179 
L 264.412219 551.810709 
L 265.204524 364.158883 
L 265.996828 379.245179 
L 267.581437 379.245179 
L 268.373742 364.158883 
L 269.166047 379.245179 
L 269.958351 551.810709 
L 270.750656 355.333965 
L 271.54296 349.072587 
L 272.335265 364.158883 
L 273.12757 349.072587 
L 273.919874 355.333965 
L 274.712179 349.072587 
L 275.504483 340.247669 
L 276.296788 340.247669 
L 277.089093 349.072587 
L 277.881397 344.215884 
L 278.673702 349.072587 
L 279.466006 349.072587 
L 280.258311 355.333965 
L 281.050616 344.215884 
L 281.84292 349.072587 
L 282.635225 551.810709 
L 283.427529 355.333965 
L 284.219834 379.245179 
L 285.012139 364.158883 
L 285.804443 379.245179 
L 286.596748 379.245179 
L 287.389052 349.072587 
L 288.181357 379.245179 
L 288.973662 344.215884 
L 289.765966 364.158883 
L 290.558271 364.158883 
L 291.350575 344.215884 
L 292.14288 340.247669 
L 292.935185 325.161374 
L 293.727489 307.511539 
L 294.519794 364.158883 
L 295.312098 551.810709 
L 296.104403 379.245179 
L 296.896708 379.245179 
L 297.689012 364.158883 
L 298.481317 379.245179 
L 299.273621 379.245179 
L 300.065926 355.333965 
L 300.858231 379.245179 
L 302.44284 379.245179 
L 303.235144 364.158883 
L 304.027449 379.245179 
L 304.819754 355.333965 
L 305.612058 364.158883 
L 306.404363 379.245179 
L 307.196667 551.810709 
L 307.988972 379.245179 
L 308.781277 364.158883 
L 309.573581 379.245179 
L 310.365886 379.245179 
L 311.15819 551.810709 
L 311.950495 364.158883 
L 312.7428 364.158883 
L 313.535104 355.333965 
L 314.327409 364.158883 
L 315.119713 551.810709 
L 315.912018 551.810709 
L 316.704323 379.245179 
L 317.496627 364.158883 
L 318.288932 355.333965 
L 319.081236 551.810709 
L 319.873541 379.245179 
L 320.665846 379.245179 
L 321.45815 355.333965 
L 322.250455 379.245179 
L 323.042759 355.333965 
L 323.835064 551.810709 
L 324.627369 344.215884 
L 325.419673 379.245179 
L 326.211978 379.245179 
L 327.004282 551.810709 
L 327.796587 355.333965 
L 328.588892 551.810709 
L 329.381196 379.245179 
L 330.173501 551.810709 
L 330.965805 551.810709 
L 331.75811 379.245179 
L 332.550415 379.245179 
L 333.342719 364.158883 
L 334.135024 379.245179 
L 334.927328 355.333965 
L 335.719633 349.072587 
L 336.511938 355.333965 
L 337.304242 344.215884 
L 338.096547 364.158883 
L 339.681156 364.158883 
L 340.473461 355.333965 
L 341.265765 349.072587 
L 342.05807 355.333965 
L 342.850374 349.072587 
L 343.642679 379.245179 
L 344.434984 551.810709 
L 345.227288 379.245179 
L 346.019593 551.810709 
L 346.811897 364.158883 
L 347.604202 379.245179 
L 349.188811 349.072587 
L 349.981116 379.245179 
L 350.77342 379.245179 
L 351.565725 349.072587 
L 352.35803 355.333965 
L 353.150334 349.072587 
L 353.942639 344.215884 
L 354.734943 364.158883 
L 355.527248 344.215884 
L 356.319553 344.215884 
L 357.111857 349.072587 
L 357.904162 364.158883 
L 358.696466 364.158883 
L 359.488771 355.333965 
L 360.281076 551.810709 
L 361.07338 379.245179 
L 361.865685 551.810709 
L 362.657989 364.158883 
L 363.450294 355.333965 
L 364.242599 364.158883 
L 365.034903 349.072587 
L 365.827208 355.333965 
L 366.619512 355.333965 
L 367.411817 364.158883 
L 368.996426 364.158883 
L 369.788731 551.810709 
L 370.581035 355.333965 
L 371.37334 336.892592 
L 372.165645 327.05517 
L 372.957949 293.669291 
L 373.750254 551.810709 
L 374.542558 379.245179 
L 375.334863 379.245179 
L 376.127168 364.158883 
L 376.919472 551.810709 
L 377.711777 355.333965 
L 378.504081 379.245179 
L 379.296386 364.158883 
L 380.088691 355.333965 
L 380.880995 364.158883 
L 381.6733 364.158883 
L 382.465604 551.810709 
L 383.257909 355.333965 
L 384.050214 379.245179 
L 384.842518 349.072587 
L 385.634823 379.245179 
L 387.219432 379.245179 
L 388.011737 355.333965 
L 388.804041 364.158883 
L 391.180955 364.158883 
L 391.97326 551.810709 
L 392.765564 551.810709 
L 393.557869 355.333965 
L 394.350173 355.333965 
L 395.142478 379.245179 
L 395.934783 364.158883 
L 397.519392 364.158883 
L 398.311696 379.245179 
L 399.104001 551.810709 
L 399.896306 551.810709 
L 400.68861 379.245179 
L 401.480915 364.158883 
L 403.857829 364.158883 
L 404.650133 551.810709 
L 405.442438 379.245179 
L 406.234742 379.245179 
L 407.027047 551.810709 
L 407.819352 379.245179 
L 408.611656 551.810709 
L 409.403961 355.333965 
L 410.196265 379.245179 
L 410.98857 379.245179 
L 411.780875 551.810709 
L 412.573179 551.810709 
L 413.365484 379.245179 
L 414.157788 379.245179 
L 414.950093 355.333965 
L 415.742398 364.158883 
L 416.534702 364.158883 
L 417.327007 379.245179 
L 418.119311 364.158883 
L 418.911616 379.245179 
L 419.703921 364.158883 
L 420.496225 379.245179 
L 421.28853 364.158883 
L 422.080834 379.245179 
L 422.873139 355.333965 
L 423.665444 551.810709 
L 424.457748 355.333965 
L 425.250053 551.810709 
L 426.042357 379.245179 
L 426.834662 364.158883 
L 427.626967 551.810709 
L 428.419271 379.245179 
L 429.211576 551.810709 
L 430.00388 379.245179 
L 430.796185 364.158883 
L 431.58849 379.245179 
L 432.380794 364.158883 
L 433.173099 355.333965 
L 433.965403 355.333965 
L 434.757708 379.245179 
L 435.550012 349.072587 
L 436.342317 349.072587 
L 437.134622 355.333965 
L 437.926926 379.245179 
L 438.719231 551.810709 
L 439.511535 551.810709 
L 440.30384 379.245179 
L 442.680754 379.245179 
L 443.473058 364.158883 
L 444.265363 379.245179 
L 445.057668 364.158883 
L 445.849972 355.333965 
L 446.642277 355.333965 
L 447.434581 349.072587 
L 448.226886 355.333965 
L 449.019191 551.810709 
L 449.811495 379.245179 
L 450.6038 364.158883 
L 451.396104 336.892592 
L 452.188409 379.245179 
L 452.980714 394.331475 
L 453.773018 379.245179 
L 454.565323 394.331475 
L 455.357627 551.810709 
L 456.149932 551.810709 
L 456.942237 379.245179 
L 457.734541 370.420261 
L 458.526846 551.810709 
L 459.31915 364.158883 
L 460.111455 394.331475 
L 460.90376 379.245179 
L 461.696064 394.331475 
L 462.488369 379.245179 
L 463.280673 551.810709 
L 464.072978 394.331475 
L 464.865283 370.420261 
L 465.657587 355.333965 
L 466.449892 379.245179 
L 467.242196 359.30218 
L 468.034501 379.245179 
L 468.826806 364.158883 
L 469.61911 551.810709 
L 470.411415 379.245179 
L 471.203719 551.810709 
L 471.996024 370.420261 
L 473.580633 370.420261 
L 474.372938 394.331475 
L 475.165242 370.420261 
L 475.957547 394.331475 
L 476.749852 379.245179 
L 477.542156 551.810709 
L 478.334461 551.810709 
L 479.126765 379.245179 
L 479.91907 370.420261 
L 480.711375 379.245179 
L 482.295984 379.245179 
L 483.088288 394.331475 
L 484.672898 364.158883 
L 485.465202 394.331475 
L 486.257507 379.245179 
L 487.049811 394.331475 
L 487.842116 394.331475 
L 488.634421 379.245179 
L 489.426725 551.810709 
L 490.21903 394.331475 
L 491.011334 551.810709 
L 491.803639 364.158883 
L 492.595944 370.420261 
L 493.388248 370.420261 
L 494.180553 394.331475 
L 494.972857 379.245179 
L 495.765162 359.30218 
L 496.557467 351.978888 
L 497.349771 379.245179 
L 498.142076 364.158883 
L 498.93438 370.420261 
L 499.726685 370.420261 
L 500.51899 379.245179 
L 501.311294 370.420261 
L 502.103599 551.810709 
L 502.895903 379.245179 
L 503.688208 359.30218 
L 504.480513 364.158883 
L 505.272817 551.810709 
L 506.065122 394.331475 
L 506.857426 355.333965 
L 507.649731 370.420261 
L 508.442036 370.420261 
L 509.23434 351.978888 
L 510.026645 359.30218 
L 510.818949 379.245179 
L 511.611254 359.30218 
L 512.403559 351.978888 
L 513.988168 351.978888 
L 514.780472 346.509048 
L 515.572777 340.247669 
L 516.365082 355.333965 
L 517.157386 355.333965 
L 517.949691 349.072587 
L 518.741995 359.30218 
L 519.5343 359.30218 
L 520.326605 370.420261 
L 521.118909 379.245179 
L 521.911214 379.245179 
L 522.703518 394.331475 
L 523.495823 551.810709 
L 524.288128 379.245179 
L 525.080432 364.158883 
L 525.872737 359.30218 
L 526.665041 355.333965 
L 527.457346 355.333965 
L 528.249651 379.245179 
L 529.041955 551.810709 
L 529.83426 351.978888 
L 530.626564 344.215884 
L 531.418869 302.494209 
L 532.211174 394.331475 
L 533.795783 394.331475 
L 534.588087 370.420261 
L 535.380392 551.810709 
L 536.965001 551.810709 
L 537.757306 379.245179 
L 538.54961 379.245179 
L 539.341915 370.420261 
L 540.13422 394.331475 
L 540.926524 551.810709 
L 541.718829 394.331475 
L 542.511133 379.245179 
L 543.303438 394.331475 
L 544.095743 551.810709 
L 544.888047 551.810709 
L 545.680352 394.331475 
L 546.472656 370.420261 
L 547.264961 551.810709 
L 549.641875 551.810709 
L 550.434179 379.245179 
L 551.226484 394.331475 
L 552.018789 370.420261 
L 552.811093 379.245179 
L 553.603398 394.331475 
L 554.395702 551.810709 
L 555.188007 551.810709 
L 555.980312 379.245179 
L 556.772616 379.245179 
L 557.564921 394.331475 
L 558.357225 551.810709 
L 559.14953 394.331475 
L 559.941835 364.158883 
L 560.734139 394.331475 
L 561.526444 364.158883 
L 562.318748 394.331475 
L 563.111053 379.245179 
L 563.903358 370.420261 
L 564.695662 370.420261 
L 565.487967 394.331475 
L 566.280271 370.420261 
L 567.072576 379.245179 
L 567.864881 379.245179 
L 568.657185 394.331475 
L 569.44949 394.331475 
L 570.241794 551.810709 
L 571.034099 379.245179 
L 571.826404 394.331475 
L 572.618708 394.331475 
L 573.411013 379.245179 
L 574.203317 370.420261 
L 574.995622 551.810709 
L 575.787927 551.810709 
L 576.580231 359.30218 
L 577.372536 394.331475 
L 578.16484 364.158883 
L 578.957145 370.420261 
L 579.74945 370.420261 
L 580.541754 379.245179 
L 582.918668 379.245179 
L 583.710973 370.420261 
L 584.503277 394.331475 
L 586.880191 394.331475 
L 587.672496 379.245179 
L 588.4648 394.331475 
L 589.257105 379.245179 
L 590.049409 379.245179 
L 590.841714 364.158883 
L 591.634019 364.158883 
L 592.426323 379.245179 
L 593.218628 370.420261 
L 594.010932 379.245179 
L 595.595542 379.245179 
L 596.387846 364.158883 
L 597.180151 394.331475 
L 597.972455 551.810709 
L 598.76476 379.245179 
L 599.557065 394.331475 
L 601.141674 394.331475 
L 601.933978 379.245179 
L 602.726283 394.331475 
L 603.518588 394.331475 
L 605.103197 364.158883 
L 605.895501 364.158883 
L 606.687806 379.245179 
L 607.480111 379.245179 
L 608.272415 394.331475 
L 609.06472 364.158883 
L 609.857024 344.215884 
L 610.649329 296.393458 
L 611.441634 551.810709 
L 612.233938 409.417771 
L 613.026243 394.331475 
L 613.818547 409.417771 
L 614.610852 394.331475 
L 615.403157 385.506557 
L 616.195461 394.331475 
L 616.987766 409.417771 
L 617.78007 551.810709 
L 618.572375 394.331475 
L 619.36468 551.810709 
L 620.156984 385.506557 
L 620.949289 551.810709 
L 621.741593 394.331475 
L 622.533898 394.331475 
L 623.326203 409.417771 
L 624.118507 379.245179 
L 624.910812 379.245179 
L 625.703116 409.417771 
L 626.495421 409.417771 
L 627.287725 385.506557 
L 628.08003 379.245179 
L 628.872335 379.245179 
L 629.664639 551.810709 
L 630.456944 394.331475 
L 631.249248 379.245179 
L 632.041553 409.417771 
L 632.833858 385.506557 
L 633.626162 379.245179 
L 634.418467 409.417771 
L 635.210771 379.245179 
L 636.003076 374.388476 
L 636.795381 409.417771 
L 637.587685 379.245179 
L 638.37999 364.158883 
L 639.172294 409.417771 
L 639.964599 409.417771 
L 640.756904 394.331475 
L 641.549208 394.331475 
L 642.341513 385.506557 
L 643.133817 394.331475 
L 643.926122 551.810709 
L 644.718427 551.810709 
L 645.510731 409.417771 
L 646.303036 551.810709 
L 647.09534 409.417771 
L 647.887645 551.810709 
L 648.67995 551.810709 
L 649.472254 379.245179 
L 650.264559 394.331475 
L 651.056863 385.506557 
L 651.849168 394.331475 
L 652.641473 385.506557 
L 653.433777 379.245179 
L 654.226082 394.331475 
L 655.018386 385.506557 
L 655.810691 394.331475 
L 656.602996 374.388476 
L 657.3953 394.331475 
L 658.187605 409.417771 
L 658.979909 379.245179 
L 659.772214 379.245179 
L 660.564519 409.417771 
L 661.356823 409.417771 
L 662.149128 394.331475 
L 662.941432 551.810709 
L 663.733737 385.506557 
L 664.526042 409.417771 
L 665.318346 551.810709 
L 666.110651 409.417771 
L 666.902955 385.506557 
L 667.69526 394.331475 
L 668.487565 394.331475 
L 669.279869 385.506557 
L 670.072174 379.245179 
L 670.864478 374.388476 
L 671.656783 379.245179 
L 672.449088 385.506557 
L 673.241392 374.388476 
L 674.033697 374.388476 
L 674.826001 379.245179 
L 675.618306 394.331475 
L 676.410611 385.506557 
L 677.202915 394.331475 
L 677.99522 409.417771 
L 678.787524 385.506557 
L 679.579829 409.417771 
L 680.372134 551.810709 
L 681.164438 370.420261 
L 681.956743 379.245179 
L 682.749047 379.245179 
L 683.541352 374.388476 
L 685.125961 374.388476 
L 685.918266 379.245179 
L 686.71057 379.245179 
L 687.502875 385.506557 
L 688.29518 385.506557 
L 689.087484 367.065183 
L 689.879789 310.766086 
L 690.672093 385.506557 
L 691.464398 394.331475 
L 692.256703 400.592853 
L 693.049007 394.331475 
L 693.841312 424.504067 
L 694.633616 389.474772 
L 695.425921 385.506557 
L 696.218226 409.417771 
L 697.01053 394.331475 
L 697.802835 409.417771 
L 698.595139 400.592853 
L 699.387444 385.506557 
L 700.179749 394.331475 
L 700.972053 424.504067 
L 701.764358 400.592853 
L 702.556662 385.506557 
L 704.141272 385.506557 
L 704.933576 394.331475 
L 705.725881 409.417771 
L 706.518185 389.474772 
L 707.31049 400.592853 
L 708.102795 389.474772 
L 708.895099 382.151479 
L 709.687404 394.331475 
L 710.479708 400.592853 
L 711.272013 385.506557 
L 712.064318 394.331475 
L 712.856622 400.592853 
L 713.648927 394.331475 
L 714.441231 394.331475 
L 715.233536 400.592853 
L 716.025841 394.331475 
L 716.818145 400.592853 
L 717.61045 385.506557 
L 718.402754 385.506557 
L 719.195059 394.331475 
L 719.987364 409.417771 
L 720.779668 394.331475 
L 721.571973 389.474772 
L 722.364277 394.331475 
L 723.156582 409.417771 
L 723.948887 409.417771 
L 724.741191 400.592853 
L 725.533496 400.592853 
L 726.3258 424.504067 
L 727.118105 551.810709 
L 727.91041 551.810709 
L 728.702714 424.504067 
L 729.495019 400.592853 
L 730.287323 551.810709 
L 731.871933 551.810709 
L 732.664237 409.417771 
L 733.456542 424.504067 
L 735.833456 424.504067 
L 736.62576 409.417771 
L 737.418065 424.504067 
L 739.002674 424.504067 
L 739.794979 409.417771 
L 740.587283 409.417771 
L 741.379588 551.810709 
L 742.171892 424.504067 
L 742.964197 404.561068 
L 743.756502 415.679149 
L 744.548806 409.417771 
L 745.341111 397.237775 
L 746.133415 400.592853 
L 746.92572 409.417771 
L 747.718025 391.767936 
L 748.510329 394.331475 
L 749.302634 400.592853 
L 750.094938 387.400353 
L 750.887243 400.592853 
L 751.679548 394.331475 
L 752.471852 400.592853 
L 753.264157 397.237775 
L 754.056461 400.592853 
L 755.641071 400.592853 
L 756.433375 424.504067 
L 757.22568 439.590363 
L 758.017984 551.810709 
L 758.810289 439.590363 
L 759.602594 409.417771 
L 761.187203 439.590363 
L 761.979507 404.561068 
L 763.564117 404.561068 
L 764.356421 400.592853 
L 765.148726 409.417771 
L 765.94103 424.504067 
L 766.733335 551.810709 
L 767.52564 397.237775 
L 768.317944 387.400353 
L 769.110249 353.177259 
L 769.902553 404.561068 
L 770.694858 409.417771 
L 771.487163 409.417771 
L 772.279467 404.561068 
L 773.071772 409.417771 
L 773.864076 409.417771 
L 774.656381 415.679149 
L 776.24099 409.417771 
L 777.033295 412.324071 
L 777.825599 419.647364 
L 778.617904 404.561068 
L 779.410209 412.324071 
L 780.202513 404.561068 
L 780.994818 409.417771 
L 781.787122 415.679149 
L 782.579427 412.324071 
L 783.371732 406.854232 
L 784.164036 409.417771 
L 784.956341 409.417771 
L 785.748645 412.324071 
L 786.54095 406.854232 
L 787.333255 409.417771 
L 788.125559 409.417771 
L 788.917864 406.854232 
L 789.710168 409.417771 
L 790.502473 424.504067 
L 791.294778 415.679149 
L 792.087082 415.679149 
L 792.879387 412.324071 
L 793.671691 419.647364 
L 794.463996 412.324071 
L 795.256301 406.854232 
L 796.048605 412.324071 
L 796.84091 412.324071 
L 797.633214 419.647364 
L 798.425519 421.940528 
L 799.217824 408.09828 
L 800.010128 410.822447 
L 800.802433 409.417771 
L 801.594737 410.822447 
L 802.387042 413.937026 
L 803.179347 412.324071 
L 803.971651 415.679149 
L 804.763956 415.679149 
L 806.348565 419.647364 
L 807.14087 434.73366 
L 807.933174 421.940528 
L 808.725479 421.940528 
L 809.517783 419.647364 
L 810.310088 424.504067 
L 811.102393 434.73366 
L 811.894697 427.410367 
L 812.687002 430.765445 
L 813.479306 434.73366 
L 814.271611 432.659241 
L 815.063915 434.73366 
L 815.85622 430.765445 
L 816.648525 429.023322 
L 817.440829 434.73366 
L 818.233134 437.026824 
L 819.025438 430.765445 
L 819.817743 425.908743 
L 820.610048 429.023322 
L 821.402352 425.908743 
L 822.194657 429.023322 
L 822.986961 427.410367 
L 823.779266 427.410367 
L 824.571571 429.876957 
L 825.363875 429.876957 
L 826.15618 428.201906 
L 826.948484 427.410367 
L 827.740789 427.410367 
L 828.533094 426.646607 
L 829.325398 427.410367 
L 830.117703 427.410367 
L 830.910007 428.201906 
L 832.494617 437.639961 
L 833.286921 438.270872 
L 834.079226 442.496663 
L 834.87153 450.936351 
L 835.663835 453.357168 
L 836.45614 459.195914 
L 838.040749 474.282209 
L 838.833053 479.992548 
L 839.625358 545.194434 
L 840.417663 551.810709 
L 841.209967 497.372007 
L 842.002272 502.841847 
L 842.794576 480.543588 
L 844.379186 458.273967 
L 845.963795 449.117261 
L 846.756099 446.036733 
L 847.548404 447.807457 
L 848.340709 452.209645 
L 848.340709 452.209645 
" style="fill:none;stroke:#009afa;stroke-linecap:round;"/>
   </g>
   <g id="patch_7">
    <path d="M 56.03611 551.810709 
L 56.03611 293.669291 
" style="fill:none;stroke:#000000;stroke-linecap:square;stroke-linejoin:miter;stroke-width:0.8;"/>
   </g>
   <g id="patch_8">
    <path d="M 56.03611 551.810709 
L 848.340709 551.810709 
" style="fill:none;stroke:#000000;stroke-linecap:square;stroke-linejoin:miter;stroke-width:0.8;"/>
   </g>
   <g id="legend_2">
    <g id="patch_9">
     <path d="M 734.693209 311.811791 
L 842.740709 311.811791 
Q 844.340709 311.811791 844.340709 310.211791 
L 844.340709 299.269291 
Q 844.340709 297.669291 842.740709 297.669291 
L 734.693209 297.669291 
Q 733.093209 297.669291 733.093209 299.269291 
L 733.093209 310.211791 
Q 733.093209 311.811791 734.693209 311.811791 
z
" style="fill:#ffffff;opacity:0.8;stroke:#000000;stroke-linejoin:miter;"/>
    </g>
    <g id="line2d_59">
     <path d="M 736.293209 304.148041 
L 752.293209 304.148041 
" style="fill:none;stroke:#009afa;stroke-linecap:square;"/>
    </g>
    <g id="line2d_60"/>
    <g id="text_25">
     <!-- Reconstruction error -->
     <g transform="translate(758.693209 306.948041)scale(0.08 -0.08)">
      <use xlink:href="#DejaVuSans-52"/>
      <use x="69.419922" xlink:href="#DejaVuSans-65"/>
      <use x="130.943359" xlink:href="#DejaVuSans-63"/>
      <use x="185.923828" xlink:href="#DejaVuSans-6f"/>
      <use x="247.105469" xlink:href="#DejaVuSans-6e"/>
      <use x="310.484375" xlink:href="#DejaVuSans-73"/>
      <use x="362.583984" xlink:href="#DejaVuSans-74"/>
      <use x="401.792969" xlink:href="#DejaVuSans-72"/>
      <use x="442.90625" xlink:href="#DejaVuSans-75"/>
      <use x="506.285156" xlink:href="#DejaVuSans-63"/>
      <use x="561.265625" xlink:href="#DejaVuSans-74"/>
      <use x="600.474609" xlink:href="#DejaVuSans-69"/>
      <use x="628.257812" xlink:href="#DejaVuSans-6f"/>
      <use x="689.439453" xlink:href="#DejaVuSans-6e"/>
      <use x="752.818359" xlink:href="#DejaVuSans-20"/>
      <use x="784.605469" xlink:href="#DejaVuSans-65"/>
      <use x="846.128906" xlink:href="#DejaVuSans-72"/>
      <use x="887.226562" xlink:href="#DejaVuSans-72"/>
      <use x="928.308594" xlink:href="#DejaVuSans-6f"/>
      <use x="989.490234" xlink:href="#DejaVuSans-72"/>
     </g>
    </g>
   </g>
  </g>
 </g>
 <defs>
  <clipPath id="p86e709dc14">
   <rect height="258.141417" width="792.304599" x="56.03611" y="5.669291"/>
  </clipPath>
  <clipPath id="p594a9b7780">
   <rect height="258.141417" width="792.304599" x="56.03611" y="293.669291"/>
  </clipPath>
 </defs>
</svg>
