<?xml version="1.0" encoding="utf-8" standalone="no"?>
<!DOCTYPE svg PUBLIC "-//W3C//DTD SVG 1.1//EN"
  "http://www.w3.org/Graphics/SVG/1.1/DTD/svg11.dtd">
<!-- Created with matplotlib (http://matplotlib.org/) -->
<svg height="576pt" version="1.1" viewBox="0 0 864 576" width="864pt" xmlns="http://www.w3.org/2000/svg" xmlns:xlink="http://www.w3.org/1999/xlink">
 <defs>
  <style type="text/css">
*{stroke-linecap:butt;stroke-linejoin:round;}
  </style>
 </defs>
 <g id="figure_1">
  <g id="patch_1">
   <path d="M 0 576 
L 864 576 
L 864 0 
L 0 0 
z
" style="fill:#ffffff;"/>
  </g>
  <g id="axes_1">
   <g id="patch_2">
    <path d="M 56.03611 260.498709 
L 848.340709 260.498709 
L 848.340709 5.669291 
L 56.03611 5.669291 
z
" style="fill:#ffffff;"/>
   </g>
   <g id="matplotlib.axis_1">
    <g id="xtick_1">
     <g id="line2d_1">
      <path clip-path="url(#ped345cb0db)" d="M 78.459825 260.498709 
L 78.459825 5.669291 
" style="fill:none;opacity:0.1;stroke:#000000;stroke-linecap:square;stroke-width:0.5;"/>
     </g>
     <g id="line2d_2">
      <defs>
       <path d="M 0 0 
L 0 -3.5 
" id="m13732cc9e2" style="stroke:#000000;stroke-width:0.8;"/>
      </defs>
      <g>
       <use style="stroke:#000000;stroke-width:0.8;" x="78.459825" xlink:href="#m13732cc9e2" y="260.498709"/>
      </g>
     </g>
     <g id="text_1">
      <!-- 0.00 -->
      <defs>
       <path d="M 31.78125 66.40625 
Q 24.171875 66.40625 20.328125 58.90625 
Q 16.5 51.421875 16.5 36.375 
Q 16.5 21.390625 20.328125 13.890625 
Q 24.171875 6.390625 31.78125 6.390625 
Q 39.453125 6.390625 43.28125 13.890625 
Q 47.125 21.390625 47.125 36.375 
Q 47.125 51.421875 43.28125 58.90625 
Q 39.453125 66.40625 31.78125 66.40625 
z
M 31.78125 74.21875 
Q 44.046875 74.21875 50.515625 64.515625 
Q 56.984375 54.828125 56.984375 36.375 
Q 56.984375 17.96875 50.515625 8.265625 
Q 44.046875 -1.421875 31.78125 -1.421875 
Q 19.53125 -1.421875 13.0625 8.265625 
Q 6.59375 17.96875 6.59375 36.375 
Q 6.59375 54.828125 13.0625 64.515625 
Q 19.53125 74.21875 31.78125 74.21875 
z
" id="DejaVuSans-30"/>
       <path d="M 10.6875 12.40625 
L 21 12.40625 
L 21 0 
L 10.6875 0 
z
" id="DejaVuSans-2e"/>
      </defs>
      <g transform="translate(69.553575 270.077459)scale(0.08 -0.08)">
       <use xlink:href="#DejaVuSans-30"/>
       <use x="63.623047" xlink:href="#DejaVuSans-2e"/>
       <use x="95.410156" xlink:href="#DejaVuSans-30"/>
       <use x="159.033203" xlink:href="#DejaVuSans-30"/>
      </g>
     </g>
    </g>
    <g id="xtick_2">
     <g id="line2d_3">
      <path clip-path="url(#ped345cb0db)" d="M 265.324117 260.498709 
L 265.324117 5.669291 
" style="fill:none;opacity:0.1;stroke:#000000;stroke-linecap:square;stroke-width:0.5;"/>
     </g>
     <g id="line2d_4">
      <g>
       <use style="stroke:#000000;stroke-width:0.8;" x="265.324117" xlink:href="#m13732cc9e2" y="260.498709"/>
      </g>
     </g>
     <g id="text_2">
      <!-- 0.25 -->
      <defs>
       <path d="M 19.1875 8.296875 
L 53.609375 8.296875 
L 53.609375 0 
L 7.328125 0 
L 7.328125 8.296875 
Q 12.9375 14.109375 22.625 23.890625 
Q 32.328125 33.6875 34.8125 36.53125 
Q 39.546875 41.84375 41.421875 45.53125 
Q 43.3125 49.21875 43.3125 52.78125 
Q 43.3125 58.59375 39.234375 62.25 
Q 35.15625 65.921875 28.609375 65.921875 
Q 23.96875 65.921875 18.8125 64.3125 
Q 13.671875 62.703125 7.8125 59.421875 
L 7.8125 69.390625 
Q 13.765625 71.78125 18.9375 73 
Q 24.125 74.21875 28.421875 74.21875 
Q 39.75 74.21875 46.484375 68.546875 
Q 53.21875 62.890625 53.21875 53.421875 
Q 53.21875 48.921875 51.53125 44.890625 
Q 49.859375 40.875 45.40625 35.40625 
Q 44.1875 33.984375 37.640625 27.21875 
Q 31.109375 20.453125 19.1875 8.296875 
z
" id="DejaVuSans-32"/>
       <path d="M 10.796875 72.90625 
L 49.515625 72.90625 
L 49.515625 64.59375 
L 19.828125 64.59375 
L 19.828125 46.734375 
Q 21.96875 47.46875 24.109375 47.828125 
Q 26.265625 48.1875 28.421875 48.1875 
Q 40.625 48.1875 47.75 41.5 
Q 54.890625 34.8125 54.890625 23.390625 
Q 54.890625 11.625 47.5625 5.09375 
Q 40.234375 -1.421875 26.90625 -1.421875 
Q 22.3125 -1.421875 17.546875 -0.640625 
Q 12.796875 0.140625 7.71875 1.703125 
L 7.71875 11.625 
Q 12.109375 9.234375 16.796875 8.0625 
Q 21.484375 6.890625 26.703125 6.890625 
Q 35.15625 6.890625 40.078125 11.328125 
Q 45.015625 15.765625 45.015625 23.390625 
Q 45.015625 31 40.078125 35.4375 
Q 35.15625 39.890625 26.703125 39.890625 
Q 22.75 39.890625 18.8125 39.015625 
Q 14.890625 38.140625 10.796875 36.28125 
z
" id="DejaVuSans-35"/>
      </defs>
      <g transform="translate(256.417867 270.077459)scale(0.08 -0.08)">
       <use xlink:href="#DejaVuSans-30"/>
       <use x="63.623047" xlink:href="#DejaVuSans-2e"/>
       <use x="95.410156" xlink:href="#DejaVuSans-32"/>
       <use x="159.033203" xlink:href="#DejaVuSans-35"/>
      </g>
     </g>
    </g>
    <g id="xtick_3">
     <g id="line2d_5">
      <path clip-path="url(#ped345cb0db)" d="M 452.188409 260.498709 
L 452.188409 5.669291 
" style="fill:none;opacity:0.1;stroke:#000000;stroke-linecap:square;stroke-width:0.5;"/>
     </g>
     <g id="line2d_6">
      <g>
       <use style="stroke:#000000;stroke-width:0.8;" x="452.188409" xlink:href="#m13732cc9e2" y="260.498709"/>
      </g>
     </g>
     <g id="text_3">
      <!-- 0.50 -->
      <g transform="translate(443.282159 270.077459)scale(0.08 -0.08)">
       <use xlink:href="#DejaVuSans-30"/>
       <use x="63.623047" xlink:href="#DejaVuSans-2e"/>
       <use x="95.410156" xlink:href="#DejaVuSans-35"/>
       <use x="159.033203" xlink:href="#DejaVuSans-30"/>
      </g>
     </g>
    </g>
    <g id="xtick_4">
     <g id="line2d_7">
      <path clip-path="url(#ped345cb0db)" d="M 639.052701 260.498709 
L 639.052701 5.669291 
" style="fill:none;opacity:0.1;stroke:#000000;stroke-linecap:square;stroke-width:0.5;"/>
     </g>
     <g id="line2d_8">
      <g>
       <use style="stroke:#000000;stroke-width:0.8;" x="639.052701" xlink:href="#m13732cc9e2" y="260.498709"/>
      </g>
     </g>
     <g id="text_4">
      <!-- 0.75 -->
      <defs>
       <path d="M 8.203125 72.90625 
L 55.078125 72.90625 
L 55.078125 68.703125 
L 28.609375 0 
L 18.3125 0 
L 43.21875 64.59375 
L 8.203125 64.59375 
z
" id="DejaVuSans-37"/>
      </defs>
      <g transform="translate(630.146451 270.077459)scale(0.08 -0.08)">
       <use xlink:href="#DejaVuSans-30"/>
       <use x="63.623047" xlink:href="#DejaVuSans-2e"/>
       <use x="95.410156" xlink:href="#DejaVuSans-37"/>
       <use x="159.033203" xlink:href="#DejaVuSans-35"/>
      </g>
     </g>
    </g>
    <g id="xtick_5">
     <g id="line2d_9">
      <path clip-path="url(#ped345cb0db)" d="M 825.916994 260.498709 
L 825.916994 5.669291 
" style="fill:none;opacity:0.1;stroke:#000000;stroke-linecap:square;stroke-width:0.5;"/>
     </g>
     <g id="line2d_10">
      <g>
       <use style="stroke:#000000;stroke-width:0.8;" x="825.916994" xlink:href="#m13732cc9e2" y="260.498709"/>
      </g>
     </g>
     <g id="text_5">
      <!-- 1.00 -->
      <defs>
       <path d="M 12.40625 8.296875 
L 28.515625 8.296875 
L 28.515625 63.921875 
L 10.984375 60.40625 
L 10.984375 69.390625 
L 28.421875 72.90625 
L 38.28125 72.90625 
L 38.28125 8.296875 
L 54.390625 8.296875 
L 54.390625 0 
L 12.40625 0 
z
" id="DejaVuSans-31"/>
      </defs>
      <g transform="translate(817.010744 270.077459)scale(0.08 -0.08)">
       <use xlink:href="#DejaVuSans-31"/>
       <use x="63.623047" xlink:href="#DejaVuSans-2e"/>
       <use x="95.410156" xlink:href="#DejaVuSans-30"/>
       <use x="159.033203" xlink:href="#DejaVuSans-30"/>
      </g>
     </g>
    </g>
   </g>
   <g id="matplotlib.axis_2">
    <g id="ytick_1">
     <g id="line2d_11">
      <path clip-path="url(#ped345cb0db)" d="M 56.03611 253.286555 
L 848.340709 253.286555 
" style="fill:none;opacity:0.1;stroke:#000000;stroke-linecap:square;stroke-width:0.5;"/>
     </g>
     <g id="line2d_12">
      <defs>
       <path d="M 0 0 
L 3.5 0 
" id="m6add4a6248" style="stroke:#000000;stroke-width:0.8;"/>
      </defs>
      <g>
       <use style="stroke:#000000;stroke-width:0.8;" x="56.03611" xlink:href="#m6add4a6248" y="253.286555"/>
      </g>
     </g>
     <g id="text_6">
      <!-- 0.00 -->
      <g transform="translate(34.72361 256.32593)scale(0.08 -0.08)">
       <use xlink:href="#DejaVuSans-30"/>
       <use x="63.623047" xlink:href="#DejaVuSans-2e"/>
       <use x="95.410156" xlink:href="#DejaVuSans-30"/>
       <use x="159.033203" xlink:href="#DejaVuSans-30"/>
      </g>
     </g>
    </g>
    <g id="ytick_2">
     <g id="line2d_13">
      <path clip-path="url(#ped345cb0db)" d="M 56.03611 172.14977 
L 848.340709 172.14977 
" style="fill:none;opacity:0.1;stroke:#000000;stroke-linecap:square;stroke-width:0.5;"/>
     </g>
     <g id="line2d_14">
      <g>
       <use style="stroke:#000000;stroke-width:0.8;" x="56.03611" xlink:href="#m6add4a6248" y="172.14977"/>
      </g>
     </g>
     <g id="text_7">
      <!-- 0.05 -->
      <g transform="translate(34.72361 175.189145)scale(0.08 -0.08)">
       <use xlink:href="#DejaVuSans-30"/>
       <use x="63.623047" xlink:href="#DejaVuSans-2e"/>
       <use x="95.410156" xlink:href="#DejaVuSans-30"/>
       <use x="159.033203" xlink:href="#DejaVuSans-35"/>
      </g>
     </g>
    </g>
    <g id="ytick_3">
     <g id="line2d_15">
      <path clip-path="url(#ped345cb0db)" d="M 56.03611 91.012984 
L 848.340709 91.012984 
" style="fill:none;opacity:0.1;stroke:#000000;stroke-linecap:square;stroke-width:0.5;"/>
     </g>
     <g id="line2d_16">
      <g>
       <use style="stroke:#000000;stroke-width:0.8;" x="56.03611" xlink:href="#m6add4a6248" y="91.012984"/>
      </g>
     </g>
     <g id="text_8">
      <!-- 0.10 -->
      <g transform="translate(34.72361 94.052359)scale(0.08 -0.08)">
       <use xlink:href="#DejaVuSans-30"/>
       <use x="63.623047" xlink:href="#DejaVuSans-2e"/>
       <use x="95.410156" xlink:href="#DejaVuSans-31"/>
       <use x="159.033203" xlink:href="#DejaVuSans-30"/>
      </g>
     </g>
    </g>
    <g id="ytick_4">
     <g id="line2d_17">
      <path clip-path="url(#ped345cb0db)" d="M 56.03611 9.876198 
L 848.340709 9.876198 
" style="fill:none;opacity:0.1;stroke:#000000;stroke-linecap:square;stroke-width:0.5;"/>
     </g>
     <g id="line2d_18">
      <g>
       <use style="stroke:#000000;stroke-width:0.8;" x="56.03611" xlink:href="#m6add4a6248" y="9.876198"/>
      </g>
     </g>
     <g id="text_9">
      <!-- 0.15 -->
      <g transform="translate(34.72361 12.915573)scale(0.08 -0.08)">
       <use xlink:href="#DejaVuSans-30"/>
       <use x="63.623047" xlink:href="#DejaVuSans-2e"/>
       <use x="95.410156" xlink:href="#DejaVuSans-31"/>
       <use x="159.033203" xlink:href="#DejaVuSans-35"/>
      </g>
     </g>
    </g>
   </g>
   <g id="line2d_19">
    <path clip-path="url(#ped345cb0db)" d="M 78.459825 253.286555 
L 85.186939 238.943634 
L 91.914054 225.119381 
L 98.641168 211.806699 
L 105.368283 198.99849 
L 112.095397 186.687656 
L 118.822512 174.867099 
L 125.549626 163.529721 
L 132.276741 152.668425 
L 139.003855 142.276112 
L 144.983513 133.426478 
L 150.96317 124.936805 
L 156.942827 116.802108 
L 162.922485 109.017404 
L 168.902142 101.577706 
L 174.881799 94.478029 
L 180.861457 87.713389 
L 186.841114 81.278801 
L 192.820771 75.169279 
L 198.800429 69.379838 
L 204.780086 63.905494 
L 210.759743 58.741261 
L 216.739401 53.882154 
L 222.719058 49.323188 
L 228.698716 45.059379 
L 234.678373 41.08574 
L 240.65803 37.397288 
L 246.637688 33.989037 
L 252.617345 30.856001 
L 258.597002 27.993197 
L 264.57666 25.395638 
L 270.556317 23.058341 
L 276.535974 20.976319 
L 282.515632 19.144588 
L 288.495289 17.558162 
L 294.474946 16.212058 
L 300.454604 15.101289 
L 306.434261 14.22087 
L 312.413918 13.565817 
L 318.393576 13.131145 
L 324.373233 12.911868 
L 330.352891 12.903001 
L 336.332548 13.09956 
L 342.312205 13.496559 
L 349.03932 14.176565 
L 355.766434 15.096846 
L 362.493549 16.250304 
L 369.220663 17.629842 
L 375.947778 19.228362 
L 382.674892 21.038765 
L 390.149464 23.290197 
L 397.624036 25.784715 
L 405.098607 28.512583 
L 412.573179 31.464063 
L 420.795208 34.957344 
L 429.017237 38.696457 
L 437.239266 42.668441 
L 446.208752 47.251878 
L 455.178238 52.080205 
L 464.895181 57.567731 
L 475.359581 63.752174 
L 485.823982 70.195516 
L 497.035839 77.35604 
L 508.995154 85.250688 
L 522.449383 94.400308 
L 538.145984 105.360605 
L 557.57987 119.227942 
L 622.608644 165.885439 
L 637.557787 176.204999 
L 651.012016 185.223995 
L 662.971331 192.979582 
L 674.183188 199.990116 
L 684.647589 206.276338 
L 694.364532 211.867485 
L 704.081475 217.199748 
L 713.050961 221.873558 
L 722.020447 226.291728 
L 730.242476 230.102777 
L 738.464505 233.671921 
L 746.686534 236.986201 
L 754.161105 239.767116 
L 761.635677 242.316953 
L 769.110249 244.625976 
L 776.58482 246.684449 
L 783.311935 248.314806 
L 790.039049 249.727234 
L 796.766164 250.914633 
L 803.493279 251.869907 
L 810.220393 252.585957 
L 816.947508 253.055685 
L 822.927165 253.260695 
L 825.916994 253.286555 
L 825.916994 253.286555 
" style="fill:none;stroke:#009afa;stroke-linecap:round;"/>
   </g>
   <g id="line2d_20">
    <path clip-path="url(#ped345cb0db)" d="M 78.459825 253.286555 
L 85.186939 238.943634 
L 91.914054 225.119381 
L 98.641168 211.806699 
L 105.368283 198.99849 
L 112.095397 186.687656 
L 118.822512 174.867099 
L 125.549626 163.529721 
L 132.276741 152.668425 
L 139.003855 142.276112 
L 144.983513 133.426478 
L 150.96317 124.936805 
L 156.942827 116.802108 
L 162.922485 109.017404 
L 168.902142 101.577706 
L 174.881799 94.478029 
L 180.861457 87.713389 
L 186.841114 81.278801 
L 192.820771 75.169279 
L 198.800429 69.379838 
L 204.780086 63.905494 
L 210.759743 58.741261 
L 216.739401 53.882154 
L 222.719058 49.323188 
L 228.698716 45.059379 
L 234.678373 41.08574 
L 240.65803 37.397288 
L 246.637688 33.989037 
L 252.617345 30.856001 
L 258.597002 27.993197 
L 264.57666 25.395638 
L 270.556317 23.058341 
L 276.535974 20.976319 
L 282.515632 19.144588 
L 288.495289 17.558162 
L 294.474946 16.212058 
L 300.454604 15.101289 
L 306.434261 14.22087 
L 312.413918 13.565817 
L 318.393576 13.131145 
L 324.373233 12.911868 
L 330.352891 12.903001 
L 336.332548 13.09956 
L 342.312205 13.496559 
L 349.03932 14.176565 
L 355.766434 15.096846 
L 362.493549 16.250304 
L 369.220663 17.629842 
L 375.947778 19.228362 
L 382.674892 21.038765 
L 390.149464 23.290197 
L 397.624036 25.784715 
L 405.098607 28.512583 
L 412.573179 31.464063 
L 420.795208 34.957344 
L 429.017237 38.696457 
L 437.239266 42.668441 
L 446.208752 47.251878 
L 455.178238 52.080205 
L 464.895181 57.567731 
L 475.359581 63.752174 
L 485.823982 70.195516 
L 497.035839 77.35604 
L 508.995154 85.250688 
L 522.449383 94.400308 
L 526.934126 97.503927 
L 527.681583 179.675409 
L 528.42904 98.543763 
L 544.873098 110.131043 
L 566.549356 125.695589 
L 612.8917 159.044759 
L 629.335758 170.563459 
L 643.537444 180.248493 
L 656.244216 188.649881 
L 668.203531 196.284606 
L 679.415388 203.165987 
L 689.879789 209.31783 
L 699.596732 214.772236 
L 708.566218 219.567556 
L 717.535704 224.11565 
L 725.757733 228.053184 
L 733.979762 231.755882 
L 742.201791 235.210785 
L 749.676362 238.125673 
L 751.171277 238.681934 
L 751.918734 246.837541 
L 752.666191 239.229107 
L 760.140763 241.825939 
L 767.615334 244.183904 
L 775.089906 246.293265 
L 781.817021 247.971088 
L 788.544135 249.432558 
L 795.27125 250.670577 
L 801.998364 251.678048 
L 808.725479 252.447872 
L 815.452593 252.972952 
L 821.432251 253.228487 
L 825.916994 253.286555 
L 825.916994 253.286555 
" style="fill:none;stroke:#e36f47;stroke-dasharray:3.7,1.6;stroke-dashoffset:0;"/>
   </g>
   <g id="patch_3">
    <path d="M 56.03611 260.498709 
L 56.03611 5.669291 
" style="fill:none;stroke:#000000;stroke-linecap:square;stroke-linejoin:miter;stroke-width:0.8;"/>
   </g>
   <g id="patch_4">
    <path d="M 56.03611 260.498709 
L 848.340709 260.498709 
" style="fill:none;stroke:#000000;stroke-linecap:square;stroke-linejoin:miter;stroke-width:0.8;"/>
   </g>
   <g id="line2d_21">
    <path clip-path="url(#ped345cb0db)" d="M 78.459825 253.286555 
L 81.467072 252.757819 
L 88.222592 251.097362 
L 97.971262 248.431611 
L 109.655736 245.327776 
L 122.00963 242.555977 
L 133.694105 240.858659 
L 143.442774 240.814724 
L 150.198294 242.894949 
L 153.205541 247.090339 
L 156.212789 242.223331 
L 162.968309 237.98208 
L 172.716978 234.402132 
L 184.401453 231.605177 
L 196.755347 230.000353 
L 208.439821 230.015538 
L 218.188491 232.021671 
L 224.944011 236.502406 
L 227.951258 243.495004 
L 230.958506 236.161258 
L 237.714026 230.58249 
L 247.462695 226.7326 
L 259.14717 224.423184 
L 271.501064 223.779398 
L 283.185538 224.970066 
L 292.934208 228.181563 
L 299.689727 233.851346 
L 302.696975 242.041571 
L 305.704223 233.776707 
L 312.459743 227.866143 
L 322.208412 224.246474 
L 333.892887 222.535803 
L 346.246781 222.647117 
L 357.931255 224.5457 
L 367.679925 228.261952 
L 374.435444 234.146876 
L 377.442692 242.27106 
L 380.44994 234.274783 
L 387.20546 228.80059 
L 396.954129 225.76721 
L 408.638604 224.697038 
L 420.992498 225.357517 
L 432.676972 227.5659 
L 442.425642 231.230388 
L 449.181161 236.594103 
L 452.188409 243.724493 
L 455.195657 236.860594 
L 461.951176 232.353382 
L 471.699846 230.11827 
L 483.38432 229.660896 
L 495.738215 230.664603 
L 507.422689 232.854123 
L 517.171359 236.054424 
L 523.926878 240.398134 
L 526.934126 245.942892 
L 529.941374 240.739247 
L 536.696893 237.492071 
L 546.445563 236.12311 
L 558.130037 236.181383 
L 570.483932 237.32238 
L 582.168406 239.233829 
L 591.917076 241.70161 
L 598.672595 244.764074 
L 601.679843 248.467276 
L 604.687091 245.115847 
L 611.44261 243.184207 
L 621.19128 242.605189 
L 632.875754 243.012503 
L 645.229648 244.084855 
L 656.914123 245.528476 
L 666.662792 247.139497 
L 673.418312 248.89703 
L 676.42556 250.838667 
L 679.432808 249.195502 
L 686.188327 248.397343 
L 695.936997 248.387967 
L 707.621471 248.908263 
L 719.975365 249.706033 
L 731.65984 250.561522 
L 741.408509 251.335638 
L 748.164029 252.00211 
L 751.171277 252.598087 
L 754.178525 252.183318 
L 760.934044 252.099029 
L 770.682714 252.294901 
L 782.367188 252.622669 
L 794.721082 252.93992 
L 806.405557 253.156426 
L 816.154226 253.257583 
L 822.909746 253.284419 
L 825.916994 253.286555 
" style="fill:none;stroke:#3ea44e;stroke-linecap:round;"/>
   </g>
   <g id="PathCollection_1">
    <defs>
     <path d="M 0 2 
C 0.530406 2 1.03916 1.789267 1.414214 1.414214 
C 1.789267 1.03916 2 0.530406 2 0 
C 2 -0.530406 1.789267 -1.03916 1.414214 -1.414214 
C 1.03916 -1.789267 0.530406 -2 0 -2 
C -0.530406 -2 -1.03916 -1.789267 -1.414214 -1.414214 
C -1.789267 -1.03916 -2 -0.530406 -2 0 
C -2 0.530406 -1.789267 1.03916 -1.414214 1.414214 
C -1.03916 1.789267 -0.530406 2 0 2 
z
" id="m40b200e8b8" style="stroke:#000000;"/>
    </defs>
    <g clip-path="url(#ped345cb0db)">
     <use style="fill:#3ea44e;stroke:#000000;" x="78.459825" xlink:href="#m40b200e8b8" y="253.286555"/>
     <use style="fill:#3ea44e;stroke:#000000;" x="81.467072" xlink:href="#m40b200e8b8" y="252.757819"/>
     <use style="fill:#3ea44e;stroke:#000000;" x="88.222592" xlink:href="#m40b200e8b8" y="251.097362"/>
     <use style="fill:#3ea44e;stroke:#000000;" x="97.971262" xlink:href="#m40b200e8b8" y="248.431611"/>
     <use style="fill:#3ea44e;stroke:#000000;" x="109.655736" xlink:href="#m40b200e8b8" y="245.327776"/>
     <use style="fill:#3ea44e;stroke:#000000;" x="122.00963" xlink:href="#m40b200e8b8" y="242.555977"/>
     <use style="fill:#3ea44e;stroke:#000000;" x="133.694105" xlink:href="#m40b200e8b8" y="240.858659"/>
     <use style="fill:#3ea44e;stroke:#000000;" x="143.442774" xlink:href="#m40b200e8b8" y="240.814724"/>
     <use style="fill:#3ea44e;stroke:#000000;" x="150.198294" xlink:href="#m40b200e8b8" y="242.894949"/>
     <use style="fill:#3ea44e;stroke:#000000;" x="153.205541" xlink:href="#m40b200e8b8" y="247.090339"/>
     <use style="fill:#3ea44e;stroke:#000000;" x="156.212789" xlink:href="#m40b200e8b8" y="242.223331"/>
     <use style="fill:#3ea44e;stroke:#000000;" x="162.968309" xlink:href="#m40b200e8b8" y="237.98208"/>
     <use style="fill:#3ea44e;stroke:#000000;" x="172.716978" xlink:href="#m40b200e8b8" y="234.402132"/>
     <use style="fill:#3ea44e;stroke:#000000;" x="184.401453" xlink:href="#m40b200e8b8" y="231.605177"/>
     <use style="fill:#3ea44e;stroke:#000000;" x="196.755347" xlink:href="#m40b200e8b8" y="230.000353"/>
     <use style="fill:#3ea44e;stroke:#000000;" x="208.439821" xlink:href="#m40b200e8b8" y="230.015538"/>
     <use style="fill:#3ea44e;stroke:#000000;" x="218.188491" xlink:href="#m40b200e8b8" y="232.021671"/>
     <use style="fill:#3ea44e;stroke:#000000;" x="224.944011" xlink:href="#m40b200e8b8" y="236.502406"/>
     <use style="fill:#3ea44e;stroke:#000000;" x="227.951258" xlink:href="#m40b200e8b8" y="243.495004"/>
     <use style="fill:#3ea44e;stroke:#000000;" x="230.958506" xlink:href="#m40b200e8b8" y="236.161258"/>
     <use style="fill:#3ea44e;stroke:#000000;" x="237.714026" xlink:href="#m40b200e8b8" y="230.58249"/>
     <use style="fill:#3ea44e;stroke:#000000;" x="247.462695" xlink:href="#m40b200e8b8" y="226.7326"/>
     <use style="fill:#3ea44e;stroke:#000000;" x="259.14717" xlink:href="#m40b200e8b8" y="224.423184"/>
     <use style="fill:#3ea44e;stroke:#000000;" x="271.501064" xlink:href="#m40b200e8b8" y="223.779398"/>
     <use style="fill:#3ea44e;stroke:#000000;" x="283.185538" xlink:href="#m40b200e8b8" y="224.970066"/>
     <use style="fill:#3ea44e;stroke:#000000;" x="292.934208" xlink:href="#m40b200e8b8" y="228.181563"/>
     <use style="fill:#3ea44e;stroke:#000000;" x="299.689727" xlink:href="#m40b200e8b8" y="233.851346"/>
     <use style="fill:#3ea44e;stroke:#000000;" x="302.696975" xlink:href="#m40b200e8b8" y="242.041571"/>
     <use style="fill:#3ea44e;stroke:#000000;" x="305.704223" xlink:href="#m40b200e8b8" y="233.776707"/>
     <use style="fill:#3ea44e;stroke:#000000;" x="312.459743" xlink:href="#m40b200e8b8" y="227.866143"/>
     <use style="fill:#3ea44e;stroke:#000000;" x="322.208412" xlink:href="#m40b200e8b8" y="224.246474"/>
     <use style="fill:#3ea44e;stroke:#000000;" x="333.892887" xlink:href="#m40b200e8b8" y="222.535803"/>
     <use style="fill:#3ea44e;stroke:#000000;" x="346.246781" xlink:href="#m40b200e8b8" y="222.647117"/>
     <use style="fill:#3ea44e;stroke:#000000;" x="357.931255" xlink:href="#m40b200e8b8" y="224.5457"/>
     <use style="fill:#3ea44e;stroke:#000000;" x="367.679925" xlink:href="#m40b200e8b8" y="228.261952"/>
     <use style="fill:#3ea44e;stroke:#000000;" x="374.435444" xlink:href="#m40b200e8b8" y="234.146876"/>
     <use style="fill:#3ea44e;stroke:#000000;" x="377.442692" xlink:href="#m40b200e8b8" y="242.27106"/>
     <use style="fill:#3ea44e;stroke:#000000;" x="380.44994" xlink:href="#m40b200e8b8" y="234.274783"/>
     <use style="fill:#3ea44e;stroke:#000000;" x="387.20546" xlink:href="#m40b200e8b8" y="228.80059"/>
     <use style="fill:#3ea44e;stroke:#000000;" x="396.954129" xlink:href="#m40b200e8b8" y="225.76721"/>
     <use style="fill:#3ea44e;stroke:#000000;" x="408.638604" xlink:href="#m40b200e8b8" y="224.697038"/>
     <use style="fill:#3ea44e;stroke:#000000;" x="420.992498" xlink:href="#m40b200e8b8" y="225.357517"/>
     <use style="fill:#3ea44e;stroke:#000000;" x="432.676972" xlink:href="#m40b200e8b8" y="227.5659"/>
     <use style="fill:#3ea44e;stroke:#000000;" x="442.425642" xlink:href="#m40b200e8b8" y="231.230388"/>
     <use style="fill:#3ea44e;stroke:#000000;" x="449.181161" xlink:href="#m40b200e8b8" y="236.594103"/>
     <use style="fill:#3ea44e;stroke:#000000;" x="452.188409" xlink:href="#m40b200e8b8" y="243.724493"/>
     <use style="fill:#3ea44e;stroke:#000000;" x="455.195657" xlink:href="#m40b200e8b8" y="236.860594"/>
     <use style="fill:#3ea44e;stroke:#000000;" x="461.951176" xlink:href="#m40b200e8b8" y="232.353382"/>
     <use style="fill:#3ea44e;stroke:#000000;" x="471.699846" xlink:href="#m40b200e8b8" y="230.11827"/>
     <use style="fill:#3ea44e;stroke:#000000;" x="483.38432" xlink:href="#m40b200e8b8" y="229.660896"/>
     <use style="fill:#3ea44e;stroke:#000000;" x="495.738215" xlink:href="#m40b200e8b8" y="230.664603"/>
     <use style="fill:#3ea44e;stroke:#000000;" x="507.422689" xlink:href="#m40b200e8b8" y="232.854123"/>
     <use style="fill:#3ea44e;stroke:#000000;" x="517.171359" xlink:href="#m40b200e8b8" y="236.054424"/>
     <use style="fill:#3ea44e;stroke:#000000;" x="523.926878" xlink:href="#m40b200e8b8" y="240.398134"/>
     <use style="fill:#3ea44e;stroke:#000000;" x="526.934126" xlink:href="#m40b200e8b8" y="245.942892"/>
     <use style="fill:#3ea44e;stroke:#000000;" x="529.941374" xlink:href="#m40b200e8b8" y="240.739247"/>
     <use style="fill:#3ea44e;stroke:#000000;" x="536.696893" xlink:href="#m40b200e8b8" y="237.492071"/>
     <use style="fill:#3ea44e;stroke:#000000;" x="546.445563" xlink:href="#m40b200e8b8" y="236.12311"/>
     <use style="fill:#3ea44e;stroke:#000000;" x="558.130037" xlink:href="#m40b200e8b8" y="236.181383"/>
     <use style="fill:#3ea44e;stroke:#000000;" x="570.483932" xlink:href="#m40b200e8b8" y="237.32238"/>
     <use style="fill:#3ea44e;stroke:#000000;" x="582.168406" xlink:href="#m40b200e8b8" y="239.233829"/>
     <use style="fill:#3ea44e;stroke:#000000;" x="591.917076" xlink:href="#m40b200e8b8" y="241.70161"/>
     <use style="fill:#3ea44e;stroke:#000000;" x="598.672595" xlink:href="#m40b200e8b8" y="244.764074"/>
     <use style="fill:#3ea44e;stroke:#000000;" x="601.679843" xlink:href="#m40b200e8b8" y="248.467276"/>
     <use style="fill:#3ea44e;stroke:#000000;" x="604.687091" xlink:href="#m40b200e8b8" y="245.115847"/>
     <use style="fill:#3ea44e;stroke:#000000;" x="611.44261" xlink:href="#m40b200e8b8" y="243.184207"/>
     <use style="fill:#3ea44e;stroke:#000000;" x="621.19128" xlink:href="#m40b200e8b8" y="242.605189"/>
     <use style="fill:#3ea44e;stroke:#000000;" x="632.875754" xlink:href="#m40b200e8b8" y="243.012503"/>
     <use style="fill:#3ea44e;stroke:#000000;" x="645.229648" xlink:href="#m40b200e8b8" y="244.084855"/>
     <use style="fill:#3ea44e;stroke:#000000;" x="656.914123" xlink:href="#m40b200e8b8" y="245.528476"/>
     <use style="fill:#3ea44e;stroke:#000000;" x="666.662792" xlink:href="#m40b200e8b8" y="247.139497"/>
     <use style="fill:#3ea44e;stroke:#000000;" x="673.418312" xlink:href="#m40b200e8b8" y="248.89703"/>
     <use style="fill:#3ea44e;stroke:#000000;" x="676.42556" xlink:href="#m40b200e8b8" y="250.838667"/>
     <use style="fill:#3ea44e;stroke:#000000;" x="679.432808" xlink:href="#m40b200e8b8" y="249.195502"/>
     <use style="fill:#3ea44e;stroke:#000000;" x="686.188327" xlink:href="#m40b200e8b8" y="248.397343"/>
     <use style="fill:#3ea44e;stroke:#000000;" x="695.936997" xlink:href="#m40b200e8b8" y="248.387967"/>
     <use style="fill:#3ea44e;stroke:#000000;" x="707.621471" xlink:href="#m40b200e8b8" y="248.908263"/>
     <use style="fill:#3ea44e;stroke:#000000;" x="719.975365" xlink:href="#m40b200e8b8" y="249.706033"/>
     <use style="fill:#3ea44e;stroke:#000000;" x="731.65984" xlink:href="#m40b200e8b8" y="250.561522"/>
     <use style="fill:#3ea44e;stroke:#000000;" x="741.408509" xlink:href="#m40b200e8b8" y="251.335638"/>
     <use style="fill:#3ea44e;stroke:#000000;" x="748.164029" xlink:href="#m40b200e8b8" y="252.00211"/>
     <use style="fill:#3ea44e;stroke:#000000;" x="751.171277" xlink:href="#m40b200e8b8" y="252.598087"/>
     <use style="fill:#3ea44e;stroke:#000000;" x="754.178525" xlink:href="#m40b200e8b8" y="252.183318"/>
     <use style="fill:#3ea44e;stroke:#000000;" x="760.934044" xlink:href="#m40b200e8b8" y="252.099029"/>
     <use style="fill:#3ea44e;stroke:#000000;" x="770.682714" xlink:href="#m40b200e8b8" y="252.294901"/>
     <use style="fill:#3ea44e;stroke:#000000;" x="782.367188" xlink:href="#m40b200e8b8" y="252.622669"/>
     <use style="fill:#3ea44e;stroke:#000000;" x="794.721082" xlink:href="#m40b200e8b8" y="252.93992"/>
     <use style="fill:#3ea44e;stroke:#000000;" x="806.405557" xlink:href="#m40b200e8b8" y="253.156426"/>
     <use style="fill:#3ea44e;stroke:#000000;" x="816.154226" xlink:href="#m40b200e8b8" y="253.257583"/>
     <use style="fill:#3ea44e;stroke:#000000;" x="822.909746" xlink:href="#m40b200e8b8" y="253.284419"/>
     <use style="fill:#3ea44e;stroke:#000000;" x="825.916994" xlink:href="#m40b200e8b8" y="253.286555"/>
    </g>
   </g>
   <g id="legend_1">
    <g id="patch_5">
     <path d="M 727.413209 47.296791 
L 842.740709 47.296791 
Q 844.340709 47.296791 844.340709 45.696791 
L 844.340709 11.269291 
Q 844.340709 9.669291 842.740709 9.669291 
L 727.413209 9.669291 
Q 725.813209 9.669291 725.813209 11.269291 
L 725.813209 45.696791 
Q 725.813209 47.296791 727.413209 47.296791 
z
" style="fill:#ffffff;opacity:0.8;stroke:#000000;stroke-linejoin:miter;"/>
    </g>
    <g id="line2d_22">
     <path d="M 729.013209 16.148041 
L 745.013209 16.148041 
" style="fill:none;stroke:#009afa;stroke-linecap:square;"/>
    </g>
    <g id="line2d_23"/>
    <g id="text_10">
     <!-- $f(x)$ -->
     <defs>
      <path d="M 47.796875 75.984375 
L 46.390625 68.5 
L 37.796875 68.5 
Q 32.90625 68.5 30.6875 66.578125 
Q 28.46875 64.65625 27.390625 59.515625 
L 26.421875 54.6875 
L 41.21875 54.6875 
L 39.890625 47.703125 
L 25.09375 47.703125 
L 15.828125 0 
L 6.78125 0 
L 16.109375 47.703125 
L 7.515625 47.703125 
L 8.796875 54.6875 
L 17.390625 54.6875 
L 18.109375 58.5 
Q 19.96875 68.171875 24.625 72.078125 
Q 29.296875 75.984375 39.3125 75.984375 
z
" id="DejaVuSans-Oblique-66"/>
      <path d="M 31 75.875 
Q 24.46875 64.65625 21.28125 53.65625 
Q 18.109375 42.671875 18.109375 31.390625 
Q 18.109375 20.125 21.3125 9.0625 
Q 24.515625 -2 31 -13.1875 
L 23.1875 -13.1875 
Q 15.875 -1.703125 12.234375 9.375 
Q 8.59375 20.453125 8.59375 31.390625 
Q 8.59375 42.28125 12.203125 53.3125 
Q 15.828125 64.359375 23.1875 75.875 
z
" id="DejaVuSans-28"/>
      <path d="M 60.015625 54.6875 
L 34.90625 27.875 
L 50.296875 0 
L 39.984375 0 
L 28.421875 21.6875 
L 8.296875 0 
L -2.59375 0 
L 24.3125 28.8125 
L 10.015625 54.6875 
L 20.3125 54.6875 
L 30.8125 34.90625 
L 49.125 54.6875 
z
" id="DejaVuSans-Oblique-78"/>
      <path d="M 8.015625 75.875 
L 15.828125 75.875 
Q 23.140625 64.359375 26.78125 53.3125 
Q 30.421875 42.28125 30.421875 31.390625 
Q 30.421875 20.453125 26.78125 9.375 
Q 23.140625 -1.703125 15.828125 -13.1875 
L 8.015625 -13.1875 
Q 14.5 -2 17.703125 9.0625 
Q 20.90625 20.125 20.90625 31.390625 
Q 20.90625 42.671875 17.703125 53.65625 
Q 14.5 64.65625 8.015625 75.875 
z
" id="DejaVuSans-29"/>
     </defs>
     <g transform="translate(751.413209 18.948041)scale(0.08 -0.08)">
      <use transform="translate(0 0.015625)" xlink:href="#DejaVuSans-Oblique-66"/>
      <use transform="translate(35.205078 0.015625)" xlink:href="#DejaVuSans-28"/>
      <use transform="translate(74.21875 0.015625)" xlink:href="#DejaVuSans-Oblique-78"/>
      <use transform="translate(133.398438 0.015625)" xlink:href="#DejaVuSans-29"/>
     </g>
    </g>
    <g id="line2d_24">
     <path d="M 729.013209 27.890541 
L 745.013209 27.890541 
" style="fill:none;stroke:#e36f47;stroke-dasharray:3.7,1.6;stroke-dashoffset:0;"/>
    </g>
    <g id="line2d_25"/>
    <g id="text_11">
     <!-- Reconstruction -->
     <defs>
      <path d="M 44.390625 34.1875 
Q 47.5625 33.109375 50.5625 29.59375 
Q 53.5625 26.078125 56.59375 19.921875 
L 66.609375 0 
L 56 0 
L 46.6875 18.703125 
Q 43.0625 26.03125 39.671875 28.421875 
Q 36.28125 30.8125 30.421875 30.8125 
L 19.671875 30.8125 
L 19.671875 0 
L 9.8125 0 
L 9.8125 72.90625 
L 32.078125 72.90625 
Q 44.578125 72.90625 50.734375 67.671875 
Q 56.890625 62.453125 56.890625 51.90625 
Q 56.890625 45.015625 53.6875 40.46875 
Q 50.484375 35.9375 44.390625 34.1875 
z
M 19.671875 64.796875 
L 19.671875 38.921875 
L 32.078125 38.921875 
Q 39.203125 38.921875 42.84375 42.21875 
Q 46.484375 45.515625 46.484375 51.90625 
Q 46.484375 58.296875 42.84375 61.546875 
Q 39.203125 64.796875 32.078125 64.796875 
z
" id="DejaVuSans-52"/>
      <path d="M 56.203125 29.59375 
L 56.203125 25.203125 
L 14.890625 25.203125 
Q 15.484375 15.921875 20.484375 11.0625 
Q 25.484375 6.203125 34.421875 6.203125 
Q 39.59375 6.203125 44.453125 7.46875 
Q 49.3125 8.734375 54.109375 11.28125 
L 54.109375 2.78125 
Q 49.265625 0.734375 44.1875 -0.34375 
Q 39.109375 -1.421875 33.890625 -1.421875 
Q 20.796875 -1.421875 13.15625 6.1875 
Q 5.515625 13.8125 5.515625 26.8125 
Q 5.515625 40.234375 12.765625 48.109375 
Q 20.015625 56 32.328125 56 
Q 43.359375 56 49.78125 48.890625 
Q 56.203125 41.796875 56.203125 29.59375 
z
M 47.21875 32.234375 
Q 47.125 39.59375 43.09375 43.984375 
Q 39.0625 48.390625 32.421875 48.390625 
Q 24.90625 48.390625 20.390625 44.140625 
Q 15.875 39.890625 15.1875 32.171875 
z
" id="DejaVuSans-65"/>
      <path d="M 48.78125 52.59375 
L 48.78125 44.1875 
Q 44.96875 46.296875 41.140625 47.34375 
Q 37.3125 48.390625 33.40625 48.390625 
Q 24.65625 48.390625 19.8125 42.84375 
Q 14.984375 37.3125 14.984375 27.296875 
Q 14.984375 17.28125 19.8125 11.734375 
Q 24.65625 6.203125 33.40625 6.203125 
Q 37.3125 6.203125 41.140625 7.25 
Q 44.96875 8.296875 48.78125 10.40625 
L 48.78125 2.09375 
Q 45.015625 0.34375 40.984375 -0.53125 
Q 36.96875 -1.421875 32.421875 -1.421875 
Q 20.0625 -1.421875 12.78125 6.34375 
Q 5.515625 14.109375 5.515625 27.296875 
Q 5.515625 40.671875 12.859375 48.328125 
Q 20.21875 56 33.015625 56 
Q 37.15625 56 41.109375 55.140625 
Q 45.0625 54.296875 48.78125 52.59375 
z
" id="DejaVuSans-63"/>
      <path d="M 30.609375 48.390625 
Q 23.390625 48.390625 19.1875 42.75 
Q 14.984375 37.109375 14.984375 27.296875 
Q 14.984375 17.484375 19.15625 11.84375 
Q 23.34375 6.203125 30.609375 6.203125 
Q 37.796875 6.203125 41.984375 11.859375 
Q 46.1875 17.53125 46.1875 27.296875 
Q 46.1875 37.015625 41.984375 42.703125 
Q 37.796875 48.390625 30.609375 48.390625 
z
M 30.609375 56 
Q 42.328125 56 49.015625 48.375 
Q 55.71875 40.765625 55.71875 27.296875 
Q 55.71875 13.875 49.015625 6.21875 
Q 42.328125 -1.421875 30.609375 -1.421875 
Q 18.84375 -1.421875 12.171875 6.21875 
Q 5.515625 13.875 5.515625 27.296875 
Q 5.515625 40.765625 12.171875 48.375 
Q 18.84375 56 30.609375 56 
z
" id="DejaVuSans-6f"/>
      <path d="M 54.890625 33.015625 
L 54.890625 0 
L 45.90625 0 
L 45.90625 32.71875 
Q 45.90625 40.484375 42.875 44.328125 
Q 39.84375 48.1875 33.796875 48.1875 
Q 26.515625 48.1875 22.3125 43.546875 
Q 18.109375 38.921875 18.109375 30.90625 
L 18.109375 0 
L 9.078125 0 
L 9.078125 54.6875 
L 18.109375 54.6875 
L 18.109375 46.1875 
Q 21.34375 51.125 25.703125 53.5625 
Q 30.078125 56 35.796875 56 
Q 45.21875 56 50.046875 50.171875 
Q 54.890625 44.34375 54.890625 33.015625 
z
" id="DejaVuSans-6e"/>
      <path d="M 44.28125 53.078125 
L 44.28125 44.578125 
Q 40.484375 46.53125 36.375 47.5 
Q 32.28125 48.484375 27.875 48.484375 
Q 21.1875 48.484375 17.84375 46.4375 
Q 14.5 44.390625 14.5 40.28125 
Q 14.5 37.15625 16.890625 35.375 
Q 19.28125 33.59375 26.515625 31.984375 
L 29.59375 31.296875 
Q 39.15625 29.25 43.1875 25.515625 
Q 47.21875 21.78125 47.21875 15.09375 
Q 47.21875 7.46875 41.1875 3.015625 
Q 35.15625 -1.421875 24.609375 -1.421875 
Q 20.21875 -1.421875 15.453125 -0.5625 
Q 10.6875 0.296875 5.421875 2 
L 5.421875 11.28125 
Q 10.40625 8.6875 15.234375 7.390625 
Q 20.0625 6.109375 24.8125 6.109375 
Q 31.15625 6.109375 34.5625 8.28125 
Q 37.984375 10.453125 37.984375 14.40625 
Q 37.984375 18.0625 35.515625 20.015625 
Q 33.0625 21.96875 24.703125 23.78125 
L 21.578125 24.515625 
Q 13.234375 26.265625 9.515625 29.90625 
Q 5.8125 33.546875 5.8125 39.890625 
Q 5.8125 47.609375 11.28125 51.796875 
Q 16.75 56 26.8125 56 
Q 31.78125 56 36.171875 55.265625 
Q 40.578125 54.546875 44.28125 53.078125 
z
" id="DejaVuSans-73"/>
      <path d="M 18.3125 70.21875 
L 18.3125 54.6875 
L 36.8125 54.6875 
L 36.8125 47.703125 
L 18.3125 47.703125 
L 18.3125 18.015625 
Q 18.3125 11.328125 20.140625 9.421875 
Q 21.96875 7.515625 27.59375 7.515625 
L 36.8125 7.515625 
L 36.8125 0 
L 27.59375 0 
Q 17.1875 0 13.234375 3.875 
Q 9.28125 7.765625 9.28125 18.015625 
L 9.28125 47.703125 
L 2.6875 47.703125 
L 2.6875 54.6875 
L 9.28125 54.6875 
L 9.28125 70.21875 
z
" id="DejaVuSans-74"/>
      <path d="M 41.109375 46.296875 
Q 39.59375 47.171875 37.8125 47.578125 
Q 36.03125 48 33.890625 48 
Q 26.265625 48 22.1875 43.046875 
Q 18.109375 38.09375 18.109375 28.8125 
L 18.109375 0 
L 9.078125 0 
L 9.078125 54.6875 
L 18.109375 54.6875 
L 18.109375 46.1875 
Q 20.953125 51.171875 25.484375 53.578125 
Q 30.03125 56 36.53125 56 
Q 37.453125 56 38.578125 55.875 
Q 39.703125 55.765625 41.0625 55.515625 
z
" id="DejaVuSans-72"/>
      <path d="M 8.5 21.578125 
L 8.5 54.6875 
L 17.484375 54.6875 
L 17.484375 21.921875 
Q 17.484375 14.15625 20.5 10.265625 
Q 23.53125 6.390625 29.59375 6.390625 
Q 36.859375 6.390625 41.078125 11.03125 
Q 45.3125 15.671875 45.3125 23.6875 
L 45.3125 54.6875 
L 54.296875 54.6875 
L 54.296875 0 
L 45.3125 0 
L 45.3125 8.40625 
Q 42.046875 3.421875 37.71875 1 
Q 33.40625 -1.421875 27.6875 -1.421875 
Q 18.265625 -1.421875 13.375 4.4375 
Q 8.5 10.296875 8.5 21.578125 
z
M 31.109375 56 
z
" id="DejaVuSans-75"/>
      <path d="M 9.421875 54.6875 
L 18.40625 54.6875 
L 18.40625 0 
L 9.421875 0 
z
M 9.421875 75.984375 
L 18.40625 75.984375 
L 18.40625 64.59375 
L 9.421875 64.59375 
z
" id="DejaVuSans-69"/>
     </defs>
     <g transform="translate(751.413209 30.690541)scale(0.08 -0.08)">
      <use xlink:href="#DejaVuSans-52"/>
      <use x="69.419922" xlink:href="#DejaVuSans-65"/>
      <use x="130.943359" xlink:href="#DejaVuSans-63"/>
      <use x="185.923828" xlink:href="#DejaVuSans-6f"/>
      <use x="247.105469" xlink:href="#DejaVuSans-6e"/>
      <use x="310.484375" xlink:href="#DejaVuSans-73"/>
      <use x="362.583984" xlink:href="#DejaVuSans-74"/>
      <use x="401.792969" xlink:href="#DejaVuSans-72"/>
      <use x="442.90625" xlink:href="#DejaVuSans-75"/>
      <use x="506.285156" xlink:href="#DejaVuSans-63"/>
      <use x="561.265625" xlink:href="#DejaVuSans-74"/>
      <use x="600.474609" xlink:href="#DejaVuSans-69"/>
      <use x="628.257812" xlink:href="#DejaVuSans-6f"/>
      <use x="689.439453" xlink:href="#DejaVuSans-6e"/>
     </g>
    </g>
    <g id="line2d_26">
     <path d="M 729.013209 39.633041 
L 745.013209 39.633041 
" style="fill:none;stroke:#3ea44e;stroke-linecap:square;"/>
    </g>
    <g id="line2d_27">
     <defs>
      <path d="M 0 3 
C 0.795609 3 1.55874 2.683901 2.12132 2.12132 
C 2.683901 1.55874 3 0.795609 3 0 
C 3 -0.795609 2.683901 -1.55874 2.12132 -2.12132 
C 1.55874 -2.683901 0.795609 -3 0 -3 
C -0.795609 -3 -1.55874 -2.683901 -2.12132 -2.12132 
C -2.683901 -1.55874 -3 -0.795609 -3 0 
C -3 0.795609 -2.683901 1.55874 -2.12132 2.12132 
C -1.55874 2.683901 -0.795609 3 0 3 
z
" id="mc9d682dc11" style="stroke:#000000;"/>
     </defs>
     <g>
      <use style="fill:#3ea44e;stroke:#000000;" x="737.013209" xlink:href="#mc9d682dc11" y="39.633041"/>
     </g>
    </g>
    <g id="text_12">
     <!-- Expansion coefficients -->
     <defs>
      <path d="M 9.8125 72.90625 
L 55.90625 72.90625 
L 55.90625 64.59375 
L 19.671875 64.59375 
L 19.671875 43.015625 
L 54.390625 43.015625 
L 54.390625 34.71875 
L 19.671875 34.71875 
L 19.671875 8.296875 
L 56.78125 8.296875 
L 56.78125 0 
L 9.8125 0 
z
" id="DejaVuSans-45"/>
      <path d="M 54.890625 54.6875 
L 35.109375 28.078125 
L 55.90625 0 
L 45.3125 0 
L 29.390625 21.484375 
L 13.484375 0 
L 2.875 0 
L 24.125 28.609375 
L 4.6875 54.6875 
L 15.28125 54.6875 
L 29.78125 35.203125 
L 44.28125 54.6875 
z
" id="DejaVuSans-78"/>
      <path d="M 18.109375 8.203125 
L 18.109375 -20.796875 
L 9.078125 -20.796875 
L 9.078125 54.6875 
L 18.109375 54.6875 
L 18.109375 46.390625 
Q 20.953125 51.265625 25.265625 53.625 
Q 29.59375 56 35.59375 56 
Q 45.5625 56 51.78125 48.09375 
Q 58.015625 40.1875 58.015625 27.296875 
Q 58.015625 14.40625 51.78125 6.484375 
Q 45.5625 -1.421875 35.59375 -1.421875 
Q 29.59375 -1.421875 25.265625 0.953125 
Q 20.953125 3.328125 18.109375 8.203125 
z
M 48.6875 27.296875 
Q 48.6875 37.203125 44.609375 42.84375 
Q 40.53125 48.484375 33.40625 48.484375 
Q 26.265625 48.484375 22.1875 42.84375 
Q 18.109375 37.203125 18.109375 27.296875 
Q 18.109375 17.390625 22.1875 11.75 
Q 26.265625 6.109375 33.40625 6.109375 
Q 40.53125 6.109375 44.609375 11.75 
Q 48.6875 17.390625 48.6875 27.296875 
z
" id="DejaVuSans-70"/>
      <path d="M 34.28125 27.484375 
Q 23.390625 27.484375 19.1875 25 
Q 14.984375 22.515625 14.984375 16.5 
Q 14.984375 11.71875 18.140625 8.90625 
Q 21.296875 6.109375 26.703125 6.109375 
Q 34.1875 6.109375 38.703125 11.40625 
Q 43.21875 16.703125 43.21875 25.484375 
L 43.21875 27.484375 
z
M 52.203125 31.203125 
L 52.203125 0 
L 43.21875 0 
L 43.21875 8.296875 
Q 40.140625 3.328125 35.546875 0.953125 
Q 30.953125 -1.421875 24.3125 -1.421875 
Q 15.921875 -1.421875 10.953125 3.296875 
Q 6 8.015625 6 15.921875 
Q 6 25.140625 12.171875 29.828125 
Q 18.359375 34.515625 30.609375 34.515625 
L 43.21875 34.515625 
L 43.21875 35.40625 
Q 43.21875 41.609375 39.140625 45 
Q 35.0625 48.390625 27.6875 48.390625 
Q 23 48.390625 18.546875 47.265625 
Q 14.109375 46.140625 10.015625 43.890625 
L 10.015625 52.203125 
Q 14.9375 54.109375 19.578125 55.046875 
Q 24.21875 56 28.609375 56 
Q 40.484375 56 46.34375 49.84375 
Q 52.203125 43.703125 52.203125 31.203125 
z
" id="DejaVuSans-61"/>
      <path id="DejaVuSans-20"/>
      <path d="M 37.109375 75.984375 
L 37.109375 68.5 
L 28.515625 68.5 
Q 23.6875 68.5 21.796875 66.546875 
Q 19.921875 64.59375 19.921875 59.515625 
L 19.921875 54.6875 
L 34.71875 54.6875 
L 34.71875 47.703125 
L 19.921875 47.703125 
L 19.921875 0 
L 10.890625 0 
L 10.890625 47.703125 
L 2.296875 47.703125 
L 2.296875 54.6875 
L 10.890625 54.6875 
L 10.890625 58.5 
Q 10.890625 67.625 15.140625 71.796875 
Q 19.390625 75.984375 28.609375 75.984375 
z
" id="DejaVuSans-66"/>
     </defs>
     <g transform="translate(751.413209 42.433041)scale(0.08 -0.08)">
      <use xlink:href="#DejaVuSans-45"/>
      <use x="63.183594" xlink:href="#DejaVuSans-78"/>
      <use x="122.363281" xlink:href="#DejaVuSans-70"/>
      <use x="185.839844" xlink:href="#DejaVuSans-61"/>
      <use x="247.119141" xlink:href="#DejaVuSans-6e"/>
      <use x="310.498047" xlink:href="#DejaVuSans-73"/>
      <use x="362.597656" xlink:href="#DejaVuSans-69"/>
      <use x="390.380859" xlink:href="#DejaVuSans-6f"/>
      <use x="451.5625" xlink:href="#DejaVuSans-6e"/>
      <use x="514.941406" xlink:href="#DejaVuSans-20"/>
      <use x="546.728516" xlink:href="#DejaVuSans-63"/>
      <use x="601.708984" xlink:href="#DejaVuSans-6f"/>
      <use x="662.890625" xlink:href="#DejaVuSans-65"/>
      <use x="724.414062" xlink:href="#DejaVuSans-66"/>
      <use x="759.619141" xlink:href="#DejaVuSans-66"/>
      <use x="794.824219" xlink:href="#DejaVuSans-69"/>
      <use x="822.607422" xlink:href="#DejaVuSans-63"/>
      <use x="877.587891" xlink:href="#DejaVuSans-69"/>
      <use x="905.371094" xlink:href="#DejaVuSans-65"/>
      <use x="966.894531" xlink:href="#DejaVuSans-6e"/>
      <use x="1030.273438" xlink:href="#DejaVuSans-74"/>
      <use x="1069.482422" xlink:href="#DejaVuSans-73"/>
     </g>
    </g>
   </g>
  </g>
  <g id="axes_2">
   <g id="patch_6">
    <path d="M 56.03611 551.810709 
L 848.340709 551.810709 
L 848.340709 296.981291 
L 56.03611 296.981291 
z
" style="fill:#ffffff;"/>
   </g>
   <g id="matplotlib.axis_3">
    <g id="xtick_6">
     <g id="line2d_28">
      <path clip-path="url(#pc54e4c4457)" d="M 56.03611 551.810709 
L 56.03611 296.981291 
" style="fill:none;opacity:0.1;stroke:#000000;stroke-linecap:square;stroke-width:0.5;"/>
     </g>
     <g id="line2d_29">
      <g>
       <use style="stroke:#000000;stroke-width:0.8;" x="56.03611" xlink:href="#m13732cc9e2" y="551.810709"/>
      </g>
     </g>
     <g id="text_13">
      <!-- 0.0 -->
      <g transform="translate(49.67486 561.389459)scale(0.08 -0.08)">
       <use xlink:href="#DejaVuSans-30"/>
       <use x="63.623047" xlink:href="#DejaVuSans-2e"/>
       <use x="95.410156" xlink:href="#DejaVuSans-30"/>
      </g>
     </g>
    </g>
    <g id="xtick_7">
     <g id="line2d_30">
      <path clip-path="url(#pc54e4c4457)" d="M 214.497029 551.810709 
L 214.497029 296.981291 
" style="fill:none;opacity:0.1;stroke:#000000;stroke-linecap:square;stroke-width:0.5;"/>
     </g>
     <g id="line2d_31">
      <g>
       <use style="stroke:#000000;stroke-width:0.8;" x="214.497029" xlink:href="#m13732cc9e2" y="551.810709"/>
      </g>
     </g>
     <g id="text_14">
      <!-- 0.2 -->
      <g transform="translate(208.135779 561.389459)scale(0.08 -0.08)">
       <use xlink:href="#DejaVuSans-30"/>
       <use x="63.623047" xlink:href="#DejaVuSans-2e"/>
       <use x="95.410156" xlink:href="#DejaVuSans-32"/>
      </g>
     </g>
    </g>
    <g id="xtick_8">
     <g id="line2d_32">
      <path clip-path="url(#pc54e4c4457)" d="M 372.957949 551.810709 
L 372.957949 296.981291 
" style="fill:none;opacity:0.1;stroke:#000000;stroke-linecap:square;stroke-width:0.5;"/>
     </g>
     <g id="line2d_33">
      <g>
       <use style="stroke:#000000;stroke-width:0.8;" x="372.957949" xlink:href="#m13732cc9e2" y="551.810709"/>
      </g>
     </g>
     <g id="text_15">
      <!-- 0.4 -->
      <defs>
       <path d="M 37.796875 64.3125 
L 12.890625 25.390625 
L 37.796875 25.390625 
z
M 35.203125 72.90625 
L 47.609375 72.90625 
L 47.609375 25.390625 
L 58.015625 25.390625 
L 58.015625 17.1875 
L 47.609375 17.1875 
L 47.609375 0 
L 37.796875 0 
L 37.796875 17.1875 
L 4.890625 17.1875 
L 4.890625 26.703125 
z
" id="DejaVuSans-34"/>
      </defs>
      <g transform="translate(366.596699 561.389459)scale(0.08 -0.08)">
       <use xlink:href="#DejaVuSans-30"/>
       <use x="63.623047" xlink:href="#DejaVuSans-2e"/>
       <use x="95.410156" xlink:href="#DejaVuSans-34"/>
      </g>
     </g>
    </g>
    <g id="xtick_9">
     <g id="line2d_34">
      <path clip-path="url(#pc54e4c4457)" d="M 531.418869 551.810709 
L 531.418869 296.981291 
" style="fill:none;opacity:0.1;stroke:#000000;stroke-linecap:square;stroke-width:0.5;"/>
     </g>
     <g id="line2d_35">
      <g>
       <use style="stroke:#000000;stroke-width:0.8;" x="531.418869" xlink:href="#m13732cc9e2" y="551.810709"/>
      </g>
     </g>
     <g id="text_16">
      <!-- 0.6 -->
      <defs>
       <path d="M 33.015625 40.375 
Q 26.375 40.375 22.484375 35.828125 
Q 18.609375 31.296875 18.609375 23.390625 
Q 18.609375 15.53125 22.484375 10.953125 
Q 26.375 6.390625 33.015625 6.390625 
Q 39.65625 6.390625 43.53125 10.953125 
Q 47.40625 15.53125 47.40625 23.390625 
Q 47.40625 31.296875 43.53125 35.828125 
Q 39.65625 40.375 33.015625 40.375 
z
M 52.59375 71.296875 
L 52.59375 62.3125 
Q 48.875 64.0625 45.09375 64.984375 
Q 41.3125 65.921875 37.59375 65.921875 
Q 27.828125 65.921875 22.671875 59.328125 
Q 17.53125 52.734375 16.796875 39.40625 
Q 19.671875 43.65625 24.015625 45.921875 
Q 28.375 48.1875 33.59375 48.1875 
Q 44.578125 48.1875 50.953125 41.515625 
Q 57.328125 34.859375 57.328125 23.390625 
Q 57.328125 12.15625 50.6875 5.359375 
Q 44.046875 -1.421875 33.015625 -1.421875 
Q 20.359375 -1.421875 13.671875 8.265625 
Q 6.984375 17.96875 6.984375 36.375 
Q 6.984375 53.65625 15.1875 63.9375 
Q 23.390625 74.21875 37.203125 74.21875 
Q 40.921875 74.21875 44.703125 73.484375 
Q 48.484375 72.75 52.59375 71.296875 
z
" id="DejaVuSans-36"/>
      </defs>
      <g transform="translate(525.057619 561.389459)scale(0.08 -0.08)">
       <use xlink:href="#DejaVuSans-30"/>
       <use x="63.623047" xlink:href="#DejaVuSans-2e"/>
       <use x="95.410156" xlink:href="#DejaVuSans-36"/>
      </g>
     </g>
    </g>
    <g id="xtick_10">
     <g id="line2d_36">
      <path clip-path="url(#pc54e4c4457)" d="M 689.879789 551.810709 
L 689.879789 296.981291 
" style="fill:none;opacity:0.1;stroke:#000000;stroke-linecap:square;stroke-width:0.5;"/>
     </g>
     <g id="line2d_37">
      <g>
       <use style="stroke:#000000;stroke-width:0.8;" x="689.879789" xlink:href="#m13732cc9e2" y="551.810709"/>
      </g>
     </g>
     <g id="text_17">
      <!-- 0.8 -->
      <defs>
       <path d="M 31.78125 34.625 
Q 24.75 34.625 20.71875 30.859375 
Q 16.703125 27.09375 16.703125 20.515625 
Q 16.703125 13.921875 20.71875 10.15625 
Q 24.75 6.390625 31.78125 6.390625 
Q 38.8125 6.390625 42.859375 10.171875 
Q 46.921875 13.96875 46.921875 20.515625 
Q 46.921875 27.09375 42.890625 30.859375 
Q 38.875 34.625 31.78125 34.625 
z
M 21.921875 38.8125 
Q 15.578125 40.375 12.03125 44.71875 
Q 8.5 49.078125 8.5 55.328125 
Q 8.5 64.0625 14.71875 69.140625 
Q 20.953125 74.21875 31.78125 74.21875 
Q 42.671875 74.21875 48.875 69.140625 
Q 55.078125 64.0625 55.078125 55.328125 
Q 55.078125 49.078125 51.53125 44.71875 
Q 48 40.375 41.703125 38.8125 
Q 48.828125 37.15625 52.796875 32.3125 
Q 56.78125 27.484375 56.78125 20.515625 
Q 56.78125 9.90625 50.3125 4.234375 
Q 43.84375 -1.421875 31.78125 -1.421875 
Q 19.734375 -1.421875 13.25 4.234375 
Q 6.78125 9.90625 6.78125 20.515625 
Q 6.78125 27.484375 10.78125 32.3125 
Q 14.796875 37.15625 21.921875 38.8125 
z
M 18.3125 54.390625 
Q 18.3125 48.734375 21.84375 45.5625 
Q 25.390625 42.390625 31.78125 42.390625 
Q 38.140625 42.390625 41.71875 45.5625 
Q 45.3125 48.734375 45.3125 54.390625 
Q 45.3125 60.0625 41.71875 63.234375 
Q 38.140625 66.40625 31.78125 66.40625 
Q 25.390625 66.40625 21.84375 63.234375 
Q 18.3125 60.0625 18.3125 54.390625 
z
" id="DejaVuSans-38"/>
      </defs>
      <g transform="translate(683.518539 561.389459)scale(0.08 -0.08)">
       <use xlink:href="#DejaVuSans-30"/>
       <use x="63.623047" xlink:href="#DejaVuSans-2e"/>
       <use x="95.410156" xlink:href="#DejaVuSans-38"/>
      </g>
     </g>
    </g>
    <g id="xtick_11">
     <g id="line2d_38">
      <path clip-path="url(#pc54e4c4457)" d="M 848.340709 551.810709 
L 848.340709 296.981291 
" style="fill:none;opacity:0.1;stroke:#000000;stroke-linecap:square;stroke-width:0.5;"/>
     </g>
     <g id="line2d_39">
      <g>
       <use style="stroke:#000000;stroke-width:0.8;" x="848.340709" xlink:href="#m13732cc9e2" y="551.810709"/>
      </g>
     </g>
     <g id="text_18">
      <!-- 1.0 -->
      <g transform="translate(841.979459 561.389459)scale(0.08 -0.08)">
       <use xlink:href="#DejaVuSans-31"/>
       <use x="63.623047" xlink:href="#DejaVuSans-2e"/>
       <use x="95.410156" xlink:href="#DejaVuSans-30"/>
      </g>
     </g>
    </g>
   </g>
   <g id="matplotlib.axis_4">
    <g id="ytick_5">
     <g id="line2d_40">
      <path clip-path="url(#pc54e4c4457)" d="M 56.03611 551.810709 
L 848.340709 551.810709 
" style="fill:none;opacity:0.1;stroke:#000000;stroke-linecap:square;stroke-width:0.5;"/>
     </g>
     <g id="line2d_41">
      <g>
       <use style="stroke:#000000;stroke-width:0.8;" x="56.03611" xlink:href="#m6add4a6248" y="551.810709"/>
      </g>
     </g>
     <g id="text_19">
      <!-- $10^{-20}$ -->
      <defs>
       <path d="M 10.59375 35.5 
L 73.1875 35.5 
L 73.1875 27.203125 
L 10.59375 27.203125 
z
" id="DejaVuSans-2212"/>
      </defs>
      <g transform="translate(30.21611 554.850084)scale(0.08 -0.08)">
       <use transform="translate(0 0.765625)" xlink:href="#DejaVuSans-31"/>
       <use transform="translate(63.623047 0.765625)" xlink:href="#DejaVuSans-30"/>
       <use transform="translate(128.203125 39.046875)scale(0.7)" xlink:href="#DejaVuSans-2212"/>
       <use transform="translate(186.855469 39.046875)scale(0.7)" xlink:href="#DejaVuSans-32"/>
       <use transform="translate(231.391602 39.046875)scale(0.7)" xlink:href="#DejaVuSans-30"/>
      </g>
     </g>
    </g>
    <g id="ytick_6">
     <g id="line2d_42">
      <path clip-path="url(#pc54e4c4457)" d="M 56.03611 488.103354 
L 848.340709 488.103354 
" style="fill:none;opacity:0.1;stroke:#000000;stroke-linecap:square;stroke-width:0.5;"/>
     </g>
     <g id="line2d_43">
      <g>
       <use style="stroke:#000000;stroke-width:0.8;" x="56.03611" xlink:href="#m6add4a6248" y="488.103354"/>
      </g>
     </g>
     <g id="text_20">
      <!-- $10^{-15}$ -->
      <g transform="translate(30.21611 491.142729)scale(0.08 -0.08)">
       <use transform="translate(0 0.684375)" xlink:href="#DejaVuSans-31"/>
       <use transform="translate(63.623047 0.684375)" xlink:href="#DejaVuSans-30"/>
       <use transform="translate(128.203125 38.965625)scale(0.7)" xlink:href="#DejaVuSans-2212"/>
       <use transform="translate(186.855469 38.965625)scale(0.7)" xlink:href="#DejaVuSans-31"/>
       <use transform="translate(231.391602 38.965625)scale(0.7)" xlink:href="#DejaVuSans-35"/>
      </g>
     </g>
    </g>
    <g id="ytick_7">
     <g id="line2d_44">
      <path clip-path="url(#pc54e4c4457)" d="M 56.03611 424.396 
L 848.340709 424.396 
" style="fill:none;opacity:0.1;stroke:#000000;stroke-linecap:square;stroke-width:0.5;"/>
     </g>
     <g id="line2d_45">
      <g>
       <use style="stroke:#000000;stroke-width:0.8;" x="56.03611" xlink:href="#m6add4a6248" y="424.396"/>
      </g>
     </g>
     <g id="text_21">
      <!-- $10^{-10}$ -->
      <g transform="translate(30.21611 427.435375)scale(0.08 -0.08)">
       <use transform="translate(0 0.765625)" xlink:href="#DejaVuSans-31"/>
       <use transform="translate(63.623047 0.765625)" xlink:href="#DejaVuSans-30"/>
       <use transform="translate(128.203125 39.046875)scale(0.7)" xlink:href="#DejaVuSans-2212"/>
       <use transform="translate(186.855469 39.046875)scale(0.7)" xlink:href="#DejaVuSans-31"/>
       <use transform="translate(231.391602 39.046875)scale(0.7)" xlink:href="#DejaVuSans-30"/>
      </g>
     </g>
    </g>
    <g id="ytick_8">
     <g id="line2d_46">
      <path clip-path="url(#pc54e4c4457)" d="M 56.03611 360.688646 
L 848.340709 360.688646 
" style="fill:none;opacity:0.1;stroke:#000000;stroke-linecap:square;stroke-width:0.5;"/>
     </g>
     <g id="line2d_47">
      <g>
       <use style="stroke:#000000;stroke-width:0.8;" x="56.03611" xlink:href="#m6add4a6248" y="360.688646"/>
      </g>
     </g>
     <g id="text_22">
      <!-- $10^{-5}$ -->
      <g transform="translate(33.73611 363.728021)scale(0.08 -0.08)">
       <use transform="translate(0 0.684375)" xlink:href="#DejaVuSans-31"/>
       <use transform="translate(63.623047 0.684375)" xlink:href="#DejaVuSans-30"/>
       <use transform="translate(128.203125 38.965625)scale(0.7)" xlink:href="#DejaVuSans-2212"/>
       <use transform="translate(186.855469 38.965625)scale(0.7)" xlink:href="#DejaVuSans-35"/>
      </g>
     </g>
    </g>
    <g id="ytick_9">
     <g id="line2d_48">
      <path clip-path="url(#pc54e4c4457)" d="M 56.03611 296.981291 
L 848.340709 296.981291 
" style="fill:none;opacity:0.1;stroke:#000000;stroke-linecap:square;stroke-width:0.5;"/>
     </g>
     <g id="line2d_49">
      <g>
       <use style="stroke:#000000;stroke-width:0.8;" x="56.03611" xlink:href="#m6add4a6248" y="296.981291"/>
      </g>
     </g>
     <g id="text_23">
      <!-- $10^{0}$ -->
      <g transform="translate(38.45611 300.020666)scale(0.08 -0.08)">
       <use transform="translate(0 0.765625)" xlink:href="#DejaVuSans-31"/>
       <use transform="translate(63.623047 0.765625)" xlink:href="#DejaVuSans-30"/>
       <use transform="translate(128.203125 39.046875)scale(0.7)" xlink:href="#DejaVuSans-30"/>
      </g>
     </g>
    </g>
    <g id="ytick_10">
     <g id="line2d_50">
      <defs>
       <path d="M 0 0 
L -2 0 
" id="ma34d9f8498" style="stroke:#000000;stroke-width:0.6;"/>
      </defs>
      <g>
       <use style="stroke:#000000;stroke-width:0.6;" x="56.03611" xlink:href="#ma34d9f8498" y="551.810709"/>
      </g>
     </g>
    </g>
    <g id="ytick_11">
     <g id="line2d_51">
      <g>
       <use style="stroke:#000000;stroke-width:0.6;" x="56.03611" xlink:href="#ma34d9f8498" y="539.069238"/>
      </g>
     </g>
    </g>
    <g id="ytick_12">
     <g id="line2d_52">
      <g>
       <use style="stroke:#000000;stroke-width:0.6;" x="56.03611" xlink:href="#ma34d9f8498" y="526.327767"/>
      </g>
     </g>
    </g>
    <g id="ytick_13">
     <g id="line2d_53">
      <g>
       <use style="stroke:#000000;stroke-width:0.6;" x="56.03611" xlink:href="#ma34d9f8498" y="513.586296"/>
      </g>
     </g>
    </g>
    <g id="ytick_14">
     <g id="line2d_54">
      <g>
       <use style="stroke:#000000;stroke-width:0.6;" x="56.03611" xlink:href="#ma34d9f8498" y="500.844825"/>
      </g>
     </g>
    </g>
    <g id="ytick_15">
     <g id="line2d_55">
      <g>
       <use style="stroke:#000000;stroke-width:0.6;" x="56.03611" xlink:href="#ma34d9f8498" y="488.103354"/>
      </g>
     </g>
    </g>
    <g id="ytick_16">
     <g id="line2d_56">
      <g>
       <use style="stroke:#000000;stroke-width:0.6;" x="56.03611" xlink:href="#ma34d9f8498" y="475.361883"/>
      </g>
     </g>
    </g>
    <g id="ytick_17">
     <g id="line2d_57">
      <g>
       <use style="stroke:#000000;stroke-width:0.6;" x="56.03611" xlink:href="#ma34d9f8498" y="462.620413"/>
      </g>
     </g>
    </g>
    <g id="ytick_18">
     <g id="line2d_58">
      <g>
       <use style="stroke:#000000;stroke-width:0.6;" x="56.03611" xlink:href="#ma34d9f8498" y="449.878942"/>
      </g>
     </g>
    </g>
    <g id="ytick_19">
     <g id="line2d_59">
      <g>
       <use style="stroke:#000000;stroke-width:0.6;" x="56.03611" xlink:href="#ma34d9f8498" y="437.137471"/>
      </g>
     </g>
    </g>
    <g id="ytick_20">
     <g id="line2d_60">
      <g>
       <use style="stroke:#000000;stroke-width:0.6;" x="56.03611" xlink:href="#ma34d9f8498" y="424.396"/>
      </g>
     </g>
    </g>
    <g id="ytick_21">
     <g id="line2d_61">
      <g>
       <use style="stroke:#000000;stroke-width:0.6;" x="56.03611" xlink:href="#ma34d9f8498" y="411.654529"/>
      </g>
     </g>
    </g>
    <g id="ytick_22">
     <g id="line2d_62">
      <g>
       <use style="stroke:#000000;stroke-width:0.6;" x="56.03611" xlink:href="#ma34d9f8498" y="398.913058"/>
      </g>
     </g>
    </g>
    <g id="ytick_23">
     <g id="line2d_63">
      <g>
       <use style="stroke:#000000;stroke-width:0.6;" x="56.03611" xlink:href="#ma34d9f8498" y="386.171587"/>
      </g>
     </g>
    </g>
    <g id="ytick_24">
     <g id="line2d_64">
      <g>
       <use style="stroke:#000000;stroke-width:0.6;" x="56.03611" xlink:href="#ma34d9f8498" y="373.430117"/>
      </g>
     </g>
    </g>
    <g id="ytick_25">
     <g id="line2d_65">
      <g>
       <use style="stroke:#000000;stroke-width:0.6;" x="56.03611" xlink:href="#ma34d9f8498" y="360.688646"/>
      </g>
     </g>
    </g>
    <g id="ytick_26">
     <g id="line2d_66">
      <g>
       <use style="stroke:#000000;stroke-width:0.6;" x="56.03611" xlink:href="#ma34d9f8498" y="347.947175"/>
      </g>
     </g>
    </g>
    <g id="ytick_27">
     <g id="line2d_67">
      <g>
       <use style="stroke:#000000;stroke-width:0.6;" x="56.03611" xlink:href="#ma34d9f8498" y="335.205704"/>
      </g>
     </g>
    </g>
    <g id="ytick_28">
     <g id="line2d_68">
      <g>
       <use style="stroke:#000000;stroke-width:0.6;" x="56.03611" xlink:href="#ma34d9f8498" y="322.464233"/>
      </g>
     </g>
    </g>
    <g id="ytick_29">
     <g id="line2d_69">
      <g>
       <use style="stroke:#000000;stroke-width:0.6;" x="56.03611" xlink:href="#ma34d9f8498" y="309.722762"/>
      </g>
     </g>
    </g>
    <g id="ytick_30">
     <g id="line2d_70">
      <g>
       <use style="stroke:#000000;stroke-width:0.6;" x="56.03611" xlink:href="#ma34d9f8498" y="296.981291"/>
      </g>
     </g>
    </g>
   </g>
   <g id="line2d_71">
    <path clip-path="url(#pc54e4c4457)" d="M 56.03611 551.810709 
L 56.828414 521.517442 
L 57.620719 551.810709 
L 58.413023 523.279622 
L 59.205328 551.810709 
L 59.997632 523.279622 
L 60.789937 521.03596 
L 61.582242 519.444057 
L 62.374546 514.373716 
L 63.166851 523.279622 
L 63.959155 523.279622 
L 64.75146 517.200395 
L 65.543765 515.608492 
L 66.336069 517.200395 
L 67.128374 514.373716 
L 67.920678 551.810709 
L 68.712983 551.810709 
L 69.505288 519.444057 
L 70.297592 515.608492 
L 71.089897 519.444057 
L 71.882201 551.810709 
L 72.674506 519.444057 
L 73.466811 551.810709 
L 74.259115 551.810709 
L 75.05142 515.608492 
L 75.843724 513.36483 
L 76.636029 519.444057 
L 77.428334 509.529265 
L 78.220638 511.772927 
L 79.012943 519.444057 
L 79.805247 513.36483 
L 81.389857 513.36483 
L 82.182161 551.810709 
L 82.974466 509.529265 
L 83.76677 515.608492 
L 85.35138 515.608492 
L 86.143684 551.810709 
L 86.935989 511.772927 
L 87.728293 511.772927 
L 88.520598 551.810709 
L 89.312903 515.608492 
L 90.105207 551.810709 
L 90.897512 515.608492 
L 91.689816 511.772927 
L 92.482121 509.529265 
L 93.274426 551.810709 
L 94.06673 515.608492 
L 94.859035 551.810709 
L 95.651339 511.772927 
L 96.443644 506.702586 
L 97.235949 509.529265 
L 98.820558 509.529265 
L 99.612862 551.810709 
L 100.405167 511.772927 
L 101.197472 515.608492 
L 103.574385 515.608492 
L 104.36669 551.810709 
L 105.158995 515.608492 
L 106.743604 515.608492 
L 107.535908 509.529265 
L 108.328213 551.810709 
L 109.120518 506.702586 
L 109.912822 507.937362 
L 110.705127 505.6937 
L 111.497431 551.810709 
L 112.289736 551.810709 
L 113.082041 507.937362 
L 113.874345 507.937362 
L 114.66665 511.772927 
L 115.458954 511.772927 
L 116.251259 505.6937 
L 117.043564 504.101797 
L 117.835868 505.6937 
L 118.628173 504.101797 
L 119.420477 504.101797 
L 120.212782 502.867021 
L 121.005087 504.101797 
L 121.797391 507.937362 
L 122.589696 505.6937 
L 123.382 505.6937 
L 124.174305 511.772927 
L 124.96661 551.810709 
L 125.758914 511.772927 
L 126.551219 507.937362 
L 127.343523 507.937362 
L 128.135828 511.772927 
L 128.928133 511.772927 
L 129.720437 507.937362 
L 130.512742 507.937362 
L 131.305046 511.772927 
L 132.097351 511.772927 
L 132.889656 551.810709 
L 133.68196 502.867021 
L 135.266569 497.57965 
L 136.058874 507.937362 
L 136.851179 507.937362 
L 137.643483 511.772927 
L 138.435788 507.937362 
L 139.228092 505.6937 
L 140.020397 507.937362 
L 143.189615 507.937362 
L 143.98192 505.6937 
L 144.774225 507.937362 
L 145.566529 507.937362 
L 146.358834 511.772927 
L 147.151138 551.810709 
L 147.943443 511.772927 
L 148.735748 507.937362 
L 149.528052 551.810709 
L 150.320357 511.772927 
L 151.112661 511.772927 
L 151.904966 507.937362 
L 152.697271 505.6937 
L 153.489575 505.6937 
L 154.28188 511.772927 
L 155.866489 511.772927 
L 156.658794 505.6937 
L 157.451098 551.810709 
L 158.243403 511.772927 
L 159.035707 551.810709 
L 159.828012 551.810709 
L 160.620317 507.937362 
L 161.412621 505.6937 
L 162.99723 505.6937 
L 163.789535 511.772927 
L 165.374144 511.772927 
L 166.166449 551.810709 
L 166.958753 511.772927 
L 167.751058 504.101797 
L 168.543363 507.937362 
L 169.335667 507.937362 
L 170.127972 505.6937 
L 170.920276 507.937362 
L 171.712581 551.810709 
L 172.504886 507.937362 
L 173.29719 511.772927 
L 174.089495 511.772927 
L 174.881799 507.937362 
L 175.674104 511.772927 
L 176.466409 511.772927 
L 177.258713 507.937362 
L 178.051018 511.772927 
L 178.843322 504.101797 
L 179.635627 502.867021 
L 180.427932 505.6937 
L 181.220236 504.101797 
L 182.012541 504.101797 
L 182.804845 507.937362 
L 183.59715 505.6937 
L 184.389455 501.858135 
L 185.181759 502.867021 
L 185.974064 504.101797 
L 186.766368 507.937362 
L 187.558673 504.101797 
L 188.350978 511.772927 
L 189.143282 505.6937 
L 189.935587 501.005135 
L 190.727891 505.6937 
L 191.520196 511.772927 
L 192.312501 504.101797 
L 193.104805 507.937362 
L 197.066328 507.937362 
L 197.858633 501.858135 
L 198.650937 507.937362 
L 199.443242 511.772927 
L 200.235547 507.937362 
L 201.027851 501.858135 
L 201.820156 501.858135 
L 202.61246 499.614474 
L 203.404765 504.101797 
L 204.19707 500.266232 
L 204.989374 501.005135 
L 205.781679 497.57965 
L 206.573983 501.858135 
L 207.366288 498.02257 
L 208.158593 504.101797 
L 208.950897 500.266232 
L 209.743202 501.858135 
L 210.535506 501.858135 
L 211.327811 504.101797 
L 212.120116 507.937362 
L 212.91242 501.858135 
L 213.704725 504.101797 
L 214.497029 491.64416 
L 215.289334 501.858135 
L 216.081639 551.810709 
L 216.873943 501.858135 
L 217.666248 507.937362 
L 218.458552 551.810709 
L 219.250857 551.810709 
L 220.043162 507.937362 
L 220.835466 507.937362 
L 221.627771 551.810709 
L 222.420075 551.810709 
L 223.21238 507.937362 
L 224.004685 501.858135 
L 224.796989 504.101797 
L 225.589294 507.937362 
L 226.381598 551.810709 
L 227.173903 504.101797 
L 227.966208 507.937362 
L 228.758512 507.937362 
L 229.550817 501.858135 
L 230.343121 551.810709 
L 231.135426 551.810709 
L 231.927731 504.101797 
L 232.720035 507.937362 
L 233.51234 551.810709 
L 234.304644 504.101797 
L 235.096949 501.858135 
L 235.889254 504.101797 
L 236.681558 504.101797 
L 237.473863 507.937362 
L 238.266167 507.937362 
L 239.058472 551.810709 
L 239.850777 501.858135 
L 240.643081 504.101797 
L 241.435386 504.101797 
L 242.22769 551.810709 
L 243.019995 507.937362 
L 243.8123 500.266232 
L 245.396909 507.937362 
L 246.189213 504.101797 
L 246.981518 501.858135 
L 248.566127 501.858135 
L 249.358432 504.101797 
L 250.150736 504.101797 
L 250.943041 501.858135 
L 251.735345 507.937362 
L 252.52765 507.937362 
L 253.319955 551.810709 
L 254.112259 507.937362 
L 254.904564 504.101797 
L 255.696868 507.937362 
L 257.281478 507.937362 
L 258.073782 551.810709 
L 258.866087 504.101797 
L 261.243001 504.101797 
L 262.035305 501.858135 
L 262.82761 507.937362 
L 264.412219 507.937362 
L 265.204524 501.858135 
L 265.996828 507.937362 
L 266.789133 504.101797 
L 267.581437 551.810709 
L 268.373742 551.810709 
L 269.166047 507.937362 
L 270.750656 507.937362 
L 271.54296 500.266232 
L 272.335265 504.101797 
L 273.12757 501.858135 
L 273.919874 501.858135 
L 274.712179 500.266232 
L 275.504483 500.266232 
L 276.296788 498.02257 
L 277.089093 501.858135 
L 277.881397 497.16957 
L 278.673702 500.266232 
L 279.466006 500.266232 
L 280.258311 501.858135 
L 281.050616 499.031456 
L 281.84292 499.031456 
L 282.635225 507.937362 
L 283.427529 504.101797 
L 284.219834 504.101797 
L 285.012139 507.937362 
L 285.804443 501.858135 
L 286.596748 551.810709 
L 287.389052 500.266232 
L 288.181357 504.101797 
L 288.973662 499.031456 
L 289.765966 504.101797 
L 290.558271 501.858135 
L 291.350575 507.937362 
L 292.14288 500.266232 
L 292.935185 494.668487 
L 293.727489 487.388123 
L 294.519794 551.810709 
L 295.312098 504.101797 
L 296.104403 551.810709 
L 296.896708 507.937362 
L 297.689012 507.937362 
L 298.481317 504.101797 
L 299.273621 507.937362 
L 300.858231 507.937362 
L 301.650535 504.101797 
L 302.44284 501.858135 
L 303.235144 551.810709 
L 304.027449 507.937362 
L 304.819754 507.937362 
L 305.612058 504.101797 
L 306.404363 551.810709 
L 307.196667 504.101797 
L 307.988972 504.101797 
L 308.781277 507.937362 
L 309.573581 551.810709 
L 310.365886 507.937362 
L 311.15819 504.101797 
L 311.950495 507.937362 
L 312.7428 551.810709 
L 313.535104 500.266232 
L 314.327409 504.101797 
L 315.119713 504.101797 
L 315.912018 507.937362 
L 316.704323 551.810709 
L 317.496627 551.810709 
L 318.288932 507.937362 
L 319.081236 507.937362 
L 319.873541 551.810709 
L 320.665846 504.101797 
L 321.45815 551.810709 
L 322.250455 551.810709 
L 323.042759 507.937362 
L 324.627369 507.937362 
L 325.419673 504.101797 
L 326.211978 507.937362 
L 327.004282 551.810709 
L 327.796587 551.810709 
L 328.588892 504.101797 
L 329.381196 501.858135 
L 330.173501 504.101797 
L 332.550415 504.101797 
L 333.342719 507.937362 
L 334.135024 501.858135 
L 334.927328 507.937362 
L 335.719633 504.101797 
L 336.511938 504.101797 
L 337.304242 500.266232 
L 338.888851 507.937362 
L 339.681156 507.937362 
L 340.473461 501.858135 
L 341.265765 507.937362 
L 342.05807 507.937362 
L 342.850374 501.858135 
L 343.642679 501.858135 
L 344.434984 551.810709 
L 345.227288 507.937362 
L 346.019593 551.810709 
L 346.811897 504.101797 
L 347.604202 504.101797 
L 348.396507 507.937362 
L 349.188811 500.266232 
L 349.981116 501.858135 
L 350.77342 504.101797 
L 351.565725 501.858135 
L 352.35803 501.858135 
L 353.150334 504.101797 
L 353.942639 499.031456 
L 354.734943 504.101797 
L 355.527248 501.858135 
L 356.319553 499.031456 
L 357.111857 500.266232 
L 357.904162 501.858135 
L 358.696466 504.101797 
L 361.07338 504.101797 
L 361.865685 551.810709 
L 362.657989 501.858135 
L 363.450294 504.101797 
L 364.242599 507.937362 
L 365.827208 500.266232 
L 366.619512 499.031456 
L 367.411817 499.031456 
L 368.204122 500.266232 
L 368.996426 501.858135 
L 369.788731 507.937362 
L 370.581035 507.937362 
L 371.37334 499.031456 
L 372.165645 494.668487 
L 372.957949 488.107779 
L 373.750254 551.810709 
L 374.542558 507.937362 
L 375.334863 507.937362 
L 376.127168 504.101797 
L 376.919472 551.810709 
L 377.711777 501.858135 
L 378.504081 507.937362 
L 379.296386 504.101797 
L 380.088691 501.858135 
L 380.880995 504.101797 
L 381.6733 504.101797 
L 382.465604 551.810709 
L 383.257909 501.858135 
L 384.050214 507.937362 
L 384.842518 500.266232 
L 385.634823 507.937362 
L 387.219432 507.937362 
L 388.011737 501.858135 
L 388.804041 504.101797 
L 391.180955 504.101797 
L 391.97326 551.810709 
L 392.765564 551.810709 
L 393.557869 501.858135 
L 394.350173 501.858135 
L 395.142478 507.937362 
L 395.934783 504.101797 
L 397.519392 504.101797 
L 398.311696 507.937362 
L 399.104001 551.810709 
L 399.896306 551.810709 
L 400.68861 507.937362 
L 401.480915 504.101797 
L 403.857829 504.101797 
L 404.650133 551.810709 
L 405.442438 507.937362 
L 406.234742 507.937362 
L 407.027047 551.810709 
L 407.819352 507.937362 
L 408.611656 551.810709 
L 409.403961 501.858135 
L 410.196265 507.937362 
L 410.98857 507.937362 
L 411.780875 551.810709 
L 412.573179 551.810709 
L 413.365484 507.937362 
L 414.157788 507.937362 
L 414.950093 501.858135 
L 415.742398 504.101797 
L 416.534702 504.101797 
L 417.327007 507.937362 
L 418.119311 504.101797 
L 418.911616 507.937362 
L 419.703921 504.101797 
L 420.496225 507.937362 
L 421.28853 504.101797 
L 422.080834 507.937362 
L 422.873139 501.858135 
L 423.665444 551.810709 
L 424.457748 501.858135 
L 425.250053 551.810709 
L 426.042357 507.937362 
L 426.834662 504.101797 
L 427.626967 551.810709 
L 428.419271 507.937362 
L 429.211576 551.810709 
L 430.00388 507.937362 
L 430.796185 504.101797 
L 431.58849 507.937362 
L 432.380794 504.101797 
L 433.173099 501.858135 
L 433.965403 501.858135 
L 434.757708 507.937362 
L 435.550012 500.266232 
L 436.342317 500.266232 
L 437.134622 501.858135 
L 437.926926 507.937362 
L 438.719231 551.810709 
L 439.511535 551.810709 
L 440.30384 507.937362 
L 442.680754 507.937362 
L 443.473058 504.101797 
L 444.265363 507.937362 
L 445.057668 504.101797 
L 445.849972 501.858135 
L 446.642277 501.858135 
L 447.434581 500.266232 
L 448.226886 501.858135 
L 449.019191 551.810709 
L 449.811495 507.937362 
L 450.6038 504.101797 
L 451.396104 497.16957 
L 452.188409 493.961115 
L 452.980714 511.772927 
L 453.773018 511.772927 
L 454.565323 551.810709 
L 455.357627 507.937362 
L 456.149932 505.6937 
L 456.942237 507.937362 
L 457.734541 505.6937 
L 458.526846 507.937362 
L 459.31915 511.772927 
L 461.696064 511.772927 
L 462.488369 507.937362 
L 463.280673 551.810709 
L 464.072978 504.101797 
L 464.865283 507.937362 
L 465.657587 507.937362 
L 466.449892 511.772927 
L 467.242196 551.810709 
L 468.034501 551.810709 
L 468.826806 507.937362 
L 469.61911 507.937362 
L 470.411415 511.772927 
L 471.203719 507.937362 
L 471.996024 501.858135 
L 472.788329 511.772927 
L 473.580633 504.101797 
L 474.372938 551.810709 
L 475.165242 501.858135 
L 475.957547 511.772927 
L 476.749852 551.810709 
L 477.542156 505.6937 
L 478.334461 502.867021 
L 479.126765 511.772927 
L 479.91907 507.937362 
L 480.711375 502.867021 
L 481.503679 511.772927 
L 482.295984 507.937362 
L 483.088288 507.937362 
L 483.880593 511.772927 
L 484.672898 505.6937 
L 485.465202 511.772927 
L 486.257507 511.772927 
L 487.049811 507.937362 
L 487.842116 507.937362 
L 488.634421 511.772927 
L 490.21903 504.101797 
L 491.011334 551.810709 
L 491.803639 511.772927 
L 492.595944 505.6937 
L 493.388248 551.810709 
L 494.180553 507.937362 
L 494.972857 507.937362 
L 495.765162 504.101797 
L 496.557467 501.858135 
L 497.349771 504.101797 
L 498.93438 504.101797 
L 499.726685 551.810709 
L 500.51899 507.937362 
L 501.311294 505.6937 
L 502.103599 507.937362 
L 502.895903 511.772927 
L 503.688208 504.101797 
L 504.480513 505.6937 
L 505.272817 551.810709 
L 506.065122 551.810709 
L 506.857426 500.266232 
L 507.649731 505.6937 
L 509.23434 500.266232 
L 510.026645 504.101797 
L 510.818949 504.101797 
L 511.611254 499.614474 
L 512.403559 502.867021 
L 513.195863 501.005135 
L 513.988168 500.266232 
L 514.780472 501.005135 
L 515.572777 499.031456 
L 517.157386 502.867021 
L 517.949691 501.858135 
L 518.741995 501.858135 
L 519.5343 504.101797 
L 520.326605 505.6937 
L 521.118909 507.937362 
L 521.911214 507.937362 
L 522.703518 511.772927 
L 523.495823 551.810709 
L 524.288128 507.937362 
L 525.080432 507.937362 
L 525.872737 504.101797 
L 527.457346 511.772927 
L 529.041955 511.772927 
L 529.83426 504.101797 
L 530.626564 498.02257 
L 531.418869 481.088407 
L 532.211174 313.523308 
L 533.003478 511.772927 
L 533.795783 551.810709 
L 534.588087 507.937362 
L 535.380392 505.6937 
L 536.172697 551.810709 
L 536.965001 511.772927 
L 537.757306 507.937362 
L 538.54961 511.772927 
L 540.13422 511.772927 
L 540.926524 504.101797 
L 541.718829 511.772927 
L 542.511133 507.937362 
L 544.095743 507.937362 
L 544.888047 511.772927 
L 545.680352 507.937362 
L 547.264961 507.937362 
L 548.057266 551.810709 
L 548.84957 504.101797 
L 549.641875 511.772927 
L 550.434179 511.772927 
L 551.226484 551.810709 
L 552.018789 507.937362 
L 552.811093 511.772927 
L 553.603398 507.937362 
L 554.395702 511.772927 
L 555.188007 551.810709 
L 555.980312 511.772927 
L 556.772616 511.772927 
L 557.564921 507.937362 
L 558.357225 551.810709 
L 559.14953 551.810709 
L 559.941835 505.6937 
L 560.734139 551.810709 
L 561.526444 551.810709 
L 562.318748 511.772927 
L 563.111053 551.810709 
L 563.903358 551.810709 
L 564.695662 507.937362 
L 565.487967 551.810709 
L 566.280271 511.772927 
L 567.072576 551.810709 
L 567.864881 511.772927 
L 568.657185 507.937362 
L 569.44949 507.937362 
L 570.241794 505.6937 
L 571.034099 505.6937 
L 571.826404 551.810709 
L 572.618708 505.6937 
L 573.411013 507.937362 
L 574.203317 505.6937 
L 575.787927 505.6937 
L 576.580231 507.937362 
L 577.372536 505.6937 
L 578.16484 505.6937 
L 578.957145 502.867021 
L 579.74945 507.937362 
L 580.541754 505.6937 
L 581.334059 511.772927 
L 582.126363 505.6937 
L 582.918668 511.772927 
L 583.710973 551.810709 
L 584.503277 507.937362 
L 585.295582 551.810709 
L 586.087886 511.772927 
L 586.880191 551.810709 
L 587.672496 511.772927 
L 588.4648 507.937362 
L 589.257105 505.6937 
L 590.049409 507.937362 
L 590.841714 505.6937 
L 591.634019 502.867021 
L 592.426323 504.101797 
L 593.218628 502.867021 
L 594.010932 502.867021 
L 594.803237 505.6937 
L 595.595542 505.6937 
L 596.387846 511.772927 
L 597.180151 511.772927 
L 597.972455 507.937362 
L 598.76476 507.937362 
L 599.557065 511.772927 
L 600.349369 507.937362 
L 601.141674 551.810709 
L 601.933978 507.937362 
L 602.726283 507.937362 
L 603.518588 511.772927 
L 604.310892 507.937362 
L 605.103197 505.6937 
L 605.895501 507.937362 
L 606.687806 505.6937 
L 607.480111 551.810709 
L 608.272415 505.6937 
L 609.06472 502.867021 
L 609.857024 498.504052 
L 610.649329 485.813116 
L 611.441634 551.810709 
L 612.233938 506.702586 
L 613.026243 511.772927 
L 613.818547 515.608492 
L 615.403157 515.608492 
L 616.195461 509.529265 
L 616.987766 511.772927 
L 617.78007 509.529265 
L 618.572375 551.810709 
L 619.36468 511.772927 
L 620.156984 511.772927 
L 620.949289 507.937362 
L 621.741593 506.702586 
L 622.533898 515.608492 
L 623.326203 509.529265 
L 624.118507 511.772927 
L 627.287725 511.772927 
L 628.08003 509.529265 
L 628.872335 511.772927 
L 629.664639 511.772927 
L 630.456944 509.529265 
L 631.249248 506.702586 
L 632.041553 515.608492 
L 633.626162 507.937362 
L 634.418467 515.608492 
L 635.210771 511.772927 
L 636.003076 551.810709 
L 636.795381 515.608492 
L 637.587685 507.937362 
L 638.37999 507.937362 
L 639.172294 509.529265 
L 639.964599 551.810709 
L 640.756904 551.810709 
L 641.549208 511.772927 
L 642.341513 509.529265 
L 643.133817 511.772927 
L 643.926122 515.608492 
L 644.718427 511.772927 
L 645.510731 515.608492 
L 646.303036 511.772927 
L 647.09534 551.810709 
L 647.887645 505.6937 
L 648.67995 515.608492 
L 650.264559 515.608492 
L 651.056863 551.810709 
L 651.849168 509.529265 
L 652.641473 511.772927 
L 653.433777 515.608492 
L 654.226082 509.529265 
L 655.018386 511.772927 
L 655.810691 551.810709 
L 656.602996 511.772927 
L 657.3953 509.529265 
L 658.187605 551.810709 
L 658.979909 511.772927 
L 659.772214 509.529265 
L 660.564519 511.772927 
L 661.356823 511.772927 
L 662.149128 551.810709 
L 662.941432 515.608492 
L 663.733737 515.608492 
L 664.526042 551.810709 
L 665.318346 515.608492 
L 666.110651 551.810709 
L 666.902955 507.937362 
L 667.69526 509.529265 
L 668.487565 511.772927 
L 669.279869 509.529265 
L 670.072174 505.6937 
L 670.864478 507.937362 
L 671.656783 506.702586 
L 672.449088 506.702586 
L 673.241392 507.937362 
L 674.033697 507.937362 
L 674.826001 505.6937 
L 675.618306 507.937362 
L 676.410611 506.702586 
L 677.202915 509.529265 
L 677.99522 511.772927 
L 678.787524 511.772927 
L 679.579829 551.810709 
L 680.372134 515.608492 
L 681.164438 515.608492 
L 681.956743 507.937362 
L 682.749047 507.937362 
L 683.541352 506.702586 
L 684.333657 505.6937 
L 685.125961 506.702586 
L 685.918266 507.937362 
L 687.502875 507.937362 
L 688.29518 509.529265 
L 689.087484 504.8407 
L 689.879789 491.360326 
L 690.672093 511.772927 
L 691.464398 509.529265 
L 692.256703 508.676265 
L 693.841312 508.676265 
L 694.633616 510.538151 
L 695.425921 508.676265 
L 696.218226 511.772927 
L 697.01053 511.772927 
L 697.802835 509.529265 
L 698.595139 508.676265 
L 699.387444 511.772927 
L 700.179749 515.608492 
L 700.972053 510.538151 
L 701.764358 511.772927 
L 702.556662 513.36483 
L 703.348967 519.444057 
L 704.141272 511.772927 
L 704.933576 513.36483 
L 705.725881 513.36483 
L 706.518185 511.772927 
L 707.31049 509.529265 
L 708.102795 510.538151 
L 708.895099 513.36483 
L 709.687404 511.772927 
L 710.479708 511.772927 
L 711.272013 513.36483 
L 712.064318 511.772927 
L 712.856622 513.36483 
L 713.648927 509.529265 
L 714.441231 510.538151 
L 715.233536 513.36483 
L 716.025841 509.529265 
L 716.818145 510.538151 
L 717.61045 510.538151 
L 718.402754 551.810709 
L 719.195059 513.36483 
L 719.987364 513.36483 
L 720.779668 510.538151 
L 721.571973 511.772927 
L 722.364277 511.772927 
L 723.156582 513.36483 
L 723.948887 511.772927 
L 724.741191 515.608492 
L 725.533496 551.810709 
L 726.3258 511.772927 
L 727.118105 511.772927 
L 728.702714 519.444057 
L 729.495019 551.810709 
L 731.079628 551.810709 
L 731.871933 519.444057 
L 733.456542 511.772927 
L 734.248846 551.810709 
L 735.041151 513.36483 
L 735.833456 551.810709 
L 737.418065 551.810709 
L 738.210369 519.444057 
L 739.002674 551.810709 
L 739.794979 513.36483 
L 740.587283 519.444057 
L 741.379588 551.810709 
L 742.171892 517.200395 
L 742.964197 513.36483 
L 743.756502 519.444057 
L 744.548806 511.772927 
L 745.341111 511.121168 
L 746.133415 513.36483 
L 747.718025 513.36483 
L 748.510329 511.772927 
L 749.302634 511.121168 
L 750.094938 509.086345 
L 750.887243 511.121168 
L 751.679548 512.51183 
L 752.471852 512.51183 
L 754.056461 514.373716 
L 755.641071 514.373716 
L 756.433375 523.279622 
L 757.22568 523.279622 
L 758.017984 517.200395 
L 758.810289 523.279622 
L 759.602594 519.444057 
L 760.394898 517.200395 
L 761.187203 523.279622 
L 761.979507 514.373716 
L 762.771812 513.36483 
L 764.356421 513.36483 
L 765.148726 517.200395 
L 765.94103 515.608492 
L 766.733335 519.444057 
L 767.52564 517.200395 
L 768.317944 514.373716 
L 769.110249 491.79173 
L 769.902553 326.46089 
L 770.694858 551.810709 
L 771.487163 523.279622 
L 773.071772 515.608492 
L 773.864076 517.200395 
L 774.656381 515.608492 
L 775.448686 515.608492 
L 776.24099 514.956733 
L 777.033295 516.347394 
L 777.825599 515.608492 
L 780.994818 515.608492 
L 781.787122 516.347394 
L 783.371732 516.347394 
L 784.164036 515.608492 
L 784.956341 515.608492 
L 785.748645 519.444057 
L 786.54095 516.347394 
L 787.333255 514.956733 
L 788.125559 514.373716 
L 788.917864 514.956733 
L 789.710168 516.347394 
L 790.502473 517.200395 
L 791.294778 516.347394 
L 792.087082 519.444057 
L 792.879387 516.347394 
L 793.671691 517.200395 
L 794.463996 515.608492 
L 795.256301 517.200395 
L 796.048605 515.608492 
L 796.84091 514.956733 
L 797.633214 517.681877 
L 798.425519 516.347394 
L 799.217824 515.273022 
L 800.010128 514.956733 
L 801.594737 516.347394 
L 803.179347 517.200395 
L 803.971651 519.444057 
L 804.763956 517.681877 
L 805.55626 517.200395 
L 806.348565 518.209281 
L 807.933174 518.209281 
L 809.517783 519.444057 
L 810.310088 521.03596 
L 811.102393 518.792298 
L 811.894697 523.279622 
L 812.687002 520.59304 
L 813.479306 523.279622 
L 814.271611 521.03596 
L 815.063915 520.182959 
L 815.85622 524.018524 
L 816.648525 524.018524 
L 817.440829 522.044845 
L 818.233134 521.517442 
L 819.025438 522.627863 
L 819.817743 520.59304 
L 820.610048 521.517442 
L 821.402352 522.627863 
L 822.194657 520.182959 
L 822.986961 520.182959 
L 823.779266 520.384202 
L 824.571571 520.810069 
L 825.363875 519.801184 
L 826.15618 519.98878 
L 826.948484 519.801184 
L 827.740789 519.801184 
L 828.533094 519.61974 
L 829.325398 519.61974 
L 830.117703 520.384202 
L 831.702312 520.282666 
L 832.494617 521.644655 
L 833.286921 522.627863 
L 834.079226 523.279622 
L 834.87153 526.463428 
L 835.663835 525.88041 
L 837.248444 532.542655 
L 838.040749 540.213785 
L 838.833053 533.55154 
L 839.625358 534.450847 
L 840.417663 531.307879 
L 841.209967 534.134558 
L 842.002272 535.935299 
L 842.794576 537.387105 
L 843.586881 530.222667 
L 844.379186 527.29087 
L 845.17149 525.40037 
L 846.756099 523.287733 
L 847.548404 524.245444 
L 848.340709 526.487969 
L 848.340709 526.487969 
" style="fill:none;stroke:#009afa;stroke-linecap:round;"/>
   </g>
   <g id="patch_7">
    <path d="M 56.03611 551.810709 
L 56.03611 296.981291 
" style="fill:none;stroke:#000000;stroke-linecap:square;stroke-linejoin:miter;stroke-width:0.8;"/>
   </g>
   <g id="patch_8">
    <path d="M 56.03611 551.810709 
L 848.340709 551.810709 
" style="fill:none;stroke:#000000;stroke-linecap:square;stroke-linejoin:miter;stroke-width:0.8;"/>
   </g>
   <g id="legend_2">
    <g id="patch_9">
     <path d="M 734.693209 315.123791 
L 842.740709 315.123791 
Q 844.340709 315.123791 844.340709 313.523791 
L 844.340709 302.581291 
Q 844.340709 300.981291 842.740709 300.981291 
L 734.693209 300.981291 
Q 733.093209 300.981291 733.093209 302.581291 
L 733.093209 313.523791 
Q 733.093209 315.123791 734.693209 315.123791 
z
" style="fill:#ffffff;opacity:0.8;stroke:#000000;stroke-linejoin:miter;"/>
    </g>
    <g id="line2d_72">
     <path d="M 736.293209 307.460041 
L 752.293209 307.460041 
" style="fill:none;stroke:#009afa;stroke-linecap:square;"/>
    </g>
    <g id="line2d_73"/>
    <g id="text_24">
     <!-- Reconstruction error -->
     <g transform="translate(758.693209 310.260041)scale(0.08 -0.08)">
      <use xlink:href="#DejaVuSans-52"/>
      <use x="69.419922" xlink:href="#DejaVuSans-65"/>
      <use x="130.943359" xlink:href="#DejaVuSans-63"/>
      <use x="185.923828" xlink:href="#DejaVuSans-6f"/>
      <use x="247.105469" xlink:href="#DejaVuSans-6e"/>
      <use x="310.484375" xlink:href="#DejaVuSans-73"/>
      <use x="362.583984" xlink:href="#DejaVuSans-74"/>
      <use x="401.792969" xlink:href="#DejaVuSans-72"/>
      <use x="442.90625" xlink:href="#DejaVuSans-75"/>
      <use x="506.285156" xlink:href="#DejaVuSans-63"/>
      <use x="561.265625" xlink:href="#DejaVuSans-74"/>
      <use x="600.474609" xlink:href="#DejaVuSans-69"/>
      <use x="628.257812" xlink:href="#DejaVuSans-6f"/>
      <use x="689.439453" xlink:href="#DejaVuSans-6e"/>
      <use x="752.818359" xlink:href="#DejaVuSans-20"/>
      <use x="784.605469" xlink:href="#DejaVuSans-65"/>
      <use x="846.128906" xlink:href="#DejaVuSans-72"/>
      <use x="887.226562" xlink:href="#DejaVuSans-72"/>
      <use x="928.308594" xlink:href="#DejaVuSans-6f"/>
      <use x="989.490234" xlink:href="#DejaVuSans-72"/>
     </g>
    </g>
   </g>
  </g>
 </g>
 <defs>
  <clipPath id="ped345cb0db">
   <rect height="254.829417" width="792.304599" x="56.03611" y="5.669291"/>
  </clipPath>
  <clipPath id="pc54e4c4457">
   <rect height="254.829417" width="792.304599" x="56.03611" y="296.981291"/>
  </clipPath>
 </defs>
</svg>
