<?xml version="1.0" encoding="utf-8" standalone="no"?>
<!DOCTYPE svg PUBLIC "-//W3C//DTD SVG 1.1//EN"
  "http://www.w3.org/Graphics/SVG/1.1/DTD/svg11.dtd">
<!-- Created with matplotlib (http://matplotlib.org/) -->
<svg height="288pt" version="1.1" viewBox="0 0 432 288" width="432pt" xmlns="http://www.w3.org/2000/svg" xmlns:xlink="http://www.w3.org/1999/xlink">
 <defs>
  <style type="text/css">
*{stroke-linecap:butt;stroke-linejoin:round;}
  </style>
 </defs>
 <g id="figure_1">
  <g id="patch_1">
   <path d="M 0 288 
L 432 288 
L 432 0 
L 0 0 
z
" style="fill:#ffffff;"/>
  </g>
  <g id="axes_1">
   <g id="patch_2">
    <path d="M 28.018055 131.865772 
L 429.165354 131.865772 
L 429.165354 2.834646 
L 28.018055 2.834646 
z
" style="fill:#ffffff;"/>
   </g>
   <g id="matplotlib.axis_1">
    <g id="xtick_1">
     <g id="line2d_1">
      <path clip-path="url(#pda11f10fd0)" d="M 37.836346 131.865772 
L 37.836346 2.834646 
" style="fill:none;opacity:0.1;stroke:#000000;stroke-linecap:square;stroke-width:0.5;"/>
     </g>
     <g id="line2d_2">
      <defs>
       <path d="M 0 0 
L 0 -3.5 
" id="mef55eb4df6" style="stroke:#000000;stroke-width:0.8;"/>
      </defs>
      <g>
       <use style="stroke:#000000;stroke-width:0.8;" x="37.836346" xlink:href="#mef55eb4df6" y="131.865772"/>
      </g>
     </g>
     <g id="text_1">
      <!-- 0.00 -->
      <defs>
       <path d="M 31.78125 66.40625 
Q 24.171875 66.40625 20.328125 58.90625 
Q 16.5 51.421875 16.5 36.375 
Q 16.5 21.390625 20.328125 13.890625 
Q 24.171875 6.390625 31.78125 6.390625 
Q 39.453125 6.390625 43.28125 13.890625 
Q 47.125 21.390625 47.125 36.375 
Q 47.125 51.421875 43.28125 58.90625 
Q 39.453125 66.40625 31.78125 66.40625 
z
M 31.78125 74.21875 
Q 44.046875 74.21875 50.515625 64.515625 
Q 56.984375 54.828125 56.984375 36.375 
Q 56.984375 17.96875 50.515625 8.265625 
Q 44.046875 -1.421875 31.78125 -1.421875 
Q 19.53125 -1.421875 13.0625 8.265625 
Q 6.59375 17.96875 6.59375 36.375 
Q 6.59375 54.828125 13.0625 64.515625 
Q 19.53125 74.21875 31.78125 74.21875 
z
" id="DejaVuSans-30"/>
       <path d="M 10.6875 12.40625 
L 21 12.40625 
L 21 0 
L 10.6875 0 
z
" id="DejaVuSans-2e"/>
      </defs>
      <g transform="translate(28.930096 141.444522)scale(0.08 -0.08)">
       <use xlink:href="#DejaVuSans-30"/>
       <use x="63.623047" xlink:href="#DejaVuSans-2e"/>
       <use x="95.410156" xlink:href="#DejaVuSans-30"/>
       <use x="159.033203" xlink:href="#DejaVuSans-30"/>
      </g>
     </g>
    </g>
    <g id="xtick_2">
     <g id="line2d_3">
      <path clip-path="url(#pda11f10fd0)" d="M 133.214025 131.865772 
L 133.214025 2.834646 
" style="fill:none;opacity:0.1;stroke:#000000;stroke-linecap:square;stroke-width:0.5;"/>
     </g>
     <g id="line2d_4">
      <g>
       <use style="stroke:#000000;stroke-width:0.8;" x="133.214025" xlink:href="#mef55eb4df6" y="131.865772"/>
      </g>
     </g>
     <g id="text_2">
      <!-- 0.25 -->
      <defs>
       <path d="M 19.1875 8.296875 
L 53.609375 8.296875 
L 53.609375 0 
L 7.328125 0 
L 7.328125 8.296875 
Q 12.9375 14.109375 22.625 23.890625 
Q 32.328125 33.6875 34.8125 36.53125 
Q 39.546875 41.84375 41.421875 45.53125 
Q 43.3125 49.21875 43.3125 52.78125 
Q 43.3125 58.59375 39.234375 62.25 
Q 35.15625 65.921875 28.609375 65.921875 
Q 23.96875 65.921875 18.8125 64.3125 
Q 13.671875 62.703125 7.8125 59.421875 
L 7.8125 69.390625 
Q 13.765625 71.78125 18.9375 73 
Q 24.125 74.21875 28.421875 74.21875 
Q 39.75 74.21875 46.484375 68.546875 
Q 53.21875 62.890625 53.21875 53.421875 
Q 53.21875 48.921875 51.53125 44.890625 
Q 49.859375 40.875 45.40625 35.40625 
Q 44.1875 33.984375 37.640625 27.21875 
Q 31.109375 20.453125 19.1875 8.296875 
z
" id="DejaVuSans-32"/>
       <path d="M 10.796875 72.90625 
L 49.515625 72.90625 
L 49.515625 64.59375 
L 19.828125 64.59375 
L 19.828125 46.734375 
Q 21.96875 47.46875 24.109375 47.828125 
Q 26.265625 48.1875 28.421875 48.1875 
Q 40.625 48.1875 47.75 41.5 
Q 54.890625 34.8125 54.890625 23.390625 
Q 54.890625 11.625 47.5625 5.09375 
Q 40.234375 -1.421875 26.90625 -1.421875 
Q 22.3125 -1.421875 17.546875 -0.640625 
Q 12.796875 0.140625 7.71875 1.703125 
L 7.71875 11.625 
Q 12.109375 9.234375 16.796875 8.0625 
Q 21.484375 6.890625 26.703125 6.890625 
Q 35.15625 6.890625 40.078125 11.328125 
Q 45.015625 15.765625 45.015625 23.390625 
Q 45.015625 31 40.078125 35.4375 
Q 35.15625 39.890625 26.703125 39.890625 
Q 22.75 39.890625 18.8125 39.015625 
Q 14.890625 38.140625 10.796875 36.28125 
z
" id="DejaVuSans-35"/>
      </defs>
      <g transform="translate(124.307775 141.444522)scale(0.08 -0.08)">
       <use xlink:href="#DejaVuSans-30"/>
       <use x="63.623047" xlink:href="#DejaVuSans-2e"/>
       <use x="95.410156" xlink:href="#DejaVuSans-32"/>
       <use x="159.033203" xlink:href="#DejaVuSans-35"/>
      </g>
     </g>
    </g>
    <g id="xtick_3">
     <g id="line2d_5">
      <path clip-path="url(#pda11f10fd0)" d="M 228.591705 131.865772 
L 228.591705 2.834646 
" style="fill:none;opacity:0.1;stroke:#000000;stroke-linecap:square;stroke-width:0.5;"/>
     </g>
     <g id="line2d_6">
      <g>
       <use style="stroke:#000000;stroke-width:0.8;" x="228.591705" xlink:href="#mef55eb4df6" y="131.865772"/>
      </g>
     </g>
     <g id="text_3">
      <!-- 0.50 -->
      <g transform="translate(219.685455 141.444522)scale(0.08 -0.08)">
       <use xlink:href="#DejaVuSans-30"/>
       <use x="63.623047" xlink:href="#DejaVuSans-2e"/>
       <use x="95.410156" xlink:href="#DejaVuSans-35"/>
       <use x="159.033203" xlink:href="#DejaVuSans-30"/>
      </g>
     </g>
    </g>
    <g id="xtick_4">
     <g id="line2d_7">
      <path clip-path="url(#pda11f10fd0)" d="M 323.969384 131.865772 
L 323.969384 2.834646 
" style="fill:none;opacity:0.1;stroke:#000000;stroke-linecap:square;stroke-width:0.5;"/>
     </g>
     <g id="line2d_8">
      <g>
       <use style="stroke:#000000;stroke-width:0.8;" x="323.969384" xlink:href="#mef55eb4df6" y="131.865772"/>
      </g>
     </g>
     <g id="text_4">
      <!-- 0.75 -->
      <defs>
       <path d="M 8.203125 72.90625 
L 55.078125 72.90625 
L 55.078125 68.703125 
L 28.609375 0 
L 18.3125 0 
L 43.21875 64.59375 
L 8.203125 64.59375 
z
" id="DejaVuSans-37"/>
      </defs>
      <g transform="translate(315.063134 141.444522)scale(0.08 -0.08)">
       <use xlink:href="#DejaVuSans-30"/>
       <use x="63.623047" xlink:href="#DejaVuSans-2e"/>
       <use x="95.410156" xlink:href="#DejaVuSans-37"/>
       <use x="159.033203" xlink:href="#DejaVuSans-35"/>
      </g>
     </g>
    </g>
    <g id="xtick_5">
     <g id="line2d_9">
      <path clip-path="url(#pda11f10fd0)" d="M 419.347063 131.865772 
L 419.347063 2.834646 
" style="fill:none;opacity:0.1;stroke:#000000;stroke-linecap:square;stroke-width:0.5;"/>
     </g>
     <g id="line2d_10">
      <g>
       <use style="stroke:#000000;stroke-width:0.8;" x="419.347063" xlink:href="#mef55eb4df6" y="131.865772"/>
      </g>
     </g>
     <g id="text_5">
      <!-- 1.00 -->
      <defs>
       <path d="M 12.40625 8.296875 
L 28.515625 8.296875 
L 28.515625 63.921875 
L 10.984375 60.40625 
L 10.984375 69.390625 
L 28.421875 72.90625 
L 38.28125 72.90625 
L 38.28125 8.296875 
L 54.390625 8.296875 
L 54.390625 0 
L 12.40625 0 
z
" id="DejaVuSans-31"/>
      </defs>
      <g transform="translate(410.440813 141.444522)scale(0.08 -0.08)">
       <use xlink:href="#DejaVuSans-31"/>
       <use x="63.623047" xlink:href="#DejaVuSans-2e"/>
       <use x="95.410156" xlink:href="#DejaVuSans-30"/>
       <use x="159.033203" xlink:href="#DejaVuSans-30"/>
      </g>
     </g>
    </g>
   </g>
   <g id="matplotlib.axis_2">
    <g id="ytick_1">
     <g id="line2d_11">
      <path clip-path="url(#pda11f10fd0)" d="M 28.018055 128.215029 
L 429.165354 128.215029 
" style="fill:none;opacity:0.1;stroke:#000000;stroke-linecap:square;stroke-width:0.5;"/>
     </g>
     <g id="line2d_12">
      <defs>
       <path d="M 0 0 
L 3.5 0 
" id="m921132d1ff" style="stroke:#000000;stroke-width:0.8;"/>
      </defs>
      <g>
       <use style="stroke:#000000;stroke-width:0.8;" x="28.018055" xlink:href="#m921132d1ff" y="128.215029"/>
      </g>
     </g>
     <g id="text_6">
      <!-- 0.00 -->
      <g transform="translate(6.705555 131.254404)scale(0.08 -0.08)">
       <use xlink:href="#DejaVuSans-30"/>
       <use x="63.623047" xlink:href="#DejaVuSans-2e"/>
       <use x="95.410156" xlink:href="#DejaVuSans-30"/>
       <use x="159.033203" xlink:href="#DejaVuSans-30"/>
      </g>
     </g>
    </g>
    <g id="ytick_2">
     <g id="line2d_13">
      <path clip-path="url(#pda11f10fd0)" d="M 28.018055 87.13164 
L 429.165354 87.13164 
" style="fill:none;opacity:0.1;stroke:#000000;stroke-linecap:square;stroke-width:0.5;"/>
     </g>
     <g id="line2d_14">
      <g>
       <use style="stroke:#000000;stroke-width:0.8;" x="28.018055" xlink:href="#m921132d1ff" y="87.13164"/>
      </g>
     </g>
     <g id="text_7">
      <!-- 0.05 -->
      <g transform="translate(6.705555 90.171015)scale(0.08 -0.08)">
       <use xlink:href="#DejaVuSans-30"/>
       <use x="63.623047" xlink:href="#DejaVuSans-2e"/>
       <use x="95.410156" xlink:href="#DejaVuSans-30"/>
       <use x="159.033203" xlink:href="#DejaVuSans-35"/>
      </g>
     </g>
    </g>
    <g id="ytick_3">
     <g id="line2d_15">
      <path clip-path="url(#pda11f10fd0)" d="M 28.018055 46.048252 
L 429.165354 46.048252 
" style="fill:none;opacity:0.1;stroke:#000000;stroke-linecap:square;stroke-width:0.5;"/>
     </g>
     <g id="line2d_16">
      <g>
       <use style="stroke:#000000;stroke-width:0.8;" x="28.018055" xlink:href="#m921132d1ff" y="46.048252"/>
      </g>
     </g>
     <g id="text_8">
      <!-- 0.10 -->
      <g transform="translate(6.705555 49.087627)scale(0.08 -0.08)">
       <use xlink:href="#DejaVuSans-30"/>
       <use x="63.623047" xlink:href="#DejaVuSans-2e"/>
       <use x="95.410156" xlink:href="#DejaVuSans-31"/>
       <use x="159.033203" xlink:href="#DejaVuSans-30"/>
      </g>
     </g>
    </g>
    <g id="ytick_4">
     <g id="line2d_17">
      <path clip-path="url(#pda11f10fd0)" d="M 28.018055 4.964863 
L 429.165354 4.964863 
" style="fill:none;opacity:0.1;stroke:#000000;stroke-linecap:square;stroke-width:0.5;"/>
     </g>
     <g id="line2d_18">
      <g>
       <use style="stroke:#000000;stroke-width:0.8;" x="28.018055" xlink:href="#m921132d1ff" y="4.964863"/>
      </g>
     </g>
     <g id="text_9">
      <!-- 0.15 -->
      <g transform="translate(6.705555 8.004238)scale(0.08 -0.08)">
       <use xlink:href="#DejaVuSans-30"/>
       <use x="63.623047" xlink:href="#DejaVuSans-2e"/>
       <use x="95.410156" xlink:href="#DejaVuSans-31"/>
       <use x="159.033203" xlink:href="#DejaVuSans-35"/>
      </g>
     </g>
    </g>
   </g>
   <g id="line2d_19">
    <path clip-path="url(#pda11f10fd0)" d="M 39.37128 124.935757 
L 44.291011 114.779893 
L 49.210742 105.156703 
L 53.752032 96.737404 
L 58.293323 88.754658 
L 62.834613 81.20015 
L 67.375903 74.065565 
L 71.917193 67.342589 
L 76.458483 61.022905 
L 80.999774 55.098199 
L 85.541064 49.560156 
L 89.703913 44.816188 
L 93.866762 40.383733 
L 98.029612 36.256385 
L 102.192461 32.42774 
L 106.35531 28.891394 
L 110.51816 25.640942 
L 114.681009 22.669978 
L 118.843858 19.972099 
L 123.006708 17.5409 
L 127.169557 15.369975 
L 131.332406 13.452921 
L 135.495256 11.783332 
L 139.658105 10.354804 
L 143.820954 9.160932 
L 147.983804 8.195312 
L 152.146653 7.451538 
L 156.309502 6.923206 
L 160.472352 6.603911 
L 165.013642 6.48647 
L 169.554932 6.601863 
L 174.096222 6.941776 
L 178.637513 7.497893 
L 183.557244 8.334689 
L 188.476975 9.404895 
L 193.396706 10.697938 
L 198.694877 12.327529 
L 203.993049 14.190093 
L 209.669662 16.429227 
L 215.346275 18.904406 
L 221.401328 21.786475 
L 227.834823 25.100652 
L 234.646758 28.866984 
L 241.837134 33.099118 
L 249.784392 38.044225 
L 258.488532 43.73142 
L 268.327994 50.430218 
L 280.816542 59.216816 
L 320.17439 87.125661 
L 330.013852 93.712678 
L 338.717992 99.271263 
L 346.286808 103.852419 
L 353.477185 107.9502 
L 360.28912 111.573288 
L 366.722614 114.737916 
L 372.777668 117.466577 
L 378.454281 119.78679 
L 384.130893 121.86017 
L 389.429065 123.5583 
L 394.727237 125.01406 
L 399.646968 126.137276 
L 404.566699 127.029552 
L 409.107989 127.639074 
L 413.64928 128.034495 
L 417.812129 128.201782 
L 417.812129 128.201782 
" style="fill:none;stroke:#009afa;stroke-linecap:round;"/>
   </g>
   <g id="line2d_20">
    <path clip-path="url(#pda11f10fd0)" d="M 39.37128 124.935757 
L 44.291011 114.779893 
L 49.210742 105.156703 
L 53.752032 96.737404 
L 58.293323 88.754658 
L 62.834613 81.20015 
L 67.375903 74.065565 
L 71.917193 67.342589 
L 76.458483 61.022905 
L 80.999774 55.098199 
L 85.541064 49.560156 
L 89.703913 44.816188 
L 93.866762 40.383733 
L 98.029612 36.256385 
L 102.192461 32.42774 
L 106.35531 28.891394 
L 110.51816 25.640942 
L 114.681009 22.669978 
L 118.843858 19.972099 
L 123.006708 17.5409 
L 127.169557 15.369975 
L 131.332406 13.452921 
L 135.495256 11.783332 
L 139.658105 10.354804 
L 143.820954 9.160932 
L 147.983804 8.195312 
L 152.146653 7.451538 
L 156.309502 6.923206 
L 160.472352 6.603911 
L 165.013642 6.48647 
L 169.554932 6.601863 
L 174.096222 6.941776 
L 178.637513 7.497893 
L 183.557244 8.334689 
L 188.476975 9.404895 
L 193.396706 10.697938 
L 198.694877 12.327529 
L 203.993049 14.190093 
L 209.669662 16.429227 
L 215.346275 18.904406 
L 221.401328 21.786475 
L 227.834823 25.100652 
L 234.646758 28.866984 
L 241.837134 33.099118 
L 249.784392 38.044225 
L 258.488532 43.73142 
L 268.327994 50.430218 
L 280.816542 59.216816 
L 320.17439 87.125661 
L 330.013852 93.712678 
L 338.717992 99.271263 
L 346.286808 103.852419 
L 353.477185 107.9502 
L 360.28912 111.573288 
L 366.722614 114.737916 
L 372.777668 117.466577 
L 378.454281 119.78679 
L 384.130893 121.86017 
L 389.429065 123.5583 
L 394.727237 125.01406 
L 399.646968 126.137276 
L 404.566699 127.029552 
L 409.107989 127.639074 
L 413.64928 128.034495 
L 417.812129 128.201782 
L 417.812129 128.201782 
" style="fill:none;stroke:#e36f47;stroke-dasharray:3.7,1.6;stroke-dashoffset:0;"/>
   </g>
   <g id="patch_3">
    <path d="M 28.018055 131.865772 
L 28.018055 2.834646 
" style="fill:none;stroke:#000000;stroke-linecap:square;stroke-linejoin:miter;stroke-width:0.8;"/>
   </g>
   <g id="patch_4">
    <path d="M 28.018055 131.865772 
L 429.165354 131.865772 
" style="fill:none;stroke:#000000;stroke-linecap:square;stroke-linejoin:miter;stroke-width:0.8;"/>
   </g>
   <g id="line2d_21">
    <path clip-path="url(#pda11f10fd0)" d="M 39.37128 127.947305 
L 42.819375 127.106537 
L 47.795208 125.756741 
L 53.759098 124.185123 
L 60.064667 122.781631 
L 66.028557 121.922198 
L 71.00439 121.899952 
L 74.452484 122.953268 
L 75.987418 125.077592 
L 77.522352 122.613196 
L 80.970447 120.46565 
L 85.946279 118.652953 
L 91.910169 117.236723 
L 98.215739 116.424125 
L 104.179628 116.431814 
L 109.155461 117.447613 
L 112.603556 119.716421 
L 114.13849 123.257104 
L 115.673423 119.543682 
L 119.121518 116.718888 
L 124.097351 114.769507 
L 130.061241 113.600141 
L 136.36681 113.274161 
L 142.3307 113.877053 
L 147.306533 115.503185 
L 150.754627 118.374064 
L 152.289561 122.521162 
L 153.824495 118.336271 
L 157.27259 115.343473 
L 162.248423 113.510664 
L 168.212312 112.64447 
L 174.517882 112.700834 
L 180.481772 113.662176 
L 185.457604 115.54389 
L 188.905699 118.523705 
L 190.440633 122.637363 
L 191.975567 118.588471 
L 195.423661 115.816628 
L 200.399494 114.280684 
L 206.363384 113.738806 
L 212.668953 114.073237 
L 218.632843 115.191446 
L 223.608676 117.04695 
L 227.056771 119.762852 
L 228.591705 123.373305 
L 230.126638 119.897789 
L 233.574733 117.615574 
L 238.550566 116.483831 
L 244.514456 116.252242 
L 250.820025 116.760466 
L 256.783915 117.869123 
L 261.759748 119.489587 
L 265.207842 121.689012 
L 266.742776 124.496585 
L 268.27771 121.861734 
L 271.725805 120.217535 
L 276.701637 119.524366 
L 282.665527 119.553872 
L 288.971097 120.131613 
L 294.934986 121.09947 
L 299.910819 122.349024 
L 303.358914 123.899694 
L 304.893848 125.7748 
L 306.428782 124.077814 
L 309.876876 123.099733 
L 314.852709 122.806549 
L 320.816599 123.012791 
L 327.122168 123.555774 
L 333.086058 124.286747 
L 338.061891 125.102483 
L 341.509986 125.992405 
L 343.044919 126.975548 
L 344.579853 126.143536 
L 348.027948 125.73939 
L 353.003781 125.734642 
L 358.967671 125.998093 
L 365.27324 126.402042 
L 371.23713 126.835216 
L 376.212963 127.227188 
L 379.661057 127.564654 
L 381.195991 127.866425 
L 382.730925 127.656408 
L 386.17902 127.613728 
L 391.154852 127.712908 
L 397.118742 127.878872 
L 403.424312 128.039511 
L 409.388201 128.149139 
L 414.364034 128.200359 
L 417.812129 128.213948 
" style="fill:none;stroke:#3ea44e;stroke-linecap:round;"/>
   </g>
   <g id="PathCollection_1">
    <defs>
     <path d="M 0 2 
C 0.530406 2 1.03916 1.789267 1.414214 1.414214 
C 1.789267 1.03916 2 0.530406 2 0 
C 2 -0.530406 1.789267 -1.03916 1.414214 -1.414214 
C 1.03916 -1.789267 0.530406 -2 0 -2 
C -0.530406 -2 -1.03916 -1.789267 -1.414214 -1.414214 
C -1.789267 -1.03916 -2 -0.530406 -2 0 
C -2 0.530406 -1.789267 1.03916 -1.414214 1.414214 
C -1.03916 1.789267 -0.530406 2 0 2 
z
" id="m88531d0329" style="stroke:#000000;"/>
    </defs>
    <g clip-path="url(#pda11f10fd0)">
     <use style="fill:#3ea44e;stroke:#000000;" x="39.37128" xlink:href="#m88531d0329" y="127.947305"/>
     <use style="fill:#3ea44e;stroke:#000000;" x="42.819375" xlink:href="#m88531d0329" y="127.106537"/>
     <use style="fill:#3ea44e;stroke:#000000;" x="47.795208" xlink:href="#m88531d0329" y="125.756741"/>
     <use style="fill:#3ea44e;stroke:#000000;" x="53.759098" xlink:href="#m88531d0329" y="124.185123"/>
     <use style="fill:#3ea44e;stroke:#000000;" x="60.064667" xlink:href="#m88531d0329" y="122.781631"/>
     <use style="fill:#3ea44e;stroke:#000000;" x="66.028557" xlink:href="#m88531d0329" y="121.922198"/>
     <use style="fill:#3ea44e;stroke:#000000;" x="71.00439" xlink:href="#m88531d0329" y="121.899952"/>
     <use style="fill:#3ea44e;stroke:#000000;" x="74.452484" xlink:href="#m88531d0329" y="122.953268"/>
     <use style="fill:#3ea44e;stroke:#000000;" x="75.987418" xlink:href="#m88531d0329" y="125.077592"/>
     <use style="fill:#3ea44e;stroke:#000000;" x="77.522352" xlink:href="#m88531d0329" y="122.613196"/>
     <use style="fill:#3ea44e;stroke:#000000;" x="80.970447" xlink:href="#m88531d0329" y="120.46565"/>
     <use style="fill:#3ea44e;stroke:#000000;" x="85.946279" xlink:href="#m88531d0329" y="118.652953"/>
     <use style="fill:#3ea44e;stroke:#000000;" x="91.910169" xlink:href="#m88531d0329" y="117.236723"/>
     <use style="fill:#3ea44e;stroke:#000000;" x="98.215739" xlink:href="#m88531d0329" y="116.424125"/>
     <use style="fill:#3ea44e;stroke:#000000;" x="104.179628" xlink:href="#m88531d0329" y="116.431814"/>
     <use style="fill:#3ea44e;stroke:#000000;" x="109.155461" xlink:href="#m88531d0329" y="117.447613"/>
     <use style="fill:#3ea44e;stroke:#000000;" x="112.603556" xlink:href="#m88531d0329" y="119.716421"/>
     <use style="fill:#3ea44e;stroke:#000000;" x="114.13849" xlink:href="#m88531d0329" y="123.257104"/>
     <use style="fill:#3ea44e;stroke:#000000;" x="115.673423" xlink:href="#m88531d0329" y="119.543682"/>
     <use style="fill:#3ea44e;stroke:#000000;" x="119.121518" xlink:href="#m88531d0329" y="116.718888"/>
     <use style="fill:#3ea44e;stroke:#000000;" x="124.097351" xlink:href="#m88531d0329" y="114.769507"/>
     <use style="fill:#3ea44e;stroke:#000000;" x="130.061241" xlink:href="#m88531d0329" y="113.600141"/>
     <use style="fill:#3ea44e;stroke:#000000;" x="136.36681" xlink:href="#m88531d0329" y="113.274161"/>
     <use style="fill:#3ea44e;stroke:#000000;" x="142.3307" xlink:href="#m88531d0329" y="113.877053"/>
     <use style="fill:#3ea44e;stroke:#000000;" x="147.306533" xlink:href="#m88531d0329" y="115.503185"/>
     <use style="fill:#3ea44e;stroke:#000000;" x="150.754627" xlink:href="#m88531d0329" y="118.374064"/>
     <use style="fill:#3ea44e;stroke:#000000;" x="152.289561" xlink:href="#m88531d0329" y="122.521162"/>
     <use style="fill:#3ea44e;stroke:#000000;" x="153.824495" xlink:href="#m88531d0329" y="118.336271"/>
     <use style="fill:#3ea44e;stroke:#000000;" x="157.27259" xlink:href="#m88531d0329" y="115.343473"/>
     <use style="fill:#3ea44e;stroke:#000000;" x="162.248423" xlink:href="#m88531d0329" y="113.510664"/>
     <use style="fill:#3ea44e;stroke:#000000;" x="168.212312" xlink:href="#m88531d0329" y="112.64447"/>
     <use style="fill:#3ea44e;stroke:#000000;" x="174.517882" xlink:href="#m88531d0329" y="112.700834"/>
     <use style="fill:#3ea44e;stroke:#000000;" x="180.481772" xlink:href="#m88531d0329" y="113.662176"/>
     <use style="fill:#3ea44e;stroke:#000000;" x="185.457604" xlink:href="#m88531d0329" y="115.54389"/>
     <use style="fill:#3ea44e;stroke:#000000;" x="188.905699" xlink:href="#m88531d0329" y="118.523705"/>
     <use style="fill:#3ea44e;stroke:#000000;" x="190.440633" xlink:href="#m88531d0329" y="122.637363"/>
     <use style="fill:#3ea44e;stroke:#000000;" x="191.975567" xlink:href="#m88531d0329" y="118.588471"/>
     <use style="fill:#3ea44e;stroke:#000000;" x="195.423661" xlink:href="#m88531d0329" y="115.816628"/>
     <use style="fill:#3ea44e;stroke:#000000;" x="200.399494" xlink:href="#m88531d0329" y="114.280684"/>
     <use style="fill:#3ea44e;stroke:#000000;" x="206.363384" xlink:href="#m88531d0329" y="113.738806"/>
     <use style="fill:#3ea44e;stroke:#000000;" x="212.668953" xlink:href="#m88531d0329" y="114.073237"/>
     <use style="fill:#3ea44e;stroke:#000000;" x="218.632843" xlink:href="#m88531d0329" y="115.191446"/>
     <use style="fill:#3ea44e;stroke:#000000;" x="223.608676" xlink:href="#m88531d0329" y="117.04695"/>
     <use style="fill:#3ea44e;stroke:#000000;" x="227.056771" xlink:href="#m88531d0329" y="119.762852"/>
     <use style="fill:#3ea44e;stroke:#000000;" x="228.591705" xlink:href="#m88531d0329" y="123.373305"/>
     <use style="fill:#3ea44e;stroke:#000000;" x="230.126638" xlink:href="#m88531d0329" y="119.897789"/>
     <use style="fill:#3ea44e;stroke:#000000;" x="233.574733" xlink:href="#m88531d0329" y="117.615574"/>
     <use style="fill:#3ea44e;stroke:#000000;" x="238.550566" xlink:href="#m88531d0329" y="116.483831"/>
     <use style="fill:#3ea44e;stroke:#000000;" x="244.514456" xlink:href="#m88531d0329" y="116.252242"/>
     <use style="fill:#3ea44e;stroke:#000000;" x="250.820025" xlink:href="#m88531d0329" y="116.760466"/>
     <use style="fill:#3ea44e;stroke:#000000;" x="256.783915" xlink:href="#m88531d0329" y="117.869123"/>
     <use style="fill:#3ea44e;stroke:#000000;" x="261.759748" xlink:href="#m88531d0329" y="119.489587"/>
     <use style="fill:#3ea44e;stroke:#000000;" x="265.207842" xlink:href="#m88531d0329" y="121.689012"/>
     <use style="fill:#3ea44e;stroke:#000000;" x="266.742776" xlink:href="#m88531d0329" y="124.496585"/>
     <use style="fill:#3ea44e;stroke:#000000;" x="268.27771" xlink:href="#m88531d0329" y="121.861734"/>
     <use style="fill:#3ea44e;stroke:#000000;" x="271.725805" xlink:href="#m88531d0329" y="120.217535"/>
     <use style="fill:#3ea44e;stroke:#000000;" x="276.701637" xlink:href="#m88531d0329" y="119.524366"/>
     <use style="fill:#3ea44e;stroke:#000000;" x="282.665527" xlink:href="#m88531d0329" y="119.553872"/>
     <use style="fill:#3ea44e;stroke:#000000;" x="288.971097" xlink:href="#m88531d0329" y="120.131613"/>
     <use style="fill:#3ea44e;stroke:#000000;" x="294.934986" xlink:href="#m88531d0329" y="121.09947"/>
     <use style="fill:#3ea44e;stroke:#000000;" x="299.910819" xlink:href="#m88531d0329" y="122.349024"/>
     <use style="fill:#3ea44e;stroke:#000000;" x="303.358914" xlink:href="#m88531d0329" y="123.899694"/>
     <use style="fill:#3ea44e;stroke:#000000;" x="304.893848" xlink:href="#m88531d0329" y="125.7748"/>
     <use style="fill:#3ea44e;stroke:#000000;" x="306.428782" xlink:href="#m88531d0329" y="124.077814"/>
     <use style="fill:#3ea44e;stroke:#000000;" x="309.876876" xlink:href="#m88531d0329" y="123.099733"/>
     <use style="fill:#3ea44e;stroke:#000000;" x="314.852709" xlink:href="#m88531d0329" y="122.806549"/>
     <use style="fill:#3ea44e;stroke:#000000;" x="320.816599" xlink:href="#m88531d0329" y="123.012791"/>
     <use style="fill:#3ea44e;stroke:#000000;" x="327.122168" xlink:href="#m88531d0329" y="123.555774"/>
     <use style="fill:#3ea44e;stroke:#000000;" x="333.086058" xlink:href="#m88531d0329" y="124.286747"/>
     <use style="fill:#3ea44e;stroke:#000000;" x="338.061891" xlink:href="#m88531d0329" y="125.102483"/>
     <use style="fill:#3ea44e;stroke:#000000;" x="341.509986" xlink:href="#m88531d0329" y="125.992405"/>
     <use style="fill:#3ea44e;stroke:#000000;" x="343.044919" xlink:href="#m88531d0329" y="126.975548"/>
     <use style="fill:#3ea44e;stroke:#000000;" x="344.579853" xlink:href="#m88531d0329" y="126.143536"/>
     <use style="fill:#3ea44e;stroke:#000000;" x="348.027948" xlink:href="#m88531d0329" y="125.73939"/>
     <use style="fill:#3ea44e;stroke:#000000;" x="353.003781" xlink:href="#m88531d0329" y="125.734642"/>
     <use style="fill:#3ea44e;stroke:#000000;" x="358.967671" xlink:href="#m88531d0329" y="125.998093"/>
     <use style="fill:#3ea44e;stroke:#000000;" x="365.27324" xlink:href="#m88531d0329" y="126.402042"/>
     <use style="fill:#3ea44e;stroke:#000000;" x="371.23713" xlink:href="#m88531d0329" y="126.835216"/>
     <use style="fill:#3ea44e;stroke:#000000;" x="376.212963" xlink:href="#m88531d0329" y="127.227188"/>
     <use style="fill:#3ea44e;stroke:#000000;" x="379.661057" xlink:href="#m88531d0329" y="127.564654"/>
     <use style="fill:#3ea44e;stroke:#000000;" x="381.195991" xlink:href="#m88531d0329" y="127.866425"/>
     <use style="fill:#3ea44e;stroke:#000000;" x="382.730925" xlink:href="#m88531d0329" y="127.656408"/>
     <use style="fill:#3ea44e;stroke:#000000;" x="386.17902" xlink:href="#m88531d0329" y="127.613728"/>
     <use style="fill:#3ea44e;stroke:#000000;" x="391.154852" xlink:href="#m88531d0329" y="127.712908"/>
     <use style="fill:#3ea44e;stroke:#000000;" x="397.118742" xlink:href="#m88531d0329" y="127.878872"/>
     <use style="fill:#3ea44e;stroke:#000000;" x="403.424312" xlink:href="#m88531d0329" y="128.039511"/>
     <use style="fill:#3ea44e;stroke:#000000;" x="409.388201" xlink:href="#m88531d0329" y="128.149139"/>
     <use style="fill:#3ea44e;stroke:#000000;" x="414.364034" xlink:href="#m88531d0329" y="128.200359"/>
     <use style="fill:#3ea44e;stroke:#000000;" x="417.812129" xlink:href="#m88531d0329" y="128.213948"/>
    </g>
   </g>
   <g id="legend_1">
    <g id="patch_5">
     <path d="M 308.237854 44.462146 
L 423.565354 44.462146 
Q 425.165354 44.462146 425.165354 42.862146 
L 425.165354 8.434646 
Q 425.165354 6.834646 423.565354 6.834646 
L 308.237854 6.834646 
Q 306.637854 6.834646 306.637854 8.434646 
L 306.637854 42.862146 
Q 306.637854 44.462146 308.237854 44.462146 
z
" style="fill:#ffffff;opacity:0.8;stroke:#000000;stroke-linejoin:miter;"/>
    </g>
    <g id="line2d_22">
     <path d="M 309.837854 13.313396 
L 325.837854 13.313396 
" style="fill:none;stroke:#009afa;stroke-linecap:square;"/>
    </g>
    <g id="line2d_23"/>
    <g id="text_10">
     <!-- $f(x)$ -->
     <defs>
      <path d="M 47.796875 75.984375 
L 46.390625 68.5 
L 37.796875 68.5 
Q 32.90625 68.5 30.6875 66.578125 
Q 28.46875 64.65625 27.390625 59.515625 
L 26.421875 54.6875 
L 41.21875 54.6875 
L 39.890625 47.703125 
L 25.09375 47.703125 
L 15.828125 0 
L 6.78125 0 
L 16.109375 47.703125 
L 7.515625 47.703125 
L 8.796875 54.6875 
L 17.390625 54.6875 
L 18.109375 58.5 
Q 19.96875 68.171875 24.625 72.078125 
Q 29.296875 75.984375 39.3125 75.984375 
z
" id="DejaVuSans-Oblique-66"/>
      <path d="M 31 75.875 
Q 24.46875 64.65625 21.28125 53.65625 
Q 18.109375 42.671875 18.109375 31.390625 
Q 18.109375 20.125 21.3125 9.0625 
Q 24.515625 -2 31 -13.1875 
L 23.1875 -13.1875 
Q 15.875 -1.703125 12.234375 9.375 
Q 8.59375 20.453125 8.59375 31.390625 
Q 8.59375 42.28125 12.203125 53.3125 
Q 15.828125 64.359375 23.1875 75.875 
z
" id="DejaVuSans-28"/>
      <path d="M 60.015625 54.6875 
L 34.90625 27.875 
L 50.296875 0 
L 39.984375 0 
L 28.421875 21.6875 
L 8.296875 0 
L -2.59375 0 
L 24.3125 28.8125 
L 10.015625 54.6875 
L 20.3125 54.6875 
L 30.8125 34.90625 
L 49.125 54.6875 
z
" id="DejaVuSans-Oblique-78"/>
      <path d="M 8.015625 75.875 
L 15.828125 75.875 
Q 23.140625 64.359375 26.78125 53.3125 
Q 30.421875 42.28125 30.421875 31.390625 
Q 30.421875 20.453125 26.78125 9.375 
Q 23.140625 -1.703125 15.828125 -13.1875 
L 8.015625 -13.1875 
Q 14.5 -2 17.703125 9.0625 
Q 20.90625 20.125 20.90625 31.390625 
Q 20.90625 42.671875 17.703125 53.65625 
Q 14.5 64.65625 8.015625 75.875 
z
" id="DejaVuSans-29"/>
     </defs>
     <g transform="translate(332.237854 16.113396)scale(0.08 -0.08)">
      <use transform="translate(0 0.015625)" xlink:href="#DejaVuSans-Oblique-66"/>
      <use transform="translate(35.205078 0.015625)" xlink:href="#DejaVuSans-28"/>
      <use transform="translate(74.21875 0.015625)" xlink:href="#DejaVuSans-Oblique-78"/>
      <use transform="translate(133.398438 0.015625)" xlink:href="#DejaVuSans-29"/>
     </g>
    </g>
    <g id="line2d_24">
     <path d="M 309.837854 25.055896 
L 325.837854 25.055896 
" style="fill:none;stroke:#e36f47;stroke-dasharray:3.7,1.6;stroke-dashoffset:0;"/>
    </g>
    <g id="line2d_25"/>
    <g id="text_11">
     <!-- Reconstruction -->
     <defs>
      <path d="M 44.390625 34.1875 
Q 47.5625 33.109375 50.5625 29.59375 
Q 53.5625 26.078125 56.59375 19.921875 
L 66.609375 0 
L 56 0 
L 46.6875 18.703125 
Q 43.0625 26.03125 39.671875 28.421875 
Q 36.28125 30.8125 30.421875 30.8125 
L 19.671875 30.8125 
L 19.671875 0 
L 9.8125 0 
L 9.8125 72.90625 
L 32.078125 72.90625 
Q 44.578125 72.90625 50.734375 67.671875 
Q 56.890625 62.453125 56.890625 51.90625 
Q 56.890625 45.015625 53.6875 40.46875 
Q 50.484375 35.9375 44.390625 34.1875 
z
M 19.671875 64.796875 
L 19.671875 38.921875 
L 32.078125 38.921875 
Q 39.203125 38.921875 42.84375 42.21875 
Q 46.484375 45.515625 46.484375 51.90625 
Q 46.484375 58.296875 42.84375 61.546875 
Q 39.203125 64.796875 32.078125 64.796875 
z
" id="DejaVuSans-52"/>
      <path d="M 56.203125 29.59375 
L 56.203125 25.203125 
L 14.890625 25.203125 
Q 15.484375 15.921875 20.484375 11.0625 
Q 25.484375 6.203125 34.421875 6.203125 
Q 39.59375 6.203125 44.453125 7.46875 
Q 49.3125 8.734375 54.109375 11.28125 
L 54.109375 2.78125 
Q 49.265625 0.734375 44.1875 -0.34375 
Q 39.109375 -1.421875 33.890625 -1.421875 
Q 20.796875 -1.421875 13.15625 6.1875 
Q 5.515625 13.8125 5.515625 26.8125 
Q 5.515625 40.234375 12.765625 48.109375 
Q 20.015625 56 32.328125 56 
Q 43.359375 56 49.78125 48.890625 
Q 56.203125 41.796875 56.203125 29.59375 
z
M 47.21875 32.234375 
Q 47.125 39.59375 43.09375 43.984375 
Q 39.0625 48.390625 32.421875 48.390625 
Q 24.90625 48.390625 20.390625 44.140625 
Q 15.875 39.890625 15.1875 32.171875 
z
" id="DejaVuSans-65"/>
      <path d="M 48.78125 52.59375 
L 48.78125 44.1875 
Q 44.96875 46.296875 41.140625 47.34375 
Q 37.3125 48.390625 33.40625 48.390625 
Q 24.65625 48.390625 19.8125 42.84375 
Q 14.984375 37.3125 14.984375 27.296875 
Q 14.984375 17.28125 19.8125 11.734375 
Q 24.65625 6.203125 33.40625 6.203125 
Q 37.3125 6.203125 41.140625 7.25 
Q 44.96875 8.296875 48.78125 10.40625 
L 48.78125 2.09375 
Q 45.015625 0.34375 40.984375 -0.53125 
Q 36.96875 -1.421875 32.421875 -1.421875 
Q 20.0625 -1.421875 12.78125 6.34375 
Q 5.515625 14.109375 5.515625 27.296875 
Q 5.515625 40.671875 12.859375 48.328125 
Q 20.21875 56 33.015625 56 
Q 37.15625 56 41.109375 55.140625 
Q 45.0625 54.296875 48.78125 52.59375 
z
" id="DejaVuSans-63"/>
      <path d="M 30.609375 48.390625 
Q 23.390625 48.390625 19.1875 42.75 
Q 14.984375 37.109375 14.984375 27.296875 
Q 14.984375 17.484375 19.15625 11.84375 
Q 23.34375 6.203125 30.609375 6.203125 
Q 37.796875 6.203125 41.984375 11.859375 
Q 46.1875 17.53125 46.1875 27.296875 
Q 46.1875 37.015625 41.984375 42.703125 
Q 37.796875 48.390625 30.609375 48.390625 
z
M 30.609375 56 
Q 42.328125 56 49.015625 48.375 
Q 55.71875 40.765625 55.71875 27.296875 
Q 55.71875 13.875 49.015625 6.21875 
Q 42.328125 -1.421875 30.609375 -1.421875 
Q 18.84375 -1.421875 12.171875 6.21875 
Q 5.515625 13.875 5.515625 27.296875 
Q 5.515625 40.765625 12.171875 48.375 
Q 18.84375 56 30.609375 56 
z
" id="DejaVuSans-6f"/>
      <path d="M 54.890625 33.015625 
L 54.890625 0 
L 45.90625 0 
L 45.90625 32.71875 
Q 45.90625 40.484375 42.875 44.328125 
Q 39.84375 48.1875 33.796875 48.1875 
Q 26.515625 48.1875 22.3125 43.546875 
Q 18.109375 38.921875 18.109375 30.90625 
L 18.109375 0 
L 9.078125 0 
L 9.078125 54.6875 
L 18.109375 54.6875 
L 18.109375 46.1875 
Q 21.34375 51.125 25.703125 53.5625 
Q 30.078125 56 35.796875 56 
Q 45.21875 56 50.046875 50.171875 
Q 54.890625 44.34375 54.890625 33.015625 
z
" id="DejaVuSans-6e"/>
      <path d="M 44.28125 53.078125 
L 44.28125 44.578125 
Q 40.484375 46.53125 36.375 47.5 
Q 32.28125 48.484375 27.875 48.484375 
Q 21.1875 48.484375 17.84375 46.4375 
Q 14.5 44.390625 14.5 40.28125 
Q 14.5 37.15625 16.890625 35.375 
Q 19.28125 33.59375 26.515625 31.984375 
L 29.59375 31.296875 
Q 39.15625 29.25 43.1875 25.515625 
Q 47.21875 21.78125 47.21875 15.09375 
Q 47.21875 7.46875 41.1875 3.015625 
Q 35.15625 -1.421875 24.609375 -1.421875 
Q 20.21875 -1.421875 15.453125 -0.5625 
Q 10.6875 0.296875 5.421875 2 
L 5.421875 11.28125 
Q 10.40625 8.6875 15.234375 7.390625 
Q 20.0625 6.109375 24.8125 6.109375 
Q 31.15625 6.109375 34.5625 8.28125 
Q 37.984375 10.453125 37.984375 14.40625 
Q 37.984375 18.0625 35.515625 20.015625 
Q 33.0625 21.96875 24.703125 23.78125 
L 21.578125 24.515625 
Q 13.234375 26.265625 9.515625 29.90625 
Q 5.8125 33.546875 5.8125 39.890625 
Q 5.8125 47.609375 11.28125 51.796875 
Q 16.75 56 26.8125 56 
Q 31.78125 56 36.171875 55.265625 
Q 40.578125 54.546875 44.28125 53.078125 
z
" id="DejaVuSans-73"/>
      <path d="M 18.3125 70.21875 
L 18.3125 54.6875 
L 36.8125 54.6875 
L 36.8125 47.703125 
L 18.3125 47.703125 
L 18.3125 18.015625 
Q 18.3125 11.328125 20.140625 9.421875 
Q 21.96875 7.515625 27.59375 7.515625 
L 36.8125 7.515625 
L 36.8125 0 
L 27.59375 0 
Q 17.1875 0 13.234375 3.875 
Q 9.28125 7.765625 9.28125 18.015625 
L 9.28125 47.703125 
L 2.6875 47.703125 
L 2.6875 54.6875 
L 9.28125 54.6875 
L 9.28125 70.21875 
z
" id="DejaVuSans-74"/>
      <path d="M 41.109375 46.296875 
Q 39.59375 47.171875 37.8125 47.578125 
Q 36.03125 48 33.890625 48 
Q 26.265625 48 22.1875 43.046875 
Q 18.109375 38.09375 18.109375 28.8125 
L 18.109375 0 
L 9.078125 0 
L 9.078125 54.6875 
L 18.109375 54.6875 
L 18.109375 46.1875 
Q 20.953125 51.171875 25.484375 53.578125 
Q 30.03125 56 36.53125 56 
Q 37.453125 56 38.578125 55.875 
Q 39.703125 55.765625 41.0625 55.515625 
z
" id="DejaVuSans-72"/>
      <path d="M 8.5 21.578125 
L 8.5 54.6875 
L 17.484375 54.6875 
L 17.484375 21.921875 
Q 17.484375 14.15625 20.5 10.265625 
Q 23.53125 6.390625 29.59375 6.390625 
Q 36.859375 6.390625 41.078125 11.03125 
Q 45.3125 15.671875 45.3125 23.6875 
L 45.3125 54.6875 
L 54.296875 54.6875 
L 54.296875 0 
L 45.3125 0 
L 45.3125 8.40625 
Q 42.046875 3.421875 37.71875 1 
Q 33.40625 -1.421875 27.6875 -1.421875 
Q 18.265625 -1.421875 13.375 4.4375 
Q 8.5 10.296875 8.5 21.578125 
z
M 31.109375 56 
z
" id="DejaVuSans-75"/>
      <path d="M 9.421875 54.6875 
L 18.40625 54.6875 
L 18.40625 0 
L 9.421875 0 
z
M 9.421875 75.984375 
L 18.40625 75.984375 
L 18.40625 64.59375 
L 9.421875 64.59375 
z
" id="DejaVuSans-69"/>
     </defs>
     <g transform="translate(332.237854 27.855896)scale(0.08 -0.08)">
      <use xlink:href="#DejaVuSans-52"/>
      <use x="69.419922" xlink:href="#DejaVuSans-65"/>
      <use x="130.943359" xlink:href="#DejaVuSans-63"/>
      <use x="185.923828" xlink:href="#DejaVuSans-6f"/>
      <use x="247.105469" xlink:href="#DejaVuSans-6e"/>
      <use x="310.484375" xlink:href="#DejaVuSans-73"/>
      <use x="362.583984" xlink:href="#DejaVuSans-74"/>
      <use x="401.792969" xlink:href="#DejaVuSans-72"/>
      <use x="442.90625" xlink:href="#DejaVuSans-75"/>
      <use x="506.285156" xlink:href="#DejaVuSans-63"/>
      <use x="561.265625" xlink:href="#DejaVuSans-74"/>
      <use x="600.474609" xlink:href="#DejaVuSans-69"/>
      <use x="628.257812" xlink:href="#DejaVuSans-6f"/>
      <use x="689.439453" xlink:href="#DejaVuSans-6e"/>
     </g>
    </g>
    <g id="line2d_26">
     <path d="M 309.837854 36.798396 
L 325.837854 36.798396 
" style="fill:none;stroke:#3ea44e;stroke-linecap:square;"/>
    </g>
    <g id="line2d_27">
     <defs>
      <path d="M 0 3 
C 0.795609 3 1.55874 2.683901 2.12132 2.12132 
C 2.683901 1.55874 3 0.795609 3 0 
C 3 -0.795609 2.683901 -1.55874 2.12132 -2.12132 
C 1.55874 -2.683901 0.795609 -3 0 -3 
C -0.795609 -3 -1.55874 -2.683901 -2.12132 -2.12132 
C -2.683901 -1.55874 -3 -0.795609 -3 0 
C -3 0.795609 -2.683901 1.55874 -2.12132 2.12132 
C -1.55874 2.683901 -0.795609 3 0 3 
z
" id="m51f965df45" style="stroke:#000000;"/>
     </defs>
     <g>
      <use style="fill:#3ea44e;stroke:#000000;" x="317.837854" xlink:href="#m51f965df45" y="36.798396"/>
     </g>
    </g>
    <g id="text_12">
     <!-- Expansion coefficients -->
     <defs>
      <path d="M 9.8125 72.90625 
L 55.90625 72.90625 
L 55.90625 64.59375 
L 19.671875 64.59375 
L 19.671875 43.015625 
L 54.390625 43.015625 
L 54.390625 34.71875 
L 19.671875 34.71875 
L 19.671875 8.296875 
L 56.78125 8.296875 
L 56.78125 0 
L 9.8125 0 
z
" id="DejaVuSans-45"/>
      <path d="M 54.890625 54.6875 
L 35.109375 28.078125 
L 55.90625 0 
L 45.3125 0 
L 29.390625 21.484375 
L 13.484375 0 
L 2.875 0 
L 24.125 28.609375 
L 4.6875 54.6875 
L 15.28125 54.6875 
L 29.78125 35.203125 
L 44.28125 54.6875 
z
" id="DejaVuSans-78"/>
      <path d="M 18.109375 8.203125 
L 18.109375 -20.796875 
L 9.078125 -20.796875 
L 9.078125 54.6875 
L 18.109375 54.6875 
L 18.109375 46.390625 
Q 20.953125 51.265625 25.265625 53.625 
Q 29.59375 56 35.59375 56 
Q 45.5625 56 51.78125 48.09375 
Q 58.015625 40.1875 58.015625 27.296875 
Q 58.015625 14.40625 51.78125 6.484375 
Q 45.5625 -1.421875 35.59375 -1.421875 
Q 29.59375 -1.421875 25.265625 0.953125 
Q 20.953125 3.328125 18.109375 8.203125 
z
M 48.6875 27.296875 
Q 48.6875 37.203125 44.609375 42.84375 
Q 40.53125 48.484375 33.40625 48.484375 
Q 26.265625 48.484375 22.1875 42.84375 
Q 18.109375 37.203125 18.109375 27.296875 
Q 18.109375 17.390625 22.1875 11.75 
Q 26.265625 6.109375 33.40625 6.109375 
Q 40.53125 6.109375 44.609375 11.75 
Q 48.6875 17.390625 48.6875 27.296875 
z
" id="DejaVuSans-70"/>
      <path d="M 34.28125 27.484375 
Q 23.390625 27.484375 19.1875 25 
Q 14.984375 22.515625 14.984375 16.5 
Q 14.984375 11.71875 18.140625 8.90625 
Q 21.296875 6.109375 26.703125 6.109375 
Q 34.1875 6.109375 38.703125 11.40625 
Q 43.21875 16.703125 43.21875 25.484375 
L 43.21875 27.484375 
z
M 52.203125 31.203125 
L 52.203125 0 
L 43.21875 0 
L 43.21875 8.296875 
Q 40.140625 3.328125 35.546875 0.953125 
Q 30.953125 -1.421875 24.3125 -1.421875 
Q 15.921875 -1.421875 10.953125 3.296875 
Q 6 8.015625 6 15.921875 
Q 6 25.140625 12.171875 29.828125 
Q 18.359375 34.515625 30.609375 34.515625 
L 43.21875 34.515625 
L 43.21875 35.40625 
Q 43.21875 41.609375 39.140625 45 
Q 35.0625 48.390625 27.6875 48.390625 
Q 23 48.390625 18.546875 47.265625 
Q 14.109375 46.140625 10.015625 43.890625 
L 10.015625 52.203125 
Q 14.9375 54.109375 19.578125 55.046875 
Q 24.21875 56 28.609375 56 
Q 40.484375 56 46.34375 49.84375 
Q 52.203125 43.703125 52.203125 31.203125 
z
" id="DejaVuSans-61"/>
      <path id="DejaVuSans-20"/>
      <path d="M 37.109375 75.984375 
L 37.109375 68.5 
L 28.515625 68.5 
Q 23.6875 68.5 21.796875 66.546875 
Q 19.921875 64.59375 19.921875 59.515625 
L 19.921875 54.6875 
L 34.71875 54.6875 
L 34.71875 47.703125 
L 19.921875 47.703125 
L 19.921875 0 
L 10.890625 0 
L 10.890625 47.703125 
L 2.296875 47.703125 
L 2.296875 54.6875 
L 10.890625 54.6875 
L 10.890625 58.5 
Q 10.890625 67.625 15.140625 71.796875 
Q 19.390625 75.984375 28.609375 75.984375 
z
" id="DejaVuSans-66"/>
     </defs>
     <g transform="translate(332.237854 39.598396)scale(0.08 -0.08)">
      <use xlink:href="#DejaVuSans-45"/>
      <use x="63.183594" xlink:href="#DejaVuSans-78"/>
      <use x="122.363281" xlink:href="#DejaVuSans-70"/>
      <use x="185.839844" xlink:href="#DejaVuSans-61"/>
      <use x="247.119141" xlink:href="#DejaVuSans-6e"/>
      <use x="310.498047" xlink:href="#DejaVuSans-73"/>
      <use x="362.597656" xlink:href="#DejaVuSans-69"/>
      <use x="390.380859" xlink:href="#DejaVuSans-6f"/>
      <use x="451.5625" xlink:href="#DejaVuSans-6e"/>
      <use x="514.941406" xlink:href="#DejaVuSans-20"/>
      <use x="546.728516" xlink:href="#DejaVuSans-63"/>
      <use x="601.708984" xlink:href="#DejaVuSans-6f"/>
      <use x="662.890625" xlink:href="#DejaVuSans-65"/>
      <use x="724.414062" xlink:href="#DejaVuSans-66"/>
      <use x="759.619141" xlink:href="#DejaVuSans-66"/>
      <use x="794.824219" xlink:href="#DejaVuSans-69"/>
      <use x="822.607422" xlink:href="#DejaVuSans-63"/>
      <use x="877.587891" xlink:href="#DejaVuSans-69"/>
      <use x="905.371094" xlink:href="#DejaVuSans-65"/>
      <use x="966.894531" xlink:href="#DejaVuSans-6e"/>
      <use x="1030.273438" xlink:href="#DejaVuSans-74"/>
      <use x="1069.482422" xlink:href="#DejaVuSans-73"/>
     </g>
    </g>
   </g>
  </g>
  <g id="axes_2">
   <g id="patch_6">
    <path d="M 28.018055 275.905354 
L 429.165354 275.905354 
L 429.165354 146.874228 
L 28.018055 146.874228 
z
" style="fill:#ffffff;"/>
   </g>
   <g id="matplotlib.axis_3">
    <g id="xtick_6">
     <g id="line2d_28">
      <path clip-path="url(#p2e055c2941)" d="M 107.271297 275.905354 
L 107.271297 146.874228 
" style="fill:none;opacity:0.1;stroke:#000000;stroke-linecap:square;stroke-width:0.5;"/>
     </g>
     <g id="line2d_29">
      <g>
       <use style="stroke:#000000;stroke-width:0.8;" x="107.271297" xlink:href="#mef55eb4df6" y="275.905354"/>
      </g>
     </g>
     <g id="text_13">
      <!-- 0.2 -->
      <g transform="translate(100.910047 285.484104)scale(0.08 -0.08)">
       <use xlink:href="#DejaVuSans-30"/>
       <use x="63.623047" xlink:href="#DejaVuSans-2e"/>
       <use x="95.410156" xlink:href="#DejaVuSans-32"/>
      </g>
     </g>
    </g>
    <g id="xtick_7">
     <g id="line2d_30">
      <path clip-path="url(#p2e055c2941)" d="M 188.151569 275.905354 
L 188.151569 146.874228 
" style="fill:none;opacity:0.1;stroke:#000000;stroke-linecap:square;stroke-width:0.5;"/>
     </g>
     <g id="line2d_31">
      <g>
       <use style="stroke:#000000;stroke-width:0.8;" x="188.151569" xlink:href="#mef55eb4df6" y="275.905354"/>
      </g>
     </g>
     <g id="text_14">
      <!-- 0.4 -->
      <defs>
       <path d="M 37.796875 64.3125 
L 12.890625 25.390625 
L 37.796875 25.390625 
z
M 35.203125 72.90625 
L 47.609375 72.90625 
L 47.609375 25.390625 
L 58.015625 25.390625 
L 58.015625 17.1875 
L 47.609375 17.1875 
L 47.609375 0 
L 37.796875 0 
L 37.796875 17.1875 
L 4.890625 17.1875 
L 4.890625 26.703125 
z
" id="DejaVuSans-34"/>
      </defs>
      <g transform="translate(181.790319 285.484104)scale(0.08 -0.08)">
       <use xlink:href="#DejaVuSans-30"/>
       <use x="63.623047" xlink:href="#DejaVuSans-2e"/>
       <use x="95.410156" xlink:href="#DejaVuSans-34"/>
      </g>
     </g>
    </g>
    <g id="xtick_8">
     <g id="line2d_32">
      <path clip-path="url(#p2e055c2941)" d="M 269.03184 275.905354 
L 269.03184 146.874228 
" style="fill:none;opacity:0.1;stroke:#000000;stroke-linecap:square;stroke-width:0.5;"/>
     </g>
     <g id="line2d_33">
      <g>
       <use style="stroke:#000000;stroke-width:0.8;" x="269.03184" xlink:href="#mef55eb4df6" y="275.905354"/>
      </g>
     </g>
     <g id="text_15">
      <!-- 0.6 -->
      <defs>
       <path d="M 33.015625 40.375 
Q 26.375 40.375 22.484375 35.828125 
Q 18.609375 31.296875 18.609375 23.390625 
Q 18.609375 15.53125 22.484375 10.953125 
Q 26.375 6.390625 33.015625 6.390625 
Q 39.65625 6.390625 43.53125 10.953125 
Q 47.40625 15.53125 47.40625 23.390625 
Q 47.40625 31.296875 43.53125 35.828125 
Q 39.65625 40.375 33.015625 40.375 
z
M 52.59375 71.296875 
L 52.59375 62.3125 
Q 48.875 64.0625 45.09375 64.984375 
Q 41.3125 65.921875 37.59375 65.921875 
Q 27.828125 65.921875 22.671875 59.328125 
Q 17.53125 52.734375 16.796875 39.40625 
Q 19.671875 43.65625 24.015625 45.921875 
Q 28.375 48.1875 33.59375 48.1875 
Q 44.578125 48.1875 50.953125 41.515625 
Q 57.328125 34.859375 57.328125 23.390625 
Q 57.328125 12.15625 50.6875 5.359375 
Q 44.046875 -1.421875 33.015625 -1.421875 
Q 20.359375 -1.421875 13.671875 8.265625 
Q 6.984375 17.96875 6.984375 36.375 
Q 6.984375 53.65625 15.1875 63.9375 
Q 23.390625 74.21875 37.203125 74.21875 
Q 40.921875 74.21875 44.703125 73.484375 
Q 48.484375 72.75 52.59375 71.296875 
z
" id="DejaVuSans-36"/>
      </defs>
      <g transform="translate(262.67059 285.484104)scale(0.08 -0.08)">
       <use xlink:href="#DejaVuSans-30"/>
       <use x="63.623047" xlink:href="#DejaVuSans-2e"/>
       <use x="95.410156" xlink:href="#DejaVuSans-36"/>
      </g>
     </g>
    </g>
    <g id="xtick_9">
     <g id="line2d_34">
      <path clip-path="url(#p2e055c2941)" d="M 349.912112 275.905354 
L 349.912112 146.874228 
" style="fill:none;opacity:0.1;stroke:#000000;stroke-linecap:square;stroke-width:0.5;"/>
     </g>
     <g id="line2d_35">
      <g>
       <use style="stroke:#000000;stroke-width:0.8;" x="349.912112" xlink:href="#mef55eb4df6" y="275.905354"/>
      </g>
     </g>
     <g id="text_16">
      <!-- 0.8 -->
      <defs>
       <path d="M 31.78125 34.625 
Q 24.75 34.625 20.71875 30.859375 
Q 16.703125 27.09375 16.703125 20.515625 
Q 16.703125 13.921875 20.71875 10.15625 
Q 24.75 6.390625 31.78125 6.390625 
Q 38.8125 6.390625 42.859375 10.171875 
Q 46.921875 13.96875 46.921875 20.515625 
Q 46.921875 27.09375 42.890625 30.859375 
Q 38.875 34.625 31.78125 34.625 
z
M 21.921875 38.8125 
Q 15.578125 40.375 12.03125 44.71875 
Q 8.5 49.078125 8.5 55.328125 
Q 8.5 64.0625 14.71875 69.140625 
Q 20.953125 74.21875 31.78125 74.21875 
Q 42.671875 74.21875 48.875 69.140625 
Q 55.078125 64.0625 55.078125 55.328125 
Q 55.078125 49.078125 51.53125 44.71875 
Q 48 40.375 41.703125 38.8125 
Q 48.828125 37.15625 52.796875 32.3125 
Q 56.78125 27.484375 56.78125 20.515625 
Q 56.78125 9.90625 50.3125 4.234375 
Q 43.84375 -1.421875 31.78125 -1.421875 
Q 19.734375 -1.421875 13.25 4.234375 
Q 6.78125 9.90625 6.78125 20.515625 
Q 6.78125 27.484375 10.78125 32.3125 
Q 14.796875 37.15625 21.921875 38.8125 
z
M 18.3125 54.390625 
Q 18.3125 48.734375 21.84375 45.5625 
Q 25.390625 42.390625 31.78125 42.390625 
Q 38.140625 42.390625 41.71875 45.5625 
Q 45.3125 48.734375 45.3125 54.390625 
Q 45.3125 60.0625 41.71875 63.234375 
Q 38.140625 66.40625 31.78125 66.40625 
Q 25.390625 66.40625 21.84375 63.234375 
Q 18.3125 60.0625 18.3125 54.390625 
z
" id="DejaVuSans-38"/>
      </defs>
      <g transform="translate(343.550862 285.484104)scale(0.08 -0.08)">
       <use xlink:href="#DejaVuSans-30"/>
       <use x="63.623047" xlink:href="#DejaVuSans-2e"/>
       <use x="95.410156" xlink:href="#DejaVuSans-38"/>
      </g>
     </g>
    </g>
   </g>
   <g id="matplotlib.axis_4">
    <g id="ytick_5">
     <g id="line2d_36">
      <path clip-path="url(#p2e055c2941)" d="M 28.018055 275.905354 
L 429.165354 275.905354 
" style="fill:none;opacity:0.1;stroke:#000000;stroke-linecap:square;stroke-width:0.5;"/>
     </g>
     <g id="line2d_37">
      <g>
       <use style="stroke:#000000;stroke-width:0.8;" x="28.018055" xlink:href="#m921132d1ff" y="275.905354"/>
      </g>
     </g>
     <g id="text_17">
      <!-- $10^{-20}$ -->
      <defs>
       <path d="M 10.59375 35.5 
L 73.1875 35.5 
L 73.1875 27.203125 
L 10.59375 27.203125 
z
" id="DejaVuSans-2212"/>
      </defs>
      <g transform="translate(2.198055 278.944729)scale(0.08 -0.08)">
       <use transform="translate(0 0.765625)" xlink:href="#DejaVuSans-31"/>
       <use transform="translate(63.623047 0.765625)" xlink:href="#DejaVuSans-30"/>
       <use transform="translate(128.203125 39.046875)scale(0.7)" xlink:href="#DejaVuSans-2212"/>
       <use transform="translate(186.855469 39.046875)scale(0.7)" xlink:href="#DejaVuSans-32"/>
       <use transform="translate(231.391602 39.046875)scale(0.7)" xlink:href="#DejaVuSans-30"/>
      </g>
     </g>
    </g>
    <g id="ytick_6">
     <g id="line2d_38">
      <path clip-path="url(#p2e055c2941)" d="M 28.018055 244.00967 
L 429.165354 244.00967 
" style="fill:none;opacity:0.1;stroke:#000000;stroke-linecap:square;stroke-width:0.5;"/>
     </g>
     <g id="line2d_39">
      <g>
       <use style="stroke:#000000;stroke-width:0.8;" x="28.018055" xlink:href="#m921132d1ff" y="244.00967"/>
      </g>
     </g>
     <g id="text_18">
      <!-- $10^{-19}$ -->
      <defs>
       <path d="M 10.984375 1.515625 
L 10.984375 10.5 
Q 14.703125 8.734375 18.5 7.8125 
Q 22.3125 6.890625 25.984375 6.890625 
Q 35.75 6.890625 40.890625 13.453125 
Q 46.046875 20.015625 46.78125 33.40625 
Q 43.953125 29.203125 39.59375 26.953125 
Q 35.25 24.703125 29.984375 24.703125 
Q 19.046875 24.703125 12.671875 31.3125 
Q 6.296875 37.9375 6.296875 49.421875 
Q 6.296875 60.640625 12.9375 67.421875 
Q 19.578125 74.21875 30.609375 74.21875 
Q 43.265625 74.21875 49.921875 64.515625 
Q 56.59375 54.828125 56.59375 36.375 
Q 56.59375 19.140625 48.40625 8.859375 
Q 40.234375 -1.421875 26.421875 -1.421875 
Q 22.703125 -1.421875 18.890625 -0.6875 
Q 15.09375 0.046875 10.984375 1.515625 
z
M 30.609375 32.421875 
Q 37.25 32.421875 41.125 36.953125 
Q 45.015625 41.5 45.015625 49.421875 
Q 45.015625 57.28125 41.125 61.84375 
Q 37.25 66.40625 30.609375 66.40625 
Q 23.96875 66.40625 20.09375 61.84375 
Q 16.21875 57.28125 16.21875 49.421875 
Q 16.21875 41.5 20.09375 36.953125 
Q 23.96875 32.421875 30.609375 32.421875 
z
" id="DejaVuSans-39"/>
      </defs>
      <g transform="translate(2.198055 247.049045)scale(0.08 -0.08)">
       <use transform="translate(0 0.765625)" xlink:href="#DejaVuSans-31"/>
       <use transform="translate(63.623047 0.765625)" xlink:href="#DejaVuSans-30"/>
       <use transform="translate(128.203125 39.046875)scale(0.7)" xlink:href="#DejaVuSans-2212"/>
       <use transform="translate(186.855469 39.046875)scale(0.7)" xlink:href="#DejaVuSans-31"/>
       <use transform="translate(231.391602 39.046875)scale(0.7)" xlink:href="#DejaVuSans-39"/>
      </g>
     </g>
    </g>
    <g id="ytick_7">
     <g id="line2d_40">
      <path clip-path="url(#p2e055c2941)" d="M 28.018055 212.113986 
L 429.165354 212.113986 
" style="fill:none;opacity:0.1;stroke:#000000;stroke-linecap:square;stroke-width:0.5;"/>
     </g>
     <g id="line2d_41">
      <g>
       <use style="stroke:#000000;stroke-width:0.8;" x="28.018055" xlink:href="#m921132d1ff" y="212.113986"/>
      </g>
     </g>
     <g id="text_19">
      <!-- $10^{-18}$ -->
      <g transform="translate(2.198055 215.153361)scale(0.08 -0.08)">
       <use transform="translate(0 0.765625)" xlink:href="#DejaVuSans-31"/>
       <use transform="translate(63.623047 0.765625)" xlink:href="#DejaVuSans-30"/>
       <use transform="translate(128.203125 39.046875)scale(0.7)" xlink:href="#DejaVuSans-2212"/>
       <use transform="translate(186.855469 39.046875)scale(0.7)" xlink:href="#DejaVuSans-31"/>
       <use transform="translate(231.391602 39.046875)scale(0.7)" xlink:href="#DejaVuSans-38"/>
      </g>
     </g>
    </g>
    <g id="ytick_8">
     <g id="line2d_42">
      <path clip-path="url(#p2e055c2941)" d="M 28.018055 180.218302 
L 429.165354 180.218302 
" style="fill:none;opacity:0.1;stroke:#000000;stroke-linecap:square;stroke-width:0.5;"/>
     </g>
     <g id="line2d_43">
      <g>
       <use style="stroke:#000000;stroke-width:0.8;" x="28.018055" xlink:href="#m921132d1ff" y="180.218302"/>
      </g>
     </g>
     <g id="text_20">
      <!-- $10^{-17}$ -->
      <g transform="translate(2.198055 183.257677)scale(0.08 -0.08)">
       <use transform="translate(0 0.684375)" xlink:href="#DejaVuSans-31"/>
       <use transform="translate(63.623047 0.684375)" xlink:href="#DejaVuSans-30"/>
       <use transform="translate(128.203125 38.965625)scale(0.7)" xlink:href="#DejaVuSans-2212"/>
       <use transform="translate(186.855469 38.965625)scale(0.7)" xlink:href="#DejaVuSans-31"/>
       <use transform="translate(231.391602 38.965625)scale(0.7)" xlink:href="#DejaVuSans-37"/>
      </g>
     </g>
    </g>
    <g id="ytick_9">
     <g id="line2d_44">
      <path clip-path="url(#p2e055c2941)" d="M 28.018055 148.322618 
L 429.165354 148.322618 
" style="fill:none;opacity:0.1;stroke:#000000;stroke-linecap:square;stroke-width:0.5;"/>
     </g>
     <g id="line2d_45">
      <g>
       <use style="stroke:#000000;stroke-width:0.8;" x="28.018055" xlink:href="#m921132d1ff" y="148.322618"/>
      </g>
     </g>
     <g id="text_21">
      <!-- $10^{-16}$ -->
      <g transform="translate(2.198055 151.361993)scale(0.08 -0.08)">
       <use transform="translate(0 0.765625)" xlink:href="#DejaVuSans-31"/>
       <use transform="translate(63.623047 0.765625)" xlink:href="#DejaVuSans-30"/>
       <use transform="translate(128.203125 39.046875)scale(0.7)" xlink:href="#DejaVuSans-2212"/>
       <use transform="translate(186.855469 39.046875)scale(0.7)" xlink:href="#DejaVuSans-31"/>
       <use transform="translate(231.391602 39.046875)scale(0.7)" xlink:href="#DejaVuSans-36"/>
      </g>
     </g>
    </g>
    <g id="ytick_10">
     <g id="line2d_46">
      <defs>
       <path d="M 0 0 
L -2 0 
" id="m3fc6748ba9" style="stroke:#000000;stroke-width:0.6;"/>
      </defs>
      <g>
       <use style="stroke:#000000;stroke-width:0.6;" x="28.018055" xlink:href="#m3fc6748ba9" y="275.905354"/>
      </g>
     </g>
    </g>
    <g id="ytick_11">
     <g id="line2d_47">
      <g>
       <use style="stroke:#000000;stroke-width:0.6;" x="28.018055" xlink:href="#m3fc6748ba9" y="244.00967"/>
      </g>
     </g>
    </g>
    <g id="ytick_12">
     <g id="line2d_48">
      <g>
       <use style="stroke:#000000;stroke-width:0.6;" x="28.018055" xlink:href="#m3fc6748ba9" y="212.113986"/>
      </g>
     </g>
    </g>
    <g id="ytick_13">
     <g id="line2d_49">
      <g>
       <use style="stroke:#000000;stroke-width:0.6;" x="28.018055" xlink:href="#m3fc6748ba9" y="180.218302"/>
      </g>
     </g>
    </g>
    <g id="ytick_14">
     <g id="line2d_50">
      <g>
       <use style="stroke:#000000;stroke-width:0.6;" x="28.018055" xlink:href="#m3fc6748ba9" y="148.322618"/>
      </g>
     </g>
    </g>
   </g>
   <g id="line2d_51">
    <path clip-path="url(#p2e055c2941)" d="M 28.018055 275.905354 
L 28.419202 214.085131 
L 28.820349 191.791005 
L 29.221497 214.085131 
L 29.622644 185.280458 
L 30.023791 204.483574 
L 30.424939 189.265465 
L 30.826086 194.882016 
L 31.227233 185.280458 
L 31.62838 185.280458 
L 32.029528 177.528594 
L 32.430675 182.189447 
L 32.831822 179.663907 
L 33.23297 185.280458 
L 34.035264 185.280458 
L 34.436412 170.06235 
L 34.837559 194.882016 
L 35.238706 179.663907 
L 35.639853 185.280458 
L 36.041001 194.882016 
L 36.442148 185.280458 
L 36.843295 179.663907 
L 37.244443 194.882016 
L 37.64559 179.663907 
L 38.046737 194.882016 
L 38.447885 179.663907 
L 38.849032 194.882016 
L 39.250179 185.280458 
L 40.052474 185.280458 
L 40.453621 275.905354 
L 40.854768 185.280458 
L 41.255916 185.280458 
L 41.657063 275.905354 
L 42.05821 275.905354 
L 42.459358 185.280458 
L 42.860505 175.678901 
L 43.261652 185.280458 
L 44.063947 185.280458 
L 44.465094 166.077343 
L 44.866241 275.905354 
L 45.267389 175.678901 
L 45.668536 185.280458 
L 46.069683 185.280458 
L 46.470831 275.905354 
L 46.871978 175.678901 
L 47.273125 275.905354 
L 47.674272 185.280458 
L 48.07542 185.280458 
L 48.476567 275.905354 
L 48.877714 175.678901 
L 49.278862 185.280458 
L 49.680009 175.678901 
L 50.081156 275.905354 
L 50.482304 185.280458 
L 50.883451 175.678901 
L 52.086893 175.678901 
L 52.48804 185.280458 
L 52.889187 185.280458 
L 53.290335 170.06235 
L 53.691482 275.905354 
L 54.092629 185.280458 
L 54.493777 162.986332 
L 54.894924 166.077343 
L 55.296071 166.077343 
L 55.697218 170.06235 
L 56.098366 175.678901 
L 56.499513 275.905354 
L 56.90066 166.077343 
L 57.301808 275.905354 
L 57.702955 175.678901 
L 58.50525 175.678901 
L 58.906397 275.905354 
L 59.307544 275.905354 
L 59.708691 166.077343 
L 60.109839 275.905354 
L 60.912133 275.905354 
L 61.313281 175.678901 
L 61.714428 175.678901 
L 62.115575 275.905354 
L 62.516723 275.905354 
L 62.91787 166.077343 
L 63.319017 175.678901 
L 64.923606 175.678901 
L 65.324754 166.077343 
L 65.725901 175.678901 
L 66.127048 275.905354 
L 66.528196 166.077343 
L 66.929343 275.905354 
L 67.33049 175.678901 
L 67.731637 275.905354 
L 68.132785 175.678901 
L 68.533932 175.678901 
L 68.935079 275.905354 
L 69.336227 166.077343 
L 69.737374 166.077343 
L 70.138521 275.905354 
L 70.539669 166.077343 
L 70.940816 160.460792 
L 71.341963 275.905354 
L 71.74311 175.678901 
L 72.144258 275.905354 
L 72.545405 175.678901 
L 72.946552 166.077343 
L 73.3477 175.678901 
L 73.748847 166.077343 
L 74.149994 175.678901 
L 74.551142 166.077343 
L 74.952289 175.678901 
L 75.353436 275.905354 
L 75.754583 175.678901 
L 76.958025 175.678901 
L 77.359173 166.077343 
L 77.76032 175.678901 
L 78.161467 156.475785 
L 78.562614 275.905354 
L 78.963762 160.460792 
L 79.364909 175.678901 
L 79.766056 156.475785 
L 80.167204 175.678901 
L 80.969498 156.475785 
L 81.370646 275.905354 
L 81.771793 175.678901 
L 82.17294 275.905354 
L 82.574087 166.077343 
L 82.975235 175.678901 
L 83.376382 160.460792 
L 83.777529 275.905354 
L 84.178677 160.460792 
L 84.579824 175.678901 
L 84.980971 175.678901 
L 85.382119 166.077343 
L 85.783266 175.678901 
L 86.184413 160.460792 
L 86.58556 166.077343 
L 86.986708 275.905354 
L 87.387855 166.077343 
L 87.789002 166.077343 
L 88.19015 175.678901 
L 88.591297 166.077343 
L 88.992444 275.905354 
L 89.393592 153.384774 
L 90.195886 175.678901 
L 90.597033 166.077343 
L 90.998181 160.460792 
L 91.399328 150.859234 
L 91.800475 175.678901 
L 92.201623 175.678901 
L 92.60277 275.905354 
L 93.003917 160.460792 
L 93.405065 153.384774 
L 93.806212 156.475785 
L 94.207359 153.384774 
L 94.608506 156.475785 
L 95.009654 175.678901 
L 95.410801 160.460792 
L 95.811948 175.678901 
L 96.213096 166.077343 
L 96.614243 175.678901 
L 97.01539 153.384774 
L 97.416538 175.678901 
L 97.817685 175.678901 
L 98.218832 275.905354 
L 98.619979 275.905354 
L 99.021127 160.460792 
L 99.422274 275.905354 
L 99.823421 166.077343 
L 100.224569 156.475785 
L 100.625716 153.384774 
L 101.026863 175.678901 
L 101.829158 156.475785 
L 102.230305 166.077343 
L 102.631452 166.077343 
L 103.0326 175.678901 
L 103.433747 166.077343 
L 103.834894 150.859234 
L 104.236042 166.077343 
L 104.637189 275.905354 
L 105.038336 166.077343 
L 106.241778 166.077343 
L 106.642925 150.859234 
L 107.044073 156.475785 
L 107.44522 156.475785 
L 107.846367 150.859234 
L 108.247515 166.077343 
L 108.648662 150.859234 
L 109.049809 156.475785 
L 109.450957 166.077343 
L 109.852104 275.905354 
L 110.253251 156.475785 
L 110.654398 166.077343 
L 111.055546 156.475785 
L 111.85784 156.475785 
L 112.258988 166.077343 
L 112.660135 156.475785 
L 113.46243 156.475785 
L 113.863577 275.905354 
L 114.264724 166.077343 
L 114.665871 166.077343 
L 115.067019 150.859234 
L 115.468166 156.475785 
L 115.869313 275.905354 
L 116.270461 156.475785 
L 116.671608 166.077343 
L 117.072755 275.905354 
L 117.473903 166.077343 
L 117.87505 166.077343 
L 118.276197 275.905354 
L 118.677344 156.475785 
L 119.078492 275.905354 
L 119.880786 275.905354 
L 120.281934 166.077343 
L 120.683081 275.905354 
L 121.084228 156.475785 
L 121.485376 275.905354 
L 121.886523 275.905354 
L 122.28767 150.859234 
L 122.688817 166.077343 
L 123.089965 166.077343 
L 123.491112 275.905354 
L 123.892259 156.475785 
L 124.293407 166.077343 
L 124.694554 275.905354 
L 125.095701 275.905354 
L 125.496849 150.859234 
L 125.897996 166.077343 
L 126.299143 150.859234 
L 126.70029 166.077343 
L 127.101438 166.077343 
L 127.502585 275.905354 
L 127.903732 275.905354 
L 128.30488 156.475785 
L 128.706027 275.905354 
L 129.107174 275.905354 
L 129.508322 166.077343 
L 129.909469 166.077343 
L 130.310616 275.905354 
L 130.711763 166.077343 
L 131.112911 275.905354 
L 131.514058 166.077343 
L 131.915205 166.077343 
L 132.316353 146.874228 
L 132.7175 166.077343 
L 133.118647 166.077343 
L 133.519795 156.475785 
L 133.920942 150.859234 
L 134.322089 166.077343 
L 134.723236 156.475785 
L 135.124384 166.077343 
L 135.525531 275.905354 
L 135.926678 166.077343 
L 136.327826 166.077343 
L 136.728973 275.905354 
L 137.13012 275.905354 
L 137.531268 166.077343 
L 137.932415 166.077343 
L 138.333562 275.905354 
L 138.734709 166.077343 
L 139.135857 166.077343 
L 139.537004 156.475785 
L 139.938151 166.077343 
L 140.740446 166.077343 
L 141.141593 156.475785 
L 141.542741 275.905354 
L 141.943888 166.077343 
L 142.345035 275.905354 
L 142.746182 150.859234 
L 143.14733 275.905354 
L 143.548477 166.077343 
L 143.949624 275.905354 
L 144.350772 156.475785 
L 144.751919 275.905354 
L 145.153066 166.077343 
L 145.554214 275.905354 
L 145.955361 275.905354 
L 146.356508 166.077343 
L 147.158803 166.077343 
L 147.55995 150.859234 
L 147.961097 166.077343 
L 149.164539 166.077343 
L 149.565687 156.475785 
L 149.966834 166.077343 
L 150.769128 166.077343 
L 151.170276 150.859234 
L 151.571423 275.905354 
L 151.97257 275.905354 
L 152.373718 150.859234 
L 152.774865 275.905354 
L 153.176012 166.077343 
L 153.57716 150.859234 
L 153.978307 166.077343 
L 154.379454 275.905354 
L 154.780601 275.905354 
L 155.181749 166.077343 
L 155.582896 275.905354 
L 155.984043 166.077343 
L 156.385191 156.475785 
L 156.786338 166.077343 
L 157.187485 166.077343 
L 157.588633 156.475785 
L 157.98978 166.077343 
L 158.390927 150.859234 
L 158.792074 275.905354 
L 159.193222 156.475785 
L 159.594369 166.077343 
L 159.995516 166.077343 
L 160.396664 275.905354 
L 160.797811 150.859234 
L 161.198958 156.475785 
L 161.600106 275.905354 
L 162.4024 275.905354 
L 162.803547 156.475785 
L 163.204695 275.905354 
L 163.605842 150.859234 
L 164.006989 166.077343 
L 164.408137 156.475785 
L 164.809284 156.475785 
L 165.210431 166.077343 
L 165.611579 146.874228 
L 166.012726 275.905354 
L 166.413873 275.905354 
L 166.81502 146.874228 
L 167.617315 166.077343 
L 168.018462 156.475785 
L 168.41961 156.475785 
L 168.820757 150.859234 
L 169.221904 150.859234 
L 169.623052 275.905354 
L 170.024199 166.077343 
L 170.425346 150.859234 
L 170.826493 156.475785 
L 171.227641 166.077343 
L 171.628788 166.077343 
L 172.029935 156.475785 
L 172.431083 166.077343 
L 172.83223 275.905354 
L 173.233377 275.905354 
L 173.634524 156.475785 
L 174.035672 166.077343 
L 174.436819 156.475785 
L 174.837966 156.475785 
L 175.239114 275.905354 
L 175.640261 275.905354 
L 176.041408 150.859234 
L 176.442556 275.905354 
L 176.843703 166.077343 
L 177.24485 166.077343 
L 177.645997 146.874228 
L 178.047145 166.077343 
L 178.448292 275.905354 
L 178.849439 275.905354 
L 179.250587 156.475785 
L 179.651734 275.905354 
L 180.052881 166.077343 
L 180.454029 156.475785 
L 180.855176 275.905354 
L 181.256323 156.475785 
L 181.65747 166.077343 
L 182.459765 166.077343 
L 182.860912 150.859234 
L 183.26206 275.905354 
L 183.663207 156.475785 
L 184.064354 166.077343 
L 184.866649 166.077343 
L 185.267796 275.905354 
L 185.668943 166.077343 
L 186.070091 275.905354 
L 186.471238 156.475785 
L 186.872385 150.859234 
L 187.273533 166.077343 
L 187.67468 156.475785 
L 188.075827 156.475785 
L 188.476975 166.077343 
L 188.878122 156.475785 
L 189.279269 166.077343 
L 189.680416 156.475785 
L 190.081564 166.077343 
L 190.482711 275.905354 
L 190.883858 156.475785 
L 191.285006 275.905354 
L 191.686153 166.077343 
L 192.0873 150.859234 
L 192.488448 156.475785 
L 192.889595 166.077343 
L 193.290742 275.905354 
L 193.691889 156.475785 
L 194.093037 275.905354 
L 194.895331 275.905354 
L 195.296479 156.475785 
L 195.697626 275.905354 
L 196.499921 275.905354 
L 196.901068 166.077343 
L 197.302215 166.077343 
L 197.703362 150.859234 
L 198.10451 166.077343 
L 198.505657 156.475785 
L 198.906804 166.077343 
L 199.307952 275.905354 
L 199.709099 275.905354 
L 200.110246 150.859234 
L 200.511394 150.859234 
L 200.912541 166.077343 
L 201.313688 156.475785 
L 201.714835 166.077343 
L 202.115983 156.475785 
L 202.51713 166.077343 
L 202.918277 275.905354 
L 203.319425 156.475785 
L 203.720572 150.859234 
L 204.121719 166.077343 
L 204.522867 275.905354 
L 204.924014 275.905354 
L 205.325161 166.077343 
L 205.726308 166.077343 
L 206.127456 275.905354 
L 206.528603 275.905354 
L 206.92975 166.077343 
L 207.330898 156.475785 
L 207.732045 166.077343 
L 208.133192 166.077343 
L 208.53434 275.905354 
L 208.935487 156.475785 
L 209.336634 275.905354 
L 209.737781 166.077343 
L 210.941223 166.077343 
L 211.342371 275.905354 
L 211.743518 275.905354 
L 212.144665 166.077343 
L 212.545813 275.905354 
L 212.94696 166.077343 
L 213.348107 275.905354 
L 213.749254 275.905354 
L 214.150402 166.077343 
L 214.551549 166.077343 
L 214.952696 156.475785 
L 215.353844 275.905354 
L 215.754991 156.475785 
L 216.156138 156.475785 
L 216.557286 166.077343 
L 216.958433 166.077343 
L 217.35958 156.475785 
L 217.760727 166.077343 
L 218.161875 166.077343 
L 218.563022 150.859234 
L 218.964169 166.077343 
L 219.365317 150.859234 
L 219.766464 156.475785 
L 220.167611 166.077343 
L 220.568759 156.475785 
L 220.969906 156.475785 
L 221.371053 166.077343 
L 222.975642 166.077343 
L 223.37679 275.905354 
L 223.777937 156.475785 
L 224.179084 156.475785 
L 224.580232 166.077343 
L 224.981379 156.475785 
L 225.382526 275.905354 
L 225.783673 275.905354 
L 226.184821 166.077343 
L 226.585968 156.475785 
L 226.987115 166.077343 
L 227.388263 156.475785 
L 227.78941 275.905354 
L 228.190557 166.077343 
L 228.992852 166.077343 
L 229.393999 175.678901 
L 229.795146 153.384774 
L 230.196294 175.678901 
L 230.597441 175.678901 
L 230.998588 166.077343 
L 231.399736 166.077343 
L 231.800883 275.905354 
L 232.20203 175.678901 
L 232.603178 160.460792 
L 233.004325 166.077343 
L 233.405472 275.905354 
L 233.806619 175.678901 
L 235.812356 175.678901 
L 236.213503 275.905354 
L 236.614651 175.678901 
L 237.015798 275.905354 
L 237.416945 166.077343 
L 237.818092 275.905354 
L 238.21924 275.905354 
L 238.620387 160.460792 
L 239.021534 275.905354 
L 239.422682 175.678901 
L 239.823829 166.077343 
L 240.224976 166.077343 
L 240.626124 160.460792 
L 241.027271 166.077343 
L 241.428418 160.460792 
L 241.829565 166.077343 
L 242.63186 166.077343 
L 243.033007 175.678901 
L 243.434155 160.460792 
L 243.835302 166.077343 
L 244.236449 153.384774 
L 244.637597 175.678901 
L 245.038744 160.460792 
L 245.439891 275.905354 
L 245.841038 160.460792 
L 246.242186 175.678901 
L 246.643333 175.678901 
L 247.04448 166.077343 
L 247.445628 175.678901 
L 247.846775 175.678901 
L 248.247922 166.077343 
L 249.050217 153.384774 
L 249.852511 175.678901 
L 250.253659 275.905354 
L 250.654806 175.678901 
L 251.055953 166.077343 
L 251.457101 166.077343 
L 251.858248 160.460792 
L 252.259395 160.460792 
L 252.660543 166.077343 
L 253.06169 166.077343 
L 253.462837 160.460792 
L 253.863984 166.077343 
L 254.265132 156.475785 
L 254.666279 175.678901 
L 255.067426 166.077343 
L 255.468574 275.905354 
L 255.869721 175.678901 
L 256.270868 175.678901 
L 256.672016 166.077343 
L 257.073163 160.460792 
L 257.47431 275.905354 
L 257.875457 166.077343 
L 258.276605 175.678901 
L 258.677752 275.905354 
L 259.078899 275.905354 
L 259.480047 160.460792 
L 259.881194 175.678901 
L 260.282341 166.077343 
L 260.683489 275.905354 
L 261.485783 275.905354 
L 261.88693 175.678901 
L 262.288078 175.678901 
L 262.689225 275.905354 
L 263.090372 175.678901 
L 263.49152 275.905354 
L 263.892667 175.678901 
L 264.694962 175.678901 
L 265.096109 166.077343 
L 265.497256 275.905354 
L 265.898403 175.678901 
L 266.299551 175.678901 
L 266.700698 166.077343 
L 267.101845 175.678901 
L 268.706434 175.678901 
L 269.107582 275.905354 
L 269.508729 160.460792 
L 269.909876 275.905354 
L 270.311024 166.077343 
L 270.712171 275.905354 
L 271.113318 275.905354 
L 271.514466 175.678901 
L 271.915613 275.905354 
L 272.31676 166.077343 
L 272.717907 175.678901 
L 273.119055 175.678901 
L 273.520202 166.077343 
L 273.921349 275.905354 
L 274.723644 275.905354 
L 275.124791 175.678901 
L 275.927086 175.678901 
L 276.328233 275.905354 
L 276.72938 275.905354 
L 277.130528 166.077343 
L 277.531675 275.905354 
L 277.932822 166.077343 
L 278.33397 175.678901 
L 279.537412 175.678901 
L 279.938559 160.460792 
L 280.339706 166.077343 
L 280.740853 275.905354 
L 281.142001 175.678901 
L 281.543148 175.678901 
L 281.944295 275.905354 
L 282.345443 166.077343 
L 282.74659 166.077343 
L 283.147737 175.678901 
L 283.548885 160.460792 
L 283.950032 275.905354 
L 284.351179 275.905354 
L 284.752326 166.077343 
L 285.153474 160.460792 
L 285.554621 175.678901 
L 285.955768 275.905354 
L 286.356916 175.678901 
L 286.758063 160.460792 
L 287.15921 166.077343 
L 287.560358 160.460792 
L 287.961505 166.077343 
L 288.362652 175.678901 
L 288.763799 275.905354 
L 289.164947 166.077343 
L 289.566094 175.678901 
L 289.967241 275.905354 
L 290.368389 175.678901 
L 290.769536 275.905354 
L 291.170683 175.678901 
L 291.571831 275.905354 
L 291.972978 275.905354 
L 292.374125 175.678901 
L 292.775272 275.905354 
L 293.17642 175.678901 
L 293.577567 166.077343 
L 293.978714 175.678901 
L 294.379862 166.077343 
L 295.182156 166.077343 
L 295.583304 275.905354 
L 295.984451 275.905354 
L 296.385598 175.678901 
L 297.187893 175.678901 
L 297.58904 160.460792 
L 297.990187 175.678901 
L 298.792482 175.678901 
L 299.193629 275.905354 
L 299.594777 275.905354 
L 299.995924 175.678901 
L 300.397071 175.678901 
L 300.798218 166.077343 
L 301.199366 275.905354 
L 301.600513 175.678901 
L 302.00166 275.905354 
L 302.803955 275.905354 
L 303.205102 175.678901 
L 303.60625 275.905354 
L 304.007397 175.678901 
L 304.408544 175.678901 
L 304.809691 275.905354 
L 305.210839 175.678901 
L 306.414281 175.678901 
L 306.815428 275.905354 
L 307.216575 175.678901 
L 307.617723 160.460792 
L 308.01887 175.678901 
L 308.420017 275.905354 
L 308.821164 160.460792 
L 309.222312 175.678901 
L 309.623459 166.077343 
L 310.024606 160.460792 
L 310.425754 166.077343 
L 310.826901 185.280458 
L 311.228048 275.905354 
L 311.629196 185.280458 
L 312.030343 275.905354 
L 312.43149 175.678901 
L 312.832637 185.280458 
L 313.233785 185.280458 
L 313.634932 175.678901 
L 314.036079 185.280458 
L 314.437227 185.280458 
L 314.838374 175.678901 
L 315.239521 275.905354 
L 315.640669 275.905354 
L 316.041816 175.678901 
L 316.442963 175.678901 
L 316.84411 185.280458 
L 317.245258 166.077343 
L 317.646405 275.905354 
L 318.047552 170.06235 
L 318.4487 175.678901 
L 318.849847 185.280458 
L 319.250994 175.678901 
L 319.652142 185.280458 
L 320.053289 170.06235 
L 320.454436 185.280458 
L 320.855583 175.678901 
L 321.256731 175.678901 
L 321.657878 275.905354 
L 322.059025 185.280458 
L 322.460173 185.280458 
L 322.86132 175.678901 
L 323.262467 170.06235 
L 323.663615 275.905354 
L 324.064762 175.678901 
L 324.465909 185.280458 
L 324.867056 185.280458 
L 325.268204 166.077343 
L 326.070498 185.280458 
L 326.471646 185.280458 
L 326.872793 175.678901 
L 327.27394 175.678901 
L 327.675088 275.905354 
L 328.076235 175.678901 
L 328.477382 185.280458 
L 328.878529 170.06235 
L 329.279677 185.280458 
L 329.680824 185.280458 
L 330.081971 275.905354 
L 330.483119 275.905354 
L 330.884266 175.678901 
L 331.285413 185.280458 
L 331.686561 170.06235 
L 332.087708 185.280458 
L 332.488855 275.905354 
L 333.692297 275.905354 
L 334.093444 170.06235 
L 334.494592 185.280458 
L 334.895739 175.678901 
L 335.296886 275.905354 
L 335.698034 185.280458 
L 336.099181 275.905354 
L 337.302623 275.905354 
L 337.70377 175.678901 
L 338.104917 175.678901 
L 338.506065 170.06235 
L 338.907212 185.280458 
L 339.308359 170.06235 
L 340.110654 170.06235 
L 340.511801 185.280458 
L 340.912948 175.678901 
L 341.314096 275.905354 
L 341.715243 275.905354 
L 342.11639 175.678901 
L 342.517538 185.280458 
L 344.523274 185.280458 
L 344.924421 275.905354 
L 345.325569 185.280458 
L 345.726716 275.905354 
L 346.127863 185.280458 
L 347.732453 185.280458 
L 348.1336 175.678901 
L 348.534747 175.678901 
L 348.935894 275.905354 
L 349.337042 185.280458 
L 350.139336 185.280458 
L 350.540484 275.905354 
L 350.941631 185.280458 
L 351.342778 194.882016 
L 352.145073 194.882016 
L 352.54622 185.280458 
L 352.947367 185.280458 
L 353.348515 275.905354 
L 353.749662 275.905354 
L 354.150809 194.882016 
L 354.551957 275.905354 
L 354.953104 194.882016 
L 355.354251 179.663907 
L 355.755399 275.905354 
L 356.156546 185.280458 
L 356.557693 275.905354 
L 357.761135 275.905354 
L 358.162282 185.280458 
L 358.56343 185.280458 
L 358.964577 194.882016 
L 359.766872 194.882016 
L 360.168019 275.905354 
L 360.569166 185.280458 
L 360.970313 194.882016 
L 361.371461 172.58789 
L 361.772608 194.882016 
L 362.574903 194.882016 
L 362.97605 170.06235 
L 363.377197 194.882016 
L 363.778344 275.905354 
L 364.179492 194.882016 
L 364.981786 194.882016 
L 365.382934 275.905354 
L 365.784081 185.280458 
L 366.185228 275.905354 
L 366.586376 275.905354 
L 366.987523 194.882016 
L 367.38867 194.882016 
L 367.789817 275.905354 
L 368.592112 275.905354 
L 368.993259 194.882016 
L 369.394407 185.280458 
L 369.795554 275.905354 
L 370.196701 194.882016 
L 370.597849 194.882016 
L 370.998996 185.280458 
L 371.400143 185.280458 
L 371.80129 275.905354 
L 372.202438 185.280458 
L 372.603585 185.280458 
L 373.004732 194.882016 
L 374.208174 194.882016 
L 374.609322 275.905354 
L 375.010469 194.882016 
L 375.411616 185.280458 
L 375.812763 275.905354 
L 377.016205 275.905354 
L 377.417353 204.483574 
L 377.8185 204.483574 
L 378.219647 194.882016 
L 379.021942 194.882016 
L 379.423089 204.483574 
L 380.225384 204.483574 
L 380.626531 185.280458 
L 381.027678 204.483574 
L 381.428826 275.905354 
L 381.829973 204.483574 
L 382.23112 204.483574 
L 382.632268 185.280458 
L 383.033415 275.905354 
L 383.434562 204.483574 
L 383.835709 275.905354 
L 384.236857 204.483574 
L 384.638004 204.483574 
L 385.039151 194.882016 
L 385.440299 275.905354 
L 385.841446 275.905354 
L 386.242593 194.882016 
L 386.643741 194.882016 
L 387.044888 204.483574 
L 387.446035 204.483574 
L 387.847182 275.905354 
L 388.24833 204.483574 
L 388.649477 194.882016 
L 389.050624 204.483574 
L 389.451772 189.265465 
L 389.852919 204.483574 
L 390.254066 204.483574 
L 390.655214 275.905354 
L 391.056361 204.483574 
L 391.457508 194.882016 
L 391.858655 194.882016 
L 392.259803 204.483574 
L 393.062097 204.483574 
L 393.463245 214.085131 
L 393.864392 191.791005 
L 394.265539 275.905354 
L 394.666687 214.085131 
L 395.067834 214.085131 
L 395.468981 275.905354 
L 395.870128 214.085131 
L 396.271276 204.483574 
L 396.672423 198.867022 
L 397.07357 204.483574 
L 397.474718 198.867022 
L 397.875865 194.882016 
L 398.277012 275.905354 
L 398.67816 198.867022 
L 399.079307 214.085131 
L 400.282749 214.085131 
L 400.683896 204.483574 
L 401.085043 275.905354 
L 401.486191 214.085131 
L 401.887338 204.483574 
L 402.288485 214.085131 
L 402.689633 275.905354 
L 403.09078 204.483574 
L 403.491927 214.085131 
L 404.294222 214.085131 
L 404.695369 275.905354 
L 405.096516 214.085131 
L 405.497664 214.085131 
L 405.898811 223.686689 
L 406.299958 208.46858 
L 406.701106 223.686689 
L 407.102253 275.905354 
L 407.5034 275.905354 
L 407.904547 223.686689 
L 408.305695 275.905354 
L 408.706842 214.085131 
L 409.107989 275.905354 
L 409.509137 214.085131 
L 409.910284 223.686689 
L 410.311431 275.905354 
L 410.712579 223.686689 
L 412.317168 223.686689 
L 412.718315 233.288246 
L 413.119462 275.905354 
L 413.52061 218.070138 
L 413.921757 275.905354 
L 414.322904 223.686689 
L 414.724052 223.686689 
L 415.125199 218.070138 
L 415.526346 233.288246 
L 415.927493 218.070138 
L 416.328641 223.686689 
L 416.729788 218.070138 
L 417.130935 233.288246 
L 417.532083 233.288246 
L 417.93323 223.686689 
L 418.334377 227.671695 
L 418.735525 227.671695 
L 419.136672 242.889804 
L 419.537819 242.889804 
L 419.938966 275.905354 
L 420.340114 223.686689 
L 420.741261 233.288246 
L 421.142408 233.288246 
L 421.543556 242.889804 
L 422.34585 242.889804 
L 422.746998 237.273253 
L 423.148145 233.288246 
L 423.549292 242.889804 
L 423.950439 233.288246 
L 424.351587 242.889804 
L 424.752734 275.905354 
L 425.153881 246.874811 
L 425.555029 275.905354 
L 426.357323 249.400351 
L 426.758471 238.478545 
L 427.159618 237.273253 
L 427.560765 244.739497 
L 427.961912 239.122946 
L 428.36306 262.092919 
L 428.764207 252.491362 
L 429.165354 275.905354 
L 429.165354 275.905354 
" style="fill:none;stroke:#009afa;stroke-linecap:round;"/>
   </g>
   <g id="patch_7">
    <path d="M 28.018055 275.905354 
L 28.018055 146.874228 
" style="fill:none;stroke:#000000;stroke-linecap:square;stroke-linejoin:miter;stroke-width:0.8;"/>
   </g>
   <g id="patch_8">
    <path d="M 28.018055 275.905354 
L 429.165354 275.905354 
" style="fill:none;stroke:#000000;stroke-linecap:square;stroke-linejoin:miter;stroke-width:0.8;"/>
   </g>
   <g id="legend_2">
    <g id="patch_9">
     <path d="M 315.517854 165.016728 
L 423.565354 165.016728 
Q 425.165354 165.016728 425.165354 163.416728 
L 425.165354 152.474228 
Q 425.165354 150.874228 423.565354 150.874228 
L 315.517854 150.874228 
Q 313.917854 150.874228 313.917854 152.474228 
L 313.917854 163.416728 
Q 313.917854 165.016728 315.517854 165.016728 
z
" style="fill:#ffffff;opacity:0.8;stroke:#000000;stroke-linejoin:miter;"/>
    </g>
    <g id="line2d_52">
     <path d="M 317.117854 157.352978 
L 333.117854 157.352978 
" style="fill:none;stroke:#009afa;stroke-linecap:square;"/>
    </g>
    <g id="line2d_53"/>
    <g id="text_22">
     <!-- Reconstruction error -->
     <g transform="translate(339.517854 160.152978)scale(0.08 -0.08)">
      <use xlink:href="#DejaVuSans-52"/>
      <use x="69.419922" xlink:href="#DejaVuSans-65"/>
      <use x="130.943359" xlink:href="#DejaVuSans-63"/>
      <use x="185.923828" xlink:href="#DejaVuSans-6f"/>
      <use x="247.105469" xlink:href="#DejaVuSans-6e"/>
      <use x="310.484375" xlink:href="#DejaVuSans-73"/>
      <use x="362.583984" xlink:href="#DejaVuSans-74"/>
      <use x="401.792969" xlink:href="#DejaVuSans-72"/>
      <use x="442.90625" xlink:href="#DejaVuSans-75"/>
      <use x="506.285156" xlink:href="#DejaVuSans-63"/>
      <use x="561.265625" xlink:href="#DejaVuSans-74"/>
      <use x="600.474609" xlink:href="#DejaVuSans-69"/>
      <use x="628.257812" xlink:href="#DejaVuSans-6f"/>
      <use x="689.439453" xlink:href="#DejaVuSans-6e"/>
      <use x="752.818359" xlink:href="#DejaVuSans-20"/>
      <use x="784.605469" xlink:href="#DejaVuSans-65"/>
      <use x="846.128906" xlink:href="#DejaVuSans-72"/>
      <use x="887.226562" xlink:href="#DejaVuSans-72"/>
      <use x="928.308594" xlink:href="#DejaVuSans-6f"/>
      <use x="989.490234" xlink:href="#DejaVuSans-72"/>
     </g>
    </g>
   </g>
  </g>
 </g>
 <defs>
  <clipPath id="pda11f10fd0">
   <rect height="129.031126" width="401.1473" x="28.018055" y="2.834646"/>
  </clipPath>
  <clipPath id="p2e055c2941">
   <rect height="129.031126" width="401.1473" x="28.018055" y="146.874228"/>
  </clipPath>
 </defs>
</svg>
