<?xml version="1.0" encoding="utf-8" standalone="no"?>
<!DOCTYPE svg PUBLIC "-//W3C//DTD SVG 1.1//EN"
  "http://www.w3.org/Graphics/SVG/1.1/DTD/svg11.dtd">
<!-- Created with matplotlib (http://matplotlib.org/) -->
<svg height="288pt" version="1.1" viewBox="0 0 432 288" width="432pt" xmlns="http://www.w3.org/2000/svg" xmlns:xlink="http://www.w3.org/1999/xlink">
 <defs>
  <style type="text/css">
*{stroke-linecap:butt;stroke-linejoin:round;}
  </style>
 </defs>
 <g id="figure_1">
  <g id="patch_1">
   <path d="M 0 288 
L 432 288 
L 432 0 
L 0 0 
z
" style="fill:#ffffff;"/>
  </g>
  <g id="axes_1">
   <g id="patch_2">
    <path d="M 32.474646 261.105354 
L 429.165354 261.105354 
L 429.165354 2.834646 
L 32.474646 2.834646 
z
" style="fill:#ffffff;"/>
   </g>
   <g id="matplotlib.axis_1">
    <g id="xtick_1">
     <g id="line2d_1">
      <path clip-path="url(#ped59fe3088)" d="M 43.701741 261.105354 
L 43.701741 2.834646 
" style="fill:none;opacity:0.1;stroke:#000000;stroke-linecap:square;stroke-width:0.5;"/>
     </g>
     <g id="line2d_2">
      <defs>
       <path d="M 0 0 
L 0 -3.5 
" id="m629c9f20dd" style="stroke:#000000;stroke-width:0.8;"/>
      </defs>
      <g>
       <use style="stroke:#000000;stroke-width:0.8;" x="43.701741" xlink:href="#m629c9f20dd" y="261.105354"/>
      </g>
     </g>
     <g id="text_1">
      <!-- 1 -->
      <defs>
       <path d="M 12.40625 8.296875 
L 28.515625 8.296875 
L 28.515625 63.921875 
L 10.984375 60.40625 
L 10.984375 69.390625 
L 28.421875 72.90625 
L 38.28125 72.90625 
L 38.28125 8.296875 
L 54.390625 8.296875 
L 54.390625 0 
L 12.40625 0 
z
" id="DejaVuSans-31"/>
      </defs>
      <g transform="translate(41.156741 270.684104)scale(0.08 -0.08)">
       <use xlink:href="#DejaVuSans-31"/>
      </g>
     </g>
    </g>
    <g id="xtick_2">
     <g id="line2d_3">
      <path clip-path="url(#ped59fe3088)" d="M 81.97593 261.105354 
L 81.97593 2.834646 
" style="fill:none;opacity:0.1;stroke:#000000;stroke-linecap:square;stroke-width:0.5;"/>
     </g>
     <g id="line2d_4">
      <g>
       <use style="stroke:#000000;stroke-width:0.8;" x="81.97593" xlink:href="#m629c9f20dd" y="261.105354"/>
      </g>
     </g>
     <g id="text_2">
      <!-- 10 -->
      <defs>
       <path d="M 31.78125 66.40625 
Q 24.171875 66.40625 20.328125 58.90625 
Q 16.5 51.421875 16.5 36.375 
Q 16.5 21.390625 20.328125 13.890625 
Q 24.171875 6.390625 31.78125 6.390625 
Q 39.453125 6.390625 43.28125 13.890625 
Q 47.125 21.390625 47.125 36.375 
Q 47.125 51.421875 43.28125 58.90625 
Q 39.453125 66.40625 31.78125 66.40625 
z
M 31.78125 74.21875 
Q 44.046875 74.21875 50.515625 64.515625 
Q 56.984375 54.828125 56.984375 36.375 
Q 56.984375 17.96875 50.515625 8.265625 
Q 44.046875 -1.421875 31.78125 -1.421875 
Q 19.53125 -1.421875 13.0625 8.265625 
Q 6.59375 17.96875 6.59375 36.375 
Q 6.59375 54.828125 13.0625 64.515625 
Q 19.53125 74.21875 31.78125 74.21875 
z
" id="DejaVuSans-30"/>
      </defs>
      <g transform="translate(76.88593 270.684104)scale(0.08 -0.08)">
       <use xlink:href="#DejaVuSans-31"/>
       <use x="63.623047" xlink:href="#DejaVuSans-30"/>
      </g>
     </g>
    </g>
    <g id="xtick_3">
     <g id="line2d_5">
      <path clip-path="url(#ped59fe3088)" d="M 120.25012 261.105354 
L 120.25012 2.834646 
" style="fill:none;opacity:0.1;stroke:#000000;stroke-linecap:square;stroke-width:0.5;"/>
     </g>
     <g id="line2d_6">
      <g>
       <use style="stroke:#000000;stroke-width:0.8;" x="120.25012" xlink:href="#m629c9f20dd" y="261.105354"/>
      </g>
     </g>
     <g id="text_3">
      <!-- 19 -->
      <defs>
       <path d="M 10.984375 1.515625 
L 10.984375 10.5 
Q 14.703125 8.734375 18.5 7.8125 
Q 22.3125 6.890625 25.984375 6.890625 
Q 35.75 6.890625 40.890625 13.453125 
Q 46.046875 20.015625 46.78125 33.40625 
Q 43.953125 29.203125 39.59375 26.953125 
Q 35.25 24.703125 29.984375 24.703125 
Q 19.046875 24.703125 12.671875 31.3125 
Q 6.296875 37.9375 6.296875 49.421875 
Q 6.296875 60.640625 12.9375 67.421875 
Q 19.578125 74.21875 30.609375 74.21875 
Q 43.265625 74.21875 49.921875 64.515625 
Q 56.59375 54.828125 56.59375 36.375 
Q 56.59375 19.140625 48.40625 8.859375 
Q 40.234375 -1.421875 26.421875 -1.421875 
Q 22.703125 -1.421875 18.890625 -0.6875 
Q 15.09375 0.046875 10.984375 1.515625 
z
M 30.609375 32.421875 
Q 37.25 32.421875 41.125 36.953125 
Q 45.015625 41.5 45.015625 49.421875 
Q 45.015625 57.28125 41.125 61.84375 
Q 37.25 66.40625 30.609375 66.40625 
Q 23.96875 66.40625 20.09375 61.84375 
Q 16.21875 57.28125 16.21875 49.421875 
Q 16.21875 41.5 20.09375 36.953125 
Q 23.96875 32.421875 30.609375 32.421875 
z
" id="DejaVuSans-39"/>
      </defs>
      <g transform="translate(115.16012 270.684104)scale(0.08 -0.08)">
       <use xlink:href="#DejaVuSans-31"/>
       <use x="63.623047" xlink:href="#DejaVuSans-39"/>
      </g>
     </g>
    </g>
    <g id="xtick_4">
     <g id="line2d_7">
      <path clip-path="url(#ped59fe3088)" d="M 158.524309 261.105354 
L 158.524309 2.834646 
" style="fill:none;opacity:0.1;stroke:#000000;stroke-linecap:square;stroke-width:0.5;"/>
     </g>
     <g id="line2d_8">
      <g>
       <use style="stroke:#000000;stroke-width:0.8;" x="158.524309" xlink:href="#m629c9f20dd" y="261.105354"/>
      </g>
     </g>
     <g id="text_4">
      <!-- 28 -->
      <defs>
       <path d="M 19.1875 8.296875 
L 53.609375 8.296875 
L 53.609375 0 
L 7.328125 0 
L 7.328125 8.296875 
Q 12.9375 14.109375 22.625 23.890625 
Q 32.328125 33.6875 34.8125 36.53125 
Q 39.546875 41.84375 41.421875 45.53125 
Q 43.3125 49.21875 43.3125 52.78125 
Q 43.3125 58.59375 39.234375 62.25 
Q 35.15625 65.921875 28.609375 65.921875 
Q 23.96875 65.921875 18.8125 64.3125 
Q 13.671875 62.703125 7.8125 59.421875 
L 7.8125 69.390625 
Q 13.765625 71.78125 18.9375 73 
Q 24.125 74.21875 28.421875 74.21875 
Q 39.75 74.21875 46.484375 68.546875 
Q 53.21875 62.890625 53.21875 53.421875 
Q 53.21875 48.921875 51.53125 44.890625 
Q 49.859375 40.875 45.40625 35.40625 
Q 44.1875 33.984375 37.640625 27.21875 
Q 31.109375 20.453125 19.1875 8.296875 
z
" id="DejaVuSans-32"/>
       <path d="M 31.78125 34.625 
Q 24.75 34.625 20.71875 30.859375 
Q 16.703125 27.09375 16.703125 20.515625 
Q 16.703125 13.921875 20.71875 10.15625 
Q 24.75 6.390625 31.78125 6.390625 
Q 38.8125 6.390625 42.859375 10.171875 
Q 46.921875 13.96875 46.921875 20.515625 
Q 46.921875 27.09375 42.890625 30.859375 
Q 38.875 34.625 31.78125 34.625 
z
M 21.921875 38.8125 
Q 15.578125 40.375 12.03125 44.71875 
Q 8.5 49.078125 8.5 55.328125 
Q 8.5 64.0625 14.71875 69.140625 
Q 20.953125 74.21875 31.78125 74.21875 
Q 42.671875 74.21875 48.875 69.140625 
Q 55.078125 64.0625 55.078125 55.328125 
Q 55.078125 49.078125 51.53125 44.71875 
Q 48 40.375 41.703125 38.8125 
Q 48.828125 37.15625 52.796875 32.3125 
Q 56.78125 27.484375 56.78125 20.515625 
Q 56.78125 9.90625 50.3125 4.234375 
Q 43.84375 -1.421875 31.78125 -1.421875 
Q 19.734375 -1.421875 13.25 4.234375 
Q 6.78125 9.90625 6.78125 20.515625 
Q 6.78125 27.484375 10.78125 32.3125 
Q 14.796875 37.15625 21.921875 38.8125 
z
M 18.3125 54.390625 
Q 18.3125 48.734375 21.84375 45.5625 
Q 25.390625 42.390625 31.78125 42.390625 
Q 38.140625 42.390625 41.71875 45.5625 
Q 45.3125 48.734375 45.3125 54.390625 
Q 45.3125 60.0625 41.71875 63.234375 
Q 38.140625 66.40625 31.78125 66.40625 
Q 25.390625 66.40625 21.84375 63.234375 
Q 18.3125 60.0625 18.3125 54.390625 
z
" id="DejaVuSans-38"/>
      </defs>
      <g transform="translate(153.434309 270.684104)scale(0.08 -0.08)">
       <use xlink:href="#DejaVuSans-32"/>
       <use x="63.623047" xlink:href="#DejaVuSans-38"/>
      </g>
     </g>
    </g>
    <g id="xtick_5">
     <g id="line2d_9">
      <path clip-path="url(#ped59fe3088)" d="M 196.798498 261.105354 
L 196.798498 2.834646 
" style="fill:none;opacity:0.1;stroke:#000000;stroke-linecap:square;stroke-width:0.5;"/>
     </g>
     <g id="line2d_10">
      <g>
       <use style="stroke:#000000;stroke-width:0.8;" x="196.798498" xlink:href="#m629c9f20dd" y="261.105354"/>
      </g>
     </g>
     <g id="text_5">
      <!-- 37 -->
      <defs>
       <path d="M 40.578125 39.3125 
Q 47.65625 37.796875 51.625 33 
Q 55.609375 28.21875 55.609375 21.1875 
Q 55.609375 10.40625 48.1875 4.484375 
Q 40.765625 -1.421875 27.09375 -1.421875 
Q 22.515625 -1.421875 17.65625 -0.515625 
Q 12.796875 0.390625 7.625 2.203125 
L 7.625 11.71875 
Q 11.71875 9.328125 16.59375 8.109375 
Q 21.484375 6.890625 26.8125 6.890625 
Q 36.078125 6.890625 40.9375 10.546875 
Q 45.796875 14.203125 45.796875 21.1875 
Q 45.796875 27.640625 41.28125 31.265625 
Q 36.765625 34.90625 28.71875 34.90625 
L 20.21875 34.90625 
L 20.21875 43.015625 
L 29.109375 43.015625 
Q 36.375 43.015625 40.234375 45.921875 
Q 44.09375 48.828125 44.09375 54.296875 
Q 44.09375 59.90625 40.109375 62.90625 
Q 36.140625 65.921875 28.71875 65.921875 
Q 24.65625 65.921875 20.015625 65.03125 
Q 15.375 64.15625 9.8125 62.3125 
L 9.8125 71.09375 
Q 15.4375 72.65625 20.34375 73.4375 
Q 25.25 74.21875 29.59375 74.21875 
Q 40.828125 74.21875 47.359375 69.109375 
Q 53.90625 64.015625 53.90625 55.328125 
Q 53.90625 49.265625 50.4375 45.09375 
Q 46.96875 40.921875 40.578125 39.3125 
z
" id="DejaVuSans-33"/>
       <path d="M 8.203125 72.90625 
L 55.078125 72.90625 
L 55.078125 68.703125 
L 28.609375 0 
L 18.3125 0 
L 43.21875 64.59375 
L 8.203125 64.59375 
z
" id="DejaVuSans-37"/>
      </defs>
      <g transform="translate(191.708498 270.684104)scale(0.08 -0.08)">
       <use xlink:href="#DejaVuSans-33"/>
       <use x="63.623047" xlink:href="#DejaVuSans-37"/>
      </g>
     </g>
    </g>
    <g id="xtick_6">
     <g id="line2d_11">
      <path clip-path="url(#ped59fe3088)" d="M 235.072688 261.105354 
L 235.072688 2.834646 
" style="fill:none;opacity:0.1;stroke:#000000;stroke-linecap:square;stroke-width:0.5;"/>
     </g>
     <g id="line2d_12">
      <g>
       <use style="stroke:#000000;stroke-width:0.8;" x="235.072688" xlink:href="#m629c9f20dd" y="261.105354"/>
      </g>
     </g>
     <g id="text_6">
      <!-- 46 -->
      <defs>
       <path d="M 37.796875 64.3125 
L 12.890625 25.390625 
L 37.796875 25.390625 
z
M 35.203125 72.90625 
L 47.609375 72.90625 
L 47.609375 25.390625 
L 58.015625 25.390625 
L 58.015625 17.1875 
L 47.609375 17.1875 
L 47.609375 0 
L 37.796875 0 
L 37.796875 17.1875 
L 4.890625 17.1875 
L 4.890625 26.703125 
z
" id="DejaVuSans-34"/>
       <path d="M 33.015625 40.375 
Q 26.375 40.375 22.484375 35.828125 
Q 18.609375 31.296875 18.609375 23.390625 
Q 18.609375 15.53125 22.484375 10.953125 
Q 26.375 6.390625 33.015625 6.390625 
Q 39.65625 6.390625 43.53125 10.953125 
Q 47.40625 15.53125 47.40625 23.390625 
Q 47.40625 31.296875 43.53125 35.828125 
Q 39.65625 40.375 33.015625 40.375 
z
M 52.59375 71.296875 
L 52.59375 62.3125 
Q 48.875 64.0625 45.09375 64.984375 
Q 41.3125 65.921875 37.59375 65.921875 
Q 27.828125 65.921875 22.671875 59.328125 
Q 17.53125 52.734375 16.796875 39.40625 
Q 19.671875 43.65625 24.015625 45.921875 
Q 28.375 48.1875 33.59375 48.1875 
Q 44.578125 48.1875 50.953125 41.515625 
Q 57.328125 34.859375 57.328125 23.390625 
Q 57.328125 12.15625 50.6875 5.359375 
Q 44.046875 -1.421875 33.015625 -1.421875 
Q 20.359375 -1.421875 13.671875 8.265625 
Q 6.984375 17.96875 6.984375 36.375 
Q 6.984375 53.65625 15.1875 63.9375 
Q 23.390625 74.21875 37.203125 74.21875 
Q 40.921875 74.21875 44.703125 73.484375 
Q 48.484375 72.75 52.59375 71.296875 
z
" id="DejaVuSans-36"/>
      </defs>
      <g transform="translate(229.982688 270.684104)scale(0.08 -0.08)">
       <use xlink:href="#DejaVuSans-34"/>
       <use x="63.623047" xlink:href="#DejaVuSans-36"/>
      </g>
     </g>
    </g>
    <g id="xtick_7">
     <g id="line2d_13">
      <path clip-path="url(#ped59fe3088)" d="M 273.346877 261.105354 
L 273.346877 2.834646 
" style="fill:none;opacity:0.1;stroke:#000000;stroke-linecap:square;stroke-width:0.5;"/>
     </g>
     <g id="line2d_14">
      <g>
       <use style="stroke:#000000;stroke-width:0.8;" x="273.346877" xlink:href="#m629c9f20dd" y="261.105354"/>
      </g>
     </g>
     <g id="text_7">
      <!-- 55 -->
      <defs>
       <path d="M 10.796875 72.90625 
L 49.515625 72.90625 
L 49.515625 64.59375 
L 19.828125 64.59375 
L 19.828125 46.734375 
Q 21.96875 47.46875 24.109375 47.828125 
Q 26.265625 48.1875 28.421875 48.1875 
Q 40.625 48.1875 47.75 41.5 
Q 54.890625 34.8125 54.890625 23.390625 
Q 54.890625 11.625 47.5625 5.09375 
Q 40.234375 -1.421875 26.90625 -1.421875 
Q 22.3125 -1.421875 17.546875 -0.640625 
Q 12.796875 0.140625 7.71875 1.703125 
L 7.71875 11.625 
Q 12.109375 9.234375 16.796875 8.0625 
Q 21.484375 6.890625 26.703125 6.890625 
Q 35.15625 6.890625 40.078125 11.328125 
Q 45.015625 15.765625 45.015625 23.390625 
Q 45.015625 31 40.078125 35.4375 
Q 35.15625 39.890625 26.703125 39.890625 
Q 22.75 39.890625 18.8125 39.015625 
Q 14.890625 38.140625 10.796875 36.28125 
z
" id="DejaVuSans-35"/>
      </defs>
      <g transform="translate(268.256877 270.684104)scale(0.08 -0.08)">
       <use xlink:href="#DejaVuSans-35"/>
       <use x="63.623047" xlink:href="#DejaVuSans-35"/>
      </g>
     </g>
    </g>
    <g id="xtick_8">
     <g id="line2d_15">
      <path clip-path="url(#ped59fe3088)" d="M 311.621066 261.105354 
L 311.621066 2.834646 
" style="fill:none;opacity:0.1;stroke:#000000;stroke-linecap:square;stroke-width:0.5;"/>
     </g>
     <g id="line2d_16">
      <g>
       <use style="stroke:#000000;stroke-width:0.8;" x="311.621066" xlink:href="#m629c9f20dd" y="261.105354"/>
      </g>
     </g>
     <g id="text_8">
      <!-- 64 -->
      <g transform="translate(306.531066 270.684104)scale(0.08 -0.08)">
       <use xlink:href="#DejaVuSans-36"/>
       <use x="63.623047" xlink:href="#DejaVuSans-34"/>
      </g>
     </g>
    </g>
    <g id="xtick_9">
     <g id="line2d_17">
      <path clip-path="url(#ped59fe3088)" d="M 349.895256 261.105354 
L 349.895256 2.834646 
" style="fill:none;opacity:0.1;stroke:#000000;stroke-linecap:square;stroke-width:0.5;"/>
     </g>
     <g id="line2d_18">
      <g>
       <use style="stroke:#000000;stroke-width:0.8;" x="349.895256" xlink:href="#m629c9f20dd" y="261.105354"/>
      </g>
     </g>
     <g id="text_9">
      <!-- 73 -->
      <g transform="translate(344.805256 270.684104)scale(0.08 -0.08)">
       <use xlink:href="#DejaVuSans-37"/>
       <use x="63.623047" xlink:href="#DejaVuSans-33"/>
      </g>
     </g>
    </g>
    <g id="xtick_10">
     <g id="line2d_19">
      <path clip-path="url(#ped59fe3088)" d="M 388.169445 261.105354 
L 388.169445 2.834646 
" style="fill:none;opacity:0.1;stroke:#000000;stroke-linecap:square;stroke-width:0.5;"/>
     </g>
     <g id="line2d_20">
      <g>
       <use style="stroke:#000000;stroke-width:0.8;" x="388.169445" xlink:href="#m629c9f20dd" y="261.105354"/>
      </g>
     </g>
     <g id="text_10">
      <!-- 82 -->
      <g transform="translate(383.079445 270.684104)scale(0.08 -0.08)">
       <use xlink:href="#DejaVuSans-38"/>
       <use x="63.623047" xlink:href="#DejaVuSans-32"/>
      </g>
     </g>
    </g>
    <g id="text_11">
     <!-- # -->
     <defs>
      <path d="M 51.125 44 
L 36.921875 44 
L 32.8125 27.6875 
L 47.125 27.6875 
z
M 43.796875 71.78125 
L 38.71875 51.515625 
L 52.984375 51.515625 
L 58.109375 71.78125 
L 65.921875 71.78125 
L 60.890625 51.515625 
L 76.125 51.515625 
L 76.125 44 
L 58.984375 44 
L 54.984375 27.6875 
L 70.515625 27.6875 
L 70.515625 20.21875 
L 53.078125 20.21875 
L 48 0 
L 40.1875 0 
L 45.21875 20.21875 
L 30.90625 20.21875 
L 25.875 0 
L 18.015625 0 
L 23.09375 20.21875 
L 7.71875 20.21875 
L 7.71875 27.6875 
L 24.90625 27.6875 
L 29 44 
L 13.28125 44 
L 13.28125 51.515625 
L 30.90625 51.515625 
L 35.890625 71.78125 
z
" id="DejaVuSans-23"/>
     </defs>
     <g transform="translate(226.211172 284.706136)scale(0.11 -0.11)">
      <use xlink:href="#DejaVuSans-23"/>
     </g>
    </g>
   </g>
   <g id="matplotlib.axis_2">
    <g id="ytick_1">
     <g id="line2d_21">
      <path clip-path="url(#ped59fe3088)" d="M 32.474646 254.784043 
L 429.165354 254.784043 
" style="fill:none;opacity:0.1;stroke:#000000;stroke-linecap:square;stroke-width:0.5;"/>
     </g>
     <g id="line2d_22">
      <defs>
       <path d="M 0 0 
L 3.5 0 
" id="m158d200807" style="stroke:#000000;stroke-width:0.8;"/>
      </defs>
      <g>
       <use style="stroke:#000000;stroke-width:0.8;" x="32.474646" xlink:href="#m158d200807" y="254.784043"/>
      </g>
     </g>
     <g id="text_12">
      <!-- 0.0 -->
      <defs>
       <path d="M 10.6875 12.40625 
L 21 12.40625 
L 21 0 
L 10.6875 0 
z
" id="DejaVuSans-2e"/>
      </defs>
      <g transform="translate(16.252146 257.823418)scale(0.08 -0.08)">
       <use xlink:href="#DejaVuSans-30"/>
       <use x="63.623047" xlink:href="#DejaVuSans-2e"/>
       <use x="95.410156" xlink:href="#DejaVuSans-30"/>
      </g>
     </g>
    </g>
    <g id="ytick_2">
     <g id="line2d_23">
      <path clip-path="url(#ped59fe3088)" d="M 32.474646 230.221234 
L 429.165354 230.221234 
" style="fill:none;opacity:0.1;stroke:#000000;stroke-linecap:square;stroke-width:0.5;"/>
     </g>
     <g id="line2d_24">
      <g>
       <use style="stroke:#000000;stroke-width:0.8;" x="32.474646" xlink:href="#m158d200807" y="230.221234"/>
      </g>
     </g>
     <g id="text_13">
      <!-- 0.1 -->
      <g transform="translate(16.252146 233.260609)scale(0.08 -0.08)">
       <use xlink:href="#DejaVuSans-30"/>
       <use x="63.623047" xlink:href="#DejaVuSans-2e"/>
       <use x="95.410156" xlink:href="#DejaVuSans-31"/>
      </g>
     </g>
    </g>
    <g id="ytick_3">
     <g id="line2d_25">
      <path clip-path="url(#ped59fe3088)" d="M 32.474646 205.658426 
L 429.165354 205.658426 
" style="fill:none;opacity:0.1;stroke:#000000;stroke-linecap:square;stroke-width:0.5;"/>
     </g>
     <g id="line2d_26">
      <g>
       <use style="stroke:#000000;stroke-width:0.8;" x="32.474646" xlink:href="#m158d200807" y="205.658426"/>
      </g>
     </g>
     <g id="text_14">
      <!-- 0.2 -->
      <g transform="translate(16.252146 208.697801)scale(0.08 -0.08)">
       <use xlink:href="#DejaVuSans-30"/>
       <use x="63.623047" xlink:href="#DejaVuSans-2e"/>
       <use x="95.410156" xlink:href="#DejaVuSans-32"/>
      </g>
     </g>
    </g>
    <g id="ytick_4">
     <g id="line2d_27">
      <path clip-path="url(#ped59fe3088)" d="M 32.474646 181.095617 
L 429.165354 181.095617 
" style="fill:none;opacity:0.1;stroke:#000000;stroke-linecap:square;stroke-width:0.5;"/>
     </g>
     <g id="line2d_28">
      <g>
       <use style="stroke:#000000;stroke-width:0.8;" x="32.474646" xlink:href="#m158d200807" y="181.095617"/>
      </g>
     </g>
     <g id="text_15">
      <!-- 0.3 -->
      <g transform="translate(16.252146 184.134992)scale(0.08 -0.08)">
       <use xlink:href="#DejaVuSans-30"/>
       <use x="63.623047" xlink:href="#DejaVuSans-2e"/>
       <use x="95.410156" xlink:href="#DejaVuSans-33"/>
      </g>
     </g>
    </g>
    <g id="ytick_5">
     <g id="line2d_29">
      <path clip-path="url(#ped59fe3088)" d="M 32.474646 156.532809 
L 429.165354 156.532809 
" style="fill:none;opacity:0.1;stroke:#000000;stroke-linecap:square;stroke-width:0.5;"/>
     </g>
     <g id="line2d_30">
      <g>
       <use style="stroke:#000000;stroke-width:0.8;" x="32.474646" xlink:href="#m158d200807" y="156.532809"/>
      </g>
     </g>
     <g id="text_16">
      <!-- 0.4 -->
      <g transform="translate(16.252146 159.572184)scale(0.08 -0.08)">
       <use xlink:href="#DejaVuSans-30"/>
       <use x="63.623047" xlink:href="#DejaVuSans-2e"/>
       <use x="95.410156" xlink:href="#DejaVuSans-34"/>
      </g>
     </g>
    </g>
    <g id="ytick_6">
     <g id="line2d_31">
      <path clip-path="url(#ped59fe3088)" d="M 32.474646 131.97 
L 429.165354 131.97 
" style="fill:none;opacity:0.1;stroke:#000000;stroke-linecap:square;stroke-width:0.5;"/>
     </g>
     <g id="line2d_32">
      <g>
       <use style="stroke:#000000;stroke-width:0.8;" x="32.474646" xlink:href="#m158d200807" y="131.97"/>
      </g>
     </g>
     <g id="text_17">
      <!-- 0.5 -->
      <g transform="translate(16.252146 135.009375)scale(0.08 -0.08)">
       <use xlink:href="#DejaVuSans-30"/>
       <use x="63.623047" xlink:href="#DejaVuSans-2e"/>
       <use x="95.410156" xlink:href="#DejaVuSans-35"/>
      </g>
     </g>
    </g>
    <g id="ytick_7">
     <g id="line2d_33">
      <path clip-path="url(#ped59fe3088)" d="M 32.474646 107.407191 
L 429.165354 107.407191 
" style="fill:none;opacity:0.1;stroke:#000000;stroke-linecap:square;stroke-width:0.5;"/>
     </g>
     <g id="line2d_34">
      <g>
       <use style="stroke:#000000;stroke-width:0.8;" x="32.474646" xlink:href="#m158d200807" y="107.407191"/>
      </g>
     </g>
     <g id="text_18">
      <!-- 0.6 -->
      <g transform="translate(16.252146 110.446566)scale(0.08 -0.08)">
       <use xlink:href="#DejaVuSans-30"/>
       <use x="63.623047" xlink:href="#DejaVuSans-2e"/>
       <use x="95.410156" xlink:href="#DejaVuSans-36"/>
      </g>
     </g>
    </g>
    <g id="ytick_8">
     <g id="line2d_35">
      <path clip-path="url(#ped59fe3088)" d="M 32.474646 82.844383 
L 429.165354 82.844383 
" style="fill:none;opacity:0.1;stroke:#000000;stroke-linecap:square;stroke-width:0.5;"/>
     </g>
     <g id="line2d_36">
      <g>
       <use style="stroke:#000000;stroke-width:0.8;" x="32.474646" xlink:href="#m158d200807" y="82.844383"/>
      </g>
     </g>
     <g id="text_19">
      <!-- 0.7 -->
      <g transform="translate(16.252146 85.883758)scale(0.08 -0.08)">
       <use xlink:href="#DejaVuSans-30"/>
       <use x="63.623047" xlink:href="#DejaVuSans-2e"/>
       <use x="95.410156" xlink:href="#DejaVuSans-37"/>
      </g>
     </g>
    </g>
    <g id="ytick_9">
     <g id="line2d_37">
      <path clip-path="url(#ped59fe3088)" d="M 32.474646 58.281574 
L 429.165354 58.281574 
" style="fill:none;opacity:0.1;stroke:#000000;stroke-linecap:square;stroke-width:0.5;"/>
     </g>
     <g id="line2d_38">
      <g>
       <use style="stroke:#000000;stroke-width:0.8;" x="32.474646" xlink:href="#m158d200807" y="58.281574"/>
      </g>
     </g>
     <g id="text_20">
      <!-- 0.8 -->
      <g transform="translate(16.252146 61.320949)scale(0.08 -0.08)">
       <use xlink:href="#DejaVuSans-30"/>
       <use x="63.623047" xlink:href="#DejaVuSans-2e"/>
       <use x="95.410156" xlink:href="#DejaVuSans-38"/>
      </g>
     </g>
    </g>
    <g id="ytick_10">
     <g id="line2d_39">
      <path clip-path="url(#ped59fe3088)" d="M 32.474646 33.718766 
L 429.165354 33.718766 
" style="fill:none;opacity:0.1;stroke:#000000;stroke-linecap:square;stroke-width:0.5;"/>
     </g>
     <g id="line2d_40">
      <g>
       <use style="stroke:#000000;stroke-width:0.8;" x="32.474646" xlink:href="#m158d200807" y="33.718766"/>
      </g>
     </g>
     <g id="text_21">
      <!-- 0.9 -->
      <g transform="translate(16.252146 36.758141)scale(0.08 -0.08)">
       <use xlink:href="#DejaVuSans-30"/>
       <use x="63.623047" xlink:href="#DejaVuSans-2e"/>
       <use x="95.410156" xlink:href="#DejaVuSans-39"/>
      </g>
     </g>
    </g>
    <g id="ytick_11">
     <g id="line2d_41">
      <path clip-path="url(#ped59fe3088)" d="M 32.474646 9.155957 
L 429.165354 9.155957 
" style="fill:none;opacity:0.1;stroke:#000000;stroke-linecap:square;stroke-width:0.5;"/>
     </g>
     <g id="line2d_42">
      <g>
       <use style="stroke:#000000;stroke-width:0.8;" x="32.474646" xlink:href="#m158d200807" y="9.155957"/>
      </g>
     </g>
     <g id="text_22">
      <!-- 1.0 -->
      <g transform="translate(16.252146 12.195332)scale(0.08 -0.08)">
       <use xlink:href="#DejaVuSans-31"/>
       <use x="63.623047" xlink:href="#DejaVuSans-2e"/>
       <use x="95.410156" xlink:href="#DejaVuSans-30"/>
      </g>
     </g>
    </g>
    <g id="text_23">
     <!-- x -->
     <defs>
      <path d="M 54.890625 54.6875 
L 35.109375 28.078125 
L 55.90625 0 
L 45.3125 0 
L 29.390625 21.484375 
L 13.484375 0 
L 2.875 0 
L 24.125 28.609375 
L 4.6875 54.6875 
L 15.28125 54.6875 
L 29.78125 35.203125 
L 44.28125 54.6875 
z
" id="DejaVuSans-78"/>
     </defs>
     <g transform="translate(9.964489 135.225313)rotate(-90)scale(0.11 -0.11)">
      <use xlink:href="#DejaVuSans-78"/>
     </g>
    </g>
   </g>
   <g id="line2d_43">
    <path clip-path="url(#ped59fe3088)" d="M 43.701741 253.795806 
L 47.954429 251.575819 
L 52.207117 248.372228 
L 56.459804 244.532496 
L 60.712492 240.472781 
L 64.96518 236.633049 
L 69.217867 233.429458 
L 73.470555 231.209471 
L 77.723243 230.221234 
L 81.97593 229.232997 
L 86.228618 227.01301 
L 90.481306 223.809419 
L 94.733994 219.969687 
L 98.986681 215.909972 
L 103.239369 212.07024 
L 107.492057 208.866649 
L 111.744744 206.646662 
L 115.997432 205.658426 
L 120.25012 204.670189 
L 124.502807 202.450202 
L 128.755495 199.246611 
L 133.008183 195.406879 
L 137.260871 191.347164 
L 141.513558 187.507432 
L 145.766246 184.303841 
L 150.018934 182.083854 
L 154.271621 181.095617 
L 158.524309 180.10738 
L 162.776997 177.887393 
L 167.029684 174.683802 
L 171.282372 170.84407 
L 175.53506 166.784355 
L 179.787748 162.944623 
L 184.040435 159.741032 
L 188.293123 157.521045 
L 192.545811 156.532809 
L 196.798498 155.544572 
L 201.051186 153.324585 
L 205.303874 150.120994 
L 209.556561 146.281262 
L 213.809249 142.221547 
L 218.061937 138.381815 
L 222.314625 135.178224 
L 226.567312 132.958237 
L 230.82 131.97 
L 235.072688 130.981763 
L 239.325375 128.761776 
L 243.578063 125.558185 
L 247.830751 121.718453 
L 252.083439 117.658738 
L 256.336126 113.819006 
L 260.588814 110.615415 
L 264.841502 108.395428 
L 269.094189 107.407191 
L 273.346877 106.418955 
L 277.599565 104.198968 
L 281.852252 100.995377 
L 286.10494 97.155645 
L 290.357628 93.09593 
L 294.610316 89.256198 
L 298.863003 86.052607 
L 303.115691 83.83262 
L 307.368379 82.844383 
L 311.621066 81.856146 
L 315.873754 79.636159 
L 320.126442 76.432568 
L 324.379129 72.592836 
L 328.631817 68.533121 
L 332.884505 64.693389 
L 337.137193 61.489798 
L 341.38988 59.269811 
L 345.642568 58.281574 
L 349.895256 57.293338 
L 354.147943 55.073351 
L 358.400631 51.86976 
L 362.653319 48.030028 
L 366.906006 43.970313 
L 371.158694 40.130581 
L 375.411382 36.92699 
L 379.66407 34.707003 
L 383.916757 33.718766 
L 388.169445 32.730529 
L 392.422133 30.510542 
L 396.67482 27.306951 
L 400.927508 23.467219 
L 405.180196 19.407504 
L 409.432883 15.567772 
L 413.685571 12.364181 
L 417.938259 10.144194 
" style="fill:none;stroke:#009afa;stroke-linecap:round;"/>
   </g>
   <g id="PathCollection_1">
    <defs>
     <path d="M 0 2 
C 0.530406 2 1.03916 1.789267 1.414214 1.414214 
C 1.789267 1.03916 2 0.530406 2 0 
C 2 -0.530406 1.789267 -1.03916 1.414214 -1.414214 
C 1.03916 -1.789267 0.530406 -2 0 -2 
C -0.530406 -2 -1.03916 -1.789267 -1.414214 -1.414214 
C -1.789267 -1.03916 -2 -0.530406 -2 0 
C -2 0.530406 -1.789267 1.03916 -1.414214 1.414214 
C -1.03916 1.789267 -0.530406 2 0 2 
z
" id="mf7dd5a1e75" style="stroke:#000000;"/>
    </defs>
    <g clip-path="url(#ped59fe3088)">
     <use style="fill:#009afa;stroke:#000000;" x="43.701741" xlink:href="#mf7dd5a1e75" y="253.795806"/>
     <use style="fill:#009afa;stroke:#000000;" x="47.954429" xlink:href="#mf7dd5a1e75" y="251.575819"/>
     <use style="fill:#009afa;stroke:#000000;" x="52.207117" xlink:href="#mf7dd5a1e75" y="248.372228"/>
     <use style="fill:#009afa;stroke:#000000;" x="56.459804" xlink:href="#mf7dd5a1e75" y="244.532496"/>
     <use style="fill:#009afa;stroke:#000000;" x="60.712492" xlink:href="#mf7dd5a1e75" y="240.472781"/>
     <use style="fill:#009afa;stroke:#000000;" x="64.96518" xlink:href="#mf7dd5a1e75" y="236.633049"/>
     <use style="fill:#009afa;stroke:#000000;" x="69.217867" xlink:href="#mf7dd5a1e75" y="233.429458"/>
     <use style="fill:#009afa;stroke:#000000;" x="73.470555" xlink:href="#mf7dd5a1e75" y="231.209471"/>
     <use style="fill:#009afa;stroke:#000000;" x="77.723243" xlink:href="#mf7dd5a1e75" y="230.221234"/>
     <use style="fill:#009afa;stroke:#000000;" x="81.97593" xlink:href="#mf7dd5a1e75" y="229.232997"/>
     <use style="fill:#009afa;stroke:#000000;" x="86.228618" xlink:href="#mf7dd5a1e75" y="227.01301"/>
     <use style="fill:#009afa;stroke:#000000;" x="90.481306" xlink:href="#mf7dd5a1e75" y="223.809419"/>
     <use style="fill:#009afa;stroke:#000000;" x="94.733994" xlink:href="#mf7dd5a1e75" y="219.969687"/>
     <use style="fill:#009afa;stroke:#000000;" x="98.986681" xlink:href="#mf7dd5a1e75" y="215.909972"/>
     <use style="fill:#009afa;stroke:#000000;" x="103.239369" xlink:href="#mf7dd5a1e75" y="212.07024"/>
     <use style="fill:#009afa;stroke:#000000;" x="107.492057" xlink:href="#mf7dd5a1e75" y="208.866649"/>
     <use style="fill:#009afa;stroke:#000000;" x="111.744744" xlink:href="#mf7dd5a1e75" y="206.646662"/>
     <use style="fill:#009afa;stroke:#000000;" x="115.997432" xlink:href="#mf7dd5a1e75" y="205.658426"/>
     <use style="fill:#009afa;stroke:#000000;" x="120.25012" xlink:href="#mf7dd5a1e75" y="204.670189"/>
     <use style="fill:#009afa;stroke:#000000;" x="124.502807" xlink:href="#mf7dd5a1e75" y="202.450202"/>
     <use style="fill:#009afa;stroke:#000000;" x="128.755495" xlink:href="#mf7dd5a1e75" y="199.246611"/>
     <use style="fill:#009afa;stroke:#000000;" x="133.008183" xlink:href="#mf7dd5a1e75" y="195.406879"/>
     <use style="fill:#009afa;stroke:#000000;" x="137.260871" xlink:href="#mf7dd5a1e75" y="191.347164"/>
     <use style="fill:#009afa;stroke:#000000;" x="141.513558" xlink:href="#mf7dd5a1e75" y="187.507432"/>
     <use style="fill:#009afa;stroke:#000000;" x="145.766246" xlink:href="#mf7dd5a1e75" y="184.303841"/>
     <use style="fill:#009afa;stroke:#000000;" x="150.018934" xlink:href="#mf7dd5a1e75" y="182.083854"/>
     <use style="fill:#009afa;stroke:#000000;" x="154.271621" xlink:href="#mf7dd5a1e75" y="181.095617"/>
     <use style="fill:#009afa;stroke:#000000;" x="158.524309" xlink:href="#mf7dd5a1e75" y="180.10738"/>
     <use style="fill:#009afa;stroke:#000000;" x="162.776997" xlink:href="#mf7dd5a1e75" y="177.887393"/>
     <use style="fill:#009afa;stroke:#000000;" x="167.029684" xlink:href="#mf7dd5a1e75" y="174.683802"/>
     <use style="fill:#009afa;stroke:#000000;" x="171.282372" xlink:href="#mf7dd5a1e75" y="170.84407"/>
     <use style="fill:#009afa;stroke:#000000;" x="175.53506" xlink:href="#mf7dd5a1e75" y="166.784355"/>
     <use style="fill:#009afa;stroke:#000000;" x="179.787748" xlink:href="#mf7dd5a1e75" y="162.944623"/>
     <use style="fill:#009afa;stroke:#000000;" x="184.040435" xlink:href="#mf7dd5a1e75" y="159.741032"/>
     <use style="fill:#009afa;stroke:#000000;" x="188.293123" xlink:href="#mf7dd5a1e75" y="157.521045"/>
     <use style="fill:#009afa;stroke:#000000;" x="192.545811" xlink:href="#mf7dd5a1e75" y="156.532809"/>
     <use style="fill:#009afa;stroke:#000000;" x="196.798498" xlink:href="#mf7dd5a1e75" y="155.544572"/>
     <use style="fill:#009afa;stroke:#000000;" x="201.051186" xlink:href="#mf7dd5a1e75" y="153.324585"/>
     <use style="fill:#009afa;stroke:#000000;" x="205.303874" xlink:href="#mf7dd5a1e75" y="150.120994"/>
     <use style="fill:#009afa;stroke:#000000;" x="209.556561" xlink:href="#mf7dd5a1e75" y="146.281262"/>
     <use style="fill:#009afa;stroke:#000000;" x="213.809249" xlink:href="#mf7dd5a1e75" y="142.221547"/>
     <use style="fill:#009afa;stroke:#000000;" x="218.061937" xlink:href="#mf7dd5a1e75" y="138.381815"/>
     <use style="fill:#009afa;stroke:#000000;" x="222.314625" xlink:href="#mf7dd5a1e75" y="135.178224"/>
     <use style="fill:#009afa;stroke:#000000;" x="226.567312" xlink:href="#mf7dd5a1e75" y="132.958237"/>
     <use style="fill:#009afa;stroke:#000000;" x="230.82" xlink:href="#mf7dd5a1e75" y="131.97"/>
     <use style="fill:#009afa;stroke:#000000;" x="235.072688" xlink:href="#mf7dd5a1e75" y="130.981763"/>
     <use style="fill:#009afa;stroke:#000000;" x="239.325375" xlink:href="#mf7dd5a1e75" y="128.761776"/>
     <use style="fill:#009afa;stroke:#000000;" x="243.578063" xlink:href="#mf7dd5a1e75" y="125.558185"/>
     <use style="fill:#009afa;stroke:#000000;" x="247.830751" xlink:href="#mf7dd5a1e75" y="121.718453"/>
     <use style="fill:#009afa;stroke:#000000;" x="252.083439" xlink:href="#mf7dd5a1e75" y="117.658738"/>
     <use style="fill:#009afa;stroke:#000000;" x="256.336126" xlink:href="#mf7dd5a1e75" y="113.819006"/>
     <use style="fill:#009afa;stroke:#000000;" x="260.588814" xlink:href="#mf7dd5a1e75" y="110.615415"/>
     <use style="fill:#009afa;stroke:#000000;" x="264.841502" xlink:href="#mf7dd5a1e75" y="108.395428"/>
     <use style="fill:#009afa;stroke:#000000;" x="269.094189" xlink:href="#mf7dd5a1e75" y="107.407191"/>
     <use style="fill:#009afa;stroke:#000000;" x="273.346877" xlink:href="#mf7dd5a1e75" y="106.418955"/>
     <use style="fill:#009afa;stroke:#000000;" x="277.599565" xlink:href="#mf7dd5a1e75" y="104.198968"/>
     <use style="fill:#009afa;stroke:#000000;" x="281.852252" xlink:href="#mf7dd5a1e75" y="100.995377"/>
     <use style="fill:#009afa;stroke:#000000;" x="286.10494" xlink:href="#mf7dd5a1e75" y="97.155645"/>
     <use style="fill:#009afa;stroke:#000000;" x="290.357628" xlink:href="#mf7dd5a1e75" y="93.09593"/>
     <use style="fill:#009afa;stroke:#000000;" x="294.610316" xlink:href="#mf7dd5a1e75" y="89.256198"/>
     <use style="fill:#009afa;stroke:#000000;" x="298.863003" xlink:href="#mf7dd5a1e75" y="86.052607"/>
     <use style="fill:#009afa;stroke:#000000;" x="303.115691" xlink:href="#mf7dd5a1e75" y="83.83262"/>
     <use style="fill:#009afa;stroke:#000000;" x="307.368379" xlink:href="#mf7dd5a1e75" y="82.844383"/>
     <use style="fill:#009afa;stroke:#000000;" x="311.621066" xlink:href="#mf7dd5a1e75" y="81.856146"/>
     <use style="fill:#009afa;stroke:#000000;" x="315.873754" xlink:href="#mf7dd5a1e75" y="79.636159"/>
     <use style="fill:#009afa;stroke:#000000;" x="320.126442" xlink:href="#mf7dd5a1e75" y="76.432568"/>
     <use style="fill:#009afa;stroke:#000000;" x="324.379129" xlink:href="#mf7dd5a1e75" y="72.592836"/>
     <use style="fill:#009afa;stroke:#000000;" x="328.631817" xlink:href="#mf7dd5a1e75" y="68.533121"/>
     <use style="fill:#009afa;stroke:#000000;" x="332.884505" xlink:href="#mf7dd5a1e75" y="64.693389"/>
     <use style="fill:#009afa;stroke:#000000;" x="337.137193" xlink:href="#mf7dd5a1e75" y="61.489798"/>
     <use style="fill:#009afa;stroke:#000000;" x="341.38988" xlink:href="#mf7dd5a1e75" y="59.269811"/>
     <use style="fill:#009afa;stroke:#000000;" x="345.642568" xlink:href="#mf7dd5a1e75" y="58.281574"/>
     <use style="fill:#009afa;stroke:#000000;" x="349.895256" xlink:href="#mf7dd5a1e75" y="57.293338"/>
     <use style="fill:#009afa;stroke:#000000;" x="354.147943" xlink:href="#mf7dd5a1e75" y="55.073351"/>
     <use style="fill:#009afa;stroke:#000000;" x="358.400631" xlink:href="#mf7dd5a1e75" y="51.86976"/>
     <use style="fill:#009afa;stroke:#000000;" x="362.653319" xlink:href="#mf7dd5a1e75" y="48.030028"/>
     <use style="fill:#009afa;stroke:#000000;" x="366.906006" xlink:href="#mf7dd5a1e75" y="43.970313"/>
     <use style="fill:#009afa;stroke:#000000;" x="371.158694" xlink:href="#mf7dd5a1e75" y="40.130581"/>
     <use style="fill:#009afa;stroke:#000000;" x="375.411382" xlink:href="#mf7dd5a1e75" y="36.92699"/>
     <use style="fill:#009afa;stroke:#000000;" x="379.66407" xlink:href="#mf7dd5a1e75" y="34.707003"/>
     <use style="fill:#009afa;stroke:#000000;" x="383.916757" xlink:href="#mf7dd5a1e75" y="33.718766"/>
     <use style="fill:#009afa;stroke:#000000;" x="388.169445" xlink:href="#mf7dd5a1e75" y="32.730529"/>
     <use style="fill:#009afa;stroke:#000000;" x="392.422133" xlink:href="#mf7dd5a1e75" y="30.510542"/>
     <use style="fill:#009afa;stroke:#000000;" x="396.67482" xlink:href="#mf7dd5a1e75" y="27.306951"/>
     <use style="fill:#009afa;stroke:#000000;" x="400.927508" xlink:href="#mf7dd5a1e75" y="23.467219"/>
     <use style="fill:#009afa;stroke:#000000;" x="405.180196" xlink:href="#mf7dd5a1e75" y="19.407504"/>
     <use style="fill:#009afa;stroke:#000000;" x="409.432883" xlink:href="#mf7dd5a1e75" y="15.567772"/>
     <use style="fill:#009afa;stroke:#000000;" x="413.685571" xlink:href="#mf7dd5a1e75" y="12.364181"/>
     <use style="fill:#009afa;stroke:#000000;" x="417.938259" xlink:href="#mf7dd5a1e75" y="10.144194"/>
    </g>
   </g>
   <g id="patch_3">
    <path d="M 32.474646 261.105354 
L 32.474646 2.834646 
" style="fill:none;stroke:#000000;stroke-linecap:square;stroke-linejoin:miter;stroke-width:0.8;"/>
   </g>
   <g id="patch_4">
    <path d="M 32.474646 261.105354 
L 429.165354 261.105354 
" style="fill:none;stroke:#000000;stroke-linecap:square;stroke-linejoin:miter;stroke-width:0.8;"/>
   </g>
   <g id="legend_1">
    <g id="patch_5">
     <path d="M 38.074646 20.977146 
L 147.184646 20.977146 
Q 148.784646 20.977146 148.784646 19.377146 
L 148.784646 8.434646 
Q 148.784646 6.834646 147.184646 6.834646 
L 38.074646 6.834646 
Q 36.474646 6.834646 36.474646 8.434646 
L 36.474646 19.377146 
Q 36.474646 20.977146 38.074646 20.977146 
z
" style="fill:#ffffff;opacity:0.8;stroke:#000000;stroke-linejoin:miter;"/>
    </g>
    <g id="line2d_44">
     <path d="M 39.674646 13.313396 
L 55.674646 13.313396 
" style="fill:none;stroke:#009afa;stroke-linecap:square;"/>
    </g>
    <g id="line2d_45">
     <defs>
      <path d="M 0 3 
C 0.795609 3 1.55874 2.683901 2.12132 2.12132 
C 2.683901 1.55874 3 0.795609 3 0 
C 3 -0.795609 2.683901 -1.55874 2.12132 -2.12132 
C 1.55874 -2.683901 0.795609 -3 0 -3 
C -0.795609 -3 -1.55874 -2.683901 -2.12132 -2.12132 
C -2.683901 -1.55874 -3 -0.795609 -3 0 
C -3 0.795609 -2.683901 1.55874 -2.12132 2.12132 
C -1.55874 2.683901 -0.795609 3 0 3 
z
" id="m2a0bc4e046" style="stroke:#000000;"/>
     </defs>
     <g>
      <use style="fill:#009afa;stroke:#000000;" x="47.674646" xlink:href="#m2a0bc4e046" y="13.313396"/>
     </g>
    </g>
    <g id="text_24">
     <!-- FEDVR grid locations -->
     <defs>
      <path d="M 9.8125 72.90625 
L 51.703125 72.90625 
L 51.703125 64.59375 
L 19.671875 64.59375 
L 19.671875 43.109375 
L 48.578125 43.109375 
L 48.578125 34.8125 
L 19.671875 34.8125 
L 19.671875 0 
L 9.8125 0 
z
" id="DejaVuSans-46"/>
      <path d="M 9.8125 72.90625 
L 55.90625 72.90625 
L 55.90625 64.59375 
L 19.671875 64.59375 
L 19.671875 43.015625 
L 54.390625 43.015625 
L 54.390625 34.71875 
L 19.671875 34.71875 
L 19.671875 8.296875 
L 56.78125 8.296875 
L 56.78125 0 
L 9.8125 0 
z
" id="DejaVuSans-45"/>
      <path d="M 19.671875 64.796875 
L 19.671875 8.109375 
L 31.59375 8.109375 
Q 46.6875 8.109375 53.6875 14.9375 
Q 60.6875 21.78125 60.6875 36.53125 
Q 60.6875 51.171875 53.6875 57.984375 
Q 46.6875 64.796875 31.59375 64.796875 
z
M 9.8125 72.90625 
L 30.078125 72.90625 
Q 51.265625 72.90625 61.171875 64.09375 
Q 71.09375 55.28125 71.09375 36.53125 
Q 71.09375 17.671875 61.125 8.828125 
Q 51.171875 0 30.078125 0 
L 9.8125 0 
z
" id="DejaVuSans-44"/>
      <path d="M 28.609375 0 
L 0.78125 72.90625 
L 11.078125 72.90625 
L 34.1875 11.53125 
L 57.328125 72.90625 
L 67.578125 72.90625 
L 39.796875 0 
z
" id="DejaVuSans-56"/>
      <path d="M 44.390625 34.1875 
Q 47.5625 33.109375 50.5625 29.59375 
Q 53.5625 26.078125 56.59375 19.921875 
L 66.609375 0 
L 56 0 
L 46.6875 18.703125 
Q 43.0625 26.03125 39.671875 28.421875 
Q 36.28125 30.8125 30.421875 30.8125 
L 19.671875 30.8125 
L 19.671875 0 
L 9.8125 0 
L 9.8125 72.90625 
L 32.078125 72.90625 
Q 44.578125 72.90625 50.734375 67.671875 
Q 56.890625 62.453125 56.890625 51.90625 
Q 56.890625 45.015625 53.6875 40.46875 
Q 50.484375 35.9375 44.390625 34.1875 
z
M 19.671875 64.796875 
L 19.671875 38.921875 
L 32.078125 38.921875 
Q 39.203125 38.921875 42.84375 42.21875 
Q 46.484375 45.515625 46.484375 51.90625 
Q 46.484375 58.296875 42.84375 61.546875 
Q 39.203125 64.796875 32.078125 64.796875 
z
" id="DejaVuSans-52"/>
      <path id="DejaVuSans-20"/>
      <path d="M 45.40625 27.984375 
Q 45.40625 37.75 41.375 43.109375 
Q 37.359375 48.484375 30.078125 48.484375 
Q 22.859375 48.484375 18.828125 43.109375 
Q 14.796875 37.75 14.796875 27.984375 
Q 14.796875 18.265625 18.828125 12.890625 
Q 22.859375 7.515625 30.078125 7.515625 
Q 37.359375 7.515625 41.375 12.890625 
Q 45.40625 18.265625 45.40625 27.984375 
z
M 54.390625 6.78125 
Q 54.390625 -7.171875 48.1875 -13.984375 
Q 42 -20.796875 29.203125 -20.796875 
Q 24.46875 -20.796875 20.265625 -20.09375 
Q 16.0625 -19.390625 12.109375 -17.921875 
L 12.109375 -9.1875 
Q 16.0625 -11.328125 19.921875 -12.34375 
Q 23.78125 -13.375 27.78125 -13.375 
Q 36.625 -13.375 41.015625 -8.765625 
Q 45.40625 -4.15625 45.40625 5.171875 
L 45.40625 9.625 
Q 42.625 4.78125 38.28125 2.390625 
Q 33.9375 0 27.875 0 
Q 17.828125 0 11.671875 7.65625 
Q 5.515625 15.328125 5.515625 27.984375 
Q 5.515625 40.671875 11.671875 48.328125 
Q 17.828125 56 27.875 56 
Q 33.9375 56 38.28125 53.609375 
Q 42.625 51.21875 45.40625 46.390625 
L 45.40625 54.6875 
L 54.390625 54.6875 
z
" id="DejaVuSans-67"/>
      <path d="M 41.109375 46.296875 
Q 39.59375 47.171875 37.8125 47.578125 
Q 36.03125 48 33.890625 48 
Q 26.265625 48 22.1875 43.046875 
Q 18.109375 38.09375 18.109375 28.8125 
L 18.109375 0 
L 9.078125 0 
L 9.078125 54.6875 
L 18.109375 54.6875 
L 18.109375 46.1875 
Q 20.953125 51.171875 25.484375 53.578125 
Q 30.03125 56 36.53125 56 
Q 37.453125 56 38.578125 55.875 
Q 39.703125 55.765625 41.0625 55.515625 
z
" id="DejaVuSans-72"/>
      <path d="M 9.421875 54.6875 
L 18.40625 54.6875 
L 18.40625 0 
L 9.421875 0 
z
M 9.421875 75.984375 
L 18.40625 75.984375 
L 18.40625 64.59375 
L 9.421875 64.59375 
z
" id="DejaVuSans-69"/>
      <path d="M 45.40625 46.390625 
L 45.40625 75.984375 
L 54.390625 75.984375 
L 54.390625 0 
L 45.40625 0 
L 45.40625 8.203125 
Q 42.578125 3.328125 38.25 0.953125 
Q 33.9375 -1.421875 27.875 -1.421875 
Q 17.96875 -1.421875 11.734375 6.484375 
Q 5.515625 14.40625 5.515625 27.296875 
Q 5.515625 40.1875 11.734375 48.09375 
Q 17.96875 56 27.875 56 
Q 33.9375 56 38.25 53.625 
Q 42.578125 51.265625 45.40625 46.390625 
z
M 14.796875 27.296875 
Q 14.796875 17.390625 18.875 11.75 
Q 22.953125 6.109375 30.078125 6.109375 
Q 37.203125 6.109375 41.296875 11.75 
Q 45.40625 17.390625 45.40625 27.296875 
Q 45.40625 37.203125 41.296875 42.84375 
Q 37.203125 48.484375 30.078125 48.484375 
Q 22.953125 48.484375 18.875 42.84375 
Q 14.796875 37.203125 14.796875 27.296875 
z
" id="DejaVuSans-64"/>
      <path d="M 9.421875 75.984375 
L 18.40625 75.984375 
L 18.40625 0 
L 9.421875 0 
z
" id="DejaVuSans-6c"/>
      <path d="M 30.609375 48.390625 
Q 23.390625 48.390625 19.1875 42.75 
Q 14.984375 37.109375 14.984375 27.296875 
Q 14.984375 17.484375 19.15625 11.84375 
Q 23.34375 6.203125 30.609375 6.203125 
Q 37.796875 6.203125 41.984375 11.859375 
Q 46.1875 17.53125 46.1875 27.296875 
Q 46.1875 37.015625 41.984375 42.703125 
Q 37.796875 48.390625 30.609375 48.390625 
z
M 30.609375 56 
Q 42.328125 56 49.015625 48.375 
Q 55.71875 40.765625 55.71875 27.296875 
Q 55.71875 13.875 49.015625 6.21875 
Q 42.328125 -1.421875 30.609375 -1.421875 
Q 18.84375 -1.421875 12.171875 6.21875 
Q 5.515625 13.875 5.515625 27.296875 
Q 5.515625 40.765625 12.171875 48.375 
Q 18.84375 56 30.609375 56 
z
" id="DejaVuSans-6f"/>
      <path d="M 48.78125 52.59375 
L 48.78125 44.1875 
Q 44.96875 46.296875 41.140625 47.34375 
Q 37.3125 48.390625 33.40625 48.390625 
Q 24.65625 48.390625 19.8125 42.84375 
Q 14.984375 37.3125 14.984375 27.296875 
Q 14.984375 17.28125 19.8125 11.734375 
Q 24.65625 6.203125 33.40625 6.203125 
Q 37.3125 6.203125 41.140625 7.25 
Q 44.96875 8.296875 48.78125 10.40625 
L 48.78125 2.09375 
Q 45.015625 0.34375 40.984375 -0.53125 
Q 36.96875 -1.421875 32.421875 -1.421875 
Q 20.0625 -1.421875 12.78125 6.34375 
Q 5.515625 14.109375 5.515625 27.296875 
Q 5.515625 40.671875 12.859375 48.328125 
Q 20.21875 56 33.015625 56 
Q 37.15625 56 41.109375 55.140625 
Q 45.0625 54.296875 48.78125 52.59375 
z
" id="DejaVuSans-63"/>
      <path d="M 34.28125 27.484375 
Q 23.390625 27.484375 19.1875 25 
Q 14.984375 22.515625 14.984375 16.5 
Q 14.984375 11.71875 18.140625 8.90625 
Q 21.296875 6.109375 26.703125 6.109375 
Q 34.1875 6.109375 38.703125 11.40625 
Q 43.21875 16.703125 43.21875 25.484375 
L 43.21875 27.484375 
z
M 52.203125 31.203125 
L 52.203125 0 
L 43.21875 0 
L 43.21875 8.296875 
Q 40.140625 3.328125 35.546875 0.953125 
Q 30.953125 -1.421875 24.3125 -1.421875 
Q 15.921875 -1.421875 10.953125 3.296875 
Q 6 8.015625 6 15.921875 
Q 6 25.140625 12.171875 29.828125 
Q 18.359375 34.515625 30.609375 34.515625 
L 43.21875 34.515625 
L 43.21875 35.40625 
Q 43.21875 41.609375 39.140625 45 
Q 35.0625 48.390625 27.6875 48.390625 
Q 23 48.390625 18.546875 47.265625 
Q 14.109375 46.140625 10.015625 43.890625 
L 10.015625 52.203125 
Q 14.9375 54.109375 19.578125 55.046875 
Q 24.21875 56 28.609375 56 
Q 40.484375 56 46.34375 49.84375 
Q 52.203125 43.703125 52.203125 31.203125 
z
" id="DejaVuSans-61"/>
      <path d="M 18.3125 70.21875 
L 18.3125 54.6875 
L 36.8125 54.6875 
L 36.8125 47.703125 
L 18.3125 47.703125 
L 18.3125 18.015625 
Q 18.3125 11.328125 20.140625 9.421875 
Q 21.96875 7.515625 27.59375 7.515625 
L 36.8125 7.515625 
L 36.8125 0 
L 27.59375 0 
Q 17.1875 0 13.234375 3.875 
Q 9.28125 7.765625 9.28125 18.015625 
L 9.28125 47.703125 
L 2.6875 47.703125 
L 2.6875 54.6875 
L 9.28125 54.6875 
L 9.28125 70.21875 
z
" id="DejaVuSans-74"/>
      <path d="M 54.890625 33.015625 
L 54.890625 0 
L 45.90625 0 
L 45.90625 32.71875 
Q 45.90625 40.484375 42.875 44.328125 
Q 39.84375 48.1875 33.796875 48.1875 
Q 26.515625 48.1875 22.3125 43.546875 
Q 18.109375 38.921875 18.109375 30.90625 
L 18.109375 0 
L 9.078125 0 
L 9.078125 54.6875 
L 18.109375 54.6875 
L 18.109375 46.1875 
Q 21.34375 51.125 25.703125 53.5625 
Q 30.078125 56 35.796875 56 
Q 45.21875 56 50.046875 50.171875 
Q 54.890625 44.34375 54.890625 33.015625 
z
" id="DejaVuSans-6e"/>
      <path d="M 44.28125 53.078125 
L 44.28125 44.578125 
Q 40.484375 46.53125 36.375 47.5 
Q 32.28125 48.484375 27.875 48.484375 
Q 21.1875 48.484375 17.84375 46.4375 
Q 14.5 44.390625 14.5 40.28125 
Q 14.5 37.15625 16.890625 35.375 
Q 19.28125 33.59375 26.515625 31.984375 
L 29.59375 31.296875 
Q 39.15625 29.25 43.1875 25.515625 
Q 47.21875 21.78125 47.21875 15.09375 
Q 47.21875 7.46875 41.1875 3.015625 
Q 35.15625 -1.421875 24.609375 -1.421875 
Q 20.21875 -1.421875 15.453125 -0.5625 
Q 10.6875 0.296875 5.421875 2 
L 5.421875 11.28125 
Q 10.40625 8.6875 15.234375 7.390625 
Q 20.0625 6.109375 24.8125 6.109375 
Q 31.15625 6.109375 34.5625 8.28125 
Q 37.984375 10.453125 37.984375 14.40625 
Q 37.984375 18.0625 35.515625 20.015625 
Q 33.0625 21.96875 24.703125 23.78125 
L 21.578125 24.515625 
Q 13.234375 26.265625 9.515625 29.90625 
Q 5.8125 33.546875 5.8125 39.890625 
Q 5.8125 47.609375 11.28125 51.796875 
Q 16.75 56 26.8125 56 
Q 31.78125 56 36.171875 55.265625 
Q 40.578125 54.546875 44.28125 53.078125 
z
" id="DejaVuSans-73"/>
     </defs>
     <g transform="translate(62.074646 16.113396)scale(0.08 -0.08)">
      <use xlink:href="#DejaVuSans-46"/>
      <use x="57.519531" xlink:href="#DejaVuSans-45"/>
      <use x="120.703125" xlink:href="#DejaVuSans-44"/>
      <use x="197.689453" xlink:href="#DejaVuSans-56"/>
      <use x="266.097656" xlink:href="#DejaVuSans-52"/>
      <use x="335.580078" xlink:href="#DejaVuSans-20"/>
      <use x="367.367188" xlink:href="#DejaVuSans-67"/>
      <use x="430.84375" xlink:href="#DejaVuSans-72"/>
      <use x="471.957031" xlink:href="#DejaVuSans-69"/>
      <use x="499.740234" xlink:href="#DejaVuSans-64"/>
      <use x="563.216797" xlink:href="#DejaVuSans-20"/>
      <use x="595.003906" xlink:href="#DejaVuSans-6c"/>
      <use x="622.787109" xlink:href="#DejaVuSans-6f"/>
      <use x="683.96875" xlink:href="#DejaVuSans-63"/>
      <use x="738.949219" xlink:href="#DejaVuSans-61"/>
      <use x="800.228516" xlink:href="#DejaVuSans-74"/>
      <use x="839.4375" xlink:href="#DejaVuSans-69"/>
      <use x="867.220703" xlink:href="#DejaVuSans-6f"/>
      <use x="928.402344" xlink:href="#DejaVuSans-6e"/>
      <use x="991.78125" xlink:href="#DejaVuSans-73"/>
     </g>
    </g>
   </g>
  </g>
 </g>
 <defs>
  <clipPath id="ped59fe3088">
   <rect height="258.270709" width="396.690709" x="32.474646" y="2.834646"/>
  </clipPath>
 </defs>
</svg>
