<?xml version="1.0" encoding="utf-8"?>
<svg xmlns="http://www.w3.org/2000/svg" xmlns:xlink="http://www.w3.org/1999/xlink" width="600" height="400" viewBox="0 0 600 400">
<defs>
  <clipPath id="clip2600">
    <rect x="0" y="0" width="600" height="400"/>
  </clipPath>
</defs>
<polygon clip-path="url(#clip2600)" points="
0,400 600,400 600,0 0,0 
  " fill="#ffffff" fill-opacity="1"/>
<defs>
  <clipPath id="clip2601">
    <rect x="120" y="0" width="421" height="400"/>
  </clipPath>
</defs>
<polygon clip-path="url(#clip2600)" points="
38.0857,360.065 580.315,360.065 580.315,11.811 38.0857,11.811 
  " fill="#ffffff" fill-opacity="1"/>
<defs>
  <clipPath id="clip2602">
    <rect x="38" y="11" width="543" height="349"/>
  </clipPath>
</defs>
<polyline clip-path="url(#clip2602)" style="stroke:#000000; stroke-width:0.5; stroke-opacity:0.1; fill:none" points="
  53.4318,360.065 53.4318,11.811 
  "/>
<polyline clip-path="url(#clip2602)" style="stroke:#000000; stroke-width:0.5; stroke-opacity:0.1; fill:none" points="
  223.944,360.065 223.944,11.811 
  "/>
<polyline clip-path="url(#clip2602)" style="stroke:#000000; stroke-width:0.5; stroke-opacity:0.1; fill:none" points="
  394.457,360.065 394.457,11.811 
  "/>
<polyline clip-path="url(#clip2602)" style="stroke:#000000; stroke-width:0.5; stroke-opacity:0.1; fill:none" points="
  564.969,360.065 564.969,11.811 
  "/>
<polyline clip-path="url(#clip2602)" style="stroke:#000000; stroke-width:0.5; stroke-opacity:0.1; fill:none" points="
  38.0857,350.209 580.315,350.209 
  "/>
<polyline clip-path="url(#clip2602)" style="stroke:#000000; stroke-width:0.5; stroke-opacity:0.1; fill:none" points="
  38.0857,240.695 580.315,240.695 
  "/>
<polyline clip-path="url(#clip2602)" style="stroke:#000000; stroke-width:0.5; stroke-opacity:0.1; fill:none" points="
  38.0857,131.181 580.315,131.181 
  "/>
<polyline clip-path="url(#clip2602)" style="stroke:#000000; stroke-width:0.5; stroke-opacity:0.1; fill:none" points="
  38.0857,21.6673 580.315,21.6673 
  "/>
<polyline clip-path="url(#clip2600)" style="stroke:#000000; stroke-width:1; stroke-opacity:1; fill:none" points="
  38.0857,360.065 580.315,360.065 
  "/>
<polyline clip-path="url(#clip2600)" style="stroke:#000000; stroke-width:1; stroke-opacity:1; fill:none" points="
  38.0857,360.065 38.0857,11.811 
  "/>
<polyline clip-path="url(#clip2600)" style="stroke:#000000; stroke-width:1; stroke-opacity:1; fill:none" points="
  53.4318,360.065 53.4318,354.842 
  "/>
<polyline clip-path="url(#clip2600)" style="stroke:#000000; stroke-width:1; stroke-opacity:1; fill:none" points="
  223.944,360.065 223.944,354.842 
  "/>
<polyline clip-path="url(#clip2600)" style="stroke:#000000; stroke-width:1; stroke-opacity:1; fill:none" points="
  394.457,360.065 394.457,354.842 
  "/>
<polyline clip-path="url(#clip2600)" style="stroke:#000000; stroke-width:1; stroke-opacity:1; fill:none" points="
  564.969,360.065 564.969,354.842 
  "/>
<polyline clip-path="url(#clip2600)" style="stroke:#000000; stroke-width:1; stroke-opacity:1; fill:none" points="
  38.0857,350.209 46.2191,350.209 
  "/>
<polyline clip-path="url(#clip2600)" style="stroke:#000000; stroke-width:1; stroke-opacity:1; fill:none" points="
  38.0857,240.695 46.2191,240.695 
  "/>
<polyline clip-path="url(#clip2600)" style="stroke:#000000; stroke-width:1; stroke-opacity:1; fill:none" points="
  38.0857,131.181 46.2191,131.181 
  "/>
<polyline clip-path="url(#clip2600)" style="stroke:#000000; stroke-width:1; stroke-opacity:1; fill:none" points="
  38.0857,21.6673 46.2191,21.6673 
  "/>
<g clip-path="url(#clip2600)">
<text style="fill:#000000; fill-opacity:1; font-family:Arial,Helvetica Neue,Helvetica,sans-serif; font-size:12; text-anchor:middle;" transform="rotate(0, 53.4318, 373.865)" x="53.4318" y="373.865">1</text>
</g>
<g clip-path="url(#clip2600)">
<text style="fill:#000000; fill-opacity:1; font-family:Arial,Helvetica Neue,Helvetica,sans-serif; font-size:12; text-anchor:middle;" transform="rotate(0, 223.944, 373.865)" x="223.944" y="373.865">10</text>
</g>
<g clip-path="url(#clip2600)">
<text style="fill:#000000; fill-opacity:1; font-family:Arial,Helvetica Neue,Helvetica,sans-serif; font-size:12; text-anchor:middle;" transform="rotate(0, 394.457, 373.865)" x="394.457" y="373.865">19</text>
</g>
<g clip-path="url(#clip2600)">
<text style="fill:#000000; fill-opacity:1; font-family:Arial,Helvetica Neue,Helvetica,sans-serif; font-size:12; text-anchor:middle;" transform="rotate(0, 564.969, 373.865)" x="564.969" y="373.865">28</text>
</g>
<g clip-path="url(#clip2600)">
<text style="fill:#000000; fill-opacity:1; font-family:Arial,Helvetica Neue,Helvetica,sans-serif; font-size:12; text-anchor:end;" transform="rotate(0, 32.0857, 354.709)" x="32.0857" y="354.709">0</text>
</g>
<g clip-path="url(#clip2600)">
<text style="fill:#000000; fill-opacity:1; font-family:Arial,Helvetica Neue,Helvetica,sans-serif; font-size:12; text-anchor:end;" transform="rotate(0, 32.0857, 245.195)" x="32.0857" y="245.195">1</text>
</g>
<g clip-path="url(#clip2600)">
<text style="fill:#000000; fill-opacity:1; font-family:Arial,Helvetica Neue,Helvetica,sans-serif; font-size:12; text-anchor:end;" transform="rotate(0, 32.0857, 135.681)" x="32.0857" y="135.681">2</text>
</g>
<g clip-path="url(#clip2600)">
<text style="fill:#000000; fill-opacity:1; font-family:Arial,Helvetica Neue,Helvetica,sans-serif; font-size:12; text-anchor:end;" transform="rotate(0, 32.0857, 26.1673)" x="32.0857" y="26.1673">3</text>
</g>
<g clip-path="url(#clip2600)">
<text style="fill:#000000; fill-opacity:1; font-family:Arial,Helvetica Neue,Helvetica,sans-serif; font-size:16; text-anchor:middle;" transform="rotate(0, 309.2, 397.6)" x="309.2" y="397.6">#</text>
</g>
<g clip-path="url(#clip2600)">
<text style="fill:#000000; fill-opacity:1; font-family:Arial,Helvetica Neue,Helvetica,sans-serif; font-size:16; text-anchor:middle;" transform="rotate(-90, 14.4, 185.938)" x="14.4" y="185.938">x</text>
</g>
<polyline clip-path="url(#clip2602)" style="stroke:#009af9; stroke-width:1; stroke-opacity:1; fill:none" points="
  53.4318,350.209 72.3776,345.803 91.3234,335.905 110.269,321.622 129.215,304.502 148.161,286.402 167.107,269.282 186.053,254.999 204.998,245.101 223.944,240.695 
  242.89,236.289 261.836,226.391 280.782,212.108 299.727,194.988 318.673,176.888 337.619,159.768 356.565,145.485 375.511,135.587 394.457,131.181 413.402,126.775 
  432.348,116.877 451.294,102.594 470.24,85.4744 489.186,67.3741 508.131,50.2545 527.077,35.9712 546.023,26.0734 564.969,21.6673 
  "/>
<circle clip-path="url(#clip2602)" style="fill:#000000; stroke:none; fill-opacity:1" cx="53.4318" cy="350.209" r="4"/>
<circle clip-path="url(#clip2602)" style="fill:#009af9; stroke:none; fill-opacity:1" cx="53.4318" cy="350.209" r="3"/>
<circle clip-path="url(#clip2602)" style="fill:#000000; stroke:none; fill-opacity:1" cx="72.3776" cy="345.803" r="4"/>
<circle clip-path="url(#clip2602)" style="fill:#009af9; stroke:none; fill-opacity:1" cx="72.3776" cy="345.803" r="3"/>
<circle clip-path="url(#clip2602)" style="fill:#000000; stroke:none; fill-opacity:1" cx="91.3234" cy="335.905" r="4"/>
<circle clip-path="url(#clip2602)" style="fill:#009af9; stroke:none; fill-opacity:1" cx="91.3234" cy="335.905" r="3"/>
<circle clip-path="url(#clip2602)" style="fill:#000000; stroke:none; fill-opacity:1" cx="110.269" cy="321.622" r="4"/>
<circle clip-path="url(#clip2602)" style="fill:#009af9; stroke:none; fill-opacity:1" cx="110.269" cy="321.622" r="3"/>
<circle clip-path="url(#clip2602)" style="fill:#000000; stroke:none; fill-opacity:1" cx="129.215" cy="304.502" r="4"/>
<circle clip-path="url(#clip2602)" style="fill:#009af9; stroke:none; fill-opacity:1" cx="129.215" cy="304.502" r="3"/>
<circle clip-path="url(#clip2602)" style="fill:#000000; stroke:none; fill-opacity:1" cx="148.161" cy="286.402" r="4"/>
<circle clip-path="url(#clip2602)" style="fill:#009af9; stroke:none; fill-opacity:1" cx="148.161" cy="286.402" r="3"/>
<circle clip-path="url(#clip2602)" style="fill:#000000; stroke:none; fill-opacity:1" cx="167.107" cy="269.282" r="4"/>
<circle clip-path="url(#clip2602)" style="fill:#009af9; stroke:none; fill-opacity:1" cx="167.107" cy="269.282" r="3"/>
<circle clip-path="url(#clip2602)" style="fill:#000000; stroke:none; fill-opacity:1" cx="186.053" cy="254.999" r="4"/>
<circle clip-path="url(#clip2602)" style="fill:#009af9; stroke:none; fill-opacity:1" cx="186.053" cy="254.999" r="3"/>
<circle clip-path="url(#clip2602)" style="fill:#000000; stroke:none; fill-opacity:1" cx="204.998" cy="245.101" r="4"/>
<circle clip-path="url(#clip2602)" style="fill:#009af9; stroke:none; fill-opacity:1" cx="204.998" cy="245.101" r="3"/>
<circle clip-path="url(#clip2602)" style="fill:#000000; stroke:none; fill-opacity:1" cx="223.944" cy="240.695" r="4"/>
<circle clip-path="url(#clip2602)" style="fill:#009af9; stroke:none; fill-opacity:1" cx="223.944" cy="240.695" r="3"/>
<circle clip-path="url(#clip2602)" style="fill:#000000; stroke:none; fill-opacity:1" cx="242.89" cy="236.289" r="4"/>
<circle clip-path="url(#clip2602)" style="fill:#009af9; stroke:none; fill-opacity:1" cx="242.89" cy="236.289" r="3"/>
<circle clip-path="url(#clip2602)" style="fill:#000000; stroke:none; fill-opacity:1" cx="261.836" cy="226.391" r="4"/>
<circle clip-path="url(#clip2602)" style="fill:#009af9; stroke:none; fill-opacity:1" cx="261.836" cy="226.391" r="3"/>
<circle clip-path="url(#clip2602)" style="fill:#000000; stroke:none; fill-opacity:1" cx="280.782" cy="212.108" r="4"/>
<circle clip-path="url(#clip2602)" style="fill:#009af9; stroke:none; fill-opacity:1" cx="280.782" cy="212.108" r="3"/>
<circle clip-path="url(#clip2602)" style="fill:#000000; stroke:none; fill-opacity:1" cx="299.727" cy="194.988" r="4"/>
<circle clip-path="url(#clip2602)" style="fill:#009af9; stroke:none; fill-opacity:1" cx="299.727" cy="194.988" r="3"/>
<circle clip-path="url(#clip2602)" style="fill:#000000; stroke:none; fill-opacity:1" cx="318.673" cy="176.888" r="4"/>
<circle clip-path="url(#clip2602)" style="fill:#009af9; stroke:none; fill-opacity:1" cx="318.673" cy="176.888" r="3"/>
<circle clip-path="url(#clip2602)" style="fill:#000000; stroke:none; fill-opacity:1" cx="337.619" cy="159.768" r="4"/>
<circle clip-path="url(#clip2602)" style="fill:#009af9; stroke:none; fill-opacity:1" cx="337.619" cy="159.768" r="3"/>
<circle clip-path="url(#clip2602)" style="fill:#000000; stroke:none; fill-opacity:1" cx="356.565" cy="145.485" r="4"/>
<circle clip-path="url(#clip2602)" style="fill:#009af9; stroke:none; fill-opacity:1" cx="356.565" cy="145.485" r="3"/>
<circle clip-path="url(#clip2602)" style="fill:#000000; stroke:none; fill-opacity:1" cx="375.511" cy="135.587" r="4"/>
<circle clip-path="url(#clip2602)" style="fill:#009af9; stroke:none; fill-opacity:1" cx="375.511" cy="135.587" r="3"/>
<circle clip-path="url(#clip2602)" style="fill:#000000; stroke:none; fill-opacity:1" cx="394.457" cy="131.181" r="4"/>
<circle clip-path="url(#clip2602)" style="fill:#009af9; stroke:none; fill-opacity:1" cx="394.457" cy="131.181" r="3"/>
<circle clip-path="url(#clip2602)" style="fill:#000000; stroke:none; fill-opacity:1" cx="413.402" cy="126.775" r="4"/>
<circle clip-path="url(#clip2602)" style="fill:#009af9; stroke:none; fill-opacity:1" cx="413.402" cy="126.775" r="3"/>
<circle clip-path="url(#clip2602)" style="fill:#000000; stroke:none; fill-opacity:1" cx="432.348" cy="116.877" r="4"/>
<circle clip-path="url(#clip2602)" style="fill:#009af9; stroke:none; fill-opacity:1" cx="432.348" cy="116.877" r="3"/>
<circle clip-path="url(#clip2602)" style="fill:#000000; stroke:none; fill-opacity:1" cx="451.294" cy="102.594" r="4"/>
<circle clip-path="url(#clip2602)" style="fill:#009af9; stroke:none; fill-opacity:1" cx="451.294" cy="102.594" r="3"/>
<circle clip-path="url(#clip2602)" style="fill:#000000; stroke:none; fill-opacity:1" cx="470.24" cy="85.4744" r="4"/>
<circle clip-path="url(#clip2602)" style="fill:#009af9; stroke:none; fill-opacity:1" cx="470.24" cy="85.4744" r="3"/>
<circle clip-path="url(#clip2602)" style="fill:#000000; stroke:none; fill-opacity:1" cx="489.186" cy="67.3741" r="4"/>
<circle clip-path="url(#clip2602)" style="fill:#009af9; stroke:none; fill-opacity:1" cx="489.186" cy="67.3741" r="3"/>
<circle clip-path="url(#clip2602)" style="fill:#000000; stroke:none; fill-opacity:1" cx="508.131" cy="50.2545" r="4"/>
<circle clip-path="url(#clip2602)" style="fill:#009af9; stroke:none; fill-opacity:1" cx="508.131" cy="50.2545" r="3"/>
<circle clip-path="url(#clip2602)" style="fill:#000000; stroke:none; fill-opacity:1" cx="527.077" cy="35.9712" r="4"/>
<circle clip-path="url(#clip2602)" style="fill:#009af9; stroke:none; fill-opacity:1" cx="527.077" cy="35.9712" r="3"/>
<circle clip-path="url(#clip2602)" style="fill:#000000; stroke:none; fill-opacity:1" cx="546.023" cy="26.0734" r="4"/>
<circle clip-path="url(#clip2602)" style="fill:#009af9; stroke:none; fill-opacity:1" cx="546.023" cy="26.0734" r="3"/>
<circle clip-path="url(#clip2602)" style="fill:#000000; stroke:none; fill-opacity:1" cx="564.969" cy="21.6673" r="4"/>
<circle clip-path="url(#clip2602)" style="fill:#009af9; stroke:none; fill-opacity:1" cx="564.969" cy="21.6673" r="3"/>
<polygon clip-path="url(#clip2600)" points="
389.035,62.931 562.315,62.931 562.315,32.691 389.035,32.691 
  " fill="#ffffff" fill-opacity="1"/>
<polyline clip-path="url(#clip2600)" style="stroke:#000000; stroke-width:1; stroke-opacity:1; fill:none" points="
  389.035,62.931 562.315,62.931 562.315,32.691 389.035,32.691 389.035,62.931 
  "/>
<polyline clip-path="url(#clip2600)" style="stroke:#009af9; stroke-width:1; stroke-opacity:1; fill:none" points="
  395.035,47.811 431.035,47.811 
  "/>
<circle clip-path="url(#clip2600)" style="fill:#000000; stroke:none; fill-opacity:1" cx="416.035" cy="47.811" r="6"/>
<circle clip-path="url(#clip2600)" style="fill:#009af9; stroke:none; fill-opacity:1" cx="416.035" cy="47.811" r="5"/>
<g clip-path="url(#clip2600)">
<text style="fill:#000000; fill-opacity:1; font-family:Arial,Helvetica Neue,Helvetica,sans-serif; font-size:12; text-anchor:start;" transform="rotate(0, 437.035, 52.311)" x="437.035" y="52.311">FEDVR grid locations</text>
</g>
</svg>
