<?xml version="1.0" encoding="utf-8" standalone="no"?>
<!DOCTYPE svg PUBLIC "-//W3C//DTD SVG 1.1//EN"
  "http://www.w3.org/Graphics/SVG/1.1/DTD/svg11.dtd">
<!-- Created with matplotlib (http://matplotlib.org/) -->
<svg height="576pt" version="1.1" viewBox="0 0 864 576" width="864pt" xmlns="http://www.w3.org/2000/svg" xmlns:xlink="http://www.w3.org/1999/xlink">
 <defs>
  <style type="text/css">
*{stroke-linecap:butt;stroke-linejoin:round;}
  </style>
 </defs>
 <g id="figure_1">
  <g id="patch_1">
   <path d="M 0 576 
L 864 576 
L 864 0 
L 0 0 
z
" style="fill:#ffffff;"/>
  </g>
  <g id="axes_1">
   <g id="patch_2">
    <path d="M 65.129291 522.210709 
L 858.330709 522.210709 
L 858.330709 5.669291 
L 65.129291 5.669291 
z
" style="fill:#ffffff;"/>
   </g>
   <g id="matplotlib.axis_1">
    <g id="xtick_1">
     <g id="line2d_1">
      <path clip-path="url(#pe5fa81cd0e)" d="M 87.578388 522.210709 
L 87.578388 5.669291 
" style="fill:none;opacity:0.1;stroke:#000000;stroke-linecap:square;stroke-width:0.5;"/>
     </g>
     <g id="line2d_2">
      <defs>
       <path d="M 0 0 
L 0 -3.5 
" id="m574db37d3e" style="stroke:#000000;stroke-width:0.8;"/>
      </defs>
      <g>
       <use style="stroke:#000000;stroke-width:0.8;" x="87.578388" xlink:href="#m574db37d3e" y="522.210709"/>
      </g>
     </g>
     <g id="text_1">
      <!-- 1 -->
      <defs>
       <path d="M 12.40625 8.296875 
L 28.515625 8.296875 
L 28.515625 63.921875 
L 10.984375 60.40625 
L 10.984375 69.390625 
L 28.421875 72.90625 
L 38.28125 72.90625 
L 38.28125 8.296875 
L 54.390625 8.296875 
L 54.390625 0 
L 12.40625 0 
z
" id="DejaVuSans-31"/>
      </defs>
      <g transform="translate(85.033388 531.789459)scale(0.08 -0.08)">
       <use xlink:href="#DejaVuSans-31"/>
      </g>
     </g>
    </g>
    <g id="xtick_2">
     <g id="line2d_3">
      <path clip-path="url(#pe5fa81cd0e)" d="M 162.40871 522.210709 
L 162.40871 5.669291 
" style="fill:none;opacity:0.1;stroke:#000000;stroke-linecap:square;stroke-width:0.5;"/>
     </g>
     <g id="line2d_4">
      <g>
       <use style="stroke:#000000;stroke-width:0.8;" x="162.40871" xlink:href="#m574db37d3e" y="522.210709"/>
      </g>
     </g>
     <g id="text_2">
      <!-- 10 -->
      <defs>
       <path d="M 31.78125 66.40625 
Q 24.171875 66.40625 20.328125 58.90625 
Q 16.5 51.421875 16.5 36.375 
Q 16.5 21.390625 20.328125 13.890625 
Q 24.171875 6.390625 31.78125 6.390625 
Q 39.453125 6.390625 43.28125 13.890625 
Q 47.125 21.390625 47.125 36.375 
Q 47.125 51.421875 43.28125 58.90625 
Q 39.453125 66.40625 31.78125 66.40625 
z
M 31.78125 74.21875 
Q 44.046875 74.21875 50.515625 64.515625 
Q 56.984375 54.828125 56.984375 36.375 
Q 56.984375 17.96875 50.515625 8.265625 
Q 44.046875 -1.421875 31.78125 -1.421875 
Q 19.53125 -1.421875 13.0625 8.265625 
Q 6.59375 17.96875 6.59375 36.375 
Q 6.59375 54.828125 13.0625 64.515625 
Q 19.53125 74.21875 31.78125 74.21875 
z
" id="DejaVuSans-30"/>
      </defs>
      <g transform="translate(157.31871 531.789459)scale(0.08 -0.08)">
       <use xlink:href="#DejaVuSans-31"/>
       <use x="63.623047" xlink:href="#DejaVuSans-30"/>
      </g>
     </g>
    </g>
    <g id="xtick_3">
     <g id="line2d_5">
      <path clip-path="url(#pe5fa81cd0e)" d="M 237.239033 522.210709 
L 237.239033 5.669291 
" style="fill:none;opacity:0.1;stroke:#000000;stroke-linecap:square;stroke-width:0.5;"/>
     </g>
     <g id="line2d_6">
      <g>
       <use style="stroke:#000000;stroke-width:0.8;" x="237.239033" xlink:href="#m574db37d3e" y="522.210709"/>
      </g>
     </g>
     <g id="text_3">
      <!-- 19 -->
      <defs>
       <path d="M 10.984375 1.515625 
L 10.984375 10.5 
Q 14.703125 8.734375 18.5 7.8125 
Q 22.3125 6.890625 25.984375 6.890625 
Q 35.75 6.890625 40.890625 13.453125 
Q 46.046875 20.015625 46.78125 33.40625 
Q 43.953125 29.203125 39.59375 26.953125 
Q 35.25 24.703125 29.984375 24.703125 
Q 19.046875 24.703125 12.671875 31.3125 
Q 6.296875 37.9375 6.296875 49.421875 
Q 6.296875 60.640625 12.9375 67.421875 
Q 19.578125 74.21875 30.609375 74.21875 
Q 43.265625 74.21875 49.921875 64.515625 
Q 56.59375 54.828125 56.59375 36.375 
Q 56.59375 19.140625 48.40625 8.859375 
Q 40.234375 -1.421875 26.421875 -1.421875 
Q 22.703125 -1.421875 18.890625 -0.6875 
Q 15.09375 0.046875 10.984375 1.515625 
z
M 30.609375 32.421875 
Q 37.25 32.421875 41.125 36.953125 
Q 45.015625 41.5 45.015625 49.421875 
Q 45.015625 57.28125 41.125 61.84375 
Q 37.25 66.40625 30.609375 66.40625 
Q 23.96875 66.40625 20.09375 61.84375 
Q 16.21875 57.28125 16.21875 49.421875 
Q 16.21875 41.5 20.09375 36.953125 
Q 23.96875 32.421875 30.609375 32.421875 
z
" id="DejaVuSans-39"/>
      </defs>
      <g transform="translate(232.149033 531.789459)scale(0.08 -0.08)">
       <use xlink:href="#DejaVuSans-31"/>
       <use x="63.623047" xlink:href="#DejaVuSans-39"/>
      </g>
     </g>
    </g>
    <g id="xtick_4">
     <g id="line2d_7">
      <path clip-path="url(#pe5fa81cd0e)" d="M 312.069355 522.210709 
L 312.069355 5.669291 
" style="fill:none;opacity:0.1;stroke:#000000;stroke-linecap:square;stroke-width:0.5;"/>
     </g>
     <g id="line2d_8">
      <g>
       <use style="stroke:#000000;stroke-width:0.8;" x="312.069355" xlink:href="#m574db37d3e" y="522.210709"/>
      </g>
     </g>
     <g id="text_4">
      <!-- 28 -->
      <defs>
       <path d="M 19.1875 8.296875 
L 53.609375 8.296875 
L 53.609375 0 
L 7.328125 0 
L 7.328125 8.296875 
Q 12.9375 14.109375 22.625 23.890625 
Q 32.328125 33.6875 34.8125 36.53125 
Q 39.546875 41.84375 41.421875 45.53125 
Q 43.3125 49.21875 43.3125 52.78125 
Q 43.3125 58.59375 39.234375 62.25 
Q 35.15625 65.921875 28.609375 65.921875 
Q 23.96875 65.921875 18.8125 64.3125 
Q 13.671875 62.703125 7.8125 59.421875 
L 7.8125 69.390625 
Q 13.765625 71.78125 18.9375 73 
Q 24.125 74.21875 28.421875 74.21875 
Q 39.75 74.21875 46.484375 68.546875 
Q 53.21875 62.890625 53.21875 53.421875 
Q 53.21875 48.921875 51.53125 44.890625 
Q 49.859375 40.875 45.40625 35.40625 
Q 44.1875 33.984375 37.640625 27.21875 
Q 31.109375 20.453125 19.1875 8.296875 
z
" id="DejaVuSans-32"/>
       <path d="M 31.78125 34.625 
Q 24.75 34.625 20.71875 30.859375 
Q 16.703125 27.09375 16.703125 20.515625 
Q 16.703125 13.921875 20.71875 10.15625 
Q 24.75 6.390625 31.78125 6.390625 
Q 38.8125 6.390625 42.859375 10.171875 
Q 46.921875 13.96875 46.921875 20.515625 
Q 46.921875 27.09375 42.890625 30.859375 
Q 38.875 34.625 31.78125 34.625 
z
M 21.921875 38.8125 
Q 15.578125 40.375 12.03125 44.71875 
Q 8.5 49.078125 8.5 55.328125 
Q 8.5 64.0625 14.71875 69.140625 
Q 20.953125 74.21875 31.78125 74.21875 
Q 42.671875 74.21875 48.875 69.140625 
Q 55.078125 64.0625 55.078125 55.328125 
Q 55.078125 49.078125 51.53125 44.71875 
Q 48 40.375 41.703125 38.8125 
Q 48.828125 37.15625 52.796875 32.3125 
Q 56.78125 27.484375 56.78125 20.515625 
Q 56.78125 9.90625 50.3125 4.234375 
Q 43.84375 -1.421875 31.78125 -1.421875 
Q 19.734375 -1.421875 13.25 4.234375 
Q 6.78125 9.90625 6.78125 20.515625 
Q 6.78125 27.484375 10.78125 32.3125 
Q 14.796875 37.15625 21.921875 38.8125 
z
M 18.3125 54.390625 
Q 18.3125 48.734375 21.84375 45.5625 
Q 25.390625 42.390625 31.78125 42.390625 
Q 38.140625 42.390625 41.71875 45.5625 
Q 45.3125 48.734375 45.3125 54.390625 
Q 45.3125 60.0625 41.71875 63.234375 
Q 38.140625 66.40625 31.78125 66.40625 
Q 25.390625 66.40625 21.84375 63.234375 
Q 18.3125 60.0625 18.3125 54.390625 
z
" id="DejaVuSans-38"/>
      </defs>
      <g transform="translate(306.979355 531.789459)scale(0.08 -0.08)">
       <use xlink:href="#DejaVuSans-32"/>
       <use x="63.623047" xlink:href="#DejaVuSans-38"/>
      </g>
     </g>
    </g>
    <g id="xtick_5">
     <g id="line2d_9">
      <path clip-path="url(#pe5fa81cd0e)" d="M 386.899678 522.210709 
L 386.899678 5.669291 
" style="fill:none;opacity:0.1;stroke:#000000;stroke-linecap:square;stroke-width:0.5;"/>
     </g>
     <g id="line2d_10">
      <g>
       <use style="stroke:#000000;stroke-width:0.8;" x="386.899678" xlink:href="#m574db37d3e" y="522.210709"/>
      </g>
     </g>
     <g id="text_5">
      <!-- 37 -->
      <defs>
       <path d="M 40.578125 39.3125 
Q 47.65625 37.796875 51.625 33 
Q 55.609375 28.21875 55.609375 21.1875 
Q 55.609375 10.40625 48.1875 4.484375 
Q 40.765625 -1.421875 27.09375 -1.421875 
Q 22.515625 -1.421875 17.65625 -0.515625 
Q 12.796875 0.390625 7.625 2.203125 
L 7.625 11.71875 
Q 11.71875 9.328125 16.59375 8.109375 
Q 21.484375 6.890625 26.8125 6.890625 
Q 36.078125 6.890625 40.9375 10.546875 
Q 45.796875 14.203125 45.796875 21.1875 
Q 45.796875 27.640625 41.28125 31.265625 
Q 36.765625 34.90625 28.71875 34.90625 
L 20.21875 34.90625 
L 20.21875 43.015625 
L 29.109375 43.015625 
Q 36.375 43.015625 40.234375 45.921875 
Q 44.09375 48.828125 44.09375 54.296875 
Q 44.09375 59.90625 40.109375 62.90625 
Q 36.140625 65.921875 28.71875 65.921875 
Q 24.65625 65.921875 20.015625 65.03125 
Q 15.375 64.15625 9.8125 62.3125 
L 9.8125 71.09375 
Q 15.4375 72.65625 20.34375 73.4375 
Q 25.25 74.21875 29.59375 74.21875 
Q 40.828125 74.21875 47.359375 69.109375 
Q 53.90625 64.015625 53.90625 55.328125 
Q 53.90625 49.265625 50.4375 45.09375 
Q 46.96875 40.921875 40.578125 39.3125 
z
" id="DejaVuSans-33"/>
       <path d="M 8.203125 72.90625 
L 55.078125 72.90625 
L 55.078125 68.703125 
L 28.609375 0 
L 18.3125 0 
L 43.21875 64.59375 
L 8.203125 64.59375 
z
" id="DejaVuSans-37"/>
      </defs>
      <g transform="translate(381.809678 531.789459)scale(0.08 -0.08)">
       <use xlink:href="#DejaVuSans-33"/>
       <use x="63.623047" xlink:href="#DejaVuSans-37"/>
      </g>
     </g>
    </g>
    <g id="xtick_6">
     <g id="line2d_11">
      <path clip-path="url(#pe5fa81cd0e)" d="M 461.73 522.210709 
L 461.73 5.669291 
" style="fill:none;opacity:0.1;stroke:#000000;stroke-linecap:square;stroke-width:0.5;"/>
     </g>
     <g id="line2d_12">
      <g>
       <use style="stroke:#000000;stroke-width:0.8;" x="461.73" xlink:href="#m574db37d3e" y="522.210709"/>
      </g>
     </g>
     <g id="text_6">
      <!-- 46 -->
      <defs>
       <path d="M 37.796875 64.3125 
L 12.890625 25.390625 
L 37.796875 25.390625 
z
M 35.203125 72.90625 
L 47.609375 72.90625 
L 47.609375 25.390625 
L 58.015625 25.390625 
L 58.015625 17.1875 
L 47.609375 17.1875 
L 47.609375 0 
L 37.796875 0 
L 37.796875 17.1875 
L 4.890625 17.1875 
L 4.890625 26.703125 
z
" id="DejaVuSans-34"/>
       <path d="M 33.015625 40.375 
Q 26.375 40.375 22.484375 35.828125 
Q 18.609375 31.296875 18.609375 23.390625 
Q 18.609375 15.53125 22.484375 10.953125 
Q 26.375 6.390625 33.015625 6.390625 
Q 39.65625 6.390625 43.53125 10.953125 
Q 47.40625 15.53125 47.40625 23.390625 
Q 47.40625 31.296875 43.53125 35.828125 
Q 39.65625 40.375 33.015625 40.375 
z
M 52.59375 71.296875 
L 52.59375 62.3125 
Q 48.875 64.0625 45.09375 64.984375 
Q 41.3125 65.921875 37.59375 65.921875 
Q 27.828125 65.921875 22.671875 59.328125 
Q 17.53125 52.734375 16.796875 39.40625 
Q 19.671875 43.65625 24.015625 45.921875 
Q 28.375 48.1875 33.59375 48.1875 
Q 44.578125 48.1875 50.953125 41.515625 
Q 57.328125 34.859375 57.328125 23.390625 
Q 57.328125 12.15625 50.6875 5.359375 
Q 44.046875 -1.421875 33.015625 -1.421875 
Q 20.359375 -1.421875 13.671875 8.265625 
Q 6.984375 17.96875 6.984375 36.375 
Q 6.984375 53.65625 15.1875 63.9375 
Q 23.390625 74.21875 37.203125 74.21875 
Q 40.921875 74.21875 44.703125 73.484375 
Q 48.484375 72.75 52.59375 71.296875 
z
" id="DejaVuSans-36"/>
      </defs>
      <g transform="translate(456.64 531.789459)scale(0.08 -0.08)">
       <use xlink:href="#DejaVuSans-34"/>
       <use x="63.623047" xlink:href="#DejaVuSans-36"/>
      </g>
     </g>
    </g>
    <g id="xtick_7">
     <g id="line2d_13">
      <path clip-path="url(#pe5fa81cd0e)" d="M 536.560322 522.210709 
L 536.560322 5.669291 
" style="fill:none;opacity:0.1;stroke:#000000;stroke-linecap:square;stroke-width:0.5;"/>
     </g>
     <g id="line2d_14">
      <g>
       <use style="stroke:#000000;stroke-width:0.8;" x="536.560322" xlink:href="#m574db37d3e" y="522.210709"/>
      </g>
     </g>
     <g id="text_7">
      <!-- 55 -->
      <defs>
       <path d="M 10.796875 72.90625 
L 49.515625 72.90625 
L 49.515625 64.59375 
L 19.828125 64.59375 
L 19.828125 46.734375 
Q 21.96875 47.46875 24.109375 47.828125 
Q 26.265625 48.1875 28.421875 48.1875 
Q 40.625 48.1875 47.75 41.5 
Q 54.890625 34.8125 54.890625 23.390625 
Q 54.890625 11.625 47.5625 5.09375 
Q 40.234375 -1.421875 26.90625 -1.421875 
Q 22.3125 -1.421875 17.546875 -0.640625 
Q 12.796875 0.140625 7.71875 1.703125 
L 7.71875 11.625 
Q 12.109375 9.234375 16.796875 8.0625 
Q 21.484375 6.890625 26.703125 6.890625 
Q 35.15625 6.890625 40.078125 11.328125 
Q 45.015625 15.765625 45.015625 23.390625 
Q 45.015625 31 40.078125 35.4375 
Q 35.15625 39.890625 26.703125 39.890625 
Q 22.75 39.890625 18.8125 39.015625 
Q 14.890625 38.140625 10.796875 36.28125 
z
" id="DejaVuSans-35"/>
      </defs>
      <g transform="translate(531.470322 531.789459)scale(0.08 -0.08)">
       <use xlink:href="#DejaVuSans-35"/>
       <use x="63.623047" xlink:href="#DejaVuSans-35"/>
      </g>
     </g>
    </g>
    <g id="xtick_8">
     <g id="line2d_15">
      <path clip-path="url(#pe5fa81cd0e)" d="M 611.390645 522.210709 
L 611.390645 5.669291 
" style="fill:none;opacity:0.1;stroke:#000000;stroke-linecap:square;stroke-width:0.5;"/>
     </g>
     <g id="line2d_16">
      <g>
       <use style="stroke:#000000;stroke-width:0.8;" x="611.390645" xlink:href="#m574db37d3e" y="522.210709"/>
      </g>
     </g>
     <g id="text_8">
      <!-- 64 -->
      <g transform="translate(606.300645 531.789459)scale(0.08 -0.08)">
       <use xlink:href="#DejaVuSans-36"/>
       <use x="63.623047" xlink:href="#DejaVuSans-34"/>
      </g>
     </g>
    </g>
    <g id="xtick_9">
     <g id="line2d_17">
      <path clip-path="url(#pe5fa81cd0e)" d="M 686.220967 522.210709 
L 686.220967 5.669291 
" style="fill:none;opacity:0.1;stroke:#000000;stroke-linecap:square;stroke-width:0.5;"/>
     </g>
     <g id="line2d_18">
      <g>
       <use style="stroke:#000000;stroke-width:0.8;" x="686.220967" xlink:href="#m574db37d3e" y="522.210709"/>
      </g>
     </g>
     <g id="text_9">
      <!-- 73 -->
      <g transform="translate(681.130967 531.789459)scale(0.08 -0.08)">
       <use xlink:href="#DejaVuSans-37"/>
       <use x="63.623047" xlink:href="#DejaVuSans-33"/>
      </g>
     </g>
    </g>
    <g id="xtick_10">
     <g id="line2d_19">
      <path clip-path="url(#pe5fa81cd0e)" d="M 761.05129 522.210709 
L 761.05129 5.669291 
" style="fill:none;opacity:0.1;stroke:#000000;stroke-linecap:square;stroke-width:0.5;"/>
     </g>
     <g id="line2d_20">
      <g>
       <use style="stroke:#000000;stroke-width:0.8;" x="761.05129" xlink:href="#m574db37d3e" y="522.210709"/>
      </g>
     </g>
     <g id="text_10">
      <!-- 82 -->
      <g transform="translate(755.96129 531.789459)scale(0.08 -0.08)">
       <use xlink:href="#DejaVuSans-38"/>
       <use x="63.623047" xlink:href="#DejaVuSans-32"/>
      </g>
     </g>
    </g>
    <g id="xtick_11">
     <g id="line2d_21">
      <path clip-path="url(#pe5fa81cd0e)" d="M 835.881612 522.210709 
L 835.881612 5.669291 
" style="fill:none;opacity:0.1;stroke:#000000;stroke-linecap:square;stroke-width:0.5;"/>
     </g>
     <g id="line2d_22">
      <g>
       <use style="stroke:#000000;stroke-width:0.8;" x="835.881612" xlink:href="#m574db37d3e" y="522.210709"/>
      </g>
     </g>
     <g id="text_11">
      <!-- 91 -->
      <g transform="translate(830.791612 531.789459)scale(0.08 -0.08)">
       <use xlink:href="#DejaVuSans-39"/>
       <use x="63.623047" xlink:href="#DejaVuSans-31"/>
      </g>
     </g>
    </g>
    <g id="text_12">
     <!-- # -->
     <defs>
      <path d="M 51.125 44 
L 36.921875 44 
L 32.8125 27.6875 
L 47.125 27.6875 
z
M 43.796875 71.78125 
L 38.71875 51.515625 
L 52.984375 51.515625 
L 58.109375 71.78125 
L 65.921875 71.78125 
L 60.890625 51.515625 
L 76.125 51.515625 
L 76.125 44 
L 58.984375 44 
L 54.984375 27.6875 
L 70.515625 27.6875 
L 70.515625 20.21875 
L 53.078125 20.21875 
L 48 0 
L 40.1875 0 
L 45.21875 20.21875 
L 30.90625 20.21875 
L 25.875 0 
L 18.015625 0 
L 23.09375 20.21875 
L 7.71875 20.21875 
L 7.71875 27.6875 
L 24.90625 27.6875 
L 29 44 
L 13.28125 44 
L 13.28125 51.515625 
L 30.90625 51.515625 
L 35.890625 71.78125 
z
" id="DejaVuSans-23"/>
     </defs>
     <g transform="translate(457.121172 545.81149)scale(0.11 -0.11)">
      <use xlink:href="#DejaVuSans-23"/>
     </g>
    </g>
   </g>
   <g id="matplotlib.axis_2">
    <g id="ytick_1">
     <g id="line2d_23">
      <path clip-path="url(#pe5fa81cd0e)" d="M 65.129291 507.591612 
L 858.330709 507.591612 
" style="fill:none;opacity:0.1;stroke:#000000;stroke-linecap:square;stroke-width:0.5;"/>
     </g>
     <g id="line2d_24">
      <defs>
       <path d="M 0 0 
L 3.5 0 
" id="mc5e102f334" style="stroke:#000000;stroke-width:0.8;"/>
      </defs>
      <g>
       <use style="stroke:#000000;stroke-width:0.8;" x="65.129291" xlink:href="#mc5e102f334" y="507.591612"/>
      </g>
     </g>
     <g id="text_13">
      <!-- 0.0 -->
      <defs>
       <path d="M 10.6875 12.40625 
L 21 12.40625 
L 21 0 
L 10.6875 0 
z
" id="DejaVuSans-2e"/>
      </defs>
      <g transform="translate(48.906791 510.630987)scale(0.08 -0.08)">
       <use xlink:href="#DejaVuSans-30"/>
       <use x="63.623047" xlink:href="#DejaVuSans-2e"/>
       <use x="95.410156" xlink:href="#DejaVuSans-30"/>
      </g>
     </g>
    </g>
    <g id="ytick_2">
     <g id="line2d_25">
      <path clip-path="url(#pe5fa81cd0e)" d="M 65.129291 458.86129 
L 858.330709 458.86129 
" style="fill:none;opacity:0.1;stroke:#000000;stroke-linecap:square;stroke-width:0.5;"/>
     </g>
     <g id="line2d_26">
      <g>
       <use style="stroke:#000000;stroke-width:0.8;" x="65.129291" xlink:href="#mc5e102f334" y="458.86129"/>
      </g>
     </g>
     <g id="text_14">
      <!-- 0.1 -->
      <g transform="translate(48.906791 461.900665)scale(0.08 -0.08)">
       <use xlink:href="#DejaVuSans-30"/>
       <use x="63.623047" xlink:href="#DejaVuSans-2e"/>
       <use x="95.410156" xlink:href="#DejaVuSans-31"/>
      </g>
     </g>
    </g>
    <g id="ytick_3">
     <g id="line2d_27">
      <path clip-path="url(#pe5fa81cd0e)" d="M 65.129291 410.130967 
L 858.330709 410.130967 
" style="fill:none;opacity:0.1;stroke:#000000;stroke-linecap:square;stroke-width:0.5;"/>
     </g>
     <g id="line2d_28">
      <g>
       <use style="stroke:#000000;stroke-width:0.8;" x="65.129291" xlink:href="#mc5e102f334" y="410.130967"/>
      </g>
     </g>
     <g id="text_15">
      <!-- 0.2 -->
      <g transform="translate(48.906791 413.170342)scale(0.08 -0.08)">
       <use xlink:href="#DejaVuSans-30"/>
       <use x="63.623047" xlink:href="#DejaVuSans-2e"/>
       <use x="95.410156" xlink:href="#DejaVuSans-32"/>
      </g>
     </g>
    </g>
    <g id="ytick_4">
     <g id="line2d_29">
      <path clip-path="url(#pe5fa81cd0e)" d="M 65.129291 361.400645 
L 858.330709 361.400645 
" style="fill:none;opacity:0.1;stroke:#000000;stroke-linecap:square;stroke-width:0.5;"/>
     </g>
     <g id="line2d_30">
      <g>
       <use style="stroke:#000000;stroke-width:0.8;" x="65.129291" xlink:href="#mc5e102f334" y="361.400645"/>
      </g>
     </g>
     <g id="text_16">
      <!-- 0.3 -->
      <g transform="translate(48.906791 364.44002)scale(0.08 -0.08)">
       <use xlink:href="#DejaVuSans-30"/>
       <use x="63.623047" xlink:href="#DejaVuSans-2e"/>
       <use x="95.410156" xlink:href="#DejaVuSans-33"/>
      </g>
     </g>
    </g>
    <g id="ytick_5">
     <g id="line2d_31">
      <path clip-path="url(#pe5fa81cd0e)" d="M 65.129291 312.670322 
L 858.330709 312.670322 
" style="fill:none;opacity:0.1;stroke:#000000;stroke-linecap:square;stroke-width:0.5;"/>
     </g>
     <g id="line2d_32">
      <g>
       <use style="stroke:#000000;stroke-width:0.8;" x="65.129291" xlink:href="#mc5e102f334" y="312.670322"/>
      </g>
     </g>
     <g id="text_17">
      <!-- 0.4 -->
      <g transform="translate(48.906791 315.709697)scale(0.08 -0.08)">
       <use xlink:href="#DejaVuSans-30"/>
       <use x="63.623047" xlink:href="#DejaVuSans-2e"/>
       <use x="95.410156" xlink:href="#DejaVuSans-34"/>
      </g>
     </g>
    </g>
    <g id="ytick_6">
     <g id="line2d_33">
      <path clip-path="url(#pe5fa81cd0e)" d="M 65.129291 263.94 
L 858.330709 263.94 
" style="fill:none;opacity:0.1;stroke:#000000;stroke-linecap:square;stroke-width:0.5;"/>
     </g>
     <g id="line2d_34">
      <g>
       <use style="stroke:#000000;stroke-width:0.8;" x="65.129291" xlink:href="#mc5e102f334" y="263.94"/>
      </g>
     </g>
     <g id="text_18">
      <!-- 0.5 -->
      <g transform="translate(48.906791 266.979375)scale(0.08 -0.08)">
       <use xlink:href="#DejaVuSans-30"/>
       <use x="63.623047" xlink:href="#DejaVuSans-2e"/>
       <use x="95.410156" xlink:href="#DejaVuSans-35"/>
      </g>
     </g>
    </g>
    <g id="ytick_7">
     <g id="line2d_35">
      <path clip-path="url(#pe5fa81cd0e)" d="M 65.129291 215.209678 
L 858.330709 215.209678 
" style="fill:none;opacity:0.1;stroke:#000000;stroke-linecap:square;stroke-width:0.5;"/>
     </g>
     <g id="line2d_36">
      <g>
       <use style="stroke:#000000;stroke-width:0.8;" x="65.129291" xlink:href="#mc5e102f334" y="215.209678"/>
      </g>
     </g>
     <g id="text_19">
      <!-- 0.6 -->
      <g transform="translate(48.906791 218.249053)scale(0.08 -0.08)">
       <use xlink:href="#DejaVuSans-30"/>
       <use x="63.623047" xlink:href="#DejaVuSans-2e"/>
       <use x="95.410156" xlink:href="#DejaVuSans-36"/>
      </g>
     </g>
    </g>
    <g id="ytick_8">
     <g id="line2d_37">
      <path clip-path="url(#pe5fa81cd0e)" d="M 65.129291 166.479355 
L 858.330709 166.479355 
" style="fill:none;opacity:0.1;stroke:#000000;stroke-linecap:square;stroke-width:0.5;"/>
     </g>
     <g id="line2d_38">
      <g>
       <use style="stroke:#000000;stroke-width:0.8;" x="65.129291" xlink:href="#mc5e102f334" y="166.479355"/>
      </g>
     </g>
     <g id="text_20">
      <!-- 0.7 -->
      <g transform="translate(48.906791 169.51873)scale(0.08 -0.08)">
       <use xlink:href="#DejaVuSans-30"/>
       <use x="63.623047" xlink:href="#DejaVuSans-2e"/>
       <use x="95.410156" xlink:href="#DejaVuSans-37"/>
      </g>
     </g>
    </g>
    <g id="ytick_9">
     <g id="line2d_39">
      <path clip-path="url(#pe5fa81cd0e)" d="M 65.129291 117.749033 
L 858.330709 117.749033 
" style="fill:none;opacity:0.1;stroke:#000000;stroke-linecap:square;stroke-width:0.5;"/>
     </g>
     <g id="line2d_40">
      <g>
       <use style="stroke:#000000;stroke-width:0.8;" x="65.129291" xlink:href="#mc5e102f334" y="117.749033"/>
      </g>
     </g>
     <g id="text_21">
      <!-- 0.8 -->
      <g transform="translate(48.906791 120.788408)scale(0.08 -0.08)">
       <use xlink:href="#DejaVuSans-30"/>
       <use x="63.623047" xlink:href="#DejaVuSans-2e"/>
       <use x="95.410156" xlink:href="#DejaVuSans-38"/>
      </g>
     </g>
    </g>
    <g id="ytick_10">
     <g id="line2d_41">
      <path clip-path="url(#pe5fa81cd0e)" d="M 65.129291 69.01871 
L 858.330709 69.01871 
" style="fill:none;opacity:0.1;stroke:#000000;stroke-linecap:square;stroke-width:0.5;"/>
     </g>
     <g id="line2d_42">
      <g>
       <use style="stroke:#000000;stroke-width:0.8;" x="65.129291" xlink:href="#mc5e102f334" y="69.01871"/>
      </g>
     </g>
     <g id="text_22">
      <!-- 0.9 -->
      <g transform="translate(48.906791 72.058085)scale(0.08 -0.08)">
       <use xlink:href="#DejaVuSans-30"/>
       <use x="63.623047" xlink:href="#DejaVuSans-2e"/>
       <use x="95.410156" xlink:href="#DejaVuSans-39"/>
      </g>
     </g>
    </g>
    <g id="ytick_11">
     <g id="line2d_43">
      <path clip-path="url(#pe5fa81cd0e)" d="M 65.129291 20.288388 
L 858.330709 20.288388 
" style="fill:none;opacity:0.1;stroke:#000000;stroke-linecap:square;stroke-width:0.5;"/>
     </g>
     <g id="line2d_44">
      <g>
       <use style="stroke:#000000;stroke-width:0.8;" x="65.129291" xlink:href="#mc5e102f334" y="20.288388"/>
      </g>
     </g>
     <g id="text_23">
      <!-- 1.0 -->
      <g transform="translate(48.906791 23.327763)scale(0.08 -0.08)">
       <use xlink:href="#DejaVuSans-31"/>
       <use x="63.623047" xlink:href="#DejaVuSans-2e"/>
       <use x="95.410156" xlink:href="#DejaVuSans-30"/>
      </g>
     </g>
    </g>
    <g id="text_24">
     <!-- x -->
     <defs>
      <path d="M 54.890625 54.6875 
L 35.109375 28.078125 
L 55.90625 0 
L 45.3125 0 
L 29.390625 21.484375 
L 13.484375 0 
L 2.875 0 
L 24.125 28.609375 
L 4.6875 54.6875 
L 15.28125 54.6875 
L 29.78125 35.203125 
L 44.28125 54.6875 
z
" id="DejaVuSans-78"/>
     </defs>
     <g transform="translate(42.619135 267.195312)rotate(-90)scale(0.11 -0.11)">
      <use xlink:href="#DejaVuSans-78"/>
     </g>
    </g>
   </g>
   <g id="line2d_45">
    <path clip-path="url(#pe5fa81cd0e)" d="M 87.578388 507.591612 
L 95.892868 505.631043 
L 104.207349 501.226795 
L 112.521829 494.871169 
L 120.836309 487.253499 
L 129.150789 479.199402 
L 137.46527 471.581732 
L 145.77975 465.226106 
L 154.09423 460.821859 
L 162.40871 458.86129 
L 170.723191 456.90072 
L 179.037671 452.496473 
L 187.352151 446.140847 
L 195.666632 438.523177 
L 203.981112 430.46908 
L 212.295592 422.85141 
L 220.610072 416.495784 
L 228.924553 412.091536 
L 237.239033 410.130967 
L 245.553513 408.170398 
L 253.867993 403.76615 
L 262.182474 397.410524 
L 270.496954 389.792854 
L 278.811434 381.738758 
L 287.125914 374.121088 
L 295.440395 367.765462 
L 303.754875 363.361214 
L 312.069355 361.400645 
L 320.383835 359.440075 
L 328.698316 355.035828 
L 337.012796 348.680202 
L 345.327276 341.062532 
L 353.641757 333.008435 
L 361.956237 325.390765 
L 370.270717 319.035139 
L 378.585197 314.630892 
L 386.899678 312.670322 
L 395.214158 310.709753 
L 403.528638 306.305506 
L 411.843118 299.94988 
L 420.157599 292.33221 
L 428.472079 284.278113 
L 436.786559 276.660443 
L 445.101039 270.304817 
L 453.41552 265.900569 
L 461.73 263.94 
L 470.04448 261.979431 
L 478.358961 257.575183 
L 486.673441 251.219557 
L 494.987921 243.601887 
L 503.302401 235.54779 
L 511.616882 227.93012 
L 519.931362 221.574494 
L 528.245842 217.170247 
L 536.560322 215.209678 
L 544.874803 213.249108 
L 553.189283 208.844861 
L 561.503763 202.489235 
L 569.818243 194.871565 
L 578.132724 186.817468 
L 586.447204 179.199798 
L 594.761684 172.844172 
L 603.076165 168.439925 
L 611.390645 166.479355 
L 619.705125 164.518786 
L 628.019605 160.114538 
L 636.334086 153.758912 
L 644.648566 146.141242 
L 652.963046 138.087146 
L 661.277526 130.469476 
L 669.592007 124.11385 
L 677.906487 119.709602 
L 686.220967 117.749033 
L 694.535447 115.788464 
L 702.849928 111.384216 
L 711.164408 105.02859 
L 719.478888 97.41092 
L 727.793368 89.356823 
L 736.107849 81.739153 
L 744.422329 75.383527 
L 752.736809 70.97928 
L 761.05129 69.01871 
L 769.36577 67.058141 
L 777.68025 62.653894 
L 785.99473 56.298268 
L 794.309211 48.680598 
L 802.623691 40.626501 
L 810.938171 33.008831 
L 819.252651 26.653205 
L 827.567132 22.248957 
L 835.881612 20.288388 
" style="fill:none;stroke:#009afa;stroke-linecap:round;"/>
   </g>
   <g id="PathCollection_1">
    <defs>
     <path d="M 0 2 
C 0.530406 2 1.03916 1.789267 1.414214 1.414214 
C 1.789267 1.03916 2 0.530406 2 0 
C 2 -0.530406 1.789267 -1.03916 1.414214 -1.414214 
C 1.03916 -1.789267 0.530406 -2 0 -2 
C -0.530406 -2 -1.03916 -1.789267 -1.414214 -1.414214 
C -1.789267 -1.03916 -2 -0.530406 -2 0 
C -2 0.530406 -1.789267 1.03916 -1.414214 1.414214 
C -1.03916 1.789267 -0.530406 2 0 2 
z
" id="m47f5923ff4" style="stroke:#000000;"/>
    </defs>
    <g clip-path="url(#pe5fa81cd0e)">
     <use style="fill:#009afa;stroke:#000000;" x="87.578388" xlink:href="#m47f5923ff4" y="507.591612"/>
     <use style="fill:#009afa;stroke:#000000;" x="95.892868" xlink:href="#m47f5923ff4" y="505.631043"/>
     <use style="fill:#009afa;stroke:#000000;" x="104.207349" xlink:href="#m47f5923ff4" y="501.226795"/>
     <use style="fill:#009afa;stroke:#000000;" x="112.521829" xlink:href="#m47f5923ff4" y="494.871169"/>
     <use style="fill:#009afa;stroke:#000000;" x="120.836309" xlink:href="#m47f5923ff4" y="487.253499"/>
     <use style="fill:#009afa;stroke:#000000;" x="129.150789" xlink:href="#m47f5923ff4" y="479.199402"/>
     <use style="fill:#009afa;stroke:#000000;" x="137.46527" xlink:href="#m47f5923ff4" y="471.581732"/>
     <use style="fill:#009afa;stroke:#000000;" x="145.77975" xlink:href="#m47f5923ff4" y="465.226106"/>
     <use style="fill:#009afa;stroke:#000000;" x="154.09423" xlink:href="#m47f5923ff4" y="460.821859"/>
     <use style="fill:#009afa;stroke:#000000;" x="162.40871" xlink:href="#m47f5923ff4" y="458.86129"/>
     <use style="fill:#009afa;stroke:#000000;" x="170.723191" xlink:href="#m47f5923ff4" y="456.90072"/>
     <use style="fill:#009afa;stroke:#000000;" x="179.037671" xlink:href="#m47f5923ff4" y="452.496473"/>
     <use style="fill:#009afa;stroke:#000000;" x="187.352151" xlink:href="#m47f5923ff4" y="446.140847"/>
     <use style="fill:#009afa;stroke:#000000;" x="195.666632" xlink:href="#m47f5923ff4" y="438.523177"/>
     <use style="fill:#009afa;stroke:#000000;" x="203.981112" xlink:href="#m47f5923ff4" y="430.46908"/>
     <use style="fill:#009afa;stroke:#000000;" x="212.295592" xlink:href="#m47f5923ff4" y="422.85141"/>
     <use style="fill:#009afa;stroke:#000000;" x="220.610072" xlink:href="#m47f5923ff4" y="416.495784"/>
     <use style="fill:#009afa;stroke:#000000;" x="228.924553" xlink:href="#m47f5923ff4" y="412.091536"/>
     <use style="fill:#009afa;stroke:#000000;" x="237.239033" xlink:href="#m47f5923ff4" y="410.130967"/>
     <use style="fill:#009afa;stroke:#000000;" x="245.553513" xlink:href="#m47f5923ff4" y="408.170398"/>
     <use style="fill:#009afa;stroke:#000000;" x="253.867993" xlink:href="#m47f5923ff4" y="403.76615"/>
     <use style="fill:#009afa;stroke:#000000;" x="262.182474" xlink:href="#m47f5923ff4" y="397.410524"/>
     <use style="fill:#009afa;stroke:#000000;" x="270.496954" xlink:href="#m47f5923ff4" y="389.792854"/>
     <use style="fill:#009afa;stroke:#000000;" x="278.811434" xlink:href="#m47f5923ff4" y="381.738758"/>
     <use style="fill:#009afa;stroke:#000000;" x="287.125914" xlink:href="#m47f5923ff4" y="374.121088"/>
     <use style="fill:#009afa;stroke:#000000;" x="295.440395" xlink:href="#m47f5923ff4" y="367.765462"/>
     <use style="fill:#009afa;stroke:#000000;" x="303.754875" xlink:href="#m47f5923ff4" y="363.361214"/>
     <use style="fill:#009afa;stroke:#000000;" x="312.069355" xlink:href="#m47f5923ff4" y="361.400645"/>
     <use style="fill:#009afa;stroke:#000000;" x="320.383835" xlink:href="#m47f5923ff4" y="359.440075"/>
     <use style="fill:#009afa;stroke:#000000;" x="328.698316" xlink:href="#m47f5923ff4" y="355.035828"/>
     <use style="fill:#009afa;stroke:#000000;" x="337.012796" xlink:href="#m47f5923ff4" y="348.680202"/>
     <use style="fill:#009afa;stroke:#000000;" x="345.327276" xlink:href="#m47f5923ff4" y="341.062532"/>
     <use style="fill:#009afa;stroke:#000000;" x="353.641757" xlink:href="#m47f5923ff4" y="333.008435"/>
     <use style="fill:#009afa;stroke:#000000;" x="361.956237" xlink:href="#m47f5923ff4" y="325.390765"/>
     <use style="fill:#009afa;stroke:#000000;" x="370.270717" xlink:href="#m47f5923ff4" y="319.035139"/>
     <use style="fill:#009afa;stroke:#000000;" x="378.585197" xlink:href="#m47f5923ff4" y="314.630892"/>
     <use style="fill:#009afa;stroke:#000000;" x="386.899678" xlink:href="#m47f5923ff4" y="312.670322"/>
     <use style="fill:#009afa;stroke:#000000;" x="395.214158" xlink:href="#m47f5923ff4" y="310.709753"/>
     <use style="fill:#009afa;stroke:#000000;" x="403.528638" xlink:href="#m47f5923ff4" y="306.305506"/>
     <use style="fill:#009afa;stroke:#000000;" x="411.843118" xlink:href="#m47f5923ff4" y="299.94988"/>
     <use style="fill:#009afa;stroke:#000000;" x="420.157599" xlink:href="#m47f5923ff4" y="292.33221"/>
     <use style="fill:#009afa;stroke:#000000;" x="428.472079" xlink:href="#m47f5923ff4" y="284.278113"/>
     <use style="fill:#009afa;stroke:#000000;" x="436.786559" xlink:href="#m47f5923ff4" y="276.660443"/>
     <use style="fill:#009afa;stroke:#000000;" x="445.101039" xlink:href="#m47f5923ff4" y="270.304817"/>
     <use style="fill:#009afa;stroke:#000000;" x="453.41552" xlink:href="#m47f5923ff4" y="265.900569"/>
     <use style="fill:#009afa;stroke:#000000;" x="461.73" xlink:href="#m47f5923ff4" y="263.94"/>
     <use style="fill:#009afa;stroke:#000000;" x="470.04448" xlink:href="#m47f5923ff4" y="261.979431"/>
     <use style="fill:#009afa;stroke:#000000;" x="478.358961" xlink:href="#m47f5923ff4" y="257.575183"/>
     <use style="fill:#009afa;stroke:#000000;" x="486.673441" xlink:href="#m47f5923ff4" y="251.219557"/>
     <use style="fill:#009afa;stroke:#000000;" x="494.987921" xlink:href="#m47f5923ff4" y="243.601887"/>
     <use style="fill:#009afa;stroke:#000000;" x="503.302401" xlink:href="#m47f5923ff4" y="235.54779"/>
     <use style="fill:#009afa;stroke:#000000;" x="511.616882" xlink:href="#m47f5923ff4" y="227.93012"/>
     <use style="fill:#009afa;stroke:#000000;" x="519.931362" xlink:href="#m47f5923ff4" y="221.574494"/>
     <use style="fill:#009afa;stroke:#000000;" x="528.245842" xlink:href="#m47f5923ff4" y="217.170247"/>
     <use style="fill:#009afa;stroke:#000000;" x="536.560322" xlink:href="#m47f5923ff4" y="215.209678"/>
     <use style="fill:#009afa;stroke:#000000;" x="544.874803" xlink:href="#m47f5923ff4" y="213.249108"/>
     <use style="fill:#009afa;stroke:#000000;" x="553.189283" xlink:href="#m47f5923ff4" y="208.844861"/>
     <use style="fill:#009afa;stroke:#000000;" x="561.503763" xlink:href="#m47f5923ff4" y="202.489235"/>
     <use style="fill:#009afa;stroke:#000000;" x="569.818243" xlink:href="#m47f5923ff4" y="194.871565"/>
     <use style="fill:#009afa;stroke:#000000;" x="578.132724" xlink:href="#m47f5923ff4" y="186.817468"/>
     <use style="fill:#009afa;stroke:#000000;" x="586.447204" xlink:href="#m47f5923ff4" y="179.199798"/>
     <use style="fill:#009afa;stroke:#000000;" x="594.761684" xlink:href="#m47f5923ff4" y="172.844172"/>
     <use style="fill:#009afa;stroke:#000000;" x="603.076165" xlink:href="#m47f5923ff4" y="168.439925"/>
     <use style="fill:#009afa;stroke:#000000;" x="611.390645" xlink:href="#m47f5923ff4" y="166.479355"/>
     <use style="fill:#009afa;stroke:#000000;" x="619.705125" xlink:href="#m47f5923ff4" y="164.518786"/>
     <use style="fill:#009afa;stroke:#000000;" x="628.019605" xlink:href="#m47f5923ff4" y="160.114538"/>
     <use style="fill:#009afa;stroke:#000000;" x="636.334086" xlink:href="#m47f5923ff4" y="153.758912"/>
     <use style="fill:#009afa;stroke:#000000;" x="644.648566" xlink:href="#m47f5923ff4" y="146.141242"/>
     <use style="fill:#009afa;stroke:#000000;" x="652.963046" xlink:href="#m47f5923ff4" y="138.087146"/>
     <use style="fill:#009afa;stroke:#000000;" x="661.277526" xlink:href="#m47f5923ff4" y="130.469476"/>
     <use style="fill:#009afa;stroke:#000000;" x="669.592007" xlink:href="#m47f5923ff4" y="124.11385"/>
     <use style="fill:#009afa;stroke:#000000;" x="677.906487" xlink:href="#m47f5923ff4" y="119.709602"/>
     <use style="fill:#009afa;stroke:#000000;" x="686.220967" xlink:href="#m47f5923ff4" y="117.749033"/>
     <use style="fill:#009afa;stroke:#000000;" x="694.535447" xlink:href="#m47f5923ff4" y="115.788464"/>
     <use style="fill:#009afa;stroke:#000000;" x="702.849928" xlink:href="#m47f5923ff4" y="111.384216"/>
     <use style="fill:#009afa;stroke:#000000;" x="711.164408" xlink:href="#m47f5923ff4" y="105.02859"/>
     <use style="fill:#009afa;stroke:#000000;" x="719.478888" xlink:href="#m47f5923ff4" y="97.41092"/>
     <use style="fill:#009afa;stroke:#000000;" x="727.793368" xlink:href="#m47f5923ff4" y="89.356823"/>
     <use style="fill:#009afa;stroke:#000000;" x="736.107849" xlink:href="#m47f5923ff4" y="81.739153"/>
     <use style="fill:#009afa;stroke:#000000;" x="744.422329" xlink:href="#m47f5923ff4" y="75.383527"/>
     <use style="fill:#009afa;stroke:#000000;" x="752.736809" xlink:href="#m47f5923ff4" y="70.97928"/>
     <use style="fill:#009afa;stroke:#000000;" x="761.05129" xlink:href="#m47f5923ff4" y="69.01871"/>
     <use style="fill:#009afa;stroke:#000000;" x="769.36577" xlink:href="#m47f5923ff4" y="67.058141"/>
     <use style="fill:#009afa;stroke:#000000;" x="777.68025" xlink:href="#m47f5923ff4" y="62.653894"/>
     <use style="fill:#009afa;stroke:#000000;" x="785.99473" xlink:href="#m47f5923ff4" y="56.298268"/>
     <use style="fill:#009afa;stroke:#000000;" x="794.309211" xlink:href="#m47f5923ff4" y="48.680598"/>
     <use style="fill:#009afa;stroke:#000000;" x="802.623691" xlink:href="#m47f5923ff4" y="40.626501"/>
     <use style="fill:#009afa;stroke:#000000;" x="810.938171" xlink:href="#m47f5923ff4" y="33.008831"/>
     <use style="fill:#009afa;stroke:#000000;" x="819.252651" xlink:href="#m47f5923ff4" y="26.653205"/>
     <use style="fill:#009afa;stroke:#000000;" x="827.567132" xlink:href="#m47f5923ff4" y="22.248957"/>
     <use style="fill:#009afa;stroke:#000000;" x="835.881612" xlink:href="#m47f5923ff4" y="20.288388"/>
    </g>
   </g>
   <g id="patch_3">
    <path d="M 65.129291 522.210709 
L 65.129291 5.669291 
" style="fill:none;stroke:#000000;stroke-linecap:square;stroke-linejoin:miter;stroke-width:0.8;"/>
   </g>
   <g id="patch_4">
    <path d="M 65.129291 522.210709 
L 858.330709 522.210709 
" style="fill:none;stroke:#000000;stroke-linecap:square;stroke-linejoin:miter;stroke-width:0.8;"/>
   </g>
   <g id="legend_1">
    <g id="patch_5">
     <path d="M 70.729291 23.811791 
L 179.839291 23.811791 
Q 181.439291 23.811791 181.439291 22.211791 
L 181.439291 11.269291 
Q 181.439291 9.669291 179.839291 9.669291 
L 70.729291 9.669291 
Q 69.129291 9.669291 69.129291 11.269291 
L 69.129291 22.211791 
Q 69.129291 23.811791 70.729291 23.811791 
z
" style="fill:#ffffff;opacity:0.8;stroke:#000000;stroke-linejoin:miter;"/>
    </g>
    <g id="line2d_46">
     <path d="M 72.329291 16.148041 
L 88.329291 16.148041 
" style="fill:none;stroke:#009afa;stroke-linecap:square;"/>
    </g>
    <g id="line2d_47">
     <defs>
      <path d="M 0 3 
C 0.795609 3 1.55874 2.683901 2.12132 2.12132 
C 2.683901 1.55874 3 0.795609 3 0 
C 3 -0.795609 2.683901 -1.55874 2.12132 -2.12132 
C 1.55874 -2.683901 0.795609 -3 0 -3 
C -0.795609 -3 -1.55874 -2.683901 -2.12132 -2.12132 
C -2.683901 -1.55874 -3 -0.795609 -3 0 
C -3 0.795609 -2.683901 1.55874 -2.12132 2.12132 
C -1.55874 2.683901 -0.795609 3 0 3 
z
" id="m21264f7b0b" style="stroke:#000000;"/>
     </defs>
     <g>
      <use style="fill:#009afa;stroke:#000000;" x="80.329291" xlink:href="#m21264f7b0b" y="16.148041"/>
     </g>
    </g>
    <g id="text_25">
     <!-- FEDVR grid locations -->
     <defs>
      <path d="M 9.8125 72.90625 
L 51.703125 72.90625 
L 51.703125 64.59375 
L 19.671875 64.59375 
L 19.671875 43.109375 
L 48.578125 43.109375 
L 48.578125 34.8125 
L 19.671875 34.8125 
L 19.671875 0 
L 9.8125 0 
z
" id="DejaVuSans-46"/>
      <path d="M 9.8125 72.90625 
L 55.90625 72.90625 
L 55.90625 64.59375 
L 19.671875 64.59375 
L 19.671875 43.015625 
L 54.390625 43.015625 
L 54.390625 34.71875 
L 19.671875 34.71875 
L 19.671875 8.296875 
L 56.78125 8.296875 
L 56.78125 0 
L 9.8125 0 
z
" id="DejaVuSans-45"/>
      <path d="M 19.671875 64.796875 
L 19.671875 8.109375 
L 31.59375 8.109375 
Q 46.6875 8.109375 53.6875 14.9375 
Q 60.6875 21.78125 60.6875 36.53125 
Q 60.6875 51.171875 53.6875 57.984375 
Q 46.6875 64.796875 31.59375 64.796875 
z
M 9.8125 72.90625 
L 30.078125 72.90625 
Q 51.265625 72.90625 61.171875 64.09375 
Q 71.09375 55.28125 71.09375 36.53125 
Q 71.09375 17.671875 61.125 8.828125 
Q 51.171875 0 30.078125 0 
L 9.8125 0 
z
" id="DejaVuSans-44"/>
      <path d="M 28.609375 0 
L 0.78125 72.90625 
L 11.078125 72.90625 
L 34.1875 11.53125 
L 57.328125 72.90625 
L 67.578125 72.90625 
L 39.796875 0 
z
" id="DejaVuSans-56"/>
      <path d="M 44.390625 34.1875 
Q 47.5625 33.109375 50.5625 29.59375 
Q 53.5625 26.078125 56.59375 19.921875 
L 66.609375 0 
L 56 0 
L 46.6875 18.703125 
Q 43.0625 26.03125 39.671875 28.421875 
Q 36.28125 30.8125 30.421875 30.8125 
L 19.671875 30.8125 
L 19.671875 0 
L 9.8125 0 
L 9.8125 72.90625 
L 32.078125 72.90625 
Q 44.578125 72.90625 50.734375 67.671875 
Q 56.890625 62.453125 56.890625 51.90625 
Q 56.890625 45.015625 53.6875 40.46875 
Q 50.484375 35.9375 44.390625 34.1875 
z
M 19.671875 64.796875 
L 19.671875 38.921875 
L 32.078125 38.921875 
Q 39.203125 38.921875 42.84375 42.21875 
Q 46.484375 45.515625 46.484375 51.90625 
Q 46.484375 58.296875 42.84375 61.546875 
Q 39.203125 64.796875 32.078125 64.796875 
z
" id="DejaVuSans-52"/>
      <path id="DejaVuSans-20"/>
      <path d="M 45.40625 27.984375 
Q 45.40625 37.75 41.375 43.109375 
Q 37.359375 48.484375 30.078125 48.484375 
Q 22.859375 48.484375 18.828125 43.109375 
Q 14.796875 37.75 14.796875 27.984375 
Q 14.796875 18.265625 18.828125 12.890625 
Q 22.859375 7.515625 30.078125 7.515625 
Q 37.359375 7.515625 41.375 12.890625 
Q 45.40625 18.265625 45.40625 27.984375 
z
M 54.390625 6.78125 
Q 54.390625 -7.171875 48.1875 -13.984375 
Q 42 -20.796875 29.203125 -20.796875 
Q 24.46875 -20.796875 20.265625 -20.09375 
Q 16.0625 -19.390625 12.109375 -17.921875 
L 12.109375 -9.1875 
Q 16.0625 -11.328125 19.921875 -12.34375 
Q 23.78125 -13.375 27.78125 -13.375 
Q 36.625 -13.375 41.015625 -8.765625 
Q 45.40625 -4.15625 45.40625 5.171875 
L 45.40625 9.625 
Q 42.625 4.78125 38.28125 2.390625 
Q 33.9375 0 27.875 0 
Q 17.828125 0 11.671875 7.65625 
Q 5.515625 15.328125 5.515625 27.984375 
Q 5.515625 40.671875 11.671875 48.328125 
Q 17.828125 56 27.875 56 
Q 33.9375 56 38.28125 53.609375 
Q 42.625 51.21875 45.40625 46.390625 
L 45.40625 54.6875 
L 54.390625 54.6875 
z
" id="DejaVuSans-67"/>
      <path d="M 41.109375 46.296875 
Q 39.59375 47.171875 37.8125 47.578125 
Q 36.03125 48 33.890625 48 
Q 26.265625 48 22.1875 43.046875 
Q 18.109375 38.09375 18.109375 28.8125 
L 18.109375 0 
L 9.078125 0 
L 9.078125 54.6875 
L 18.109375 54.6875 
L 18.109375 46.1875 
Q 20.953125 51.171875 25.484375 53.578125 
Q 30.03125 56 36.53125 56 
Q 37.453125 56 38.578125 55.875 
Q 39.703125 55.765625 41.0625 55.515625 
z
" id="DejaVuSans-72"/>
      <path d="M 9.421875 54.6875 
L 18.40625 54.6875 
L 18.40625 0 
L 9.421875 0 
z
M 9.421875 75.984375 
L 18.40625 75.984375 
L 18.40625 64.59375 
L 9.421875 64.59375 
z
" id="DejaVuSans-69"/>
      <path d="M 45.40625 46.390625 
L 45.40625 75.984375 
L 54.390625 75.984375 
L 54.390625 0 
L 45.40625 0 
L 45.40625 8.203125 
Q 42.578125 3.328125 38.25 0.953125 
Q 33.9375 -1.421875 27.875 -1.421875 
Q 17.96875 -1.421875 11.734375 6.484375 
Q 5.515625 14.40625 5.515625 27.296875 
Q 5.515625 40.1875 11.734375 48.09375 
Q 17.96875 56 27.875 56 
Q 33.9375 56 38.25 53.625 
Q 42.578125 51.265625 45.40625 46.390625 
z
M 14.796875 27.296875 
Q 14.796875 17.390625 18.875 11.75 
Q 22.953125 6.109375 30.078125 6.109375 
Q 37.203125 6.109375 41.296875 11.75 
Q 45.40625 17.390625 45.40625 27.296875 
Q 45.40625 37.203125 41.296875 42.84375 
Q 37.203125 48.484375 30.078125 48.484375 
Q 22.953125 48.484375 18.875 42.84375 
Q 14.796875 37.203125 14.796875 27.296875 
z
" id="DejaVuSans-64"/>
      <path d="M 9.421875 75.984375 
L 18.40625 75.984375 
L 18.40625 0 
L 9.421875 0 
z
" id="DejaVuSans-6c"/>
      <path d="M 30.609375 48.390625 
Q 23.390625 48.390625 19.1875 42.75 
Q 14.984375 37.109375 14.984375 27.296875 
Q 14.984375 17.484375 19.15625 11.84375 
Q 23.34375 6.203125 30.609375 6.203125 
Q 37.796875 6.203125 41.984375 11.859375 
Q 46.1875 17.53125 46.1875 27.296875 
Q 46.1875 37.015625 41.984375 42.703125 
Q 37.796875 48.390625 30.609375 48.390625 
z
M 30.609375 56 
Q 42.328125 56 49.015625 48.375 
Q 55.71875 40.765625 55.71875 27.296875 
Q 55.71875 13.875 49.015625 6.21875 
Q 42.328125 -1.421875 30.609375 -1.421875 
Q 18.84375 -1.421875 12.171875 6.21875 
Q 5.515625 13.875 5.515625 27.296875 
Q 5.515625 40.765625 12.171875 48.375 
Q 18.84375 56 30.609375 56 
z
" id="DejaVuSans-6f"/>
      <path d="M 48.78125 52.59375 
L 48.78125 44.1875 
Q 44.96875 46.296875 41.140625 47.34375 
Q 37.3125 48.390625 33.40625 48.390625 
Q 24.65625 48.390625 19.8125 42.84375 
Q 14.984375 37.3125 14.984375 27.296875 
Q 14.984375 17.28125 19.8125 11.734375 
Q 24.65625 6.203125 33.40625 6.203125 
Q 37.3125 6.203125 41.140625 7.25 
Q 44.96875 8.296875 48.78125 10.40625 
L 48.78125 2.09375 
Q 45.015625 0.34375 40.984375 -0.53125 
Q 36.96875 -1.421875 32.421875 -1.421875 
Q 20.0625 -1.421875 12.78125 6.34375 
Q 5.515625 14.109375 5.515625 27.296875 
Q 5.515625 40.671875 12.859375 48.328125 
Q 20.21875 56 33.015625 56 
Q 37.15625 56 41.109375 55.140625 
Q 45.0625 54.296875 48.78125 52.59375 
z
" id="DejaVuSans-63"/>
      <path d="M 34.28125 27.484375 
Q 23.390625 27.484375 19.1875 25 
Q 14.984375 22.515625 14.984375 16.5 
Q 14.984375 11.71875 18.140625 8.90625 
Q 21.296875 6.109375 26.703125 6.109375 
Q 34.1875 6.109375 38.703125 11.40625 
Q 43.21875 16.703125 43.21875 25.484375 
L 43.21875 27.484375 
z
M 52.203125 31.203125 
L 52.203125 0 
L 43.21875 0 
L 43.21875 8.296875 
Q 40.140625 3.328125 35.546875 0.953125 
Q 30.953125 -1.421875 24.3125 -1.421875 
Q 15.921875 -1.421875 10.953125 3.296875 
Q 6 8.015625 6 15.921875 
Q 6 25.140625 12.171875 29.828125 
Q 18.359375 34.515625 30.609375 34.515625 
L 43.21875 34.515625 
L 43.21875 35.40625 
Q 43.21875 41.609375 39.140625 45 
Q 35.0625 48.390625 27.6875 48.390625 
Q 23 48.390625 18.546875 47.265625 
Q 14.109375 46.140625 10.015625 43.890625 
L 10.015625 52.203125 
Q 14.9375 54.109375 19.578125 55.046875 
Q 24.21875 56 28.609375 56 
Q 40.484375 56 46.34375 49.84375 
Q 52.203125 43.703125 52.203125 31.203125 
z
" id="DejaVuSans-61"/>
      <path d="M 18.3125 70.21875 
L 18.3125 54.6875 
L 36.8125 54.6875 
L 36.8125 47.703125 
L 18.3125 47.703125 
L 18.3125 18.015625 
Q 18.3125 11.328125 20.140625 9.421875 
Q 21.96875 7.515625 27.59375 7.515625 
L 36.8125 7.515625 
L 36.8125 0 
L 27.59375 0 
Q 17.1875 0 13.234375 3.875 
Q 9.28125 7.765625 9.28125 18.015625 
L 9.28125 47.703125 
L 2.6875 47.703125 
L 2.6875 54.6875 
L 9.28125 54.6875 
L 9.28125 70.21875 
z
" id="DejaVuSans-74"/>
      <path d="M 54.890625 33.015625 
L 54.890625 0 
L 45.90625 0 
L 45.90625 32.71875 
Q 45.90625 40.484375 42.875 44.328125 
Q 39.84375 48.1875 33.796875 48.1875 
Q 26.515625 48.1875 22.3125 43.546875 
Q 18.109375 38.921875 18.109375 30.90625 
L 18.109375 0 
L 9.078125 0 
L 9.078125 54.6875 
L 18.109375 54.6875 
L 18.109375 46.1875 
Q 21.34375 51.125 25.703125 53.5625 
Q 30.078125 56 35.796875 56 
Q 45.21875 56 50.046875 50.171875 
Q 54.890625 44.34375 54.890625 33.015625 
z
" id="DejaVuSans-6e"/>
      <path d="M 44.28125 53.078125 
L 44.28125 44.578125 
Q 40.484375 46.53125 36.375 47.5 
Q 32.28125 48.484375 27.875 48.484375 
Q 21.1875 48.484375 17.84375 46.4375 
Q 14.5 44.390625 14.5 40.28125 
Q 14.5 37.15625 16.890625 35.375 
Q 19.28125 33.59375 26.515625 31.984375 
L 29.59375 31.296875 
Q 39.15625 29.25 43.1875 25.515625 
Q 47.21875 21.78125 47.21875 15.09375 
Q 47.21875 7.46875 41.1875 3.015625 
Q 35.15625 -1.421875 24.609375 -1.421875 
Q 20.21875 -1.421875 15.453125 -0.5625 
Q 10.6875 0.296875 5.421875 2 
L 5.421875 11.28125 
Q 10.40625 8.6875 15.234375 7.390625 
Q 20.0625 6.109375 24.8125 6.109375 
Q 31.15625 6.109375 34.5625 8.28125 
Q 37.984375 10.453125 37.984375 14.40625 
Q 37.984375 18.0625 35.515625 20.015625 
Q 33.0625 21.96875 24.703125 23.78125 
L 21.578125 24.515625 
Q 13.234375 26.265625 9.515625 29.90625 
Q 5.8125 33.546875 5.8125 39.890625 
Q 5.8125 47.609375 11.28125 51.796875 
Q 16.75 56 26.8125 56 
Q 31.78125 56 36.171875 55.265625 
Q 40.578125 54.546875 44.28125 53.078125 
z
" id="DejaVuSans-73"/>
     </defs>
     <g transform="translate(94.729291 18.948041)scale(0.08 -0.08)">
      <use xlink:href="#DejaVuSans-46"/>
      <use x="57.519531" xlink:href="#DejaVuSans-45"/>
      <use x="120.703125" xlink:href="#DejaVuSans-44"/>
      <use x="197.689453" xlink:href="#DejaVuSans-56"/>
      <use x="266.097656" xlink:href="#DejaVuSans-52"/>
      <use x="335.580078" xlink:href="#DejaVuSans-20"/>
      <use x="367.367188" xlink:href="#DejaVuSans-67"/>
      <use x="430.84375" xlink:href="#DejaVuSans-72"/>
      <use x="471.957031" xlink:href="#DejaVuSans-69"/>
      <use x="499.740234" xlink:href="#DejaVuSans-64"/>
      <use x="563.216797" xlink:href="#DejaVuSans-20"/>
      <use x="595.003906" xlink:href="#DejaVuSans-6c"/>
      <use x="622.787109" xlink:href="#DejaVuSans-6f"/>
      <use x="683.96875" xlink:href="#DejaVuSans-63"/>
      <use x="738.949219" xlink:href="#DejaVuSans-61"/>
      <use x="800.228516" xlink:href="#DejaVuSans-74"/>
      <use x="839.4375" xlink:href="#DejaVuSans-69"/>
      <use x="867.220703" xlink:href="#DejaVuSans-6f"/>
      <use x="928.402344" xlink:href="#DejaVuSans-6e"/>
      <use x="991.78125" xlink:href="#DejaVuSans-73"/>
     </g>
    </g>
   </g>
  </g>
 </g>
 <defs>
  <clipPath id="pe5fa81cd0e">
   <rect height="516.541417" width="793.201417" x="65.129291" y="5.669291"/>
  </clipPath>
 </defs>
</svg>
